<svg width="187" height="16" viewBox="0 0 187 16" fill="none" xmlns="http://www.w3.org/2000/svg">
<path d="M9.0154 9.64089C8.93192 9.73291 9.28437 9.75676 9.37712 9.85559L8.88553 9.91011C8.46561 9.81099 8.15628 9.65986 8.01364 9.48413L7.52205 9.64089L7.33653 9.21491H6.00091L5.25887 9.48413C5.20655 9.42879 5.14139 9.3752 5.06409 9.32396C4.89714 9.23195 4.70236 9.14334 4.48903 9.0377L4.09945 9.33759H3.64497L3.38526 9.06837L2.62468 9.05474L1.1499 8.564L1.19627 8.38679C1.75739 8.35407 2.32652 8.34379 2.89367 8.35612L3.37598 8.51629L3.58004 8.12098C3.8583 8.02896 4.20148 8.10053 4.50757 8.07327L4.91569 7.94377L5.40728 8.09031L5.57423 7.67114C6.24205 7.74952 6.39975 8.02897 7.06757 8.07668C7.26235 8.20277 7.26235 8.20277 7.7354 8.18573C7.7354 8.16869 7.84669 8.15165 7.84669 8.13461C7.84669 7.89947 7.84669 7.66773 7.84669 7.45303L7.44786 7.29286C7.44786 7.18722 7.44785 7.0918 7.86524 7.09521C8.28263 7.09861 8.73711 7.31672 9.13595 7.63025C9.31218 7.64729 9.4977 7.66091 9.66465 7.68136C9.83161 7.70181 9.76668 7.71203 9.80378 7.72567V7.8722L10.3603 8.06986C10.8612 7.98807 10.9446 7.80064 11.1951 7.6541C11.4455 7.50756 12.0299 7.49734 12.4194 7.39851L12.6977 7.50074C13.0501 7.47007 13.0038 7.36102 12.9017 7.29968C12.7997 7.23834 12.4194 7.14291 12.6142 7.00319C13.013 6.90096 13.4861 6.97252 13.9128 6.95548L14.3301 6.81576C14.729 6.75782 14.8681 6.90777 15.1278 6.93844L15.638 6.7885L16.3058 6.93504L16.7974 6.77146C16.7974 6.73738 16.7417 6.69307 16.6675 6.67263C16.0806 6.50901 15.3861 6.40553 14.6548 6.37274C14.358 6.2262 14.5806 6.05921 14.5064 5.89222L13.7365 5.75932V5.61278C14.3116 5.35718 15.267 5.32652 15.9255 5.11523H18.2536L18.6153 4.98573H21.3979L21.7411 4.86304C22.3347 4.78466 23.0026 4.91075 23.6426 4.76081C23.0707 4.69423 22.4667 4.67331 21.871 4.69947C21.2866 4.69947 20.693 4.69947 20.1087 4.69947H16.7046L16.3244 4.56315H9.28436L8.84842 4.42002H5.72264L5.37017 4.29393H4.2015L3.8212 4.15761L2.89367 4.11672L2.72669 3.86454L1.96614 3.64984C2.07744 3.38743 2.67106 3.30905 3.03279 3.14547H3.77481L4.18293 3.01938H5.34234L5.84322 3.1591L5.98234 2.92055C6.34408 2.79787 6.82641 2.89329 7.27163 2.86602L7.69829 3.00234L8.22699 2.63429L7.11394 2.23216L8.38465 1.7755C8.74639 1.70394 9.13595 1.75506 9.59972 1.73461L10.1006 1.6017H11.6125L12.0299 1.45176H15.5638L15.9255 1.32225H19.8211L20.2664 1.17572H25.7295L26.1469 1.0394L26.6385 1.19957L27.3527 1.06666L27.7052 1.16208L28.0948 1.04281L28.4936 1.1689L28.7626 1.0803C28.8182 1.06326 28.8646 1.03599 28.911 1.03599H36.7394L37.0269 0.933757C37.0826 0.933757 37.1289 0.899681 37.1846 0.899681H48.0738L48.4541 0.763363H54.381C54.4552 0.698613 54.5016 0.65772 54.548 0.62705C55.559 0.62705 56.57 0.603193 57.581 0.582745C57.581 0.582745 57.5811 0.552075 57.6553 0.535035C56.6223 0.430455 55.522 0.463038 54.548 0.62705C54.3534 0.622034 54.1582 0.622034 53.9636 0.62705L53.5555 0.490731C53.1288 0.436205 52.999 0.589561 52.628 0.640679L51.8952 0.500954H47.6101L47.2298 0.633862H37.0269L36.6837 0.756545C36.2299 0.788086 35.762 0.778736 35.3202 0.729287V0.552076C35.3944 0.524813 35.4408 0.494142 35.4872 0.494142H41.7387L42.1654 0.354418L42.5736 0.483919L42.9167 0.361235L43.3434 0.480508H44.5677C44.7347 0.480508 44.846 0.296484 45.2912 0.354418L45.69 0.483919L46.0982 0.351012H59.8071L60.2245 0.211288L60.5677 0.337378L60.9944 0.221511H62.6082L62.9329 0.340784L63.3503 0.218105L63.7492 0.344195L64.0181 0.252181C64.1259 0.231947 64.2417 0.218145 64.3613 0.211288H77.4674L77.8755 0.0783805L78.2836 0.20447C78.7381 0.262404 78.8401 0.0886012 79.2853 0.064746L79.8511 0.194247L80.1943 0.0851925H122.276L122.601 0.207876L123.019 0.0715632H124.132L124.54 0.207876H125.31L125.718 0.0783805H128.5L128.825 0.194247L129.465 0.0545228L130.068 0.194247L130.448 0.0715632H131.218L131.626 0.20447L132.118 0.0477108L132.813 0.180618L133.388 0.0545228L133.973 0.190841L134.576 0.0408936L135.16 0.20447L135.642 0.0477108L136.496 0.207876H141.068L141.235 0.354418H140.308L139.89 0.490731L139.603 0.385088C136.64 0.318279 133.667 0.328527 130.708 0.415757C130.708 0.415757 130.754 0.456652 130.801 0.463467C130.913 0.480467 131.032 0.490823 131.153 0.494142H137.943L138.332 0.633862H142.256L142.664 0.780403H147.765L148.173 0.926939H154.054L154.406 1.05303H156.744L157.17 1.19957H158.729L159.155 1.3427H161.882L162.225 1.46539C162.856 1.50628 163.57 1.46539 164.266 1.49265L164.609 1.61533H167.392L167.772 1.75165L168.18 1.63237L168.588 1.75846H170.508L171.009 1.96976C171.009 1.96976 170.907 2.04132 170.842 2.04132C170.063 2.04132 169.284 2.04132 168.505 2.04132C168.505 2.04132 168.412 2.07199 168.366 2.08903C168.458 2.2083 168.764 2.15378 168.969 2.18786L169.683 2.44686L170.1 2.31736H172.048L172.456 2.45367H173.615L174.051 2.60021H174.803L175.248 2.74334H176.389L176.917 3.10458L176.584 3.23408C176.853 3.34994 177.205 3.27838 177.511 3.30223L178.337 3.01938H179.116C179.57 3.16932 179.218 3.26475 178.884 3.38062C179.339 3.45026 179.842 3.46575 180.322 3.42492L180.795 3.29201L180.897 3.53056L180.136 3.62599L180.424 3.82023C180.145 3.92247 179.802 3.82023 179.542 3.87135L179.051 3.71459L178.884 3.91565C179.367 3.97543 179.79 4.08701 180.099 4.23599C179.862 4.25416 179.634 4.28517 179.422 4.32801C179.208 4.38594 179.042 4.4541 178.726 4.42343C178.309 4.33823 178.671 4.17125 178.448 4.04515C178.225 3.91906 177.984 4.02471 177.743 4.00767V3.60213L177.288 3.53738C176.797 3.59872 176.695 3.8066 176.185 3.82705C175.675 3.8475 175.563 3.96336 175.387 4.08264C175.341 4.30415 176.157 4.32801 176.166 4.53248H175.535C175.498 4.59326 175.446 4.65261 175.378 4.70969C175.285 4.77785 175.146 4.83919 175.035 4.90394L175.582 5.08796L176.166 4.89031V4.53248L176.537 4.58701V5.04025C176.491 5.105 175.999 5.13908 176.287 5.34696L176.686 5.49691C177.084 5.46624 177.186 5.30607 177.743 5.24473H178.29L178.745 5.09137C178.946 5.17531 179.132 5.26412 179.301 5.35718C179.505 5.49009 179.598 5.64686 179.83 5.76954C180.08 5.88174 180.359 5.98449 180.665 6.07625H181.898L182.538 6.36592H183.086L183.299 6.57721L182.455 6.81235V7.15314L182.075 7.30309L182.436 7.44962C182.492 7.5689 182.334 7.69158 182.64 7.79041L183.03 7.49393L183.559 7.86539L183.253 7.99148L183.624 8.13802V8.42087C183.512 8.44132 183.41 8.48562 183.308 8.48562H178.717L178.3 8.63557H176.621C176.695 8.80937 177.094 8.85708 177.298 8.97636C177.242 9.00362 177.177 9.05814 177.112 9.05814C176.073 9.05814 175.035 9.05814 173.996 9.05814L173.56 9.37167L172.048 9.09222L170.508 9.37508L170.1 9.06155H169.692C169.358 9.15016 169.553 9.27966 169.488 9.40234L168.978 9.59659L168.05 9.63408C168.004 9.63408 167.911 9.66816 167.911 9.6852C167.911 9.87263 167.911 10.0601 167.911 10.2441L167.522 10.3974L168.087 10.5985L168.505 10.4622H169.432C169.553 10.5235 169.655 10.5985 169.775 10.6019C170.063 10.6019 170.388 10.6496 170.647 10.544C170.323 10.394 169.868 10.4929 169.432 10.4622C169.651 10.3395 169.843 10.2107 170.007 10.0771L170.61 10.0021L170.712 9.66134C170.972 9.5557 171.324 9.63067 171.64 9.60681L172.066 9.74994H172.883L173.096 9.96464L171.862 10.3259V10.5269C172.122 10.6394 172.465 10.5815 172.79 10.5917C173.115 10.6019 173.319 10.5917 173.578 10.5917H174.506C174.571 10.3974 174.191 10.486 173.857 10.3157C173.912 10.377 173.857 10.2918 173.745 10.2202C173.634 10.1487 173.532 10.1827 173.421 10.1657V9.67838L172.957 9.50117L173.727 9.45687L173.857 9.6886L174.784 10.0294L175.396 10.0737V10.5235L175.99 10.7485H176.788C177.251 10.6019 176.788 10.4077 177.047 10.2339L177.372 10.1827V10.5235L177.789 10.6803L176.862 10.9632C177.001 11.0484 177.131 11.1165 177.233 11.1915C177.335 11.2665 177.4 11.3482 177.474 11.4232C177.864 11.4743 177.91 11.4641 178.142 11.3039C178.253 11.3039 178.439 11.2801 178.457 11.2562C178.504 11.1744 178.337 11.1608 178.142 11.1642C178.142 11.0143 178.578 11.004 178.661 10.8711L179.589 11.1676H180.451L180.544 11.4062C180.043 11.4183 179.553 11.4677 179.105 11.5515C178.657 11.6353 178.26 11.7516 177.938 11.8935L176.899 11.7095C176.268 11.8731 176.982 12.1423 176.407 12.2888L175.851 12.0877C175.999 11.9957 176.426 11.948 176.111 11.747C175.693 11.6652 175.1 11.747 174.413 11.7095L173.894 11.8935C173.782 12.1661 174.46 12.1866 174.571 12.374L174.163 12.5308C173.402 12.6875 172.892 12.3229 171.964 12.4762L171.519 12.5921L170.879 12.4217H169.794L169.284 12.5614C168.764 12.5614 168.616 12.3297 168.078 12.449L167.958 12.6262L168.588 12.8307C169.145 12.9397 169.516 12.7114 170.091 12.6909L170.536 12.8409L170.944 12.7046C171.501 12.6637 171.77 12.9602 172.595 12.8L172.855 12.725L173.495 12.8613L174.116 12.708L174.552 12.9261L173.903 13.042C173.996 13.1578 174.32 13.1033 174.506 13.1442C174.638 13.1778 174.765 13.2142 174.886 13.2532L175.146 13.1442L175.638 13.2941H177.493L175.73 13.4782L176.519 13.6179C176.268 13.8053 175.591 13.6179 175.322 13.7985C175.951 13.844 176.594 13.8578 177.233 13.8394C177.86 13.8207 178.491 13.8485 179.088 13.9212C178.456 13.9754 177.806 13.9961 177.159 13.9825L176.417 14.1802C177.131 14.3506 177.836 14.1802 178.448 14.3199L178.077 14.4767L178.847 14.6096V14.7561L177.743 14.9606H176.751L176.296 15.1071H172.41L171.974 15.2503H163.747L163.376 15.3832C162.244 15.4104 161.02 15.3832 159.805 15.4002L159.452 15.5263H151.216L150.798 15.6728H136.709L136.301 15.8194H93.523L93.1612 15.9489H80.6117L80.2221 15.8228L79.6192 15.9864L78.9792 15.8126H41.3492L40.9967 15.6831H34.7173L34.3092 15.5331H31.9533L31.5822 15.4002H28.7533L27.8257 14.964H26.1005C25.6368 14.8106 26.0264 14.7186 26.2953 14.6232V14.3438C26.7869 14.2075 27.0188 13.9485 27.8165 13.9723C27.8045 13.9132 27.7441 13.8568 27.6431 13.8105C27.542 13.7643 27.4052 13.7304 27.2507 13.7133C26.8611 13.6929 26.7313 13.6588 26.6663 13.5122C26.6663 13.4202 26.2768 13.3453 26.1376 13.2873C25.3771 13.2396 25.6368 13.4714 25.34 13.5531L24.9226 13.4236H23.7724C23.5498 13.4543 23.4942 13.5838 23.1603 13.5634C23.1603 13.5225 23.0953 13.4543 23.0304 13.4509C22.7985 13.4305 22.7614 13.4918 22.7707 13.5634C22.7262 13.5586 22.6793 13.5577 22.6337 13.5607C22.5881 13.5638 22.5452 13.5708 22.5082 13.581C22.4713 13.5913 22.4413 13.6046 22.4209 13.6199C22.4004 13.6352 22.39 13.652 22.3904 13.669C22.3904 13.7644 22.3904 13.853 22.7707 13.8428C22.8171 13.8837 22.8542 13.9587 22.9098 13.9587C23.4663 13.9587 23.8373 14.2177 24.6907 14.0916L25.1452 13.9348L24.7 13.7372L25.2936 13.6963C25.7759 13.8326 25.2936 14.0132 25.5162 14.1597L25.9243 14.3915H24.9968C24.2362 14.613 25.3678 14.7084 25.1266 14.8856C24.6907 14.9913 24.6907 14.9913 24.1991 14.8481L23.5869 14.9879L22.7707 14.8141L22.1492 14.964C22.1492 14.9163 21.973 14.8515 22.0101 14.8106C22.0631 14.7446 22.1593 14.6843 22.2902 14.635C22.4212 14.5857 22.583 14.5489 22.7614 14.5278C22.8264 14.6198 22.7614 14.7289 23.1417 14.6334L22.7614 14.5278C22.9284 14.3233 22.3626 14.187 22.2235 13.9996C22.1307 13.9085 22.0159 13.8207 21.8803 13.7372C21.6752 13.7249 21.4793 13.697 21.3052 13.6554C21.0919 13.594 20.9156 13.5395 20.6281 13.5634L19.4223 13.1442L19.0235 13.2601C18.6061 13.2839 18.1608 13.3214 17.8455 13.1408H16.6583L16.2316 13.2805L15.6936 13.0317V12.7693L14.8866 12.5546V12.1695L13.6345 11.8015L13.8478 11.5766L14.293 11.7197L14.7012 11.5902L15.267 11.7947V11.9378L16.1945 12.2786C16.4171 12.2547 16.4728 12.1252 16.7974 12.1491C16.7974 12.2888 17.1499 12.3331 17.3632 12.4115C17.5765 12.4899 17.6971 12.4115 17.8455 12.4115C18.1423 12.2036 17.8455 12.0707 17.6414 11.9071C17.9197 11.8117 18.2629 11.8867 18.569 11.856C18.8565 11.6856 18.94 11.4607 19.7655 11.3755L18.8844 11.2699L18.6246 11.0177C18.5226 11.0518 18.3835 11.0756 18.3742 11.1029C18.3604 11.1903 18.3604 11.2779 18.3742 11.3653C18.0774 11.488 17.7342 11.413 17.4466 11.4368L17.02 11.2971H15.471L15.0629 11.1608L14.6548 11.2869C14.4044 11.1983 14.191 11.0586 13.9406 11.0449C13.5232 11.0245 13.3192 10.8984 12.9574 10.8745C12.7538 10.8677 12.5489 10.8677 12.3452 10.8745L11.9186 11.0177H11.5475C11.4179 11.0143 11.2877 11.0143 11.158 11.0177C11.158 11.0177 11.0652 11.0483 11.0188 11.062L9.92436 11.2835L9.61829 11.1744H8.60728L7.42929 10.9427C7.80031 10.8064 8.31044 10.6973 8.49595 10.5372C8.64155 10.3898 8.90308 10.2617 9.24728 10.1691C9.68322 10.1521 9.8409 10.227 9.7667 10.3872L10.351 10.5781H11.6032L11.8722 10.3054L12.3267 10.452H13.5139L14.0612 10.2407L13.3191 10.1112C13.3933 10.026 13.7551 10.0021 13.6901 9.88967C14.293 9.93738 14.6734 9.74313 15.1742 9.70223C15.0537 9.59318 14.9423 9.48072 14.7939 9.36144C14.7939 9.33418 14.5898 9.33078 14.4971 9.33419C14.4322 9.24558 14.4971 9.13653 14.1168 9.23195C14.2382 9.26867 14.3651 9.30281 14.4971 9.33419C14.4857 9.40228 14.4857 9.47056 14.4971 9.53866C14.2559 9.62385 13.9777 9.71587 13.718 9.81129C13.718 9.81129 13.718 9.85559 13.718 9.87944H12.6884L12.4751 10.1146C12.3133 10.1529 12.1249 10.1733 11.9325 10.1733C11.74 10.1733 11.5517 10.1529 11.3899 10.1146L11.7238 9.96805C11.6125 9.87603 11.2136 9.82833 11.3713 9.6852L11.7609 9.53525V9.19446C11.8872 9.1982 12.0141 9.1912 12.1319 9.17402C12.1968 9.26262 12.1319 9.37167 12.5029 9.27625C12.385 9.23945 12.2611 9.20532 12.1319 9.17402C12.2776 9.11089 12.4051 9.04236 12.5122 8.96954L11.1209 8.47199C10.8519 8.64579 11.0652 8.83323 10.889 8.9968C10.7458 9.0653 10.6446 9.14434 10.5922 9.22854C10.5922 9.29329 10.7313 9.35123 10.9725 9.33419C10.9261 9.46709 11.0838 9.60681 10.8148 9.74994L10.3974 9.63067L9.9893 9.75335L9.63683 9.48413C9.42111 9.52694 9.21892 9.57837 9.03394 9.63749C8.96901 9.54548 9.03393 9.43642 8.65364 9.53184C8.76599 9.57173 8.88698 9.6082 9.0154 9.64089ZM165.871 10.3395C166.177 10.3088 166.473 10.3191 166.214 10.1964C166.121 10.2339 166.028 10.2748 166.084 10.3088C165.787 10.3395 165.481 10.3293 165.75 10.452C165.796 10.4179 165.871 10.377 165.871 10.3395ZM19.1904 7.18381C19.2739 7.29286 19.2461 7.40191 19.5892 7.30649C19.4779 7.27241 19.3759 7.24175 19.2739 7.26219C19.1904 7.15314 19.2183 7.04409 18.8751 7.13951C18.9493 7.17018 19.0513 7.20426 19.1533 7.18381H19.1904ZM168.329 4.68243C168.588 4.65857 168.941 4.75058 169.08 4.60063C168.56 4.53929 168.56 4.5393 168.375 4.69606L168.301 4.6688L167.976 4.76762L168.097 4.81193C168.185 4.774 168.251 4.72995 168.291 4.68243H168.329ZM16.5284 7.40873C16.4449 7.29968 16.4727 7.19063 16.1296 7.28605C16.2319 7.32213 16.3513 7.351 16.482 7.37124V7.71203L17.6136 7.9131V7.55186L17.0757 7.35761C16.8883 7.35201 16.7006 7.36745 16.5377 7.40191L16.5284 7.40873ZM19.6078 12.3059C20.2478 12.282 19.8304 12.5512 20.2385 12.5887C20.5353 12.5649 20.8785 12.6364 21.1661 12.5376L21.2124 12.3979C20.9249 12.1866 20.2849 12.1593 19.6913 12.0264C19.6913 12.1321 19.6449 12.2172 19.6449 12.3059C19.2368 12.3911 19.2368 12.3911 19.413 12.5751C19.7747 12.5171 19.5151 12.3911 19.5707 12.299L19.6078 12.3059ZM23.7817 6.82599C24.1435 6.76805 24.4959 6.66581 24.802 6.67604C25.1081 6.68626 25.442 6.57039 25.7295 6.54994L26.0078 6.64877H30.4507L31.0257 6.42726L30.8402 6.24324H30.4043L29.9869 6.38296H24.1249C23.9301 6.47157 23.5962 6.51927 23.5127 6.66922L23.7817 6.82599ZM20.591 6.9657C21.064 6.69989 21.7504 6.87029 22.2327 6.76124L23.1603 6.58062L23.0026 6.38977L22.2327 6.54994L21.7411 6.38296H20.5817L20.1829 6.51587L19.8119 6.40341L19.1533 6.54994L18.6525 6.40341C18.4713 6.45063 18.275 6.48954 18.0681 6.51927C17.8266 6.53955 17.5818 6.55435 17.3353 6.56358C17.3353 6.56358 17.3354 6.59425 17.289 6.60447L17.827 6.80553H18.6061L19.0142 6.94185L19.4409 6.80553C19.8212 6.80894 20.2478 6.75101 20.5539 6.95889L20.591 6.9657ZM24.2548 11.4811L23.4571 11.6004C23.0397 11.6652 22.8264 11.5084 22.4461 11.4811L22.3626 11.6686C22.6127 11.7468 22.8453 11.8323 23.0583 11.9242C23.1705 12.0067 23.2576 12.0936 23.3179 12.1832H24.2455L24.4588 12.4115L25.1544 12.2581L25.1081 11.9446C24.6536 11.781 24.2362 11.6822 24.2177 11.4743L24.2548 11.4811ZM170.879 5.96038C170.582 5.98424 170.239 5.91267 169.878 6.03536C170.063 6.13078 169.673 6.27731 170.109 6.37614H171.269L171.677 6.24324L172.113 6.38296L172.883 6.3591C172.929 6.3591 172.975 6.32843 173.031 6.30799C172.614 6.18189 172.373 5.9672 171.733 5.94334L171.278 6.08647L170.879 5.96038ZM26.0913 12.0264C26.5365 12.006 27.0188 12.0673 27.4362 11.9753C27.2948 11.9138 27.1792 11.8449 27.093 11.7708C27.0095 11.6686 27.2043 11.5425 26.8704 11.4607C26.4438 11.4777 25.9429 11.4164 25.544 11.5084V11.8185L26.0913 12.0264ZM167.076 9.72268C167.076 9.52503 166.501 9.70564 166.427 9.57955L166.214 9.341C165.852 9.36826 165.518 9.2967 165.175 9.41597C165.175 9.50458 165.175 9.61022 165.249 9.71927C165.249 9.73972 165.333 9.75335 165.37 9.76698C165.898 9.76698 166.409 9.76698 166.928 9.76698C166.947 9.76017 166.993 9.73631 167.049 9.71587L167.076 9.72268ZM178.856 6.8737C178.921 6.93845 178.698 7.05772 178.726 7.05772L180.099 6.73738C179.969 6.58743 180.182 6.45793 179.821 6.37614C179.524 6.4 179.171 6.32502 178.893 6.42726C178.615 6.5295 178.986 6.64196 179.218 6.72375L178.856 6.8737ZM167.271 3.69755C167.457 3.61917 167.753 3.57487 167.818 3.44877C167.531 3.4147 167.466 3.26134 167.076 3.27156C166.149 3.51011 166.149 3.56805 166.52 3.69755H167.271ZM173.959 6.37614H174.793C174.888 6.32433 175.003 6.27832 175.137 6.23983C175.304 6.20575 175.637 6.28413 175.665 6.09329H173.606C173.532 6.09329 173.476 6.14782 173.411 6.17508L173.959 6.37614ZM162.977 9.76017C163.273 9.73632 163.617 9.81129 163.904 9.71246C163.904 9.57273 163.552 9.63749 163.348 9.61363C162.986 9.48072 162.624 9.34781 162.253 9.21831C162.253 9.21831 162.16 9.21831 162.114 9.21831C162.04 9.41256 162.04 9.41257 163.004 9.76017H162.977ZM177.001 6.32843L176.834 6.03536L176.185 6.31821C176.696 6.4443 177.229 6.55813 177.78 6.659C177.893 6.64511 178.002 6.62683 178.105 6.60447C177.928 6.40341 177.27 6.42045 177.001 6.32843ZM18.3 10.3259C17.2612 10.3259 17.2612 10.3259 16.8345 10.4349C17.0292 10.4521 17.228 10.4624 17.4281 10.4656C17.8633 10.4873 18.306 10.4745 18.7266 10.4281C18.8008 10.2952 18.9493 10.1623 18.5783 10.0328L18.3 10.3259ZM14.4878 10.2509C14.7012 10.3157 14.831 10.4213 15.267 10.452C15.267 10.2918 15.267 10.135 15.267 9.98168C15.267 9.96123 15.1186 9.94079 15.0351 9.91693C14.8588 10.0124 14.4786 10.0464 14.4878 10.2509ZM168.653 9.26602C168.468 9.20468 168.291 9.13993 168.115 9.07518C167.763 9.07518 167.382 8.9968 167.049 9.13993C167.281 9.15844 167.508 9.18586 167.726 9.22173C167.93 9.26944 168.06 9.35804 168.366 9.33419L168.653 9.26602ZM170.239 3.75889C170.434 3.83387 170.564 3.93269 170.888 3.95314L171.362 3.77252L170.824 3.55101L170.239 3.75889ZM21.1753 11.7231L21.027 11.4437L20.2942 11.4948L20.4148 11.7231H21.1753ZM57.9242 0.535035C58.8517 0.599785 58.8518 0.596377 59.1486 0.497548C58.9551 0.46142 58.7382 0.445791 58.5219 0.452412C58.3057 0.459033 58.0987 0.487642 57.9242 0.535035ZM172.734 4.57678C172.966 4.46091 173.282 4.42002 173.328 4.30074C173.276 4.28462 173.215 4.27259 173.15 4.26537C173.085 4.25816 173.016 4.25592 172.948 4.25879C172.88 4.26166 172.815 4.26958 172.756 4.28207C172.697 4.29456 172.645 4.31135 172.604 4.33141L172.734 4.57678ZM166.678 9.02747C165.861 8.9082 165.861 8.91161 165.583 9.02747C165.77 9.03968 165.959 9.04765 166.149 9.05133C166.326 9.0484 166.503 9.04042 166.678 9.02747ZM169.46 12.2275C169.3 12.1716 169.087 12.1405 168.866 12.1405C168.646 12.1405 168.433 12.1716 168.273 12.2275C168.351 12.2569 168.445 12.2804 168.549 12.2963C168.652 12.3123 168.763 12.3206 168.876 12.3206C168.988 12.3206 169.099 12.3123 169.203 12.2963C169.306 12.2804 169.4 12.2569 169.479 12.2275H169.46ZM23.6518 12.8818C23.9579 12.7659 23.9394 12.6875 23.7075 12.5819L23.2809 12.6057L23.6518 12.8818ZM161.289 3.39425H161.539C161.539 3.33291 161.595 3.26815 161.604 3.20681C161.613 3.14547 161.502 3.15911 161.474 3.16251C161.446 3.16592 161.233 3.19318 161.224 3.21022C161.233 3.2725 161.261 3.33421 161.307 3.39425H161.289ZM163.209 3.34313C162.847 3.25453 162.596 3.21022 162.439 3.36358C162.689 3.44196 162.902 3.43514 163.227 3.34313H163.209ZM173.82 4.00426V4.09627C173.986 4.09627 174.163 4.11331 174.339 4.11672C174.515 4.12012 174.478 4.08264 174.469 4.07242C174.46 4.06219 174.376 3.98381 174.33 3.98381C174.165 3.98625 174 3.99308 173.838 4.00426H173.82ZM174.951 4.47114C174.907 4.44793 174.848 4.429 174.779 4.41593C174.71 4.40286 174.634 4.39604 174.557 4.39604C174.48 4.39604 174.403 4.40286 174.335 4.41593C174.266 4.429 174.207 4.44793 174.163 4.47114C174.205 4.49652 174.264 4.51748 174.335 4.53203C174.406 4.54658 174.485 4.55421 174.566 4.55421C174.647 4.55421 174.727 4.54658 174.797 4.53203C174.868 4.51748 174.927 4.49652 174.97 4.47114H174.951ZM176.175 6.68626V6.77486C176.351 6.78505 176.527 6.79187 176.704 6.79531C176.704 6.79531 176.834 6.76124 176.825 6.75101C176.815 6.74079 176.741 6.66581 176.686 6.6624C176.52 6.66451 176.355 6.6725 176.194 6.68626H176.175ZM23.689 14.5653C23.9394 14.4392 24.06 14.3506 23.6333 14.2892C23.4386 14.3744 23.4478 14.4528 23.7075 14.5653H23.689ZM29.18 11.7333C29.1168 11.7489 29.0651 11.77 29.0293 11.7946C28.9936 11.8193 28.9749 11.8468 28.9749 11.8748C28.9749 11.9027 28.9936 11.9302 29.0293 11.9549C29.0651 11.9795 29.1168 12.0006 29.18 12.0162C29.2461 12.0017 29.3012 11.9814 29.3401 11.957C29.379 11.9325 29.4003 11.9049 29.4022 11.8766C29.404 11.8484 29.3863 11.8204 29.3507 11.7953C29.3151 11.7703 29.2627 11.7489 29.1985 11.7333H29.18ZM165.936 8.71395C165.979 8.73785 166.037 8.75746 166.106 8.77102C166.175 8.78458 166.252 8.79168 166.33 8.79168C166.408 8.79168 166.485 8.78458 166.553 8.77102C166.622 8.75746 166.681 8.73785 166.724 8.71395C166.681 8.69005 166.622 8.67044 166.553 8.65688C166.485 8.64332 166.408 8.63622 166.33 8.63622C166.252 8.63622 166.175 8.64332 166.106 8.65688C166.037 8.67044 165.979 8.69005 165.936 8.71395ZM175.415 8.52993V8.61853C175.587 8.62871 175.76 8.63553 175.934 8.63898C175.934 8.63898 176.073 8.6049 176.064 8.59467C176.055 8.58445 175.981 8.50607 175.925 8.50607C175.754 8.50395 175.583 8.50852 175.415 8.5197V8.52993ZM160.111 3.23408L160.25 3.2852C160.301 3.25549 160.342 3.2234 160.37 3.18977C160.37 3.18977 160.296 3.1591 160.25 3.14206L160.111 3.23408ZM175.999 3.16251L175.749 3.21363C175.795 3.21363 175.851 3.26134 175.879 3.25793C175.971 3.24819 176.059 3.23325 176.138 3.21363L175.999 3.16251ZM165.796 3.54419L165.936 3.49648C165.851 3.47751 165.761 3.46261 165.667 3.45218C165.667 3.45218 165.583 3.47945 165.537 3.49648L165.796 3.54419ZM91.7143 3.65666L91.5752 3.56464C91.5752 3.56464 91.4453 3.60213 91.4546 3.61235C91.4853 3.64566 91.5257 3.67766 91.5752 3.70777L91.7143 3.65666ZM169.627 3.68733L169.887 3.63621C169.887 3.63621 169.785 3.5885 169.757 3.5919C169.662 3.60234 169.572 3.61723 169.488 3.63621L169.627 3.68733ZM169.831 4.64494L169.683 4.55292C169.683 4.56996 169.553 4.587 169.562 4.60063C169.595 4.63258 169.635 4.66338 169.683 4.69265L169.831 4.64494ZM50.5503 5.49009L50.4019 5.39808C50.4019 5.39808 50.2721 5.43557 50.2813 5.44579C50.3121 5.47911 50.3525 5.5111 50.4019 5.54121L50.5503 5.49009ZM43.0095 5.83088L42.7591 5.882C42.7591 5.89904 42.8518 5.92971 42.8797 5.92631C42.9742 5.91587 43.0645 5.90098 43.1486 5.882L43.0095 5.83088ZM34.2628 6.3557L34.5133 6.30458C34.5133 6.30458 34.4205 6.26028 34.3834 6.26028C34.2943 6.27297 34.2076 6.28777 34.1237 6.30458L34.2628 6.3557ZM14.0519 7.31331L13.9128 7.2213C13.9128 7.2213 13.7829 7.25878 13.7922 7.26901C13.8229 7.30232 13.8633 7.33431 13.9128 7.36443L14.0519 7.31331ZM25.6831 7.36443C25.6831 7.36443 25.5533 7.39851 25.5626 7.40873C25.5933 7.44204 25.6337 7.47404 25.6831 7.50415C25.6831 7.50415 25.813 7.47008 25.813 7.45985C25.7758 7.42142 25.726 7.38479 25.6646 7.3508L25.6831 7.36443ZM20.1179 7.5246L19.9788 7.57572C20.0608 7.59389 20.1479 7.60874 20.2385 7.62002C20.2385 7.62002 20.3313 7.58935 20.3684 7.57572L20.1179 7.5246ZM14.5527 8.01874L14.6919 8.06986C14.7434 8.04015 14.7839 8.00806 14.8125 7.97444C14.8125 7.97444 14.7383 7.94377 14.6919 7.92673L14.5527 8.01874ZM12.9852 8.30159L13.1244 8.3493C13.172 8.32003 13.2124 8.28924 13.2449 8.25729C13.2449 8.25729 13.1615 8.22662 13.1244 8.20958L12.9852 8.30159ZM165.101 8.58104L164.962 8.49244C164.962 8.49244 164.832 8.52652 164.841 8.53674C164.868 8.57065 164.908 8.60284 164.962 8.63216L165.101 8.58104ZM164.016 9.39553L164.155 9.48413C164.201 9.48413 164.285 9.45005 164.275 9.43983C164.249 9.40592 164.208 9.37373 164.155 9.34441L164.016 9.39553ZM19.2368 10.101L19.3759 10.1896C19.3759 10.1896 19.5058 10.1555 19.4965 10.1453C19.4658 10.1119 19.4254 10.08 19.3759 10.0498L19.2368 10.101ZM170.684 10.2816L170.824 10.3327C170.876 10.3027 170.92 10.2707 170.953 10.2373C170.953 10.2373 170.87 10.2066 170.824 10.1896L170.684 10.2816ZM28.5956 11.505L28.4565 11.4539C28.4041 11.4839 28.3606 11.5159 28.3266 11.5493C28.3266 11.5493 28.4101 11.58 28.4565 11.5936L28.5956 11.505ZM21.8339 11.7163L21.9823 11.6652C21.8982 11.6462 21.8078 11.6313 21.7133 11.6209C21.7133 11.6209 21.6298 11.6481 21.5835 11.6652L21.8339 11.7163ZM171.807 11.7844L171.668 11.7367C171.616 11.7653 171.576 11.7962 171.547 11.8288C171.547 11.8288 171.621 11.8594 171.668 11.8765L171.807 11.7844ZM21.1753 11.948C21.129 11.931 21.0826 11.9003 21.0455 11.9037C20.9532 11.9135 20.8656 11.9284 20.7858 11.948C20.7858 11.948 20.8785 11.9923 20.9156 11.9923C20.9527 11.9923 21.0733 11.9617 21.1753 11.948ZM26.3324 12.8136L26.4716 12.8647C26.5231 12.835 26.5636 12.8029 26.5922 12.7693C26.5922 12.7693 26.518 12.7387 26.4716 12.7216L26.3324 12.8136Z" fill="#FFC906" fill-opacity="0.7"/>
<path d="M185.535 4.38938C185.55 4.31907 185.55 4.2484 185.535 4.17809L186.119 4.0929L186.982 4.50184L186.75 4.60749C186.75 4.6995 186.694 4.81196 186.657 4.94827C186.471 4.94827 186.212 4.99258 186.128 4.94827C185.692 4.81196 185.303 4.66201 184.848 4.49844L184.069 4.66883L183.55 4.39279H182.9L182.771 4.16787L183.522 4.06223C183.373 3.97021 183.234 3.88161 183.077 3.77596L183.772 3.63965C183.911 3.74188 184.069 3.84412 184.218 3.94636L183.967 4.04519C184.246 4.08966 184.519 4.13972 184.783 4.19513C185.043 4.25648 185.173 4.37916 185.507 4.37916C185.572 4.46095 185.507 4.57 185.887 4.47458C185.778 4.44151 185.66 4.41294 185.535 4.38938Z" fill="#FFC906" fill-opacity="0.7"/>
<path d="M29.9965 0.736151L29.5791 0.872469L29.2452 0.753191H26.7965L26.509 0.855428L25.8504 0.715704L25.2197 0.872469H24.5055C24.1901 0.787272 24.218 0.691847 24.5055 0.596426L24.9136 0.729338L25.2753 0.603243H32.6956L33.2892 0.429443L34.1518 0.610061L34.7362 0.46693C34.9773 0.514641 34.9495 0.596428 34.866 0.678217C34.8104 0.702072 34.764 0.732745 34.7176 0.732745L29.9965 0.736151Z" fill="#FFC906" fill-opacity="0.7"/>
<path d="M20.3687 0.875766L20.2295 1.00527H15.4991L15.1374 1.13476C14.663 1.16554 14.1797 1.17356 13.6997 1.15862C13.7461 1.11773 13.7646 1.05979 13.8388 1.04275C14.1078 0.991636 14.3861 0.957556 14.8869 0.882583H16.538L17.1872 0.722412L18.0591 0.896212L18.6249 0.746265L19.0237 0.875766H20.3687Z" fill="#FFC906" fill-opacity="0.7"/>
<path d="M182.502 3.91228L181.5 4.17128C181.704 4.30078 181.852 4.39279 182.019 4.51207V4.76425L181.092 5.10504C180.869 5.0028 180.424 4.95168 180.507 4.76425L181.24 4.63475C181.472 4.46776 180.99 4.3962 180.823 4.31441C181.342 4.00429 181.648 3.88843 182.093 3.84753C182.149 3.8339 182.27 3.87479 182.502 3.91228Z" fill="#FFC906" fill-opacity="0.7"/>
<path d="M143.972 0.453208H144.537L144.955 0.316895L145.298 0.442984H149.231C149.291 0.45758 149.342 0.476867 149.379 0.499477C149.417 0.522087 149.441 0.547466 149.449 0.573812C149.457 0.600157 149.449 0.626825 149.426 0.651921C149.402 0.677017 149.364 0.699925 149.314 0.719022H148.387L148.044 0.596338H144.083L143.972 0.453208Z" fill="#FFC906" fill-opacity="0.7"/>
<path d="M183.995 6.94189H185.349L185.933 7.18045L185.247 7.3338C185.089 7.49738 185.247 7.60643 184.857 7.63029L184.607 7.38492L183.68 7.34743C183.531 7.29631 183.531 7.29631 183.921 7.14978L183.995 6.94189Z" fill="#FFC906" fill-opacity="0.7"/>
<path d="M152.208 0.695251L152.301 0.426025L152.792 0.593013L153.2 0.4567L153.534 0.579384C154.193 0.644134 154.963 0.541895 155.742 0.6305C155.13 0.763408 154.824 0.770224 152.208 0.695251Z" fill="#FFC906" fill-opacity="0.7"/>
<path d="M141.226 0.31354C142.042 0.31354 142.859 0.31354 143.675 0.31354C143.721 0.312229 143.768 0.315123 143.811 0.32198C143.854 0.328836 143.892 0.339443 143.921 0.352878C143.95 0.366313 143.97 0.38217 143.979 0.39907C143.988 0.41597 143.985 0.433404 143.972 0.449853H143.397L142.998 0.586166L142.552 0.43963H141.365L141.226 0.31354Z" fill="#FFC906" fill-opacity="0.7"/>
<path d="M5.68593 7.45646L4.8419 7.51781L4.50797 7.78703H4.09057C3.68245 7.66094 4.32245 7.63368 4.29463 7.53826C4.28096 7.45654 4.28096 7.3746 4.29463 7.29289L4.48015 7.22473C4.6842 7.35082 5.07376 7.35082 5.68593 7.45646Z" fill="#FFC906" fill-opacity="0.7"/>
<path d="M23.958 0.790594C23.7539 0.848528 23.7075 0.875791 23.6612 0.875791H21.7226C21.6763 0.875791 21.6392 0.845119 21.5928 0.831487C22.1029 0.715619 22.1029 0.715621 23.958 0.790594Z" fill="#FFC906" fill-opacity="0.7"/>
<path d="M9.77605 1.29846C9.5882 1.37504 9.35957 1.43663 9.10429 1.47942C8.84902 1.52221 8.57253 1.5453 8.29199 1.54724C8.29199 1.42114 8.6352 1.38366 8.80215 1.29846H9.77605Z" fill="#FFC906" fill-opacity="0.7"/>
<path d="M12.8836 5.36743V5.64688L12.2436 5.69118L12.1045 5.42537L12.8836 5.36743Z" fill="#FFC906" fill-opacity="0.7"/>
<path d="M172.577 1.84363V2.11626L171.937 2.16056L171.798 1.89475L172.577 1.84363Z" fill="#FFC906" fill-opacity="0.7"/>
<path d="M9.77637 1.27113C10.2772 1.10074 10.7967 1.18594 11.3161 1.20298C10.8523 1.35974 10.2865 1.25409 9.77637 1.27113Z" fill="#FFC906" fill-opacity="0.7"/>
<path d="M6.77092 7.2417C7.16048 7.2417 6.94714 7.3712 7.04917 7.43254C7.1512 7.49389 7.31817 7.51774 7.61498 7.60294L6.79874 7.64724C6.68977 7.58759 6.62928 7.51777 6.62435 7.44596C6.61942 7.37414 6.67027 7.30329 6.77092 7.2417Z" fill="#FFC906" fill-opacity="0.7"/>
<path d="M181.564 3.26135L182.492 3.32269C182.177 3.4113 182.056 3.52035 181.694 3.5408L181.564 3.26135Z" fill="#FFC906" fill-opacity="0.7"/>
<path d="M177.724 3.97695V4.22913C177.279 4.25299 177.289 4.086 176.992 4.07919C177.103 3.90879 177.465 4.00422 177.724 3.97695Z" fill="#FFC906" fill-opacity="0.7"/>
<path d="M177.688 4.96528C177.688 4.83918 177.771 4.76081 177.817 4.65857C178.031 4.73354 178.17 4.77444 178.29 4.82215C178.346 4.85207 178.392 4.88405 178.43 4.91757L178.114 4.96528C177.972 4.96943 177.829 4.96943 177.688 4.96528Z" fill="#FFC906" fill-opacity="0.7"/>
<path d="M2.31885 8.0699V7.87224C2.52291 7.73592 2.80115 7.80408 3.14434 7.78704C2.8939 7.94721 2.69914 8.04945 2.31885 8.0699Z" fill="#FFC906" fill-opacity="0.7"/>
<path d="M21.1754 14.6982H20.6282C20.285 14.6232 20.3035 14.5312 20.5354 14.4324C20.6936 14.4538 20.8348 14.4893 20.9465 14.5357C21.0582 14.5821 21.1368 14.6379 21.1754 14.6982Z" fill="#FFC906" fill-opacity="0.7"/>
<path d="M150.214 0.534979C150.539 0.442966 150.752 0.436151 150.984 0.514533C150.826 0.654256 150.576 0.61336 150.214 0.534979Z" fill="#FFC906" fill-opacity="0.7"/>
<path d="M20.3408 0.896331C20.6005 0.732753 20.6006 0.732752 21.12 0.794094C20.9716 0.940633 20.6191 0.841805 20.3408 0.896331Z" fill="#FFC906" fill-opacity="0.7"/>
<path d="M13.6995 1.15869C13.4677 1.30182 13.4677 1.30182 12.9482 1.24048C13.0966 1.09053 13.4491 1.18254 13.6995 1.15869Z" fill="#FFC906" fill-opacity="0.7"/>
<path d="M174.516 2.25943C174.345 2.27429 174.171 2.28229 173.996 2.28329C173.996 2.28329 173.885 2.22536 173.857 2.19128C173.829 2.1572 173.94 2.14697 173.987 2.14697C174.161 2.15156 174.334 2.15953 174.506 2.17083L174.516 2.25943Z" fill="#FFC906" fill-opacity="0.7"/>
<path d="M179.264 4.62455C179.358 4.58483 179.487 4.55883 179.628 4.55132C179.77 4.5438 179.914 4.55529 180.034 4.58366C179.858 4.74723 179.607 4.70634 179.264 4.62455Z" fill="#FFC906" fill-opacity="0.7"/>
<path d="M11.9003 5.95361C11.9635 5.9692 12.0152 5.99025 12.0509 6.01492C12.0867 6.03958 12.1054 6.0671 12.1054 6.09504C12.1054 6.12299 12.0867 6.1505 12.0509 6.17517C12.0152 6.19983 11.9635 6.22088 11.9003 6.23647C11.8352 6.22144 11.7815 6.20058 11.7443 6.17585C11.707 6.15111 11.6875 6.12331 11.6875 6.09504C11.6875 6.06678 11.707 6.03898 11.7443 6.01424C11.7815 5.9895 11.8352 5.96864 11.9003 5.95361Z" fill="#FFC906" fill-opacity="0.7"/>
<path d="M10.7594 6.22278C11.0191 6.33865 11.0284 6.41703 10.815 6.49882C10.3884 6.44088 10.5089 6.35228 10.7594 6.22278Z" fill="#FFC906" fill-opacity="0.7"/>
<path d="M21.1756 14.2041C21.1324 14.228 21.0739 14.2476 21.0051 14.2611C20.9363 14.2747 20.8595 14.2818 20.7814 14.2818C20.7033 14.2818 20.6264 14.2747 20.5577 14.2611C20.4889 14.2476 20.4304 14.228 20.3872 14.2041C20.4304 14.1802 20.4889 14.1606 20.5577 14.147C20.6264 14.1334 20.7033 14.1263 20.7814 14.1263C20.8595 14.1263 20.9363 14.1334 21.0051 14.147C21.0739 14.1606 21.1324 14.1802 21.1756 14.2041Z" fill="#FFC906" fill-opacity="0.7"/>
<path d="M23.1142 13.5702C23.1468 13.6321 23.1468 13.6957 23.1142 13.7576C23.0586 13.7985 22.8637 13.819 22.7339 13.8496V13.5702H23.1142Z" fill="#FFC906" fill-opacity="0.7"/>
<path d="M16.8442 12.1593V11.8765C17.206 11.8765 17.2523 11.9583 17.2245 12.0503C17.2245 12.0673 17.2139 12.0842 17.1935 12.0996C17.1731 12.1149 17.1434 12.1284 17.1067 12.1389C17.0701 12.1494 17.0274 12.1567 16.9819 12.1602C16.9364 12.1638 16.8894 12.1635 16.8442 12.1593Z" fill="#FFC906" fill-opacity="0.7"/>
<path d="M16.8439 11.8765C16.4358 11.7947 16.4358 11.7947 16.6121 11.6073C17.0294 11.6584 16.7697 11.7811 16.8439 11.8765Z" fill="#FFC906" fill-opacity="0.7"/>
<path d="M6.83597 10.7587C6.89909 10.7743 6.95082 10.7953 6.98658 10.82C7.02235 10.8446 7.04104 10.8721 7.04104 10.9001C7.04104 10.928 7.02235 10.9556 6.98658 10.9802C6.95082 11.0049 6.89909 11.0259 6.83597 11.0415C6.77284 11.0259 6.72111 11.0049 6.68535 10.9802C6.64958 10.9556 6.63086 10.928 6.63086 10.9001C6.63086 10.8721 6.64958 10.8446 6.68535 10.82C6.72111 10.7953 6.77284 10.7743 6.83597 10.7587Z" fill="#FFC906" fill-opacity="0.7"/>
<path d="M7.42027 10.5372C7.37822 10.5611 7.32052 10.5807 7.25247 10.5944C7.18442 10.608 7.10818 10.6151 7.03069 10.6151C6.9532 10.6151 6.87696 10.608 6.80891 10.5944C6.74086 10.5807 6.68316 10.5611 6.64111 10.5372C6.68316 10.5133 6.74086 10.4936 6.80891 10.48C6.87696 10.4664 6.9532 10.4592 7.03069 10.4592C7.10818 10.4592 7.18442 10.4664 7.25247 10.48C7.32052 10.4936 7.37822 10.5133 7.42027 10.5372Z" fill="#FFC906" fill-opacity="0.7"/>
<path d="M10.9725 10.1146C10.928 10.1378 10.8689 10.1567 10.8003 10.1698C10.7317 10.1829 10.6556 10.1897 10.5783 10.1897C10.501 10.1897 10.4249 10.1829 10.3563 10.1698C10.2877 10.1567 10.2286 10.1378 10.1841 10.1146C10.2272 10.0907 10.2858 10.0711 10.3546 10.0575C10.4234 10.044 10.5002 10.0369 10.5783 10.0369C10.6564 10.0369 10.7332 10.044 10.802 10.0575C10.8708 10.0711 10.9293 10.0907 10.9725 10.1146Z" fill="#FFC906" fill-opacity="0.7"/>
<path d="M7.03054 8.06987C7.10474 7.97786 6.84503 7.85177 7.26242 7.79724C7.42937 7.98467 7.42937 7.98468 7.03054 8.06987Z" fill="#FFC906" fill-opacity="0.7"/>
<path d="M151.68 0.473755L151.819 0.524871C151.726 0.524871 151.643 0.558951 151.55 0.569175C151.457 0.579399 151.466 0.538503 151.42 0.524871L151.68 0.473755Z" fill="#FFC906" fill-opacity="0.7"/>
<path d="M156.466 0.685032L156.327 0.736148C156.273 0.706826 156.233 0.674636 156.206 0.640728C156.206 0.640728 156.28 0.610057 156.327 0.593018L156.466 0.685032Z" fill="#FFC906" fill-opacity="0.7"/>
<path d="M12.0763 1.06662L11.9372 1.15863C11.8908 1.14159 11.8074 1.12455 11.8166 1.11092C11.847 1.07756 11.8874 1.04555 11.9372 1.0155L12.0763 1.06662Z" fill="#FFC906" fill-opacity="0.7"/>
<path d="M2.99609 2.86603L3.33928 2.7229C3.60826 2.84558 3.30218 2.83536 2.99609 2.86603Z" fill="#FFC906" fill-opacity="0.7"/>
<path d="M3.21842 2.83533L2.87521 2.97846C2.62478 2.85577 2.91234 2.866 3.21842 2.83533Z" fill="#FFC906" fill-opacity="0.7"/>
<path d="M181.287 4.01792L180.888 3.89524C181.231 3.79982 181.203 3.90887 181.287 4.01792Z" fill="#FFC906" fill-opacity="0.7"/>
<path d="M6.89157 5.64681L6.64111 5.5957C6.64111 5.5957 6.73388 5.55139 6.77098 5.55139C6.86006 5.56409 6.94681 5.57889 7.03069 5.5957L6.89157 5.64681Z" fill="#FFC906" fill-opacity="0.7"/>
<path d="M9.43302 6.27391L9.0249 6.15122C9.36809 6.0558 9.34027 6.16485 9.43302 6.27391Z" fill="#FFC906" fill-opacity="0.7"/>
<path d="M9.77624 6.37611C9.50726 6.37611 9.37742 6.33181 9.38669 6.23639C9.65568 6.23298 9.78552 6.27728 9.77624 6.37611Z" fill="#FFC906" fill-opacity="0.7"/>
<path d="M9.72998 6.32849L10.1381 6.45458C9.79491 6.55682 9.82273 6.44777 9.72998 6.32849Z" fill="#FFC906" fill-opacity="0.7"/>
<path d="M183.735 6.49546L183.596 6.44775C183.68 6.42877 183.771 6.41387 183.865 6.40344C183.865 6.40344 183.949 6.43071 183.995 6.44775L183.735 6.49546Z" fill="#FFC906" fill-opacity="0.7"/>
<path d="M184.032 6.97935L183.633 6.85667C183.976 6.76124 183.949 6.8703 184.032 6.97935Z" fill="#FFC906" fill-opacity="0.7"/>
<path d="M9.44238 7.17355L9.58151 7.08154C9.62788 7.08154 9.71137 7.11562 9.70209 7.12925C9.6734 7.16179 9.63284 7.19273 9.58151 7.22126L9.44238 7.17355Z" fill="#FFC906" fill-opacity="0.7"/>
<path d="M10.3696 7.64392C10.4156 7.67469 10.4559 7.70657 10.4902 7.73934C10.4902 7.73934 10.4067 7.77001 10.3696 7.78705C10.3172 7.75703 10.2737 7.72505 10.2397 7.69163C10.2397 7.69163 10.3232 7.66096 10.3696 7.64392Z" fill="#FFC906" fill-opacity="0.7"/>
<path d="M0.408089 8.25053L0 8.12784C0.343187 8.03242 0.315335 8.13807 0.408089 8.25053Z" fill="#FFC906" fill-opacity="0.7"/>
<path d="M2.42991 8.05286L2.08673 8.19599C1.82702 8.0733 2.12383 8.08353 2.42991 8.05286Z" fill="#FFC906" fill-opacity="0.7"/>
<path d="M0.31543 8.1687L0.714262 8.2948C0.371075 8.39022 0.398908 8.28116 0.31543 8.1687Z" fill="#FFC906" fill-opacity="0.7"/>
<path d="M11.7426 9.1979H11.3438C11.3901 9.157 11.4179 9.08885 11.4829 9.08544C11.7148 9.05477 11.7519 9.12974 11.7426 9.1979Z" fill="#FFC906" fill-opacity="0.7"/>
<path d="M11.3436 9.19781C11.3436 9.29323 11.2231 9.34095 10.9541 9.33754C10.9727 9.23871 11.0747 9.19441 11.3436 9.19781Z" fill="#FFC906" fill-opacity="0.7"/>
<path d="M6.97504 9.5693L6.83592 9.62043C6.78252 9.5911 6.74184 9.55891 6.71533 9.52501C6.71533 9.52501 6.78954 9.49433 6.83592 9.47729L6.97504 9.5693Z" fill="#FFC906" fill-opacity="0.7"/>
<path d="M177.214 10.1998L177.548 10.0566C177.817 10.1793 177.511 10.1691 177.214 10.1998Z" fill="#FFC906" fill-opacity="0.7"/>
<path d="M168.941 10.3054L168.69 10.2543C168.69 10.2372 168.783 10.2066 168.82 10.21C168.913 10.2197 169 10.2347 169.08 10.2543L168.941 10.3054Z" fill="#FFC906" fill-opacity="0.7"/>
<path d="M173.505 10.1691L173.161 10.3122C172.902 10.1895 173.199 10.1997 173.505 10.1691Z" fill="#FFC906" fill-opacity="0.7"/>
<path d="M178.105 11.3107C177.91 11.3107 177.743 11.3107 177.79 11.2187C177.79 11.1949 177.994 11.1881 178.105 11.171V11.3107Z" fill="#FFC906" fill-opacity="0.7"/>
<path d="M175.554 12.8647C175.606 12.8933 175.646 12.9242 175.675 12.9568C175.675 12.9568 175.601 12.9874 175.554 13.0045C175.501 12.9751 175.46 12.943 175.434 12.9091C175.434 12.9091 175.508 12.8784 175.554 12.8647Z" fill="#FFC906" fill-opacity="0.7"/>
<path d="M21.1108 14.6573L21.5097 14.78C21.1758 14.8755 21.1758 14.7664 21.1108 14.6573Z" fill="#FFC906" fill-opacity="0.7"/>
<path d="M26.0083 11.614L26.2587 11.6651C26.2123 11.6651 26.1567 11.7128 26.1289 11.7094C26.0382 11.6982 25.9511 11.6833 25.8691 11.6651L26.0083 11.614Z" fill="#FFC906" fill-opacity="0.7"/>
</svg>
