<svg width="258" height="16" viewBox="0 0 258 16" fill="none" xmlns="http://www.w3.org/2000/svg">
<path d="M12.4388 9.64089C12.3236 9.73291 12.8099 9.75676 12.9378 9.85559L12.2596 9.91011C11.6802 9.81099 11.2535 9.65986 11.0567 9.48413L10.3784 9.64089L10.1225 9.21491H8.27975L7.25597 9.48413C7.18379 9.42879 7.09389 9.3752 6.98724 9.32396C6.7569 9.23194 6.48817 9.14334 6.19384 9.0377L5.65635 9.33759H5.02931L4.67099 9.06837L3.62163 9.05474L1.58691 8.564L1.65088 8.38679C2.42505 8.35407 3.21027 8.34379 3.99275 8.35612L4.65818 8.51629L4.93972 8.12098C5.32363 8.02896 5.79712 8.10053 6.21942 8.07327L6.78249 7.94377L7.46073 8.09031L7.69106 7.67114C8.61245 7.74952 8.83001 8.02897 9.7514 8.07668C10.0201 8.20277 10.0201 8.20277 10.6728 8.18573C10.6728 8.16869 10.8263 8.15165 10.8263 8.13461C10.8263 7.89947 10.8263 7.66773 10.8263 7.45303L10.2761 7.29286C10.2761 7.18722 10.2761 7.0918 10.8519 7.09521C11.4278 7.09861 12.0548 7.31672 12.6051 7.63025C12.8482 7.64728 13.1042 7.66091 13.3345 7.68136C13.5649 7.70181 13.4753 7.71203 13.5265 7.72567V7.8722L14.2943 8.06986C14.9853 7.98807 15.1005 7.80064 15.446 7.6541C15.7916 7.50756 16.5978 7.49734 17.1352 7.39851L17.5191 7.50074C18.0054 7.47007 17.9414 7.36102 17.8007 7.29968C17.6599 7.23834 17.1352 7.14291 17.404 7.00319C17.9542 6.90095 18.6069 6.97252 19.1956 6.95548L19.7714 6.81576C20.3217 6.75782 20.5136 6.90777 20.8719 6.93844L21.5758 6.7885L22.4972 6.93503L23.1755 6.77146C23.1755 6.73738 23.0987 6.69307 22.9963 6.67263C22.1865 6.50901 21.2283 6.40553 20.2193 6.37274C19.8098 6.2262 20.1169 6.05921 20.0146 5.89222L18.9524 5.75932V5.61278C19.7458 5.35718 21.064 5.32652 21.9725 5.11523H25.1845L25.6836 4.98573H29.5227L29.9962 4.86304C30.8152 4.78466 31.7366 4.91075 32.6196 4.76081C31.8305 4.69423 30.9972 4.67331 30.1754 4.69947C29.3692 4.69947 28.5501 4.69947 27.7439 4.69947H23.0474L22.5228 4.56315H12.8099L12.2084 4.42002H7.89582L7.40953 4.29393H5.79713L5.27245 4.15761L3.99275 4.11672L3.76238 3.86454L2.71306 3.64984C2.86662 3.38743 3.68562 3.30905 4.1847 3.14547H5.20844L5.77151 3.01938H7.37114L8.06219 3.1591L8.25413 2.92055C8.75322 2.79787 9.41868 2.89329 10.0329 2.86602L10.6216 3.00234L11.351 2.63429L9.81537 2.23216L11.5685 1.7755C12.0676 1.70394 12.6051 1.75506 13.2449 1.73461L13.936 1.6017H16.0219L16.5978 1.45176H21.4734L21.9725 1.32225H27.3472L27.9615 1.17572H35.4989L36.0748 1.0394L36.753 1.19957L37.7384 1.06666L38.2247 1.16208L38.7622 1.04281L39.3124 1.1689L39.6835 1.0803C39.7603 1.06326 39.8243 1.03599 39.8883 1.03599H50.689L51.0857 0.933757C51.1625 0.933757 51.2264 0.899681 51.3032 0.899681H66.3269L66.8515 0.763363H75.0288C75.1312 0.698613 75.1951 0.65772 75.2591 0.627049C76.654 0.627049 78.0489 0.603193 79.4438 0.582745C79.4438 0.582745 79.4438 0.552075 79.5462 0.535035C78.121 0.430455 76.603 0.463038 75.2591 0.627049C74.9907 0.622034 74.7213 0.622034 74.4529 0.627049L73.8898 0.490731C73.3012 0.436205 73.122 0.58956 72.6101 0.640679L71.5992 0.500954H65.687L65.1624 0.633861H51.0857L50.6121 0.756545C49.986 0.788086 49.3406 0.778736 48.731 0.729287V0.552076C48.8334 0.524813 48.8974 0.494142 48.9613 0.494142H57.5865L58.1752 0.354418L58.7383 0.483919L59.2117 0.361235L59.8004 0.480508H61.4896C61.7199 0.480508 61.8735 0.296484 62.4878 0.354418L63.038 0.483919L63.6011 0.351012H82.5151L83.0909 0.211288L83.5644 0.337378L84.1531 0.221511H86.3797L86.8277 0.340784L87.4035 0.218105L87.9538 0.344195L88.3249 0.25218C88.4736 0.231947 88.6334 0.218145 88.7984 0.211288H106.881L107.444 0.0783805L108.007 0.20447C108.634 0.262404 108.774 0.0886012 109.389 0.064746L110.169 0.194247L110.643 0.0851925H168.703L169.151 0.207876L169.727 0.0715632H171.262L171.825 0.207876H172.887L173.45 0.0783805H177.29L177.737 0.194247L178.62 0.0545228L179.452 0.194247L179.977 0.0715632H181.039L181.602 0.20447L182.28 0.0477108L183.24 0.180618L184.034 0.0545228L184.84 0.190841L185.672 0.0408936L186.478 0.20447L187.143 0.0477108L188.321 0.207876H194.629L194.86 0.354418H193.58L193.004 0.490731L192.608 0.385088C188.519 0.318279 184.418 0.328527 180.335 0.415757C180.335 0.415757 180.399 0.456652 180.463 0.463467C180.618 0.480467 180.782 0.490823 180.949 0.494142H190.317L190.854 0.633861H196.267L196.831 0.780403H203.869L204.432 0.926939H212.545L213.032 1.05303H216.256L216.845 1.19957H218.995L219.584 1.3427H223.346L223.819 1.46539C224.69 1.50628 225.675 1.46539 226.635 1.49265L227.108 1.61533H230.947L231.472 1.75165L232.035 1.63237L232.598 1.75846H235.247L235.938 1.96976C235.938 1.96976 235.797 2.04132 235.708 2.04132C234.633 2.04132 233.558 2.04132 232.483 2.04132C232.483 2.04132 232.355 2.07199 232.291 2.08903C232.419 2.2083 232.841 2.15378 233.123 2.18786L234.108 2.44686L234.684 2.31736H237.371L237.934 2.45367H239.534L240.136 2.60021H241.172L241.786 2.74334H243.36L244.09 3.10457L243.629 3.23408C244 3.34994 244.486 3.27838 244.909 3.30223L246.048 3.01938H247.123C247.75 3.16932 247.263 3.26475 246.803 3.38062C247.43 3.45026 248.124 3.46575 248.786 3.42492L249.439 3.29201L249.58 3.53056L248.53 3.62599L248.927 3.82023C248.543 3.92247 248.07 3.82023 247.711 3.87135L247.033 3.71459L246.803 3.91565C247.469 3.97543 248.053 4.08701 248.479 4.23599C248.152 4.25416 247.837 4.28517 247.545 4.32801C247.251 4.38594 247.02 4.4541 246.585 4.42343C246.009 4.33823 246.508 4.17125 246.201 4.04515C245.894 3.91906 245.561 4.02471 245.229 4.00767V3.60213L244.602 3.53738C243.923 3.59872 243.783 3.8066 243.079 3.82705C242.375 3.8475 242.221 3.96336 241.978 4.08264C241.914 4.30415 243.04 4.328 243.053 4.53248H242.183C242.132 4.59326 242.059 4.65261 241.965 4.70969C241.838 4.77785 241.646 4.83919 241.492 4.90394L242.247 5.08796L243.053 4.89031V4.53248L243.565 4.58701V5.04025C243.501 5.105 242.823 5.13908 243.22 5.34696L243.77 5.49691C244.32 5.46624 244.461 5.30607 245.229 5.24473H245.984L246.611 5.09137C246.889 5.17531 247.145 5.26412 247.379 5.35718C247.66 5.49009 247.788 5.64686 248.108 5.76954C248.453 5.88174 248.838 5.98449 249.26 6.07625H250.962L251.845 6.36592H252.6L252.894 6.57721L251.73 6.81235V7.15314L251.205 7.30309L251.704 7.44962C251.781 7.5689 251.563 7.69158 251.986 7.79041L252.523 7.49393L253.252 7.86538L252.83 7.99148L253.342 8.13802V8.42087C253.188 8.44132 253.048 8.48562 252.907 8.48562H246.572L245.997 8.63557H243.68C243.783 8.80937 244.333 8.85708 244.614 8.97636C244.538 9.00362 244.448 9.05814 244.359 9.05814C242.925 9.05814 241.492 9.05814 240.059 9.05814L239.457 9.37167L237.371 9.09222L235.247 9.37508L234.684 9.06155H234.121C233.66 9.15016 233.929 9.27966 233.839 9.40234L233.136 9.59659L231.856 9.63408C231.792 9.63408 231.664 9.66816 231.664 9.6852C231.664 9.87263 231.664 10.0601 231.664 10.2441L231.126 10.3974L231.907 10.5985L232.483 10.4622H233.763C233.929 10.5235 234.07 10.5985 234.236 10.6019C234.633 10.6019 235.081 10.6496 235.439 10.544C234.991 10.394 234.364 10.4929 233.763 10.4622C234.064 10.3395 234.329 10.2107 234.556 10.0771L235.388 10.0021L235.529 9.66134C235.887 9.55569 236.373 9.63067 236.808 9.60681L237.397 9.74994H238.523L238.817 9.96464L237.115 10.3259V10.5269C237.474 10.6394 237.947 10.5815 238.395 10.5917C238.843 10.6019 239.125 10.5917 239.483 10.5917H240.763C240.852 10.3974 240.327 10.486 239.867 10.3157C239.944 10.377 239.867 10.2918 239.713 10.2202C239.56 10.1487 239.419 10.1827 239.265 10.1657V9.67838L238.626 9.50117L239.688 9.45686L239.867 9.6886L241.146 10.0294L241.991 10.0737V10.5235L242.81 10.7485H243.911C244.551 10.6019 243.911 10.4077 244.269 10.2339L244.717 10.1827V10.5235L245.293 10.6803L244.013 10.9632C244.205 11.0483 244.384 11.1165 244.525 11.1915C244.666 11.2665 244.755 11.3482 244.858 11.4232C245.395 11.4743 245.459 11.4641 245.779 11.3039C245.933 11.3039 246.189 11.2801 246.214 11.2562C246.278 11.1744 246.048 11.1608 245.779 11.1642C245.779 11.0143 246.38 11.004 246.496 10.8711L247.775 11.1676H248.965L249.093 11.4062C248.401 11.4183 247.726 11.4677 247.108 11.5515C246.489 11.6353 245.942 11.7516 245.497 11.8935L244.064 11.7095C243.194 11.8731 244.179 12.1423 243.386 12.2888L242.618 12.0877C242.823 11.9957 243.412 11.948 242.976 11.747C242.401 11.6652 241.582 11.747 240.635 11.7095L239.918 11.8935C239.764 12.1661 240.699 12.1866 240.852 12.374L240.289 12.5308C239.24 12.6875 238.536 12.3229 237.256 12.4762L236.642 12.5921L235.759 12.4217H234.262L233.558 12.5614C232.841 12.5614 232.637 12.3297 231.894 12.449L231.728 12.6262L232.598 12.8307C233.366 12.9397 233.878 12.7114 234.671 12.6909L235.286 12.8409L235.848 12.7046C236.616 12.6637 236.987 12.9602 238.126 12.8L238.485 12.725L239.368 12.8613L240.225 12.708L240.827 12.9261L239.931 13.042C240.059 13.1578 240.507 13.1033 240.763 13.1442C240.945 13.1778 241.12 13.2142 241.287 13.2532L241.646 13.1442L242.324 13.2941H244.883L242.452 13.4782L243.54 13.6179C243.194 13.8053 242.26 13.6179 241.889 13.7985C242.756 13.844 243.643 13.8578 244.525 13.8394C245.39 13.8207 246.26 13.8485 247.084 13.9212C246.213 13.9754 245.316 13.9961 244.423 13.9825L243.399 14.1802C244.384 14.3506 245.357 14.1802 246.201 14.3199L245.689 14.4767L246.752 14.6096V14.7561L245.229 14.9606H243.859L243.232 15.1071H237.87L237.269 15.2503H225.918L225.406 15.3832C223.845 15.4104 222.156 15.3832 220.479 15.4002L219.993 15.5263H208.629L208.053 15.6728H188.615L188.052 15.8194H129.032L128.533 15.9489H111.219L110.681 15.8228L109.849 15.9864L108.966 15.8126H57.049L56.5628 15.6831H47.8992L47.3361 15.5331H44.0857L43.5738 15.4002H39.6707L38.391 14.964H36.0108C35.3709 14.8106 35.9085 14.7186 36.2796 14.6232V14.3438C36.9578 14.2075 37.2777 13.9485 38.3782 13.9723C38.3618 13.9132 38.2783 13.8568 38.139 13.8105C37.9996 13.7643 37.8108 13.7304 37.5976 13.7133C37.0601 13.6929 36.881 13.6588 36.7914 13.5122C36.7914 13.4202 36.2539 13.3453 36.062 13.2873C35.0126 13.2396 35.3709 13.4713 34.9614 13.5531L34.3856 13.4236H32.7987C32.4916 13.4543 32.4149 13.5838 31.9542 13.5634C31.9542 13.5225 31.8646 13.4543 31.775 13.4509C31.4551 13.4305 31.4038 13.4918 31.4166 13.5634C31.3553 13.5586 31.2906 13.5577 31.2277 13.5607C31.1648 13.5638 31.1055 13.5708 31.0545 13.581C31.0035 13.5913 30.9622 13.6046 30.934 13.6199C30.9058 13.6352 30.8914 13.652 30.892 13.669C30.892 13.7644 30.892 13.853 31.4166 13.8428C31.4806 13.8837 31.5319 13.9587 31.6086 13.9587C32.3765 13.9587 32.8883 14.2177 34.0656 14.0916L34.6927 13.9348L34.0784 13.7372L34.8975 13.6963C35.5629 13.8326 34.8975 14.0132 35.2046 14.1597L35.7677 14.3915H34.488C33.4386 14.613 34.9999 14.7084 34.6671 14.8856C34.0657 14.9913 34.0657 14.9913 33.3874 14.8481L32.5428 14.9879L31.4166 14.8141L30.5593 14.964C30.5593 14.9163 30.3162 14.8515 30.3674 14.8106C30.4405 14.7446 30.5731 14.6843 30.7538 14.635C30.9344 14.5857 31.1577 14.5489 31.4039 14.5278C31.4935 14.6198 31.4039 14.7289 31.9286 14.6334L31.4039 14.5278C31.6343 14.3233 30.8536 14.187 30.6617 13.9996C30.5337 13.9085 30.3752 13.8207 30.1882 13.7372C29.9052 13.7249 29.635 13.697 29.3948 13.6554C29.1004 13.594 28.8573 13.5395 28.4605 13.5634L26.797 13.1442L26.2467 13.2601C25.6708 13.2839 25.0565 13.3214 24.6215 13.1408H22.9835L22.3948 13.2805L21.6526 13.0317V12.7693L20.5392 12.5546V12.1695L18.8116 11.8015L19.106 11.5766L19.7202 11.7197L20.2833 11.5902L21.0639 11.7947V11.9378L22.3436 12.2786C22.6508 12.2547 22.7276 12.1252 23.1755 12.1491C23.1755 12.2888 23.6617 12.3331 23.9561 12.4115C24.2504 12.4899 24.4167 12.4115 24.6215 12.4115C25.031 12.2036 24.6215 12.0707 24.34 11.9071C24.7239 11.8117 25.1974 11.8867 25.6197 11.856C26.0164 11.6856 26.1315 11.4607 27.2704 11.3755L26.0548 11.2699L25.6964 11.0177C25.5557 11.0518 25.3637 11.0756 25.3509 11.1029C25.3319 11.1903 25.3319 11.2779 25.3509 11.3653C24.9414 11.488 24.4679 11.413 24.0712 11.4368L23.4826 11.2971H21.3454L20.7824 11.1608L20.2193 11.2869C19.8738 11.1983 19.5795 11.0586 19.234 11.0449C18.6581 11.0245 18.3766 10.8984 17.8775 10.8745C17.5965 10.8677 17.3138 10.8677 17.0329 10.8745L16.4442 11.0177H15.9323C15.7534 11.0143 15.5738 11.0143 15.3949 11.0177C15.3949 11.0177 15.2669 11.0483 15.2029 11.062L13.6929 11.2835L13.2706 11.1744H11.8757L10.2505 10.9427C10.7623 10.8064 11.4662 10.6973 11.7221 10.5372C11.923 10.3898 12.2838 10.2617 12.7587 10.1691C13.3602 10.1521 13.5777 10.227 13.4753 10.3872L14.2815 10.5781H16.0091L16.3802 10.3054L17.0073 10.452H18.6453L19.4003 10.2407L18.3766 10.1112C18.4789 10.026 18.978 10.0021 18.8884 9.88967C19.7202 9.93738 20.245 9.74313 20.936 9.70223C20.7696 9.59318 20.616 9.48072 20.4113 9.36144C20.4113 9.33418 20.1297 9.33078 20.0018 9.33419C19.9122 9.24558 20.0018 9.13653 19.4771 9.23195C19.6445 9.26867 19.8197 9.30281 20.0018 9.33419C19.9861 9.40228 19.9861 9.47056 20.0018 9.53866C19.669 9.62385 19.2851 9.71587 18.9268 9.81129C18.9268 9.81129 18.9268 9.85559 18.9268 9.87944H17.5064L17.212 10.1146C16.9888 10.1529 16.7289 10.1733 16.4634 10.1733C16.1979 10.1733 15.938 10.1529 15.7148 10.1146L16.1755 9.96805C16.0219 9.87603 15.4716 9.82833 15.6892 9.6852L16.2267 9.53525V9.19446C16.4009 9.1982 16.5761 9.1912 16.7385 9.17402C16.8281 9.26262 16.7385 9.37167 17.2504 9.27625C17.0877 9.23945 16.9167 9.20532 16.7385 9.17402C16.9396 9.11089 17.1154 9.04236 17.2632 8.96954L15.3437 8.47199C14.9726 8.64579 15.2669 8.83323 15.0237 8.9968C14.8262 9.0653 14.6865 9.14434 14.6142 9.22854C14.6142 9.29329 14.8062 9.35122 15.1389 9.33419C15.0749 9.46709 15.2925 9.60681 14.9214 9.74994L14.3455 9.63067L13.7824 9.75335L13.2961 9.48413C12.9985 9.52694 12.7196 9.57837 12.4644 9.63749C12.3748 9.54547 12.4643 9.43642 11.9397 9.53184C12.0947 9.57173 12.2616 9.6082 12.4388 9.64089ZM228.849 10.3395C229.271 10.3088 229.68 10.3191 229.322 10.1964C229.194 10.2339 229.066 10.2748 229.143 10.3088C228.733 10.3395 228.311 10.3293 228.682 10.452C228.746 10.4179 228.849 10.377 228.849 10.3395ZM26.477 7.18381C26.5922 7.29286 26.5538 7.40191 27.0273 7.30649C26.8737 7.27241 26.733 7.24175 26.5922 7.26219C26.4771 7.15314 26.5155 7.04409 26.042 7.13951C26.1444 7.17018 26.2851 7.20426 26.4259 7.18381H26.477ZM232.24 4.68243C232.598 4.65857 233.084 4.75058 233.276 4.60063C232.56 4.53929 232.56 4.5393 232.304 4.69606L232.201 4.6688L231.754 4.76762L231.92 4.81193C232.041 4.774 232.133 4.72995 232.189 4.68243H232.24ZM22.8043 7.40873C22.6891 7.29968 22.7275 7.19063 22.254 7.28605C22.3952 7.32213 22.56 7.351 22.7403 7.37124V7.71203L24.3015 7.91309V7.55186L23.5594 7.35761C23.3008 7.35201 23.0419 7.36745 22.8171 7.40191L22.8043 7.40873ZM27.0529 12.3059C27.9359 12.282 27.36 12.5512 27.9231 12.5887C28.3326 12.5649 28.8061 12.6364 29.2028 12.5376L29.2668 12.3979C28.8701 12.1866 27.9871 12.1593 27.1681 12.0264C27.1681 12.1321 27.1041 12.2172 27.1041 12.3059C26.541 12.391 26.541 12.3911 26.7841 12.5751C27.2832 12.5171 26.925 12.3911 27.0017 12.299L27.0529 12.3059ZM32.8116 6.82599C33.3106 6.76805 33.7969 6.66581 34.2192 6.67604C34.6415 6.68626 35.1022 6.57039 35.4989 6.54994L35.8829 6.64877H42.0126L42.806 6.42726L42.55 6.24324H41.9486L41.3727 6.38296H33.285C33.0163 6.47156 32.5556 6.51927 32.4405 6.66922L32.8116 6.82599ZM28.4094 6.9657C29.062 6.69989 30.009 6.87029 30.6745 6.76123L31.9542 6.58062L31.7366 6.38977L30.6745 6.54994L29.9962 6.38296H28.3966L27.8463 6.51587L27.3345 6.40341L26.4259 6.54994L25.7349 6.40341C25.4848 6.45063 25.2141 6.48954 24.9286 6.51927C24.5954 6.53955 24.2577 6.55435 23.9176 6.56358C23.9176 6.56358 23.9176 6.59425 23.8537 6.60447L24.5959 6.80553H25.6708L26.2339 6.94185L26.8226 6.80553C27.3472 6.80894 27.9359 6.75101 28.3582 6.95889L28.4094 6.9657ZM33.4642 11.4811L32.3637 11.6004C31.7878 11.6652 31.4935 11.5084 30.9688 11.4811L30.8537 11.6686C31.1987 11.7468 31.5196 11.8323 31.8134 11.9242C31.9683 12.0067 32.0884 12.0936 32.1717 12.1832H33.4514L33.7457 12.4115L34.7055 12.2581L34.6415 11.9446C34.0145 11.781 33.4386 11.6822 33.4131 11.4743L33.4642 11.4811ZM235.759 5.96038C235.349 5.98424 234.876 5.91267 234.377 6.03535C234.633 6.13077 234.095 6.27731 234.697 6.37614H236.296L236.86 6.24324L237.461 6.38296L238.523 6.3591C238.587 6.3591 238.651 6.32843 238.728 6.30799C238.152 6.18189 237.819 5.9672 236.936 5.94334L236.309 6.08647L235.759 5.96038ZM35.998 12.0264C36.6122 12.006 37.2777 12.0673 37.8536 11.9753C37.6585 11.9138 37.4989 11.8449 37.3801 11.7708C37.2649 11.6686 37.5337 11.5425 37.073 11.4607C36.4843 11.4777 35.7933 11.4164 35.243 11.5084V11.8185L35.998 12.0264ZM230.512 9.72268C230.512 9.52503 229.719 9.70564 229.616 9.57955L229.322 9.341C228.823 9.36826 228.362 9.2967 227.889 9.41597C227.889 9.50458 227.889 9.61022 227.991 9.71927C227.991 9.73972 228.106 9.75335 228.158 9.76698C228.887 9.76698 229.591 9.76698 230.307 9.76698C230.333 9.76017 230.397 9.73631 230.474 9.71587L230.512 9.72268ZM246.764 6.8737C246.854 6.93845 246.547 7.05772 246.585 7.05772L248.479 6.73738C248.3 6.58743 248.594 6.45793 248.095 6.37614C247.686 6.4 247.199 6.32502 246.816 6.42726C246.432 6.5295 246.944 6.64196 247.263 6.72375L246.764 6.8737ZM230.781 3.69755C231.037 3.61917 231.446 3.57487 231.536 3.44877C231.139 3.4147 231.05 3.26134 230.512 3.27156C229.232 3.51011 229.233 3.56805 229.744 3.69755H230.781ZM240.008 6.37614H241.159C241.289 6.32433 241.449 6.27832 241.633 6.23983C241.863 6.20575 242.324 6.28413 242.362 6.09329H239.521C239.419 6.09329 239.342 6.14782 239.253 6.17508L240.008 6.37614ZM224.856 9.76017C225.265 9.73632 225.739 9.81128 226.136 9.71246C226.136 9.57273 225.649 9.63748 225.368 9.61363C224.869 9.48072 224.37 9.34781 223.858 9.21831C223.858 9.21831 223.73 9.21831 223.666 9.21831C223.563 9.41256 223.563 9.41257 224.894 9.76017H224.856ZM244.205 6.32843L243.975 6.03535L243.079 6.31821C243.784 6.4443 244.519 6.55813 245.28 6.659C245.436 6.64511 245.586 6.62683 245.728 6.60447C245.485 6.4034 244.576 6.42044 244.205 6.32843ZM25.2486 10.3259C23.8153 10.3259 23.8153 10.3259 23.2266 10.4349C23.4953 10.4521 23.7696 10.4624 24.0456 10.4656C24.646 10.4873 25.2569 10.4745 25.8372 10.4281C25.9396 10.2952 26.1443 10.1623 25.6325 10.0328L25.2486 10.3259ZM19.989 10.2509C20.2833 10.3157 20.4625 10.4213 21.0639 10.452C21.0639 10.2918 21.0639 10.135 21.0639 9.98168C21.0639 9.96123 20.8592 9.94079 20.744 9.91693C20.5009 10.0124 19.9762 10.0464 19.989 10.2509ZM232.688 9.26602C232.432 9.20468 232.189 9.13993 231.945 9.07518C231.459 9.07518 230.935 8.9968 230.474 9.13993C230.795 9.15844 231.108 9.18585 231.408 9.22172C231.69 9.26943 231.869 9.35804 232.291 9.33419L232.688 9.26602ZM234.876 3.75889C235.145 3.83387 235.324 3.93269 235.772 3.95314L236.424 3.77252L235.682 3.55101L234.876 3.75889ZM29.2156 11.7231L29.0109 11.4437L27.9999 11.4948L28.1662 11.7231H29.2156ZM79.9173 0.535035C81.197 0.599785 81.197 0.596377 81.6065 0.497548C81.3396 0.46142 81.0402 0.445791 80.7419 0.452412C80.4436 0.459033 80.158 0.487642 79.9173 0.535035ZM238.318 4.57678C238.638 4.46091 239.073 4.42002 239.137 4.30074C239.065 4.28462 238.982 4.27259 238.892 4.26537C238.802 4.25816 238.707 4.25592 238.613 4.25879C238.52 4.26166 238.43 4.26958 238.348 4.28207C238.267 4.29456 238.196 4.31135 238.139 4.33141L238.318 4.57678ZM229.962 9.02747C228.836 8.9082 228.836 8.9116 228.452 9.02747C228.71 9.03968 228.971 9.04765 229.232 9.05133C229.478 9.0484 229.721 9.04042 229.962 9.02747ZM233.801 12.2275C233.58 12.1716 233.287 12.1405 232.982 12.1405C232.677 12.1405 232.384 12.1716 232.163 12.2275C232.271 12.2569 232.401 12.2804 232.544 12.2963C232.686 12.3123 232.84 12.3206 232.995 12.3206C233.15 12.3206 233.303 12.3123 233.446 12.2963C233.589 12.2804 233.718 12.2569 233.827 12.2275H233.801ZM32.6324 12.8818C33.0547 12.7659 33.0291 12.6875 32.7092 12.5819L32.1205 12.6057L32.6324 12.8818ZM222.527 3.39425H222.872C222.872 3.33291 222.949 3.26815 222.962 3.20681C222.975 3.14547 222.821 3.15911 222.783 3.16251C222.744 3.16592 222.45 3.19318 222.437 3.21022C222.45 3.2725 222.489 3.33421 222.552 3.39425H222.527ZM225.176 3.34313C224.677 3.25453 224.331 3.21022 224.114 3.36358C224.459 3.44196 224.754 3.43514 225.201 3.34313H225.176ZM239.816 4.00426V4.09627C240.046 4.09627 240.289 4.11331 240.532 4.11672C240.775 4.12012 240.724 4.08264 240.711 4.07242C240.699 4.06219 240.583 3.98381 240.519 3.98381C240.292 3.98625 240.065 3.99308 239.841 4.00426H239.816ZM241.377 4.47114C241.315 4.44793 241.234 4.429 241.139 4.41593C241.045 4.40286 240.94 4.39603 240.833 4.39603C240.726 4.39603 240.621 4.40286 240.527 4.41593C240.432 4.429 240.351 4.44793 240.289 4.47114C240.347 4.49652 240.429 4.51748 240.527 4.53203C240.624 4.54658 240.734 4.55421 240.846 4.55421C240.957 4.55421 241.067 4.54658 241.165 4.53203C241.262 4.51748 241.344 4.49652 241.402 4.47114H241.377ZM243.066 6.68626V6.77486C243.308 6.78505 243.551 6.79187 243.795 6.79531C243.795 6.79531 243.975 6.76124 243.962 6.75101C243.949 6.74079 243.847 6.66581 243.77 6.6624C243.541 6.66451 243.314 6.6725 243.092 6.68626H243.066ZM32.6836 14.5653C33.0291 14.4392 33.1955 14.3506 32.6068 14.2892C32.3381 14.3744 32.3508 14.4528 32.7092 14.5653H32.6836ZM40.2594 11.7333C40.1723 11.7489 40.1009 11.77 40.0516 11.7946C40.0022 11.8193 39.9764 11.8468 39.9764 11.8748C39.9764 11.9027 40.0022 11.9302 40.0516 11.9549C40.1009 11.9795 40.1723 12.0006 40.2594 12.0162C40.3507 12.0017 40.4267 11.9814 40.4804 11.957C40.534 11.9325 40.5634 11.9049 40.566 11.8766C40.5685 11.8484 40.5441 11.8204 40.495 11.7953C40.4458 11.7703 40.3736 11.7489 40.285 11.7333H40.2594ZM228.938 8.71395C228.998 8.73785 229.079 8.75746 229.173 8.77102C229.268 8.78458 229.374 8.79168 229.482 8.79168C229.59 8.79168 229.696 8.78458 229.791 8.77102C229.886 8.75746 229.966 8.73785 230.026 8.71395C229.966 8.69005 229.886 8.67044 229.791 8.65688C229.696 8.64332 229.59 8.63622 229.482 8.63622C229.374 8.63622 229.268 8.64332 229.173 8.65688C229.079 8.67044 228.998 8.69005 228.938 8.71395ZM242.017 8.52993V8.61853C242.254 8.62871 242.493 8.63553 242.733 8.63898C242.733 8.63898 242.925 8.60489 242.912 8.59467C242.9 8.58445 242.797 8.50607 242.721 8.50607C242.485 8.50395 242.249 8.50852 242.017 8.5197V8.52993ZM220.902 3.23408L221.094 3.2852C221.165 3.25549 221.221 3.2234 221.26 3.18977C221.26 3.18977 221.158 3.1591 221.094 3.14206L220.902 3.23408ZM242.823 3.16251L242.477 3.21363C242.541 3.21363 242.618 3.26134 242.657 3.25793C242.784 3.24819 242.905 3.23325 243.015 3.21363L242.823 3.16251ZM228.746 3.54419L228.938 3.49648C228.822 3.47751 228.697 3.46261 228.567 3.45218C228.567 3.45218 228.452 3.47944 228.388 3.49648L228.746 3.54419ZM126.537 3.65666L126.345 3.56464C126.345 3.56464 126.166 3.60213 126.178 3.61235C126.221 3.64566 126.277 3.67766 126.345 3.70777L126.537 3.65666ZM234.031 3.68732L234.39 3.63621C234.39 3.63621 234.249 3.5885 234.211 3.5919C234.08 3.60234 233.955 3.61723 233.839 3.63621L234.031 3.68732ZM234.313 4.64494L234.108 4.55292C234.108 4.56996 233.929 4.587 233.942 4.60063C233.987 4.63258 234.042 4.66338 234.108 4.69265L234.313 4.64494ZM69.7436 5.49009L69.5389 5.39808C69.5389 5.39808 69.3598 5.43557 69.3726 5.44579C69.4149 5.4791 69.4707 5.5111 69.5389 5.54121L69.7436 5.49009ZM59.3397 5.83088L58.9942 5.882C58.9942 5.89904 59.1222 5.92971 59.1606 5.9263C59.291 5.91587 59.4157 5.90098 59.5317 5.882L59.3397 5.83088ZM47.2721 6.3557L47.6177 6.30457C47.6177 6.30457 47.4897 6.26028 47.4385 6.26028C47.3156 6.27297 47.196 6.28777 47.0802 6.30457L47.2721 6.3557ZM19.3875 7.31331L19.1956 7.2213C19.1956 7.2213 19.0164 7.25878 19.0292 7.26901C19.0716 7.30232 19.1274 7.33431 19.1956 7.36443L19.3875 7.31331ZM35.4349 7.36443C35.4349 7.36443 35.2558 7.39851 35.2686 7.40873C35.3109 7.44204 35.3667 7.47404 35.4349 7.50415C35.4349 7.50415 35.6141 7.47007 35.6141 7.45985C35.5628 7.42142 35.494 7.38479 35.4094 7.3508L35.4349 7.36443ZM27.7567 7.5246L27.5648 7.57572C27.6779 7.59389 27.798 7.60874 27.9231 7.62002C27.9231 7.62002 28.0511 7.58935 28.1023 7.57572L27.7567 7.5246ZM20.0785 8.01874L20.2705 8.06986C20.3416 8.04015 20.3975 8.00806 20.4369 7.97444C20.4369 7.97444 20.3345 7.94377 20.2705 7.92673L20.0785 8.01874ZM17.9159 8.30159L18.1078 8.3493C18.1736 8.32003 18.2293 8.28924 18.2742 8.25729C18.2742 8.25729 18.159 8.22662 18.1078 8.20958L17.9159 8.30159ZM227.786 8.58104L227.595 8.49244C227.595 8.49244 227.415 8.52651 227.428 8.53674C227.465 8.57065 227.521 8.60284 227.595 8.63216L227.786 8.58104ZM226.289 9.39552L226.481 9.48413C226.545 9.48413 226.66 9.45005 226.648 9.43983C226.611 9.40592 226.555 9.37373 226.481 9.34441L226.289 9.39552ZM26.541 10.101L26.733 10.1896C26.733 10.1896 26.9121 10.1555 26.8994 10.1453C26.857 10.1119 26.8012 10.08 26.733 10.0498L26.541 10.101ZM235.49 10.2816L235.682 10.3327C235.755 10.3027 235.815 10.2707 235.861 10.2373C235.861 10.2373 235.746 10.2066 235.682 10.1896L235.49 10.2816ZM39.4532 11.505L39.2612 11.4539C39.1889 11.4839 39.1289 11.5159 39.0821 11.5493C39.0821 11.5493 39.1972 11.58 39.2612 11.5936L39.4532 11.505ZM30.1242 11.7163L30.3289 11.6652C30.2129 11.6462 30.0882 11.6313 29.9578 11.6209C29.9578 11.6209 29.8427 11.6481 29.7787 11.6652L30.1242 11.7163ZM237.039 11.7844L236.847 11.7367C236.776 11.7653 236.72 11.7962 236.68 11.8288C236.68 11.8288 236.783 11.8594 236.847 11.8765L237.039 11.7844ZM29.2156 11.948C29.1516 11.931 29.0876 11.9003 29.0364 11.9037C28.9091 11.9135 28.7883 11.9284 28.6782 11.948C28.6782 11.948 28.8061 11.9923 28.8573 11.9923C28.9084 11.9923 29.0748 11.9617 29.2156 11.948ZM36.3307 12.8136L36.5227 12.8647C36.5937 12.835 36.6497 12.8029 36.6891 12.7693C36.6891 12.7693 36.5867 12.7387 36.5227 12.7216L36.3307 12.8136Z" fill="#FFC906" fill-opacity="0.7"/>
<path d="M255.978 4.38938C256 4.31907 256 4.2484 255.978 4.17809L256.784 4.0929L257.974 4.50184L257.655 4.60749C257.655 4.6995 257.578 4.81196 257.526 4.94827C257.271 4.94827 256.912 4.99258 256.797 4.94827C256.196 4.81196 255.658 4.66201 255.031 4.49844L253.956 4.66883L253.24 4.39279H252.344L252.165 4.16787L253.201 4.06223C252.996 3.97021 252.804 3.88161 252.587 3.77596L253.547 3.63965C253.739 3.74188 253.956 3.84412 254.161 3.94636L253.815 4.04519C254.201 4.08966 254.577 4.13972 254.942 4.19513C255.3 4.25648 255.479 4.37916 255.94 4.37916C256.029 4.46095 255.94 4.57 256.464 4.47458C256.315 4.44151 256.151 4.41294 255.978 4.38938Z" fill="#FFC906" fill-opacity="0.7"/>
<path d="M41.3854 0.736151L40.8096 0.872469L40.3489 0.753191H36.9705L36.5738 0.855428L35.6652 0.715704L34.795 0.872469H33.8097C33.3746 0.787272 33.4129 0.691847 33.8097 0.596426L34.3727 0.729338L34.8717 0.603243H45.1093L45.9284 0.429443L47.1185 0.610061L47.9247 0.46693C48.2574 0.514641 48.219 0.596428 48.1039 0.678217C48.0271 0.702072 47.963 0.732745 47.8991 0.732745L41.3854 0.736151Z" fill="#FFC906" fill-opacity="0.7"/>
<path d="M28.1024 0.875766L27.9104 1.00527H21.384L20.8849 1.13476C20.2304 1.16554 19.5636 1.17356 18.9014 1.15862C18.9654 1.11773 18.9909 1.05979 19.0933 1.04275C19.4644 0.991636 19.8483 0.957556 20.5393 0.882583H22.8172L23.713 0.722412L24.916 0.896212L25.6966 0.746265L26.2468 0.875766H28.1024Z" fill="#FFC906" fill-opacity="0.7"/>
<path d="M251.793 3.91228L250.411 4.17128C250.693 4.30078 250.898 4.39279 251.128 4.51207V4.76425L249.848 5.10504C249.541 5.0028 248.927 4.95168 249.042 4.76425L250.053 4.63475C250.373 4.46776 249.707 4.3962 249.477 4.31441C250.194 4.00429 250.616 3.88843 251.23 3.84753C251.307 3.8339 251.473 3.87479 251.793 3.91228Z" fill="#FFC906" fill-opacity="0.7"/>
<path d="M198.635 0.453208H199.415L199.991 0.316895L200.465 0.442984H205.891C205.974 0.45758 206.044 0.476867 206.096 0.499477C206.148 0.522087 206.18 0.547466 206.191 0.573812C206.202 0.600157 206.191 0.626825 206.159 0.651921C206.127 0.677017 206.075 0.699925 206.006 0.719022H204.726L204.253 0.596338H198.788L198.635 0.453208Z" fill="#FFC906" fill-opacity="0.7"/>
<path d="M253.854 6.94189H255.722L256.529 7.18045L255.582 7.3338C255.364 7.49738 255.582 7.60643 255.044 7.63029L254.699 7.38492L253.419 7.34743C253.214 7.29631 253.214 7.29631 253.752 7.14978L253.854 6.94189Z" fill="#FFC906" fill-opacity="0.7"/>
<path d="M209.999 0.695251L210.126 0.426025L210.805 0.593013L211.368 0.4567L211.828 0.579384C212.737 0.644134 213.799 0.541895 214.874 0.6305C214.03 0.763408 213.607 0.770224 209.999 0.695251Z" fill="#FFC906" fill-opacity="0.7"/>
<path d="M194.847 0.31354C195.973 0.31354 197.099 0.31354 198.225 0.31354C198.29 0.312229 198.354 0.315123 198.413 0.32198C198.473 0.328836 198.525 0.339443 198.565 0.352878C198.605 0.366313 198.633 0.38217 198.645 0.39907C198.657 0.41597 198.654 0.433404 198.635 0.449853H197.841L197.291 0.586166L196.677 0.43963H195.039L194.847 0.31354Z" fill="#FFC906" fill-opacity="0.7"/>
<path d="M7.84444 7.45646L6.67995 7.51781L6.21924 7.78703H5.64336C5.08029 7.66094 5.96329 7.63368 5.92489 7.53826C5.90604 7.45654 5.90604 7.3746 5.92489 7.29289L6.18085 7.22473C6.46238 7.35082 6.99984 7.35082 7.84444 7.45646Z" fill="#FFC906" fill-opacity="0.7"/>
<path d="M33.0547 0.790594C32.7732 0.848528 32.7092 0.875791 32.6452 0.875791H29.9707C29.9067 0.875791 29.8555 0.845119 29.7915 0.831487C30.4953 0.715619 30.4953 0.715621 33.0547 0.790594Z" fill="#FFC906" fill-opacity="0.7"/>
<path d="M13.488 1.29846C13.2288 1.37504 12.9133 1.43663 12.5611 1.47942C12.2089 1.52221 11.8275 1.5453 11.4404 1.54724C11.4404 1.42114 11.9139 1.38366 12.1443 1.29846H13.488Z" fill="#FFC906" fill-opacity="0.7"/>
<path d="M17.7751 5.36743V5.64688L16.8921 5.69118L16.7002 5.42537L17.7751 5.36743Z" fill="#FFC906" fill-opacity="0.7"/>
<path d="M238.101 1.84363V2.11626L237.218 2.16056L237.026 1.89475L238.101 1.84363Z" fill="#FFC906" fill-opacity="0.7"/>
<path d="M13.4878 1.27113C14.1788 1.10074 14.8955 1.18594 15.6121 1.20298C14.9722 1.35974 14.1916 1.25409 13.4878 1.27113Z" fill="#FFC906" fill-opacity="0.7"/>
<path d="M9.34183 7.2417C9.8793 7.2417 9.58496 7.3712 9.72572 7.43254C9.86649 7.49389 10.0969 7.51774 10.5064 7.60294L9.38022 7.64724C9.22988 7.58759 9.14641 7.51777 9.13961 7.44596C9.13281 7.37414 9.20296 7.30329 9.34183 7.2417Z" fill="#FFC906" fill-opacity="0.7"/>
<path d="M250.501 3.26135L251.781 3.32269C251.346 3.4113 251.179 3.52035 250.68 3.5408L250.501 3.26135Z" fill="#FFC906" fill-opacity="0.7"/>
<path d="M245.203 3.97695V4.22913C244.589 4.25299 244.601 4.086 244.192 4.07919C244.345 3.90879 244.845 4.00422 245.203 3.97695Z" fill="#FFC906" fill-opacity="0.7"/>
<path d="M245.152 4.96528C245.152 4.83918 245.267 4.76081 245.331 4.65857C245.625 4.73354 245.817 4.77444 245.984 4.82215C246.06 4.85207 246.124 4.88405 246.176 4.91757L245.741 4.96528C245.545 4.96943 245.348 4.96943 245.152 4.96528Z" fill="#FFC906" fill-opacity="0.7"/>
<path d="M3.19922 8.0699V7.87224C3.48075 7.73592 3.86464 7.80408 4.33813 7.78704C3.99261 7.94721 3.7239 8.04945 3.19922 8.0699Z" fill="#FFC906" fill-opacity="0.7"/>
<path d="M29.2155 14.6982H28.4604C27.9869 14.6232 28.0125 14.5312 28.3325 14.4324C28.5506 14.4538 28.7455 14.4893 28.8996 14.5357C29.0537 14.5821 29.1622 14.6379 29.2155 14.6982Z" fill="#FFC906" fill-opacity="0.7"/>
<path d="M207.247 0.534979C207.695 0.442966 207.989 0.436151 208.309 0.514533C208.092 0.654256 207.746 0.61336 207.247 0.534979Z" fill="#FFC906" fill-opacity="0.7"/>
<path d="M28.064 0.896331C28.4223 0.732753 28.4223 0.732752 29.1389 0.794094C28.9342 0.940633 28.4479 0.841805 28.064 0.896331Z" fill="#FFC906" fill-opacity="0.7"/>
<path d="M18.9013 1.15869C18.5814 1.30182 18.5814 1.30182 17.8647 1.24048C18.0695 1.09053 18.5558 1.18254 18.9013 1.15869Z" fill="#FFC906" fill-opacity="0.7"/>
<path d="M240.775 2.25943C240.54 2.27429 240.3 2.28229 240.058 2.28329C240.058 2.28329 239.905 2.22536 239.866 2.19128C239.828 2.1572 239.982 2.14697 240.046 2.14697C240.286 2.15156 240.525 2.15953 240.762 2.17083L240.775 2.25943Z" fill="#FFC906" fill-opacity="0.7"/>
<path d="M247.327 4.62455C247.456 4.58483 247.634 4.55883 247.83 4.55132C248.025 4.5438 248.223 4.55529 248.389 4.58366C248.146 4.74723 247.801 4.70634 247.327 4.62455Z" fill="#FFC906" fill-opacity="0.7"/>
<path d="M16.4186 5.95361C16.5057 5.9692 16.5771 5.99025 16.6264 6.01492C16.6758 6.03958 16.7016 6.0671 16.7016 6.09504C16.7016 6.12299 16.6758 6.1505 16.6264 6.17517C16.5771 6.19983 16.5057 6.22088 16.4186 6.23647C16.3287 6.22144 16.2547 6.20058 16.2033 6.17585C16.1519 6.15111 16.125 6.12331 16.125 6.09504C16.125 6.06678 16.1519 6.03898 16.2033 6.01424C16.2547 5.9895 16.3287 5.96864 16.4186 5.95361Z" fill="#FFC906" fill-opacity="0.7"/>
<path d="M14.8445 6.22278C15.2028 6.33865 15.2156 6.41703 14.9212 6.49882C14.3326 6.44088 14.4989 6.35228 14.8445 6.22278Z" fill="#FFC906" fill-opacity="0.7"/>
<path d="M29.2156 14.2041C29.1561 14.228 29.0753 14.2476 28.9804 14.2611C28.8855 14.2747 28.7795 14.2818 28.6718 14.2818C28.5641 14.2818 28.458 14.2747 28.3631 14.2611C28.2682 14.2476 28.1875 14.228 28.1279 14.2041C28.1875 14.1802 28.2682 14.1606 28.3631 14.147C28.458 14.1334 28.5641 14.1263 28.6718 14.1263C28.7795 14.1263 28.8855 14.1334 28.9804 14.147C29.0753 14.1606 29.1561 14.1802 29.2156 14.2041Z" fill="#FFC906" fill-opacity="0.7"/>
<path d="M31.89 13.5702C31.9349 13.6321 31.9349 13.6957 31.89 13.7576C31.8132 13.7985 31.5444 13.819 31.3652 13.8496V13.5702H31.89Z" fill="#FFC906" fill-opacity="0.7"/>
<path d="M23.2393 12.1593V11.8765C23.7383 11.8765 23.8023 11.9583 23.7639 12.0503C23.7639 12.0673 23.7492 12.0842 23.7211 12.0996C23.6929 12.1149 23.652 12.1284 23.6014 12.1389C23.5509 12.1494 23.492 12.1567 23.4292 12.1602C23.3665 12.1638 23.3015 12.1635 23.2393 12.1593Z" fill="#FFC906" fill-opacity="0.7"/>
<path d="M23.2392 11.8765C22.6761 11.7947 22.6761 11.7947 22.9192 11.6073C23.4951 11.6584 23.1368 11.7811 23.2392 11.8765Z" fill="#FFC906" fill-opacity="0.7"/>
<path d="M9.43142 10.7587C9.51852 10.7743 9.58988 10.7953 9.63922 10.82C9.68857 10.8446 9.71436 10.8721 9.71436 10.9001C9.71436 10.928 9.68857 10.9556 9.63922 10.9802C9.58988 11.0049 9.51852 11.0259 9.43142 11.0415C9.34432 11.0259 9.27296 11.0049 9.22362 10.9802C9.17427 10.9556 9.14844 10.928 9.14844 10.9001C9.14844 10.8721 9.17427 10.8446 9.22362 10.82C9.27296 10.7953 9.34432 10.7743 9.43142 10.7587Z" fill="#FFC906" fill-opacity="0.7"/>
<path d="M10.2376 10.5372C10.1796 10.5611 10.1 10.5807 10.0061 10.5944C9.91218 10.608 9.80699 10.6151 9.70009 10.6151C9.59318 10.6151 9.48799 10.608 9.39411 10.5944C9.30022 10.5807 9.2206 10.5611 9.1626 10.5372C9.2206 10.5133 9.30022 10.4936 9.39411 10.48C9.48799 10.4664 9.59318 10.4592 9.70009 10.4592C9.80699 10.4592 9.91218 10.4664 10.0061 10.48C10.1 10.4936 10.1796 10.5133 10.2376 10.5372Z" fill="#FFC906" fill-opacity="0.7"/>
<path d="M15.139 10.1146C15.0776 10.1378 14.9961 10.1567 14.9015 10.1698C14.8068 10.1829 14.7018 10.1897 14.5952 10.1897C14.4885 10.1897 14.3835 10.1829 14.2888 10.1698C14.1942 10.1567 14.1127 10.1378 14.0513 10.1146C14.1108 10.0907 14.1916 10.0711 14.2865 10.0575C14.3814 10.044 14.4875 10.0369 14.5952 10.0369C14.7029 10.0369 14.8089 10.044 14.9038 10.0575C14.9987 10.0711 15.0795 10.0907 15.139 10.1146Z" fill="#FFC906" fill-opacity="0.7"/>
<path d="M9.70001 8.06987C9.80238 7.97786 9.44407 7.85177 10.0199 7.79724C10.2503 7.98467 10.2503 7.98468 9.70001 8.06987Z" fill="#FFC906" fill-opacity="0.7"/>
<path d="M209.269 0.473755L209.461 0.524871C209.333 0.524871 209.218 0.558951 209.09 0.569175C208.962 0.579399 208.975 0.538503 208.911 0.524871L209.269 0.473755Z" fill="#FFC906" fill-opacity="0.7"/>
<path d="M215.872 0.685032L215.681 0.736148C215.607 0.706826 215.551 0.674636 215.514 0.640728C215.514 0.640728 215.617 0.610057 215.681 0.593018L215.872 0.685032Z" fill="#FFC906" fill-opacity="0.7"/>
<path d="M16.6615 1.06662L16.4696 1.15863C16.4056 1.14159 16.2904 1.12455 16.3032 1.11092C16.3451 1.07756 16.4009 1.04555 16.4696 1.0155L16.6615 1.06662Z" fill="#FFC906" fill-opacity="0.7"/>
<path d="M4.1333 2.86603L4.60678 2.7229C4.9779 2.84558 4.5556 2.83536 4.1333 2.86603Z" fill="#FFC906" fill-opacity="0.7"/>
<path d="M4.44063 2.83533L3.96711 2.97846C3.62159 2.85577 4.01833 2.866 4.44063 2.83533Z" fill="#FFC906" fill-opacity="0.7"/>
<path d="M250.117 4.01792L249.567 3.89524C250.04 3.79982 250.002 3.90887 250.117 4.01792Z" fill="#FFC906" fill-opacity="0.7"/>
<path d="M9.50814 5.64681L9.1626 5.5957C9.1626 5.5957 9.29059 5.55139 9.34177 5.55139C9.46467 5.56409 9.58436 5.57889 9.70009 5.5957L9.50814 5.64681Z" fill="#FFC906" fill-opacity="0.7"/>
<path d="M13.0147 6.27391L12.4517 6.15122C12.9251 6.0558 12.8868 6.16485 13.0147 6.27391Z" fill="#FFC906" fill-opacity="0.7"/>
<path d="M13.4878 6.37611C13.1167 6.37611 12.9375 6.33181 12.9503 6.23639C13.3215 6.23298 13.5006 6.27728 13.4878 6.37611Z" fill="#FFC906" fill-opacity="0.7"/>
<path d="M13.4238 6.32849L13.9869 6.45458C13.5134 6.55682 13.5518 6.44777 13.4238 6.32849Z" fill="#FFC906" fill-opacity="0.7"/>
<path d="M253.496 6.49546L253.304 6.44775C253.42 6.42877 253.544 6.41387 253.675 6.40344C253.675 6.40344 253.79 6.43071 253.854 6.44775L253.496 6.49546Z" fill="#FFC906" fill-opacity="0.7"/>
<path d="M253.905 6.97935L253.354 6.85667C253.828 6.76124 253.79 6.8703 253.905 6.97935Z" fill="#FFC906" fill-opacity="0.7"/>
<path d="M13.0273 7.17355L13.2193 7.08154C13.2833 7.08154 13.3985 7.11562 13.3857 7.12925C13.3461 7.16179 13.2901 7.19273 13.2193 7.22126L13.0273 7.17355Z" fill="#FFC906" fill-opacity="0.7"/>
<path d="M14.3071 7.64392C14.3706 7.67469 14.4262 7.70657 14.4735 7.73934C14.4735 7.73934 14.3583 7.77001 14.3071 7.78705C14.2348 7.75703 14.1747 7.72505 14.1279 7.69163C14.1279 7.69163 14.2431 7.66096 14.3071 7.64392Z" fill="#FFC906" fill-opacity="0.7"/>
<path d="M0.563031 8.25053L0 8.12784C0.473488 8.03242 0.435062 8.13807 0.563031 8.25053Z" fill="#FFC906" fill-opacity="0.7"/>
<path d="M3.35285 8.05286L2.87937 8.19599C2.52105 8.0733 2.93055 8.08353 3.35285 8.05286Z" fill="#FFC906" fill-opacity="0.7"/>
<path d="M0.435059 8.1687L0.98532 8.2948C0.511831 8.39022 0.550231 8.28116 0.435059 8.1687Z" fill="#FFC906" fill-opacity="0.7"/>
<path d="M16.2011 9.1979H15.6509C15.7149 9.157 15.7532 9.08885 15.8428 9.08544C16.1628 9.05477 16.2139 9.12974 16.2011 9.1979Z" fill="#FFC906" fill-opacity="0.7"/>
<path d="M15.6507 9.19781C15.6507 9.29323 15.4844 9.34095 15.1133 9.33754C15.1389 9.23871 15.2796 9.19441 15.6507 9.19781Z" fill="#FFC906" fill-opacity="0.7"/>
<path d="M9.62345 9.5693L9.4315 9.62043C9.35784 9.5911 9.30171 9.55891 9.26514 9.52501C9.26514 9.52501 9.36752 9.49433 9.4315 9.47729L9.62345 9.5693Z" fill="#FFC906" fill-opacity="0.7"/>
<path d="M244.499 10.1998L244.96 10.0566C245.331 10.1793 244.909 10.1691 244.499 10.1998Z" fill="#FFC906" fill-opacity="0.7"/>
<path d="M233.084 10.3054L232.739 10.2543C232.739 10.2372 232.867 10.2066 232.918 10.21C233.045 10.2197 233.166 10.2347 233.276 10.2543L233.084 10.3054Z" fill="#FFC906" fill-opacity="0.7"/>
<path d="M239.38 10.1691L238.907 10.3122C238.548 10.1895 238.958 10.1997 239.38 10.1691Z" fill="#FFC906" fill-opacity="0.7"/>
<path d="M245.728 11.3107C245.459 11.3107 245.229 11.3107 245.293 11.2187C245.293 11.1949 245.574 11.1881 245.728 11.171V11.3107Z" fill="#FFC906" fill-opacity="0.7"/>
<path d="M242.208 12.8647C242.279 12.8933 242.335 12.9242 242.375 12.9568C242.375 12.9568 242.272 12.9874 242.208 13.0045C242.135 12.9751 242.079 12.943 242.042 12.9091C242.042 12.9091 242.144 12.8784 242.208 12.8647Z" fill="#FFC906" fill-opacity="0.7"/>
<path d="M29.126 14.6573L29.6762 14.78C29.2155 14.8755 29.2156 14.7664 29.126 14.6573Z" fill="#FFC906" fill-opacity="0.7"/>
<path d="M35.8829 11.614L36.2284 11.6651C36.1644 11.6651 36.0877 11.7128 36.0493 11.7094C35.9242 11.6982 35.804 11.6833 35.6909 11.6651L35.8829 11.614Z" fill="#FFC906" fill-opacity="0.7"/>
</svg>
