<svg width="165" height="18" viewBox="0 0 165 18" fill="none" xmlns="http://www.w3.org/2000/svg">
<path d="M7.95479 10.8459C7.88113 10.9494 8.19212 10.9763 8.27396 11.0874L7.8402 11.1488C7.46968 11.0373 7.19674 10.8672 7.07089 10.6695L6.63713 10.8459L6.47344 10.3667H5.29495L4.64021 10.6695C4.59404 10.6073 4.53655 10.547 4.46835 10.4893C4.32103 10.3858 4.14917 10.2862 3.96094 10.1673L3.61719 10.5047H3.21618L2.98702 10.2018L2.31592 10.1865L1.01465 9.63439L1.05556 9.43503C1.55066 9.39822 2.05284 9.38666 2.55327 9.40053L2.97883 9.58072L3.15888 9.13599C3.40441 9.03248 3.70722 9.11299 3.9773 9.08232L4.3374 8.93663L4.77116 9.10149L4.91846 8.62992C5.50772 8.7181 5.64686 9.03248 6.23612 9.08615C6.40799 9.22801 6.40799 9.228 6.82538 9.20884C6.82538 9.18967 6.92358 9.1705 6.92358 9.15133C6.92358 8.88679 6.92358 8.62609 6.92358 8.38456L6.57167 8.20436C6.57167 8.08552 6.57166 7.97817 6.93994 7.982C7.30823 7.98583 7.70925 8.2312 8.06116 8.58392C8.21666 8.60309 8.38035 8.61842 8.52766 8.64143C8.67498 8.66443 8.61768 8.67593 8.65042 8.69127V8.85612L9.14147 9.07849C9.58341 8.98647 9.65707 8.77561 9.87804 8.61075C10.099 8.4459 10.6146 8.4344 10.9583 8.32321L11.2039 8.43823C11.5149 8.40373 11.4739 8.28104 11.3839 8.21203C11.2939 8.14302 10.9583 8.03567 11.1302 7.87848C11.4821 7.76347 11.8995 7.84398 12.276 7.82481L12.6443 7.66762C12.9962 7.60244 13.1189 7.77113 13.3481 7.80564L13.7983 7.63695L14.3875 7.80181L14.8213 7.61778C14.8213 7.57944 14.7722 7.5296 14.7067 7.5066C14.1888 7.32253 13.576 7.20612 12.9307 7.16922C12.6688 7.00437 12.8652 6.8165 12.7998 6.62865L12.1205 6.47913V6.31427C12.6279 6.02673 13.4709 5.99222 14.052 5.75452H16.1061L16.4253 5.60884H18.8806L19.1834 5.47082C19.7072 5.38264 20.2964 5.52449 20.8611 5.3558C20.3565 5.2809 19.8236 5.25737 19.298 5.28679C18.7824 5.28679 18.2586 5.28679 17.743 5.28679H14.7394L14.4039 5.13344H8.19211L7.80746 4.97241H5.04941L4.73841 4.83056H3.70723L3.37168 4.67721L2.55327 4.6312L2.40593 4.3475L1.73485 4.10596C1.83306 3.81075 2.35684 3.72258 2.67602 3.53855H3.33074L3.69085 3.39669H4.71386L5.15581 3.55388L5.27857 3.28551C5.59775 3.14749 6.02333 3.25484 6.41617 3.22417L6.79263 3.37753L7.25913 2.96347L6.27703 2.51107L7.39825 1.99733C7.71743 1.91682 8.06116 1.97433 8.47037 1.95133L8.91232 1.80181H10.2463L10.6146 1.63312H13.7328L14.052 1.48743H17.4893L17.8821 1.32258H22.7025L23.0708 1.16922L23.5046 1.34941L24.1348 1.19989L24.4458 1.30724L24.7895 1.17306L25.1414 1.31491L25.3788 1.21523C25.4279 1.19606 25.4688 1.16539 25.5097 1.16539H32.4171L32.6708 1.05037C32.7199 1.05037 32.7608 1.01203 32.81 1.01203H42.4181L42.7536 0.858676H47.9833C48.0488 0.785833 48.0897 0.739829 48.1306 0.705324C49.0227 0.705324 49.9148 0.678485 50.8068 0.655482C50.8068 0.655482 50.8068 0.620977 50.8723 0.601808C49.9609 0.484155 48.99 0.52081 48.1306 0.705324C47.9589 0.699681 47.7867 0.699681 47.615 0.705324L47.2549 0.551966C46.8784 0.490624 46.7638 0.663149 46.4365 0.720657L45.79 0.563467H42.0089L41.6734 0.712987H32.6708L32.368 0.851007C31.9676 0.88649 31.5548 0.875971 31.1649 0.820341V0.620978C31.2304 0.590307 31.2713 0.555803 31.3122 0.555803H36.8283L37.2048 0.398613L37.5649 0.544302L37.8677 0.406283L38.2442 0.540465H39.3245C39.4718 0.540465 39.57 0.333438 39.9629 0.398613L40.3148 0.544302L40.6749 0.394782H52.771L53.1393 0.237592L53.4421 0.379443L53.8186 0.249093H55.2426L55.5291 0.383275L55.8973 0.245261L56.2493 0.387112L56.4866 0.283596C56.5817 0.260834 56.6839 0.245306 56.7894 0.237592H68.3536L68.7137 0.0880712L69.0738 0.229922C69.4748 0.295098 69.5648 0.0995695 69.9577 0.0727325L70.4569 0.218421L70.7597 0.0957347H107.891L108.177 0.233754L108.546 0.0804018H109.528L109.888 0.233754H110.567L110.927 0.0880712H113.383L113.669 0.218421L114.234 0.0612313L114.766 0.218421L115.101 0.0804018H115.781L116.141 0.229922L116.574 0.0535678L117.188 0.203088L117.696 0.0612313L118.211 0.214589L118.743 0.0458984L119.259 0.229922L119.684 0.0535678L120.437 0.233754H124.472L124.619 0.398613H123.801L123.433 0.551966L123.179 0.433117C120.564 0.357958 117.942 0.369487 115.33 0.46762C115.33 0.46762 115.371 0.513626 115.412 0.521294C115.511 0.540418 115.616 0.552069 115.723 0.555803H121.714L122.058 0.712987H125.52L125.88 0.877847H130.381L130.741 1.0427H135.93L136.241 1.18456H138.303L138.68 1.34941H140.055L140.431 1.51043H142.837L143.14 1.64845C143.697 1.69446 144.327 1.64845 144.941 1.67912L145.243 1.81714H147.699L148.034 1.9705L148.394 1.83631L148.754 1.97816H150.448L150.89 2.21587C150.89 2.21587 150.8 2.29638 150.743 2.29638C150.056 2.29638 149.368 2.29638 148.681 2.29638C148.681 2.29638 148.599 2.33088 148.558 2.35005C148.64 2.48424 148.91 2.4229 149.09 2.46124L149.72 2.75261L150.088 2.60692H151.807L152.167 2.76028H153.19L153.575 2.92513H154.238L154.631 3.08615H155.637L156.104 3.49254L155.809 3.63823C156.046 3.76858 156.357 3.68807 156.627 3.71491L157.356 3.39669H158.043C158.444 3.56538 158.133 3.67274 157.839 3.80309C158.24 3.88144 158.684 3.89886 159.107 3.85292L159.525 3.7034L159.615 3.97177L158.944 4.07913L159.197 4.29765C158.952 4.41267 158.649 4.29765 158.42 4.35516L157.986 4.17881L157.839 4.405C158.265 4.47225 158.638 4.59778 158.911 4.76539C158.702 4.78582 158.5 4.82071 158.313 4.8689C158.125 4.93408 157.978 5.01076 157.7 4.97625C157.331 4.8804 157.65 4.69254 157.454 4.55069C157.258 4.40884 157.045 4.52769 156.832 4.50852V4.05229L156.431 3.97944C155.997 4.04845 155.907 4.28232 155.457 4.30532C155.007 4.32833 154.909 4.45868 154.753 4.59286C154.712 4.84206 155.433 4.8689 155.441 5.09893H154.884C154.852 5.16731 154.805 5.23408 154.745 5.29829C154.663 5.37497 154.541 5.44398 154.442 5.51683L154.925 5.72385L155.441 5.50149V5.09893L155.768 5.16027V5.67018C155.727 5.74302 155.293 5.78136 155.547 6.01522L155.899 6.18392C156.251 6.14941 156.341 5.96922 156.832 5.90021H157.315L157.716 5.72768C157.894 5.82212 158.058 5.92202 158.207 6.02673C158.387 6.17625 158.469 6.35261 158.673 6.49063C158.894 6.61686 159.141 6.73244 159.41 6.83567H160.499L161.063 7.16155H161.546L161.734 7.39925L160.99 7.66379V8.04717L160.654 8.21587L160.973 8.38072C161.022 8.5149 160.883 8.65292 161.153 8.76411L161.497 8.43056L161.964 8.84845L161.693 8.99031L162.021 9.15516V9.47337C161.923 9.49638 161.833 9.54622 161.743 9.54622H157.691L157.323 9.71491H155.842C155.907 9.91044 156.259 9.96411 156.439 10.0983C156.39 10.129 156.333 10.1903 156.276 10.1903C155.359 10.1903 154.442 10.1903 153.526 10.1903L153.141 10.543L151.807 10.2286L150.448 10.5469L150.088 10.1941H149.728C149.434 10.2938 149.606 10.4395 149.548 10.5775L149.098 10.7961L148.28 10.8382C148.239 10.8382 148.157 10.8766 148.157 10.8957C148.157 11.1066 148.157 11.3175 148.157 11.5245L147.813 11.697L148.312 11.9232L148.681 11.7699H149.499C149.606 11.8389 149.696 11.9232 149.802 11.927C150.056 11.927 150.342 11.9807 150.571 11.8619C150.285 11.6932 149.884 11.8044 149.499 11.7699C149.692 11.6318 149.862 11.487 150.007 11.3366L150.538 11.2523L150.628 10.8689C150.858 10.7501 151.169 10.8344 151.447 10.8076L151.823 10.9686H152.544L152.732 11.2101L151.643 11.6165V11.8427C151.873 11.9692 152.175 11.904 152.462 11.9155C152.748 11.927 152.928 11.9155 153.157 11.9155H153.976C154.033 11.697 153.698 11.7967 153.403 11.605C153.452 11.674 153.403 11.5782 153.305 11.4977C153.206 11.4171 153.117 11.4555 153.018 11.4363V10.8881L152.609 10.6887L153.288 10.6389L153.403 10.8996L154.221 11.283L154.762 11.3328V11.8389L155.285 12.0919H155.989C156.398 11.927 155.989 11.7085 156.218 11.513L156.505 11.4555V11.8389L156.873 12.0152L156.055 12.3334C156.177 12.4293 156.292 12.506 156.382 12.5903C156.472 12.6747 156.529 12.7667 156.595 12.851C156.938 12.9085 156.979 12.897 157.184 12.7168C157.282 12.7168 157.446 12.69 157.462 12.6632C157.503 12.5711 157.356 12.5558 157.184 12.5596C157.184 12.3909 157.569 12.3794 157.642 12.2299L158.461 12.5635H159.222L159.304 12.8318C158.861 12.8455 158.429 12.9011 158.034 12.9953C157.638 13.0896 157.288 13.2205 157.004 13.3801L156.087 13.1731C155.531 13.3571 156.161 13.66 155.654 13.8248L155.163 13.5986C155.293 13.4951 155.67 13.4414 155.392 13.2152C155.023 13.1232 154.5 13.2152 153.894 13.1731L153.436 13.3801C153.337 13.6868 153.935 13.7098 154.033 13.9207L153.673 14.097C153.002 14.2734 152.552 13.8631 151.733 14.0357L151.341 14.166L150.776 13.9743H149.818L149.368 14.1315C148.91 14.1315 148.779 13.8708 148.304 14.005L148.198 14.2044L148.754 14.4344C149.245 14.5571 149.573 14.3002 150.08 14.2772L150.473 14.4459L150.833 14.2925C151.324 14.2465 151.562 14.5801 152.29 14.3999L152.519 14.3155L153.084 14.4689L153.632 14.2964L154.017 14.5417L153.444 14.6721C153.526 14.8024 153.812 14.7411 153.976 14.7871C154.093 14.8249 154.205 14.8659 154.311 14.9098L154.541 14.7871L154.974 14.9558H156.611L155.056 15.1628L155.752 15.32C155.531 15.5309 154.933 15.32 154.696 15.5232C155.251 15.5744 155.818 15.5899 156.382 15.5692C156.935 15.5482 157.492 15.5795 158.019 15.6612C157.461 15.7222 156.888 15.7455 156.316 15.7302L155.662 15.9526C156.292 16.1443 156.914 15.9526 157.454 16.1098L157.127 16.2862L157.806 16.4357V16.6005L156.832 16.8306H155.956L155.555 16.9954H152.126L151.742 17.1564H144.482L144.155 17.306C143.156 17.3366 142.076 17.306 141.004 17.3251L140.693 17.467H133.426L133.057 17.6318H120.626L120.265 17.7967H82.5203L82.2011 17.9424H71.128L70.7842 17.8005L70.2523 17.9846L69.6876 17.789H36.4846L36.1736 17.6433H30.6329L30.2728 17.4746H28.1941L27.8667 17.3251H25.3706L24.5522 16.8344H23.0299C22.6207 16.6619 22.9645 16.5584 23.2018 16.451V16.1366C23.6356 15.9833 23.8401 15.6919 24.544 15.7187C24.5334 15.6522 24.4801 15.5888 24.391 15.5367C24.3018 15.4847 24.1811 15.4466 24.0447 15.4274C23.701 15.4044 23.5864 15.366 23.5291 15.2012C23.5291 15.0977 23.1854 15.0133 23.0626 14.9481C22.3915 14.8945 22.6207 15.1552 22.3588 15.2472L21.9905 15.1015H20.9757C20.7793 15.136 20.7302 15.2817 20.4356 15.2587C20.4356 15.2127 20.3783 15.136 20.321 15.1322C20.1164 15.1092 20.0836 15.1782 20.0918 15.2587C20.0526 15.2533 20.0112 15.2523 19.971 15.2557C19.9307 15.2592 19.8928 15.267 19.8602 15.2785C19.8276 15.2901 19.8012 15.3051 19.7831 15.3223C19.7651 15.3394 19.7559 15.3584 19.7563 15.3775C19.7563 15.4849 19.7563 15.5846 20.0918 15.5731C20.1327 15.6191 20.1655 15.7034 20.2146 15.7034C20.7056 15.7034 21.033 15.9948 21.7859 15.8529L22.187 15.6766L21.7941 15.4542L22.3179 15.4082C22.7435 15.5616 22.3179 15.7647 22.5143 15.9296L22.8744 16.1903H22.056C21.3849 16.4395 22.3834 16.5469 22.1706 16.7462C21.7859 16.8651 21.7859 16.8651 21.3522 16.704L20.812 16.8612L20.0918 16.6657L19.5435 16.8344C19.5435 16.7807 19.388 16.7079 19.4207 16.6619C19.4675 16.5875 19.5523 16.5197 19.6679 16.4642C19.7834 16.4088 19.9262 16.3674 20.0837 16.3437C20.1409 16.4472 20.0836 16.5699 20.4192 16.4625L20.0837 16.3437C20.231 16.1136 19.7317 15.9603 19.609 15.7494C19.5271 15.647 19.4258 15.5482 19.3062 15.4542C19.1252 15.4404 18.9524 15.4091 18.7987 15.3622C18.6105 15.2932 18.455 15.2318 18.2013 15.2587L17.1373 14.7871L16.7854 14.9175C16.4172 14.9443 16.0243 14.9865 15.746 14.7833H14.6985L14.322 14.9405L13.8474 14.6606V14.3654L13.1353 14.1239V13.6906L12.0305 13.2766L12.2187 13.0235L12.6115 13.1846L12.9717 13.0389L13.4709 13.2689V13.4299L14.2893 13.8133C14.4857 13.7865 14.5348 13.6408 14.8213 13.6676C14.8213 13.8248 15.1323 13.8747 15.3205 13.9628C15.5087 14.051 15.6151 13.9628 15.746 13.9628C16.0079 13.729 15.7461 13.5794 15.566 13.3954C15.8115 13.2881 16.1143 13.3724 16.3844 13.3379C16.6381 13.1462 16.7118 12.8932 17.4402 12.7973L16.6627 12.6785L16.4335 12.3948C16.3435 12.4331 16.2207 12.46 16.2125 12.4906C16.2004 12.5889 16.2004 12.6875 16.2125 12.7858C15.9506 12.9239 15.6478 12.8395 15.3941 12.8663L15.0177 12.7092H13.6509L13.2908 12.5558L12.9307 12.6977C12.7098 12.598 12.5215 12.4408 12.3006 12.4254C11.9323 12.4024 11.7522 12.2606 11.433 12.2338C11.2534 12.226 11.0726 12.226 10.8929 12.2338L10.5164 12.3948H10.189C10.0746 12.3909 9.95975 12.3909 9.84532 12.3948C9.84532 12.3948 9.76346 12.4293 9.72254 12.4446L8.75682 12.6938L8.48675 12.5711H7.59469L6.55529 12.3104C6.88265 12.1571 7.33277 12.0344 7.49646 11.8542C7.62493 11.6885 7.85569 11.5443 8.15939 11.4401C8.54405 11.421 8.68317 11.5053 8.6177 11.6855L9.13328 11.9002H10.2381L10.4755 11.5935L10.8765 11.7584H11.9241L12.4069 11.5207L11.7522 11.375C11.8177 11.2791 12.1369 11.2523 12.0796 11.1258C12.6115 11.1794 12.9471 10.9609 13.3891 10.9149C13.2827 10.7922 13.1844 10.6657 13.0535 10.5315C13.0535 10.5008 12.8734 10.497 12.7916 10.5009C12.7343 10.4012 12.7916 10.2785 12.4561 10.3858C12.5631 10.4271 12.6751 10.4656 12.7916 10.5009C12.7816 10.5775 12.7816 10.6543 12.7916 10.7309C12.5788 10.8267 12.3333 10.9302 12.1041 11.0376C12.1041 11.0376 12.1041 11.0874 12.1041 11.1143H11.1957L11.0075 11.3788C10.8647 11.4219 10.6985 11.4448 10.5287 11.4448C10.3589 11.4448 10.1927 11.4219 10.0499 11.3788L10.3445 11.2139C10.2463 11.1104 9.89441 11.0568 10.0335 10.8957L10.3773 10.727V10.3437C10.4887 10.3479 10.6007 10.34 10.7046 10.3207C10.7619 10.4203 10.7046 10.543 11.032 10.4357C10.9279 10.3943 10.8186 10.3559 10.7046 10.3207C10.8332 10.2496 10.9457 10.1725 11.0402 10.0906L9.81258 9.53088C9.57524 9.72641 9.76347 9.93727 9.60797 10.1213C9.48163 10.1984 9.39229 10.2873 9.34608 10.382C9.34608 10.4548 9.46884 10.52 9.68163 10.5009C9.64071 10.6504 9.77983 10.8076 9.54249 10.9686L9.17422 10.8344L8.81411 10.9724L8.50311 10.6695C8.31277 10.7177 8.13437 10.7756 7.97115 10.8421C7.91386 10.7386 7.97115 10.6159 7.6356 10.7232C7.73472 10.7681 7.84148 10.8091 7.95479 10.8459ZM146.356 11.6318C146.626 11.5973 146.888 11.6088 146.659 11.4708C146.577 11.513 146.496 11.559 146.545 11.5973C146.283 11.6318 146.013 11.6203 146.25 11.7584C146.291 11.72 146.356 11.674 146.356 11.6318ZM16.9327 8.08168C17.0064 8.20436 16.9818 8.32705 17.2847 8.2197C17.1864 8.18136 17.0964 8.14686 17.0064 8.16986C16.9328 8.04718 16.9573 7.92449 16.6545 8.03184C16.72 8.06635 16.81 8.10468 16.9 8.08168H16.9327ZM148.525 5.26762C148.754 5.24078 149.065 5.3443 149.188 5.17561C148.73 5.1066 148.73 5.1066 148.566 5.28296L148.501 5.25229L148.214 5.36347L148.321 5.41331C148.398 5.37064 148.457 5.32109 148.492 5.26762H148.525ZM14.5839 8.33471C14.5102 8.21203 14.5348 8.08935 14.232 8.1967C14.3223 8.23728 14.4277 8.26977 14.543 8.29254V8.67593L15.5414 8.90213V8.49574L15.0668 8.27721C14.9014 8.2709 14.7359 8.28828 14.5921 8.32705L14.5839 8.33471ZM17.301 13.844C17.8657 13.8171 17.4975 14.12 17.8576 14.1622C18.1194 14.1354 18.4223 14.2159 18.676 14.1047L18.7169 13.9475C18.4632 13.7098 17.8985 13.6791 17.3747 13.5296C17.3747 13.6485 17.3338 13.7443 17.3338 13.844C16.9737 13.9398 16.9737 13.9398 17.1292 14.1469C17.4483 14.0817 17.2192 13.9398 17.2683 13.8363L17.301 13.844ZM20.9839 7.67913C21.3031 7.61395 21.614 7.49893 21.8841 7.51044C22.1542 7.52194 22.4488 7.39158 22.7025 7.36858L22.9481 7.47976H26.8683L27.3757 7.23056L27.212 7.02353H26.8274L26.4591 7.18072H21.2867C21.1148 7.2804 20.8202 7.33408 20.7466 7.50277L20.9839 7.67913ZM18.1686 7.83631C18.5859 7.53727 19.1916 7.72897 19.6172 7.60628L20.4356 7.40309L20.2964 7.18839L19.6172 7.36858L19.1834 7.18072H18.1604L17.8085 7.33024L17.4811 7.20373L16.9 7.36858L16.4581 7.20373C16.2982 7.25685 16.1251 7.30063 15.9425 7.33408C15.7294 7.35689 15.5134 7.37353 15.2959 7.38392C15.2959 7.38392 15.2959 7.41842 15.255 7.42992L15.7297 7.65612H16.4171L16.7772 7.80948L17.1537 7.65612C17.4893 7.65995 17.8658 7.59478 18.1358 7.82865L18.1686 7.83631ZM21.4013 12.9162L20.6975 13.0504C20.3292 13.1232 20.1409 12.9469 19.8054 12.9162L19.7317 13.127C19.9524 13.2151 20.1577 13.3112 20.3456 13.4146C20.4446 13.5075 20.5214 13.6052 20.5747 13.706H21.3931L21.5813 13.9628L22.1951 13.7903L22.1542 13.4376C21.7532 13.2536 21.3849 13.1424 21.3686 12.9085L21.4013 12.9162ZM150.776 6.70532C150.514 6.73216 150.211 6.65165 149.892 6.78967C150.056 6.89702 149.712 7.06187 150.097 7.17305H151.12L151.48 7.02353L151.864 7.18072L152.544 7.15388C152.585 7.15388 152.625 7.11938 152.675 7.09638C152.306 6.95452 152.093 6.71299 151.529 6.68615L151.128 6.84717L150.776 6.70532ZM23.0217 13.5296C23.4146 13.5066 23.8402 13.5756 24.2084 13.4721C24.0837 13.4029 23.9816 13.3254 23.9056 13.2421C23.832 13.127 24.0038 12.9852 23.7092 12.8932C23.3327 12.9123 22.8908 12.8433 22.5389 12.9469V13.2957L23.0217 13.5296ZM147.42 10.9379C147.42 10.7155 146.913 10.9187 146.847 10.7769L146.659 10.5085C146.34 10.5392 146.045 10.4587 145.743 10.5929C145.743 10.6925 145.743 10.8114 145.808 10.9341C145.808 10.9571 145.882 10.9724 145.914 10.9877C146.381 10.9877 146.831 10.9877 147.289 10.9877C147.306 10.9801 147.347 10.9532 147.396 10.9302L147.42 10.9379ZM157.814 7.7328C157.871 7.80564 157.675 7.93983 157.7 7.93983L158.911 7.57944C158.796 7.41075 158.984 7.26507 158.665 7.17305C158.403 7.19989 158.092 7.11554 157.847 7.23056C157.601 7.34558 157.929 7.4721 158.133 7.56411L157.814 7.7328ZM147.592 4.15963C147.756 4.07146 148.018 4.02162 148.075 3.87976C147.821 3.84143 147.764 3.6689 147.42 3.6804C146.602 3.94877 146.602 4.01395 146.929 4.15963H147.592ZM153.493 7.17305H154.23C154.313 7.11476 154.415 7.06301 154.532 7.0197C154.68 6.98136 154.974 7.06954 154.999 6.85484H153.182C153.117 6.85484 153.067 6.91619 153.01 6.94686L153.493 7.17305ZM143.803 10.9801C144.065 10.9532 144.368 11.0376 144.621 10.9264C144.621 10.7692 144.31 10.8421 144.13 10.8152C143.811 10.6657 143.492 10.5162 143.165 10.3705C143.165 10.3705 143.083 10.3705 143.042 10.3705C142.976 10.589 142.976 10.589 143.827 10.9801H143.803ZM156.177 7.11938L156.03 6.78967L155.457 7.10788C155.908 7.24973 156.378 7.37779 156.865 7.49127C156.965 7.47564 157.061 7.45508 157.151 7.42992C156.996 7.20372 156.415 7.22289 156.177 7.11938ZM16.1471 11.6165C15.2305 11.6165 15.2305 11.6165 14.854 11.7392C15.0258 11.7585 15.2012 11.7701 15.3778 11.7737C15.7618 11.7981 16.1524 11.7837 16.5235 11.7315C16.589 11.582 16.72 11.4325 16.3926 11.2868L16.1471 11.6165ZM12.7834 11.5322C12.9716 11.605 13.0862 11.7239 13.4709 11.7584C13.4709 11.5782 13.4709 11.4018 13.4709 11.2293C13.4709 11.2063 13.3399 11.1833 13.2663 11.1564C13.1108 11.2638 12.7752 11.3021 12.7834 11.5322ZM148.812 10.4242C148.648 10.3552 148.492 10.2823 148.337 10.2095C148.026 10.2095 147.69 10.1213 147.396 10.2823C147.601 10.3031 147.801 10.334 147.993 10.3743C148.173 10.428 148.288 10.5277 148.558 10.5009L148.812 10.4242ZM150.211 4.22865C150.383 4.31299 150.498 4.42417 150.784 4.44717L151.201 4.24398L150.727 3.99478L150.211 4.22865ZM18.6842 13.1884L18.5532 12.874L17.9067 12.9315L18.0131 13.1884H18.6842ZM51.1096 0.601808C51.928 0.674651 51.928 0.670817 52.1899 0.559635C52.0193 0.518991 51.8278 0.501408 51.637 0.508857C51.4462 0.516305 51.2636 0.54849 51.1096 0.601808ZM152.413 5.14877C152.617 5.01842 152.895 4.97242 152.936 4.83823C152.89 4.82009 152.837 4.80655 152.779 4.79844C152.722 4.79032 152.661 4.7878 152.601 4.79103C152.542 4.79426 152.484 4.80317 152.432 4.81722C152.38 4.83127 152.334 4.85016 152.298 4.87273L152.413 5.14877ZM147.068 10.1558C146.348 10.0216 146.348 10.0254 146.103 10.1558C146.268 10.1695 146.434 10.1785 146.602 10.1826C146.759 10.1793 146.915 10.1704 147.068 10.1558ZM149.524 13.7558C149.382 13.693 149.195 13.6579 149 13.6579C148.805 13.6579 148.618 13.693 148.476 13.7558C148.545 13.789 148.628 13.8153 148.72 13.8333C148.811 13.8513 148.909 13.8605 149.008 13.8605C149.107 13.8605 149.205 13.8513 149.297 13.8333C149.388 13.8153 149.471 13.789 149.54 13.7558H149.524ZM20.8693 14.4919C21.1394 14.3616 21.123 14.2734 20.9184 14.1545L20.542 14.1814L20.8693 14.4919ZM142.313 3.81842H142.534C142.534 3.74941 142.584 3.67657 142.592 3.60756C142.6 3.53855 142.502 3.55389 142.477 3.55772C142.453 3.56155 142.264 3.59223 142.256 3.61139C142.265 3.68146 142.289 3.75088 142.33 3.81842H142.313ZM144.008 3.76092C143.688 3.66123 143.467 3.61139 143.328 3.78392C143.549 3.8721 143.738 3.86443 144.024 3.76092H144.008ZM153.37 4.50468V4.6082C153.518 4.6082 153.673 4.62736 153.829 4.6312C153.984 4.63503 153.951 4.59286 153.943 4.58136C153.935 4.56986 153.861 4.48168 153.82 4.48168C153.675 4.48442 153.53 4.49211 153.387 4.50468H153.37ZM154.369 5.02992C154.329 5.00382 154.277 4.98252 154.217 4.96781C154.156 4.95311 154.089 4.94543 154.021 4.94543C153.953 4.94543 153.885 4.95311 153.825 4.96781C153.764 4.98252 153.712 5.00382 153.673 5.02992C153.71 5.05848 153.763 5.08206 153.825 5.09843C153.887 5.11479 153.958 5.12338 154.029 5.12338C154.1 5.12338 154.171 5.11479 154.233 5.09843C154.295 5.08206 154.348 5.05848 154.385 5.02992H154.369ZM155.449 7.52194V7.62162C155.603 7.63307 155.759 7.64075 155.915 7.64462C155.915 7.64462 156.03 7.60628 156.022 7.59478C156.014 7.58328 155.948 7.49893 155.899 7.4951C155.753 7.49747 155.608 7.50646 155.465 7.52194H155.449ZM20.9021 16.3858C21.123 16.244 21.2294 16.1443 20.853 16.0753C20.6811 16.1711 20.6892 16.2593 20.9184 16.3858H20.9021ZM25.7471 13.1999C25.6914 13.2174 25.6457 13.2411 25.6141 13.2689C25.5826 13.2966 25.5661 13.3276 25.5661 13.359C25.5661 13.3904 25.5826 13.4214 25.6141 13.4491C25.6457 13.4769 25.6914 13.5006 25.7471 13.5181C25.8054 13.5019 25.8541 13.4789 25.8884 13.4515C25.9227 13.424 25.9415 13.3929 25.9431 13.3611C25.9448 13.3293 25.9291 13.2978 25.8977 13.2696C25.8663 13.2414 25.8201 13.2174 25.7634 13.1999H25.7471ZM146.414 9.80309C146.452 9.82997 146.503 9.85203 146.564 9.86729C146.625 9.88255 146.693 9.89053 146.762 9.89053C146.83 9.89053 146.898 9.88255 146.959 9.86729C147.02 9.85203 147.071 9.82997 147.109 9.80309C147.071 9.7762 147.02 9.75414 146.959 9.73888C146.898 9.72362 146.83 9.71564 146.762 9.71564C146.693 9.71564 146.625 9.72362 146.564 9.73888C146.503 9.75414 146.452 9.7762 146.414 9.80309ZM154.778 9.59606V9.69574C154.93 9.70719 155.083 9.71487 155.236 9.71874C155.236 9.71874 155.359 9.6804 155.351 9.6689C155.343 9.6574 155.277 9.56922 155.228 9.56922C155.077 9.56684 154.926 9.57198 154.778 9.58455V9.59606ZM141.274 3.63823L141.397 3.69574C141.442 3.66232 141.478 3.62621 141.503 3.58839C141.503 3.58839 141.438 3.55388 141.397 3.53471L141.274 3.63823ZM155.293 3.55772L155.073 3.61523C155.113 3.61523 155.162 3.6689 155.187 3.66507C155.268 3.65411 155.346 3.6373 155.416 3.61523L155.293 3.55772ZM146.291 3.98711L146.414 3.93344C146.34 3.91209 146.26 3.89533 146.176 3.8836C146.176 3.8836 146.103 3.91427 146.062 3.93344L146.291 3.98711ZM80.9244 4.11363L80.8016 4.01011C80.8016 4.01011 80.687 4.05229 80.6952 4.06379C80.7223 4.10126 80.758 4.13726 80.8016 4.17114L80.9244 4.11363ZM149.671 4.14813L149.9 4.09063C149.9 4.09063 149.81 4.03695 149.786 4.04079C149.702 4.05252 149.622 4.06928 149.548 4.09063L149.671 4.14813ZM149.851 5.22545L149.72 5.12193C149.72 5.1411 149.605 5.16027 149.614 5.17561C149.642 5.21154 149.678 5.24619 149.72 5.27912L149.851 5.22545ZM44.6032 6.17625L44.4723 6.07274C44.4723 6.07274 44.3577 6.11491 44.3659 6.12641C44.393 6.16389 44.4287 6.19988 44.4723 6.23376L44.6032 6.17625ZM37.9496 6.55963L37.7286 6.61714C37.7286 6.63631 37.8105 6.67082 37.835 6.66699C37.9184 6.65525 37.9982 6.6385 38.0723 6.61714L37.9496 6.55963ZM30.2319 7.15005L30.4529 7.09254C30.4529 7.09254 30.3711 7.0427 30.3383 7.0427C30.2597 7.05699 30.1832 7.07363 30.1092 7.09254L30.2319 7.15005ZM12.3988 8.22737L12.276 8.12385C12.276 8.12385 12.1614 8.16602 12.1696 8.17752C12.1967 8.215 12.2324 8.25099 12.276 8.28487L12.3988 8.22737ZM22.6616 8.28487C22.6616 8.28487 22.547 8.32321 22.5552 8.33471C22.5823 8.37219 22.618 8.40818 22.6616 8.44206C22.6616 8.44206 22.7762 8.40373 22.7762 8.39223C22.7434 8.34899 22.6994 8.30778 22.6453 8.26954L22.6616 8.28487ZM17.7512 8.46506L17.6284 8.52258C17.7007 8.54301 17.7776 8.55972 17.8576 8.57241C17.8576 8.57241 17.9394 8.53791 17.9721 8.52258L17.7512 8.46506ZM12.8407 9.02098L12.9635 9.07849C13.0089 9.04506 13.0447 9.00896 13.0699 8.97114C13.0699 8.97114 13.0044 8.93663 12.9635 8.91746L12.8407 9.02098ZM11.4576 9.33919L11.5803 9.39286C11.6224 9.35993 11.658 9.32529 11.6867 9.28935C11.6867 9.28935 11.6131 9.25484 11.5803 9.23567L11.4576 9.33919ZM145.677 9.65357L145.554 9.55389C145.554 9.55389 145.44 9.59222 145.448 9.60372C145.471 9.64187 145.507 9.67808 145.554 9.71107L145.677 9.65357ZM144.72 10.5699L144.842 10.6695C144.883 10.6695 144.957 10.6312 144.949 10.6197C144.925 10.5816 144.889 10.5453 144.842 10.5124L144.72 10.5699ZM16.9737 11.3635L17.0964 11.4632C17.0964 11.4632 17.211 11.4248 17.2028 11.4133C17.1757 11.3758 17.1401 11.3398 17.0964 11.306L16.9737 11.3635ZM150.604 11.5667L150.727 11.6242C150.773 11.5904 150.811 11.5544 150.841 11.5168C150.841 11.5168 150.768 11.4823 150.727 11.4632L150.604 11.5667ZM25.2315 12.943L25.1087 12.8855C25.0624 12.9193 25.0241 12.9553 24.9941 12.9929C24.9941 12.9929 25.0677 13.0274 25.1087 13.0427L25.2315 12.943ZM19.2652 13.1807L19.3962 13.1232C19.322 13.1019 19.2422 13.0851 19.1588 13.0734C19.1588 13.0734 19.0852 13.104 19.0443 13.1232L19.2652 13.1807ZM151.594 13.2574L151.471 13.2037C151.426 13.2358 151.39 13.2706 151.365 13.3072C151.365 13.3072 151.431 13.3417 151.471 13.3609L151.594 13.2574ZM18.6842 13.4414C18.6432 13.4223 18.6023 13.3878 18.5696 13.3916C18.4881 13.4025 18.4109 13.4194 18.3404 13.4414C18.3404 13.4414 18.4222 13.4913 18.455 13.4913C18.4877 13.4913 18.5941 13.4568 18.6842 13.4414ZM23.2345 14.4152L23.3573 14.4727C23.4027 14.4393 23.4385 14.4032 23.4637 14.3654C23.4637 14.3654 23.3982 14.3309 23.3573 14.3117L23.2345 14.4152Z" fill="#FFC906" fill-opacity="0.7"/>
<path d="M163.706 4.93818C163.72 4.85908 163.72 4.77958 163.706 4.70048L164.222 4.60463L164.983 5.06469L164.779 5.18354C164.779 5.28706 164.729 5.41358 164.697 5.56693C164.533 5.56693 164.304 5.61677 164.23 5.56693C163.846 5.41358 163.502 5.24489 163.101 5.06086L162.413 5.25256L161.955 4.94201H161.382L161.268 4.68898L161.931 4.57013C161.8 4.46661 161.677 4.36693 161.538 4.24808L162.151 4.09473C162.274 4.20974 162.413 4.32476 162.544 4.43977L162.323 4.55096C162.57 4.60099 162.81 4.65731 163.044 4.71965C163.273 4.78866 163.387 4.92667 163.682 4.92667C163.739 5.01869 163.682 5.14137 164.017 5.03402C163.922 4.99682 163.817 4.96468 163.706 4.93818Z" fill="#FFC906" fill-opacity="0.7"/>
<path d="M26.4674 0.828444L26.0991 0.981802L25.8045 0.847614H23.6439L23.3902 0.962632L22.8091 0.805442L22.2526 0.981802H21.6224C21.3442 0.885955 21.3687 0.778602 21.6224 0.671254L21.9825 0.82078L22.3017 0.678923H28.849L29.3728 0.483398L30.1339 0.686593L30.6495 0.525571C30.8623 0.579245 30.8377 0.671256 30.7641 0.763269C30.715 0.790106 30.674 0.824612 30.6331 0.824612L26.4674 0.828444Z" fill="#FFC906" fill-opacity="0.7"/>
<path d="M17.9723 0.985023L17.8495 1.13071H13.6756L13.3564 1.27639C12.9378 1.31102 12.5114 1.32005 12.0879 1.30323C12.1288 1.25723 12.1452 1.19205 12.2106 1.17288C12.448 1.11538 12.6935 1.07704 13.1354 0.992692H14.5922L15.1651 0.8125L15.9344 1.00803L16.4337 0.839334L16.7856 0.985023H17.9723Z" fill="#FFC906" fill-opacity="0.7"/>
<path d="M161.03 4.40106L160.146 4.69243C160.327 4.83812 160.457 4.94163 160.605 5.07582V5.35952L159.786 5.74291C159.59 5.62789 159.197 5.57039 159.271 5.35952L159.917 5.21383C160.122 5.02598 159.696 4.94546 159.549 4.85345C160.007 4.50457 160.277 4.37422 160.67 4.32821C160.719 4.31288 160.826 4.35888 161.03 4.40106Z" fill="#FFC906" fill-opacity="0.7"/>
<path d="M127.034 0.509798H127.533L127.902 0.356445L128.205 0.498296H131.675C131.728 0.514716 131.772 0.536415 131.806 0.561851C131.839 0.587287 131.86 0.615838 131.867 0.645477C131.874 0.675116 131.867 0.705117 131.846 0.73335C131.826 0.761583 131.792 0.787355 131.748 0.808839H130.93L130.627 0.670819H127.132L127.034 0.509798Z" fill="#FFC906" fill-opacity="0.7"/>
<path d="M162.348 7.80957H163.543L164.059 8.07794L163.453 8.25046C163.314 8.43449 163.453 8.55718 163.109 8.58401L162.889 8.30797L162.07 8.2658C161.939 8.20829 161.939 8.20829 162.283 8.04344L162.348 7.80957Z" fill="#FFC906" fill-opacity="0.7"/>
<path d="M134.302 0.782371L134.384 0.479492L134.817 0.667354L135.177 0.514001L135.472 0.652021C136.053 0.724864 136.732 0.609846 137.42 0.709526C136.88 0.859047 136.61 0.866716 134.302 0.782371Z" fill="#FFC906" fill-opacity="0.7"/>
<path d="M124.611 0.352885C125.332 0.352885 126.052 0.352885 126.772 0.352885C126.813 0.35141 126.854 0.354666 126.892 0.36238C126.93 0.370093 126.964 0.382026 126.989 0.39714C127.015 0.412255 127.033 0.430093 127.04 0.449106C127.048 0.468119 127.046 0.487732 127.034 0.506237H126.526L126.175 0.65959L125.782 0.494736H124.734L124.611 0.352885Z" fill="#FFC906" fill-opacity="0.7"/>
<path d="M5.01734 8.38863L4.27261 8.45764L3.97797 8.76052H3.60967C3.24957 8.61866 3.81427 8.58799 3.78972 8.48064C3.77766 8.38872 3.77766 8.29653 3.78972 8.20461L3.95341 8.12793C4.13346 8.26978 4.47719 8.26978 5.01734 8.38863Z" fill="#FFC906" fill-opacity="0.7"/>
<path d="M21.1397 0.889495C20.9596 0.954671 20.9187 0.985342 20.8778 0.985342H19.1673C19.1264 0.985342 19.0937 0.950835 19.0527 0.935499C19.5029 0.805148 19.5029 0.80515 21.1397 0.889495Z" fill="#FFC906" fill-opacity="0.7"/>
<path d="M8.62587 1.46094C8.46012 1.54709 8.25838 1.61638 8.03314 1.66452C7.8079 1.71266 7.56394 1.73862 7.31641 1.74081C7.31641 1.59896 7.61923 1.55678 7.76655 1.46094H8.62587Z" fill="#FFC906" fill-opacity="0.7"/>
<path d="M11.3681 6.03809V6.35247L10.8034 6.40231L10.6807 6.10327L11.3681 6.03809Z" fill="#FFC906" fill-opacity="0.7"/>
<path d="M152.273 2.07422V2.38093L151.709 2.43077L151.586 2.13173L152.273 2.07422Z" fill="#FFC906" fill-opacity="0.7"/>
<path d="M8.62598 1.43007C9.06792 1.23838 9.52623 1.33423 9.98454 1.35339C9.57534 1.52975 9.0761 1.4109 8.62598 1.43007Z" fill="#FFC906" fill-opacity="0.7"/>
<path d="M5.97434 8.14648C6.31807 8.14648 6.12983 8.29218 6.21985 8.36119C6.30988 8.4302 6.45721 8.45703 6.7191 8.55288L5.99889 8.60272C5.90274 8.53561 5.84936 8.45707 5.84502 8.37627C5.84067 8.29548 5.88553 8.21577 5.97434 8.14648Z" fill="#FFC906" fill-opacity="0.7"/>
<path d="M160.204 3.66895L161.023 3.73795C160.744 3.83763 160.638 3.96032 160.319 3.98333L160.204 3.66895Z" fill="#FFC906" fill-opacity="0.7"/>
<path d="M156.816 4.47459V4.75829C156.423 4.78513 156.431 4.59727 156.169 4.5896C156.267 4.39791 156.586 4.50526 156.816 4.47459Z" fill="#FFC906" fill-opacity="0.7"/>
<path d="M156.783 5.58626C156.783 5.4444 156.857 5.35623 156.898 5.24121C157.086 5.32556 157.209 5.37156 157.315 5.42523C157.364 5.4589 157.405 5.49488 157.438 5.53258L157.16 5.58626C157.034 5.59093 156.908 5.59093 156.783 5.58626Z" fill="#FFC906" fill-opacity="0.7"/>
<path d="M2.0459 9.07869V8.85633C2.22595 8.70297 2.47146 8.77965 2.77427 8.76048C2.5533 8.94067 2.38145 9.05569 2.0459 9.07869Z" fill="#FFC906" fill-opacity="0.7"/>
<path d="M18.6846 16.5354H18.2017C17.8989 16.451 17.9153 16.3475 18.1199 16.2363C18.2594 16.2604 18.3841 16.3004 18.4826 16.3526C18.5811 16.4047 18.6505 16.4676 18.6846 16.5354Z" fill="#FFC906" fill-opacity="0.7"/>
<path d="M132.542 0.602401C132.828 0.498886 133.017 0.49122 133.221 0.579399C133.082 0.736587 132.861 0.69058 132.542 0.602401Z" fill="#FFC906" fill-opacity="0.7"/>
<path d="M17.9473 1.00807C18.1764 0.824042 18.1764 0.824041 18.6348 0.89305C18.5038 1.05791 18.1928 0.946726 17.9473 1.00807Z" fill="#FFC906" fill-opacity="0.7"/>
<path d="M12.0877 1.30317C11.8831 1.46419 11.8831 1.46419 11.4248 1.39519C11.5558 1.22649 11.8667 1.33001 12.0877 1.30317Z" fill="#FFC906" fill-opacity="0.7"/>
<path d="M153.984 2.54156C153.834 2.55827 153.68 2.56727 153.526 2.5684C153.526 2.5684 153.428 2.50322 153.403 2.46488C153.379 2.42654 153.477 2.41504 153.518 2.41504C153.672 2.4202 153.825 2.42916 153.976 2.44188L153.984 2.54156Z" fill="#FFC906" fill-opacity="0.7"/>
<path d="M158.175 5.2021C158.257 5.15742 158.371 5.12816 158.496 5.11971C158.621 5.11126 158.748 5.12418 158.854 5.15609C158.699 5.34012 158.478 5.29411 158.175 5.2021Z" fill="#FFC906" fill-opacity="0.7"/>
<path d="M10.5003 6.69824C10.556 6.71578 10.6016 6.73946 10.6332 6.76721C10.6647 6.79495 10.6813 6.82591 10.6813 6.85735C10.6813 6.88879 10.6647 6.91974 10.6332 6.94749C10.6016 6.97523 10.556 6.99892 10.5003 7.01645C10.4428 6.99955 10.3954 6.97608 10.3626 6.94825C10.3297 6.92043 10.3125 6.88915 10.3125 6.85735C10.3125 6.82555 10.3297 6.79428 10.3626 6.76645C10.3954 6.73862 10.4428 6.71515 10.5003 6.69824Z" fill="#FFC906" fill-opacity="0.7"/>
<path d="M9.49394 7.00098C9.7231 7.13133 9.73128 7.21951 9.54305 7.31152C9.16658 7.24634 9.27297 7.14666 9.49394 7.00098Z" fill="#FFC906" fill-opacity="0.7"/>
<path d="M18.6839 15.98C18.6458 16.0069 18.5941 16.029 18.5335 16.0442C18.4728 16.0595 18.405 16.0675 18.3361 16.0675C18.2672 16.0675 18.1994 16.0595 18.1387 16.0442C18.078 16.029 18.0264 16.0069 17.9883 15.98C18.0264 15.9531 18.078 15.9311 18.1387 15.9158C18.1994 15.9006 18.2672 15.8926 18.3361 15.8926C18.405 15.8926 18.4728 15.9006 18.5335 15.9158C18.5941 15.9311 18.6458 15.9531 18.6839 15.98Z" fill="#FFC906" fill-opacity="0.7"/>
<path d="M20.3951 15.2666C20.4239 15.3362 20.4239 15.4078 20.3951 15.4775C20.346 15.5235 20.1741 15.5465 20.0596 15.581V15.2666H20.3951Z" fill="#FFC906" fill-opacity="0.7"/>
<path d="M14.8623 13.6795V13.3613C15.1815 13.3613 15.2224 13.4533 15.1978 13.5569C15.1978 13.5761 15.1885 13.595 15.1705 13.6123C15.1525 13.6296 15.1263 13.6447 15.0939 13.6565C15.0616 13.6684 15.0239 13.6766 14.9838 13.6806C14.9437 13.6846 14.9021 13.6842 14.8623 13.6795Z" fill="#FFC906" fill-opacity="0.7"/>
<path d="M14.8621 13.3615C14.502 13.2695 14.502 13.2695 14.6575 13.0586C15.0258 13.1161 14.7966 13.2541 14.8621 13.3615Z" fill="#FFC906" fill-opacity="0.7"/>
<path d="M6.03156 12.1035C6.08726 12.1211 6.1329 12.1447 6.16446 12.1725C6.19602 12.2002 6.21251 12.2312 6.21251 12.2626C6.21251 12.2941 6.19602 12.325 6.16446 12.3528C6.1329 12.3805 6.08726 12.4042 6.03156 12.4217C5.97586 12.4042 5.93022 12.3805 5.89866 12.3528C5.86711 12.325 5.85059 12.2941 5.85059 12.2626C5.85059 12.2312 5.86711 12.2002 5.89866 12.1725C5.93022 12.1447 5.97586 12.1211 6.03156 12.1035Z" fill="#FFC906" fill-opacity="0.7"/>
<path d="M6.54686 11.8543C6.50977 11.8812 6.45885 11.9033 6.39881 11.9186C6.33876 11.9339 6.27149 11.942 6.20312 11.942C6.13475 11.942 6.06748 11.9339 6.00743 11.9186C5.94739 11.9033 5.89647 11.8812 5.85938 11.8543C5.89647 11.8274 5.94739 11.8053 6.00743 11.7899C6.06748 11.7746 6.13475 11.7666 6.20312 11.7666C6.27149 11.7666 6.33876 11.7746 6.39881 11.7899C6.45885 11.8053 6.50977 11.8274 6.54686 11.8543Z" fill="#FFC906" fill-opacity="0.7"/>
<path d="M9.68198 11.3785C9.6427 11.4046 9.59059 11.4259 9.53005 11.4406C9.46952 11.4553 9.40235 11.4629 9.33417 11.4629C9.26598 11.4629 9.19879 11.4553 9.13826 11.4406C9.07773 11.4259 9.02562 11.4046 8.98633 11.3785C9.0244 11.3516 9.07609 11.3295 9.13678 11.3143C9.19747 11.299 9.26529 11.291 9.33417 11.291C9.40305 11.291 9.47084 11.299 9.53153 11.3143C9.59222 11.3295 9.64391 11.3516 9.68198 11.3785Z" fill="#FFC906" fill-opacity="0.7"/>
<path d="M6.20382 9.07819C6.26929 8.97468 6.04013 8.83283 6.40842 8.77148C6.55573 8.98235 6.55573 8.98235 6.20382 9.07819Z" fill="#FFC906" fill-opacity="0.7"/>
<path d="M133.835 0.533203L133.957 0.590709C133.876 0.590709 133.802 0.629049 133.72 0.640551C133.638 0.652053 133.646 0.606044 133.605 0.590709L133.835 0.533203Z" fill="#FFC906" fill-opacity="0.7"/>
<path d="M138.058 0.770508L137.935 0.828014C137.888 0.795027 137.852 0.758813 137.829 0.720666C137.829 0.720666 137.895 0.686162 137.935 0.666992L138.058 0.770508Z" fill="#FFC906" fill-opacity="0.7"/>
<path d="M10.6556 1.20008L10.5328 1.3036C10.4919 1.28443 10.4182 1.26526 10.4264 1.24993C10.4532 1.21239 10.4889 1.17638 10.5328 1.14258L10.6556 1.20008Z" fill="#FFC906" fill-opacity="0.7"/>
<path d="M2.64355 3.2245L2.94636 3.06348C3.1837 3.2015 2.91363 3.18999 2.64355 3.2245Z" fill="#FFC906" fill-opacity="0.7"/>
<path d="M2.84016 3.18945L2.53732 3.35047C2.31635 3.21246 2.57008 3.22396 2.84016 3.18945Z" fill="#FFC906" fill-opacity="0.7"/>
<path d="M159.958 4.52001L159.606 4.38199C159.909 4.27464 159.885 4.39733 159.958 4.52001Z" fill="#FFC906" fill-opacity="0.7"/>
<path d="M6.08036 6.35246L5.85938 6.29496C5.85938 6.29496 5.94123 6.24512 5.97396 6.24512C6.05256 6.2594 6.12911 6.27605 6.20312 6.29496L6.08036 6.35246Z" fill="#FFC906" fill-opacity="0.7"/>
<path d="M8.32299 7.0581L7.96289 6.92008C8.2657 6.81273 8.24115 6.93541 8.32299 7.0581Z" fill="#FFC906" fill-opacity="0.7"/>
<path d="M8.62635 7.17302C8.38902 7.17302 8.27445 7.12318 8.28264 7.01583C8.51998 7.012 8.63454 7.06184 8.62635 7.17302Z" fill="#FFC906" fill-opacity="0.7"/>
<path d="M8.58496 7.11914L8.94506 7.26099C8.64225 7.37601 8.6668 7.25333 8.58496 7.11914Z" fill="#FFC906" fill-opacity="0.7"/>
<path d="M162.119 7.30762L161.996 7.25394C162.07 7.23259 162.15 7.21584 162.233 7.2041C162.233 7.2041 162.307 7.23477 162.348 7.25394L162.119 7.30762Z" fill="#FFC906" fill-opacity="0.7"/>
<path d="M162.381 7.85204L162.029 7.71402C162.332 7.60668 162.308 7.72936 162.381 7.85204Z" fill="#FFC906" fill-opacity="0.7"/>
<path d="M8.33105 8.07031L8.45381 7.9668C8.49473 7.9668 8.56839 8.00514 8.56021 8.02047C8.5349 8.05707 8.4991 8.09189 8.45381 8.12398L8.33105 8.07031Z" fill="#FFC906" fill-opacity="0.7"/>
<path d="M9.14975 8.59961C9.19035 8.63423 9.2259 8.67009 9.25614 8.70696C9.25614 8.70696 9.18248 8.74146 9.14975 8.76063C9.10351 8.72686 9.06508 8.69087 9.03516 8.65328C9.03516 8.65328 9.10883 8.61878 9.14975 8.59961Z" fill="#FFC906" fill-opacity="0.7"/>
<path d="M0.360078 9.28137L0 9.14335C0.302812 9.036 0.278237 9.15485 0.360078 9.28137Z" fill="#FFC906" fill-opacity="0.7"/>
<path d="M2.14444 9.05957L1.84164 9.22059C1.61248 9.08257 1.87437 9.09408 2.14444 9.05957Z" fill="#FFC906" fill-opacity="0.7"/>
<path d="M0.27832 9.18945L0.630231 9.33131C0.327419 9.43866 0.351977 9.31597 0.27832 9.18945Z" fill="#FFC906" fill-opacity="0.7"/>
<path d="M10.3607 10.3474H10.0088C10.0497 10.3014 10.0743 10.2247 10.1315 10.2208C10.3361 10.1863 10.3689 10.2707 10.3607 10.3474Z" fill="#FFC906" fill-opacity="0.7"/>
<path d="M10.0088 10.3479C10.0088 10.4552 9.90238 10.5089 9.66504 10.5051C9.68141 10.3939 9.77142 10.344 10.0088 10.3479Z" fill="#FFC906" fill-opacity="0.7"/>
<path d="M6.15494 10.7656L6.03218 10.8231C5.98507 10.7901 5.94917 10.7539 5.92578 10.7158C5.92578 10.7158 5.99126 10.6813 6.03218 10.6621L6.15494 10.7656Z" fill="#FFC906" fill-opacity="0.7"/>
<path d="M156.366 11.4745L156.661 11.3135C156.898 11.4515 156.628 11.44 156.366 11.4745Z" fill="#FFC906" fill-opacity="0.7"/>
<path d="M149.066 11.594L148.845 11.5365C148.845 11.5173 148.927 11.4828 148.959 11.4866C149.041 11.4976 149.118 11.5144 149.188 11.5365L149.066 11.594Z" fill="#FFC906" fill-opacity="0.7"/>
<path d="M153.092 11.4404L152.789 11.6015C152.56 11.4634 152.822 11.4749 153.092 11.4404Z" fill="#FFC906" fill-opacity="0.7"/>
<path d="M157.151 12.7246C156.98 12.7246 156.832 12.7246 156.873 12.6211C156.873 12.5942 157.053 12.5866 157.151 12.5674V12.7246Z" fill="#FFC906" fill-opacity="0.7"/>
<path d="M154.9 14.4727C154.946 14.5047 154.981 14.5396 155.007 14.5762C155.007 14.5762 154.941 14.6107 154.9 14.6298C154.853 14.5969 154.817 14.5606 154.794 14.5225C154.794 14.5225 154.859 14.488 154.9 14.4727Z" fill="#FFC906" fill-opacity="0.7"/>
<path d="M18.627 16.4893L18.9789 16.6273C18.6842 16.7346 18.6842 16.6119 18.627 16.4893Z" fill="#FFC906" fill-opacity="0.7"/>
<path d="M22.948 13.0654L23.1689 13.1229C23.128 13.1229 23.0789 13.1766 23.0544 13.1728C22.9744 13.1601 22.8975 13.1434 22.8252 13.1229L22.948 13.0654Z" fill="#FFC906" fill-opacity="0.7"/>
</svg>
