<svg width="16" height="16" viewBox="0 0 16 16" fill="none" xmlns="http://www.w3.org/2000/svg">
<g clip-path="url(#clip0_5865_8)">
<path d="M7.99967 0.83366C4.04634 0.83366 0.833008 4.04699 0.833008 8.00033C0.833008 11.9537 4.04634 15.167 7.99967 15.167C11.953 15.167 15.1663 11.9537 15.1663 8.00033C15.1663 4.04699 11.953 0.83366 7.99967 0.83366ZM7.99967 14.167C4.59967 14.167 1.83301 11.4003 1.83301 8.00033C1.83301 4.60033 4.59967 1.83366 7.99967 1.83366C11.3997 1.83366 14.1663 4.60033 14.1663 8.00033C14.1663 11.4003 11.3997 14.167 7.99967 14.167Z" fill="black"/>
<path d="M8 6.83366C7.72667 6.83366 7.5 7.06033 7.5 7.33366V10.667C7.5 10.9403 7.72667 11.167 8 11.167C8.27333 11.167 8.5 10.9403 8.5 10.667V7.33366C8.5 7.06033 8.27333 6.83366 8 6.83366Z" fill="black"/>
<path d="M7.99967 4.66707C7.91301 4.66707 7.82634 4.68707 7.74634 4.7204C7.66634 4.75374 7.59301 4.8004 7.52634 4.8604C7.46634 4.92707 7.41967 4.99374 7.38634 5.0804C7.35301 5.1604 7.33301 5.24707 7.33301 5.33374C7.33301 5.4204 7.35301 5.50707 7.38634 5.58707C7.41967 5.66707 7.46634 5.7404 7.52634 5.80707C7.59301 5.86707 7.66634 5.91374 7.74634 5.94707C7.90634 6.01374 8.09301 6.01374 8.25301 5.94707C8.33301 5.91374 8.40634 5.86707 8.47301 5.80707C8.53301 5.7404 8.57967 5.66707 8.61301 5.58707C8.64634 5.50707 8.66634 5.4204 8.66634 5.33374C8.66634 5.24707 8.64634 5.1604 8.61301 5.0804C8.57967 4.99374 8.53301 4.92707 8.47301 4.8604C8.40634 4.8004 8.33301 4.75374 8.25301 4.7204C8.17301 4.68707 8.08634 4.66707 7.99967 4.66707Z" fill="black"/>
</g>
<defs>
<clipPath id="clip0_5865_8">
<rect width="16" height="16" fill="white" transform="matrix(1 0 0 -1 0 16)"/>
</clipPath>
</defs>
</svg>
