<svg width="874" height="20" viewBox="0 0 874 20" fill="none" xmlns="http://www.w3.org/2000/svg">
<path d="M38.1499 7.94873C37.7504 7.83372 39.4372 7.80389 39.8811 7.68036L37.5283 7.61221C35.5186 7.73611 34.0381 7.92502 33.3554 8.14469L31.0026 7.94873L30.1147 8.48121H23.7223L20.1708 8.14469C19.9204 8.21387 19.6085 8.28085 19.2386 8.3449C18.4395 8.45992 17.5073 8.57067 16.4863 8.70273L14.6217 8.32786H12.4465L11.2035 8.66439L7.5633 8.68143L0.504883 9.29485L0.726792 9.51636C3.41237 9.55726 6.13629 9.57011 8.85072 9.5547L11.1591 9.35448L12.1357 9.84863C13.4675 9.96364 15.11 9.87419 16.575 9.90827L18.5283 10.0701L20.8811 9.88696L21.6801 10.4109C24.8764 10.3129 25.6311 9.96364 28.8274 9.904C29.7597 9.74639 29.7597 9.74639 32.0237 9.76769C32.0237 9.78899 32.5564 9.81029 32.5564 9.83158C32.5564 10.1255 32.5564 10.4152 32.5564 10.6836L30.6475 10.8838C30.6475 11.0158 30.6474 11.1351 32.6451 11.1308C34.6428 11.1266 36.818 10.8539 38.7269 10.462C39.5703 10.4407 40.4582 10.4237 41.2573 10.3981C42.0564 10.3726 41.7456 10.3598 41.9232 10.3428V10.1596L44.5867 9.91252C46.9839 10.0148 47.3835 10.2491 48.5821 10.4322C49.7807 10.6154 52.5774 10.6282 54.4419 10.7517L55.7736 10.6239C57.4606 10.6623 57.2386 10.7986 56.7503 10.8752C56.262 10.9519 54.4419 11.0712 55.3741 11.2459C57.283 11.3737 59.5471 11.2842 61.5892 11.3055L63.5868 11.4802C65.4957 11.5526 66.1615 11.3651 67.4045 11.3268L69.8463 11.5142L73.0424 11.3311L75.3954 11.5355C75.3954 11.5781 75.129 11.6335 74.7738 11.6591C71.9648 11.8636 68.6406 11.9929 65.1406 12.0339C63.72 12.2171 64.7854 12.4258 64.4303 12.6346L60.7457 12.8007V12.9839C63.4981 13.3034 68.0706 13.3417 71.2225 13.6058H82.3648L84.0962 13.7677H97.414L99.0565 13.921C101.898 14.019 105.094 13.8614 108.157 14.0488C105.42 14.1321 102.529 14.1582 99.678 14.1255C96.8813 14.1255 94.0401 14.1255 91.2433 14.1255H74.9513L73.1313 14.2959H39.4372L37.3507 14.4748H22.3904L20.7035 14.6324H15.1101L13.29 14.8028L8.85072 14.854L8.05155 15.1692L4.41146 15.4376C4.94417 15.7656 7.78527 15.8635 9.51658 16.068H13.0679L15.0212 16.2256H20.5703L22.9675 16.051L23.6334 16.3492C25.3647 16.5025 27.6732 16.3832 29.8041 16.4173L31.8461 16.2469L34.3765 16.707L29.0493 17.2096L35.1311 17.7805C36.8624 17.8699 38.7269 17.806 40.9465 17.8316L43.3438 17.9977H50.5798L52.5775 18.1852H69.4911L71.2225 18.347H89.8672L91.9982 18.5302H118.145L120.143 18.7006L122.496 18.5004L125.914 18.6665L127.601 18.5472L129.466 18.6963L131.374 18.5387L132.662 18.6495C132.928 18.6708 133.15 18.7049 133.372 18.7049H170.84L172.216 18.8327C172.482 18.8327 172.704 18.8752 172.97 18.8752H225.087L226.907 19.0456H255.274C255.629 19.1266 255.851 19.1777 256.073 19.216C260.912 19.216 265.751 19.2459 270.59 19.2714C270.59 19.2714 270.59 19.3098 270.945 19.3311C266.001 19.4618 260.735 19.4211 256.073 19.216C255.142 19.2223 254.208 19.2223 253.276 19.216L251.323 19.3864C249.281 19.4546 248.66 19.2629 246.884 19.199L243.377 19.3737H222.868L221.048 19.2075H172.216L170.573 19.0542C168.401 19.0147 166.162 19.0264 164.047 19.0882V19.3098C164.403 19.3438 164.624 19.3822 164.846 19.3822H194.767L196.809 19.5568L198.762 19.3949L200.405 19.5483L202.447 19.3992H208.307C209.106 19.3992 209.639 19.6292 211.769 19.5568L213.678 19.3949L215.632 19.5611H281.244L283.242 19.7357L284.884 19.5781L286.926 19.723H294.65L296.204 19.5739L298.202 19.7272L300.111 19.5696L301.398 19.6846C301.914 19.7099 302.468 19.7272 303.041 19.7357H365.768L367.721 19.9019L369.674 19.7443C371.849 19.6718 372.338 19.8891 374.469 19.9189L377.176 19.757L378.819 19.8934H580.228L581.782 19.74L583.78 19.9104H589.107L591.06 19.74H594.745L596.698 19.9019H610.016L611.57 19.757L614.633 19.9317L617.518 19.757L619.338 19.9104H623.023L624.976 19.7443L627.329 19.9402L630.658 19.7741L633.411 19.9317L636.207 19.7613L639.093 19.9487L641.89 19.7443L644.198 19.9402L648.282 19.74H670.168L670.967 19.5568H666.528L664.53 19.3864L663.154 19.5185C648.971 19.602 634.745 19.5892 620.581 19.4802C620.581 19.4802 620.803 19.429 621.025 19.4205C621.563 19.3993 622.132 19.3863 622.712 19.3822H655.208L657.072 19.2075H675.85L677.803 19.0243H702.219L704.173 18.8412H732.318L734.005 18.6836H745.191L747.234 18.5004H754.691L756.734 18.3215H769.785L771.428 18.1681C774.446 18.117 777.865 18.1681 781.194 18.134L782.836 17.9807H796.154L797.974 17.8103L799.928 17.9594L801.881 17.8018H811.07L813.467 17.5377C813.467 17.5377 812.979 17.4482 812.668 17.4482C808.939 17.4482 805.21 17.4482 801.481 17.4482C801.481 17.4482 801.037 17.4099 800.815 17.3886C801.259 17.2395 802.724 17.3076 803.701 17.265L807.119 16.9413L809.117 17.1032H818.439L820.392 16.9328H825.942L828.028 16.7496H831.624L833.755 16.5707H839.215L841.745 16.1191L840.147 15.9573C841.435 15.8124 843.122 15.9019 844.587 15.8721L848.538 16.2256H852.267C854.442 16.0382 852.755 15.9189 851.157 15.7741C853.334 15.687 855.74 15.6677 858.038 15.7187L860.302 15.8848L860.79 15.5866L857.15 15.4674L858.526 15.2246C857.194 15.0968 855.552 15.2246 854.309 15.1607L851.956 15.3566L851.157 15.1053C853.469 15.0306 855.494 14.8911 856.972 14.7049C855.839 14.6822 854.746 14.6434 853.731 14.5898C852.71 14.5174 851.911 14.4322 850.402 14.4706C848.404 14.5771 850.136 14.7858 849.07 14.9434C848.005 15.101 846.851 14.969 845.696 14.9903V15.4972L843.521 15.5781C841.168 15.5014 840.68 15.2416 838.238 15.216C835.797 15.1905 835.264 15.0456 834.421 14.8965C834.199 14.6197 838.105 14.5898 838.15 14.3343H835.131C834.954 14.2583 834.701 14.1841 834.376 14.1127C833.932 14.0275 833.266 13.9509 832.734 13.8699L835.353 13.6399L838.15 13.887V14.3343L839.925 14.2661V13.6995C839.703 13.6186 837.35 13.576 838.727 13.3161L840.635 13.1287C842.544 13.1671 843.033 13.3673 845.696 13.4439H848.316L850.491 13.6356C851.455 13.5307 852.345 13.4197 853.154 13.3034C854.131 13.1372 854.575 12.9413 855.685 12.7879C856.88 12.6477 858.219 12.5192 859.68 12.4045H865.584L868.647 12.0424H871.267L872.287 11.7783L868.248 11.4844V11.0584L866.428 10.871L868.159 10.6878C868.425 10.5387 867.671 10.3854 869.136 10.2618L871 10.6324L873.531 10.1681L872.066 10.0105L873.841 9.82733V9.47376C873.309 9.4482 872.82 9.39282 872.332 9.39282H850.358L848.36 9.20539H840.325C840.68 8.98813 842.589 8.9285 843.566 8.7794C843.299 8.74532 842.988 8.67717 842.678 8.67717C837.706 8.67717 832.734 8.67717 827.762 8.67717L825.675 8.28526L818.439 8.63457L811.07 8.281L809.117 8.6729H807.164C805.565 8.56215 806.498 8.40028 806.187 8.24692L803.745 8.00411L799.306 7.95725C799.084 7.95725 798.64 7.91465 798.64 7.89335C798.64 7.65906 798.64 7.42477 798.64 7.19474L796.776 7.00304L799.484 6.75171L801.481 6.92211H805.921C806.498 6.84543 806.986 6.75172 807.563 6.74746C808.939 6.74746 810.493 6.68782 811.736 6.81987C810.182 7.00731 808.007 6.88377 805.921 6.92211C806.967 7.07548 807.887 7.23642 808.673 7.40347L811.558 7.49719L812.047 7.92317C813.29 8.05523 814.977 7.96151 816.486 7.99133L818.528 7.81242H822.435L823.456 7.54405L817.552 7.0925V6.84117C818.795 6.70059 820.437 6.77302 821.991 6.76024C823.545 6.74746 824.521 6.76024 825.764 6.76024H830.203C830.514 7.00305 828.694 6.89229 827.096 7.10528C827.362 7.02861 827.096 7.1351 826.563 7.22456C826.03 7.31402 825.542 7.27142 825.009 7.29272V7.90187L822.79 8.12339L826.474 8.17877L827.096 7.88909L831.535 7.46311L834.465 7.40773V6.84543L837.306 6.56428H841.124C843.344 6.74745 841.124 6.99026 842.367 7.20752L843.921 7.27142V6.84543L845.918 6.64948L841.479 6.29591C842.145 6.18941 842.766 6.10422 843.255 6.0105C843.743 5.91678 844.054 5.81455 844.409 5.72083C846.274 5.65693 846.495 5.66971 847.605 5.86992C848.138 5.86992 849.026 5.89974 849.115 5.92956C849.337 6.0318 848.537 6.04884 847.605 6.04458C847.605 6.23201 849.692 6.24479 850.091 6.41093L854.53 6.04032H858.659L859.103 5.74213C856.702 5.72699 854.358 5.66518 852.214 5.56046C850.07 5.45575 848.169 5.31031 846.629 5.13297L841.657 5.36301C838.638 5.15853 842.056 4.822 839.304 4.63883L836.64 4.89016C837.351 5.00518 839.393 5.06482 837.883 5.31615C835.885 5.41838 833.045 5.31615 829.76 5.36301L827.274 5.13297C826.741 4.79218 829.981 4.76662 830.514 4.53233L828.561 4.33638C824.921 4.14043 822.479 4.59623 818.04 4.40454L815.909 4.2597L812.846 4.47269H807.652L805.21 4.29804C802.724 4.29804 802.014 4.58771 799.439 4.43861L798.862 4.2171L801.881 3.96151C804.544 3.8252 806.32 4.11061 809.072 4.13617L811.203 3.94873L813.156 4.11912C815.82 4.17024 817.108 3.79963 821.058 3.99985L822.302 4.09357L825.364 3.92317L828.339 4.11487L830.425 3.84224L827.318 3.6974C827.762 3.55257 829.315 3.62072 830.203 3.56961C830.837 3.5276 831.445 3.48208 832.023 3.43329L833.266 3.56961L835.619 3.38217H844.498L836.063 3.15214L839.836 2.97749C838.638 2.74319 835.397 2.97749 834.11 2.75171C837.12 2.69481 840.196 2.67761 843.255 2.7006C846.256 2.72396 849.275 2.68919 852.133 2.59836C849.109 2.5306 846 2.50477 842.9 2.52168L839.348 2.27461C842.766 2.06162 846.14 2.27461 849.07 2.09996L847.294 1.904L850.979 1.73787V1.5547L845.696 1.2991H840.946L838.771 1.11593H820.171L818.084 0.937021H778.708L776.932 0.770882C771.516 0.736801 765.657 0.770885 759.841 0.749586L758.154 0.591969H718.734L716.736 0.408798H649.303L647.35 0.22562H442.611L440.88 0.0637512H380.817L378.952 0.221363L376.067 0.0168915L373.004 0.234142H192.903L191.216 0.396019H161.162L159.208 0.583452H147.933L146.157 0.749586H132.617L128.178 1.29485H119.921C117.701 1.48654 119.566 1.60156 120.853 1.72083V2.07014C123.206 2.24053 124.316 2.56428 128.134 2.53447C128.076 2.60838 127.787 2.67889 127.304 2.73669C126.82 2.7945 126.165 2.83687 125.426 2.85821C123.561 2.88377 122.94 2.92637 122.629 3.10954C122.629 3.22456 120.764 3.31828 120.099 3.39069C116.458 3.45033 117.701 3.16066 116.281 3.05843L114.283 3.22029H108.778C107.713 3.18196 107.447 3.02009 105.849 3.04565C105.849 3.09676 105.538 3.18196 105.227 3.18622C104.117 3.21178 103.94 3.1351 103.984 3.04565C103.771 3.05163 103.547 3.05275 103.329 3.04892C103.11 3.04508 102.905 3.0364 102.728 3.02357C102.551 3.01073 102.408 2.99409 102.31 2.975C102.212 2.9559 102.162 2.93487 102.164 2.91359C102.164 2.79432 102.164 2.68356 103.984 2.69633C104.206 2.64522 104.384 2.5515 104.65 2.5515C107.314 2.5515 109.089 2.22775 113.173 2.38537L115.349 2.58132L113.218 2.82839L116.059 2.87951C118.367 2.70912 116.059 2.48335 117.124 2.30017L119.078 2.0105H114.638C110.998 1.73361 116.414 1.61433 115.26 1.39282C113.173 1.26077 113.173 1.26077 110.821 1.43968L107.891 1.26502L103.984 1.48228L101.01 1.29485C101.01 1.35448 100.166 1.43542 100.344 1.48654C100.598 1.56913 101.058 1.64453 101.684 1.70615C102.311 1.76777 103.086 1.81376 103.94 1.84011C104.251 1.72509 103.94 1.58878 105.76 1.70805L103.94 1.84011C104.739 2.0957 102.031 2.26609 101.365 2.50039C100.921 2.61423 100.371 2.724 99.7225 2.82839C98.7409 2.84372 97.8035 2.87855 96.9701 2.93063C95.9491 3.00731 95.1055 3.07546 93.7293 3.04565L87.9583 3.56961L86.0495 3.42477C84.0518 3.39495 81.9209 3.34809 80.4115 3.57386H74.7294L72.6872 3.39921L70.1126 3.71018V4.03819L66.2502 4.30656V4.78792L60.2573 5.24799L61.2784 5.52914L63.4092 5.35022L65.3626 5.5121L68.0705 5.25651V5.07759L72.5098 4.6516C73.5752 4.68142 73.8416 4.8433 75.3954 4.81348C75.3954 4.63883 77.0822 4.58345 78.1033 4.48547C79.1243 4.3875 79.7012 4.48547 80.4115 4.48547C81.8321 4.74532 80.4116 4.91146 79.435 5.11593C80.7668 5.23521 82.4093 5.14149 83.8743 5.17983C85.2504 5.39282 85.6499 5.67397 89.6008 5.78047L85.3837 5.91252L84.1406 6.22775C83.6523 6.18516 82.9863 6.15534 82.9419 6.12126C82.8762 6.01201 82.8762 5.90249 82.9419 5.79325C81.5214 5.63989 79.8788 5.73361 78.5027 5.70379L76.4608 5.87844H69.047L67.0937 6.04884L65.1406 5.89122C63.942 6.00198 62.921 6.17664 61.7224 6.19368C59.7247 6.21923 58.7481 6.37685 57.0168 6.40667C56.0422 6.41525 55.0614 6.41525 54.0868 6.40667L52.0447 6.22775H50.269C49.6483 6.23202 49.0253 6.23202 48.4046 6.22775C48.4046 6.22775 47.9605 6.18941 47.7386 6.17237L42.5003 5.89549L41.0354 6.0318H36.1966L30.5587 6.32147C32.3344 6.49187 34.7759 6.62818 35.6638 6.82839C36.3606 7.01256 37.6124 7.17269 39.2597 7.28845C41.3462 7.30975 42.1008 7.21604 41.7457 7.01582L44.5423 6.77727H50.5353L51.8228 7.11806L53.998 6.93489H59.6802L62.2994 7.199L58.748 7.36087C59.1031 7.46737 60.8344 7.49719 60.5237 7.63776C63.4092 7.57813 65.2295 7.82094 67.6267 7.87206C67.0496 8.00837 66.5167 8.14895 65.8064 8.29804C65.8064 8.33212 64.8298 8.33638 64.3858 8.33212C64.0751 8.44287 64.3859 8.57919 62.5658 8.45991C63.1466 8.41401 63.7542 8.37134 64.3858 8.33212C64.3314 8.247 64.3314 8.16165 64.3858 8.07653C63.2316 7.97003 61.8999 7.85501 60.6569 7.73574C60.6569 7.73574 60.6569 7.68036 60.6569 7.65054H55.7293L54.7083 7.35661C53.934 7.30874 53.0324 7.28327 52.1113 7.28327C51.1902 7.28327 50.2887 7.30874 49.5144 7.35661L51.1125 7.53979C50.5798 7.65481 48.6709 7.71444 49.4255 7.89335L51.2901 8.08079V8.50677C51.8946 8.5021 52.5021 8.51085 53.0658 8.53233C53.3765 8.42157 53.0657 8.28526 54.8414 8.40454C54.2769 8.45053 53.6839 8.4932 53.0658 8.53233C53.7632 8.61124 54.3732 8.6969 54.8859 8.78792L48.227 9.40986C46.9396 9.19261 47.9606 8.95832 47.1172 8.75384C46.4318 8.66823 45.9472 8.56942 45.6966 8.46418C45.6966 8.38324 46.3625 8.31082 47.5167 8.33212C47.2947 8.16598 48.0493 7.99133 46.7619 7.81242L44.7644 7.96151L42.8111 7.80816L41.1241 8.14469C40.0917 8.09118 39.124 8.02689 38.2386 7.95299C37.9279 8.06801 38.2386 8.20433 36.4185 8.08505C36.9562 8.03519 37.5353 7.9896 38.1499 7.94873ZM788.874 7.07546C790.339 7.1138 791.759 7.10102 790.516 7.25437C790.072 7.20752 789.628 7.1564 789.895 7.1138C788.474 7.07547 787.009 7.08824 788.297 6.93489C788.519 6.97748 788.874 7.0286 788.874 7.07546ZM86.8485 11.0201C87.248 10.8838 87.1148 10.7475 88.7573 10.8667C88.2246 10.9093 87.7365 10.9477 87.2481 10.9221C86.8486 11.0584 86.9818 11.1947 85.3393 11.0755C85.6944 11.0371 86.1827 10.9945 86.671 11.0201H86.8485ZM800.638 14.1468C801.881 14.1766 803.568 14.0616 804.234 14.2491C801.748 14.3257 801.748 14.3257 800.86 14.1298L800.505 14.1639L798.951 14.0403L799.528 13.9849C799.949 14.0324 800.266 14.0874 800.46 14.1468H800.638ZM74.1078 10.7389C73.7083 10.8753 73.8415 11.0116 72.199 10.8923C72.6887 10.8472 73.2605 10.8111 73.8859 10.7858V10.3598L79.3017 10.1085V10.56L76.7271 10.8028C75.8302 10.8098 74.9322 10.7905 74.1523 10.7475L74.1078 10.7389ZM88.8462 4.61753C91.9093 4.64735 89.9116 4.31082 91.8649 4.26396C93.2854 4.29378 94.928 4.20432 96.3041 4.32786L96.5261 4.50251C95.1499 4.76663 92.087 4.8007 89.2459 4.96684C89.2459 4.83478 89.0237 4.72829 89.0237 4.61753C87.0704 4.51104 87.0704 4.51103 87.9139 4.281C89.6452 4.35342 88.4024 4.51103 88.6687 4.62605L88.8462 4.61753ZM108.823 11.4674C110.554 11.5398 112.241 11.6676 113.706 11.6548C115.171 11.642 116.769 11.7869 118.145 11.8124L119.477 11.6889H140.741L143.494 11.9658L142.606 12.1958H140.519L138.522 12.0211H110.465C109.533 11.9104 107.935 11.8508 107.536 11.6633L108.823 11.4674ZM93.5518 11.2927C95.8158 11.625 99.101 11.412 101.409 11.5483L105.849 11.7741L105.094 12.0126L101.409 11.8124L99.0565 12.0211H93.5074L91.5985 11.855L89.823 11.9956L86.671 11.8124L84.2739 11.9956C83.4066 11.9366 82.4674 11.8879 81.4772 11.8508C80.3211 11.8254 79.1497 11.8069 77.97 11.7954C77.97 11.7954 77.97 11.757 77.7481 11.7443L80.3229 11.4929H84.0517L86.005 11.3225L88.0472 11.4929C89.8673 11.4887 91.9094 11.5611 93.3744 11.3012L93.5518 11.2927ZM111.087 5.64842L107.269 5.49932C105.272 5.41838 104.25 5.61434 102.43 5.64842L102.031 5.41412C103.228 5.31633 104.341 5.20949 105.36 5.09463C105.898 4.99143 106.314 4.88286 106.603 4.77089H111.043L112.063 4.48547L115.393 4.67717L115.171 5.06908C112.996 5.27355 110.998 5.39708 110.91 5.65693L111.087 5.64842ZM812.846 12.5494C811.425 12.5196 809.783 12.609 808.051 12.4557C808.939 12.3364 807.075 12.1532 809.161 12.0297H814.71L816.664 12.1958L818.75 12.0211L822.435 12.051C822.657 12.051 822.878 12.0893 823.145 12.1149C821.147 12.2725 819.993 12.5409 816.93 12.5707L814.755 12.3918L812.846 12.5494ZM119.877 4.96684C122.007 4.9924 124.316 4.91572 126.314 5.03073C125.637 5.10763 125.083 5.19378 124.671 5.28633C124.272 5.41412 125.204 5.57174 123.606 5.67397C121.564 5.65267 119.166 5.72935 117.258 5.61434V5.22669L119.877 4.96684ZM794.645 7.84649C794.645 8.09356 791.892 7.8678 791.537 8.02541L790.516 8.3236C788.785 8.28952 787.187 8.37898 785.544 8.22988C785.544 8.11913 785.544 7.98707 785.9 7.85076C785.9 7.8252 786.299 7.80816 786.477 7.79112C789.007 7.79112 791.449 7.79112 793.935 7.79112C794.023 7.79964 794.245 7.82946 794.512 7.85501L794.645 7.84649ZM851.023 11.4077C851.334 11.3268 850.269 11.1777 850.402 11.1777L856.972 11.5781C856.351 11.7656 857.372 11.9274 855.64 12.0297C854.22 11.9999 852.533 12.0936 851.201 11.9658C849.869 11.838 851.645 11.6974 852.755 11.5952L851.023 11.4077ZM795.577 15.3779C796.465 15.4759 797.885 15.5313 798.196 15.6889C796.82 15.7315 796.509 15.9232 794.645 15.9104C790.206 15.6122 790.206 15.5398 791.981 15.3779H795.577ZM827.584 12.0297H831.58C832.03 12.0944 832.584 12.1519 833.222 12.2001C834.021 12.2427 835.619 12.1447 835.752 12.3832H825.897C825.542 12.3832 825.276 12.3151 824.965 12.281L827.584 12.0297ZM775.023 7.79963C776.444 7.82945 778.086 7.73574 779.463 7.85928C779.463 8.03393 777.776 7.95299 776.799 7.98281C775.068 8.14895 773.336 8.31508 771.561 8.47696C771.561 8.47696 771.117 8.47696 770.895 8.47696C770.54 8.23414 770.54 8.23414 775.156 7.79963H775.023ZM842.145 12.0893L841.346 12.4557L838.238 12.1021C840.685 11.9445 843.236 11.8022 845.874 11.6761C846.416 11.6935 846.937 11.7163 847.428 11.7443C846.584 11.9956 843.432 11.9743 842.145 12.0893ZM82.587 7.0925C77.615 7.0925 77.6149 7.0925 75.5729 6.95619C76.5049 6.9347 77.4564 6.92186 78.4141 6.91785C80.4968 6.89077 82.6157 6.90674 84.6289 6.96471C84.984 7.13084 85.6944 7.29698 83.9187 7.45885L82.587 7.0925ZM64.3415 7.18622C65.3626 7.10528 65.984 6.97322 68.0705 6.93489C68.0705 7.1351 68.0705 7.33105 68.0705 7.52275C68.0705 7.54831 67.3602 7.57387 66.9607 7.60369C66.1172 7.48441 64.2971 7.44181 64.3415 7.18622ZM802.192 8.41732C801.304 8.494 800.46 8.57493 799.617 8.65587C797.93 8.65587 796.11 8.75384 794.512 8.57493C795.626 8.5518 796.712 8.51753 797.752 8.47269C798.729 8.41305 799.35 8.3023 800.815 8.33212L802.192 8.41732ZM809.783 15.3012C810.715 15.2075 811.336 15.084 812.89 15.0584L815.154 15.2842L812.58 15.5611L809.783 15.3012ZM96.3486 5.34596L95.6384 5.69527L92.1312 5.63137L92.7084 5.34596H96.3486ZM272.232 19.3311C276.671 19.2501 276.672 19.2544 278.092 19.3779C277.166 19.4231 276.128 19.4426 275.093 19.4343C274.058 19.4261 273.067 19.3903 272.232 19.3311ZM821.724 14.2789C822.834 14.4237 824.343 14.4748 824.565 14.6239C824.316 14.6441 824.026 14.6591 823.713 14.6681C823.401 14.6771 823.072 14.6799 822.748 14.6764C822.424 14.6728 822.111 14.6629 821.828 14.6473C821.545 14.6316 821.298 14.6107 821.103 14.5856L821.724 14.2789ZM792.736 8.71551C788.829 8.8646 788.829 8.86034 787.498 8.71551C788.393 8.70025 789.297 8.69029 790.206 8.68568C791.056 8.68935 791.902 8.69932 792.736 8.71551ZM806.054 4.71551C805.287 4.78532 804.27 4.82423 803.213 4.82423C802.155 4.82423 801.139 4.78532 800.372 4.71551C800.748 4.67867 801.196 4.64941 801.692 4.62943C802.187 4.60945 802.72 4.59916 803.257 4.59916C803.794 4.59916 804.327 4.60945 804.822 4.62943C805.318 4.64941 805.766 4.67867 806.143 4.71551H806.054ZM108.201 3.89762C109.666 4.04245 109.578 4.14042 108.468 4.27248L106.426 4.24266L108.201 3.89762ZM766.944 15.757H768.143C768.143 15.8337 768.409 15.9147 768.453 15.9913C768.498 16.068 767.965 16.051 767.832 16.0467C767.699 16.0424 766.677 16.0084 766.633 15.9871C766.678 15.9092 766.812 15.8321 767.033 15.757H766.944ZM776.133 15.8209C774.402 15.9317 773.203 15.9871 772.448 15.7954C773.647 15.6974 774.668 15.7059 776.222 15.8209H776.133ZM826.918 14.9945V14.8795C827.717 14.8795 828.561 14.8582 829.404 14.854C830.248 14.8497 830.07 14.8965 830.026 14.9093C829.982 14.9221 829.582 15.0201 829.36 15.0201C828.57 15.017 827.784 15.0085 827.007 14.9945H826.918ZM832.334 14.4109C832.121 14.4399 831.839 14.4636 831.51 14.4799C831.182 14.4963 830.817 14.5048 830.448 14.5048C830.078 14.5048 829.713 14.4963 829.385 14.4799C829.056 14.4636 828.774 14.4399 828.561 14.4109C828.763 14.3792 829.047 14.353 829.385 14.3348C829.723 14.3166 830.104 14.3071 830.492 14.3071C830.88 14.3071 831.261 14.3166 831.599 14.3348C831.937 14.353 832.221 14.3792 832.423 14.4109H832.334ZM838.194 11.642V11.5313C839.032 11.5185 839.877 11.51 840.724 11.5057C840.724 11.5057 841.346 11.5483 841.302 11.5611C841.257 11.5739 840.902 11.6676 840.635 11.6718C839.843 11.6692 839.055 11.6592 838.283 11.642H838.194ZM108.379 1.79325C109.578 1.95086 110.155 2.06162 108.113 2.1383C107.18 2.0318 107.225 1.93382 108.468 1.79325H108.379ZM134.659 5.33318C134.357 5.3137 134.11 5.28738 133.938 5.25656C133.767 5.22573 133.678 5.19133 133.678 5.1564C133.678 5.12147 133.767 5.08707 133.938 5.05624C134.11 5.02542 134.357 4.9991 134.659 4.97962C134.976 4.99767 135.24 5.02315 135.426 5.05366C135.612 5.08417 135.714 5.11871 135.723 5.15404C135.732 5.18938 135.647 5.22436 135.477 5.25569C135.306 5.28702 135.056 5.31369 134.748 5.33318H134.659ZM789.185 9.10741C789.391 9.07754 789.672 9.05303 790.001 9.03607C790.33 9.01912 790.698 9.01025 791.071 9.01025C791.445 9.01025 791.813 9.01912 792.142 9.03607C792.471 9.05303 792.751 9.07754 792.958 9.10741C792.751 9.13729 792.471 9.1618 792.142 9.17875C791.813 9.1957 791.445 9.20457 791.071 9.20457C790.698 9.20457 790.33 9.1957 790.001 9.17875C789.672 9.1618 789.391 9.13729 789.185 9.10741ZM834.554 9.33744V9.22669C835.377 9.21396 836.207 9.20543 837.04 9.20113C837.04 9.20113 837.706 9.24373 837.661 9.25651C837.617 9.26929 837.262 9.36726 836.996 9.36726C836.178 9.3699 835.359 9.3642 834.554 9.35023V9.33744ZM761.306 15.9573L761.972 15.8934C762.218 15.9305 762.412 15.9706 762.549 16.0126C762.549 16.0126 762.194 16.051 761.972 16.0723L761.306 15.9573ZM837.351 16.0467L836.152 15.9828C836.374 15.9828 836.64 15.9232 836.773 15.9274C837.215 15.9396 837.635 15.9583 838.016 15.9828L837.351 16.0467ZM788.519 15.5696L789.185 15.6292C788.782 15.653 788.35 15.6716 787.897 15.6846C787.897 15.6846 787.498 15.6505 787.276 15.6292L788.519 15.5696ZM433.955 15.429L433.289 15.544C433.289 15.544 432.667 15.4972 432.712 15.4844C432.859 15.4428 433.052 15.4028 433.289 15.3651L433.955 15.429ZM806.853 15.3907L808.096 15.4546C808.096 15.4546 807.608 15.5142 807.474 15.51C807.022 15.4969 806.589 15.4783 806.187 15.4546L806.853 15.3907ZM807.83 14.1937L807.119 14.3087C807.119 14.2874 806.498 14.2661 806.542 14.2491C806.698 14.2091 806.891 14.1706 807.119 14.134L807.83 14.1937ZM236.94 13.1372L236.23 13.2522C236.23 13.2522 235.608 13.2054 235.653 13.1926C235.8 13.151 235.993 13.111 236.23 13.0733L236.94 13.1372ZM200.849 12.7112L199.65 12.6473C199.65 12.626 200.094 12.5877 200.227 12.592C200.68 12.605 201.112 12.6236 201.515 12.6473L200.849 12.7112ZM158.987 12.0552L160.185 12.1191C160.185 12.1191 159.741 12.1745 159.564 12.1745C159.137 12.1586 158.722 12.1401 158.321 12.1191L158.987 12.0552ZM62.2551 10.8582L61.5892 10.9732C61.5892 10.9732 60.9677 10.9264 61.0121 10.9136C61.159 10.872 61.3525 10.832 61.5892 10.7943L62.2551 10.8582ZM117.923 10.7943C117.923 10.7943 117.302 10.7517 117.346 10.7389C117.493 10.6973 117.687 10.6573 117.923 10.6197C117.923 10.6197 118.545 10.6623 118.545 10.675C118.367 10.7231 118.128 10.7689 117.835 10.8114L117.923 10.7943ZM91.2878 10.5941L90.622 10.5302C91.0143 10.5075 91.4309 10.4889 91.8649 10.4748C91.8649 10.4748 92.3089 10.5132 92.4864 10.5302L91.2878 10.5941ZM64.6522 9.97642L65.3182 9.91252C65.5646 9.94966 65.7587 9.98977 65.8953 10.0318C65.8953 10.0318 65.5401 10.0701 65.3182 10.0914L64.6522 9.97642ZM57.1499 9.62286L57.8158 9.56322C58.0439 9.59981 58.2371 9.6383 58.3929 9.67823C58.3929 9.67823 57.9934 9.71657 57.8158 9.73787L57.1499 9.62286ZM785.189 9.27355L784.523 9.3843C784.523 9.3843 783.902 9.34171 783.946 9.32893C784.073 9.28654 784.268 9.2463 784.523 9.20965L785.189 9.27355ZM779.995 8.25544L780.661 8.14469C780.883 8.14469 781.283 8.18728 781.238 8.20006C781.112 8.24245 780.917 8.28268 780.661 8.31934L779.995 8.25544ZM87.0704 7.37365L87.7364 7.2629C87.7364 7.2629 88.3579 7.3055 88.3135 7.31828C88.1666 7.35992 87.9731 7.39991 87.7364 7.43755L87.0704 7.37365ZM811.914 7.14788L812.58 7.08398C812.83 7.1215 813.039 7.16149 813.201 7.20326C813.201 7.20326 812.802 7.2416 812.58 7.2629L811.914 7.14788ZM131.863 5.61859L131.197 5.6825C130.946 5.64497 130.738 5.60498 130.575 5.56321C130.575 5.56321 130.975 5.52488 131.197 5.50784L131.863 5.61859ZM99.5006 5.35448L100.211 5.41838C99.8084 5.4421 99.3757 5.46072 98.9234 5.47376C98.9234 5.47376 98.5238 5.43968 98.3019 5.41838L99.5006 5.35448ZM817.285 5.26929L816.619 5.32893C816.374 5.29327 816.179 5.25457 816.042 5.21391C816.042 5.21391 816.397 5.17557 816.619 5.15427L817.285 5.26929ZM96.3486 5.06481C96.1266 5.08611 95.9046 5.12445 95.727 5.12019C95.2853 5.10802 94.8661 5.08933 94.4842 5.06481C94.4842 5.06481 94.9279 5.00944 95.1055 5.00944C95.283 5.00944 95.8603 5.04777 96.3486 5.06481ZM121.031 3.98281L121.697 3.91892C121.943 3.95605 122.137 3.99616 122.274 4.03819C122.274 4.03819 121.919 4.07653 121.697 4.09783L121.031 3.98281Z" fill="#FFC906"/>
</svg>
