<svg width="347" height="15" viewBox="0 0 347 15" fill="none" xmlns="http://www.w3.org/2000/svg">
<path d="M15.1154 5.96191C14.9569 5.87565 15.626 5.85329 15.8021 5.76064L14.8689 5.70952C14.0717 5.80245 13.4845 5.94413 13.2137 6.10888L12.2805 5.96191L11.9283 6.36128H9.39273L7.98404 6.10888C7.88472 6.16076 7.76102 6.211 7.61428 6.25904C7.29733 6.3453 6.92757 6.42837 6.52258 6.52741L5.78301 6.24626H4.92022L4.42719 6.49866L2.9833 6.51144L0.183594 6.9715L0.271614 7.13764C1.33684 7.16831 2.41728 7.17795 3.49395 7.16639L4.40956 7.01623L4.79695 7.38684C5.3252 7.4731 5.9767 7.40601 6.55777 7.43156L7.33254 7.55297L8.26578 7.41559L8.58271 7.80856C9.85051 7.73508 10.1499 7.4731 11.4177 7.42837C11.7874 7.31016 11.7874 7.31016 12.6855 7.32613C12.6855 7.34211 12.8968 7.35808 12.8968 7.37405C12.8968 7.5945 12.8968 7.81175 12.8968 8.01303L12.1396 8.16319C12.1396 8.26223 12.1396 8.35169 12.932 8.3485C13.7243 8.3453 14.5871 8.14083 15.3443 7.8469C15.6788 7.83092 16.031 7.81814 16.348 7.79897C16.6649 7.77981 16.5416 7.77022 16.6121 7.75744V7.62006L17.6686 7.43476C18.6194 7.51144 18.7779 7.68715 19.2533 7.82453C19.7287 7.96192 20.8381 7.9715 21.5776 8.06415L22.1058 7.9683C22.775 7.99706 22.6869 8.09929 22.4932 8.1568C22.2995 8.21431 21.5776 8.30377 21.9474 8.43476C22.7045 8.53061 23.6026 8.46351 24.4126 8.47949L25.2049 8.61048C25.9621 8.66479 26.2262 8.52422 26.7192 8.49546L27.6877 8.63603L28.9555 8.49866L29.8888 8.65201C29.8888 8.68396 29.7831 8.72549 29.6422 8.74466C28.528 8.89805 27.2095 8.99507 25.8212 9.02581C25.2577 9.16319 25.6803 9.31974 25.5395 9.47629L24.078 9.60089V9.73827C25.1697 9.97789 26.9834 10.0066 28.2336 10.2047H32.6532L33.3399 10.3261H38.6224L39.2739 10.4411C40.4008 10.5146 41.6686 10.3964 42.8836 10.537C41.7979 10.5994 40.6513 10.619 39.5204 10.5945C38.4111 10.5945 37.2841 10.5945 36.1748 10.5945H29.7126L28.9907 10.7223H15.626L14.7984 10.8565H8.86445L8.19533 10.9747H5.97672L5.25478 11.1025L3.49395 11.1408L3.17696 11.3772L1.73313 11.5785C1.94443 11.8245 3.07135 11.898 3.75807 12.0514H5.16671L5.94147 12.1696H8.14251L9.09337 12.0386L9.35748 12.2622C10.0442 12.3773 10.9599 12.2878 11.8051 12.3134L12.615 12.1856L13.6187 12.5306L11.5057 12.9076L13.918 13.3357C14.6047 13.4028 15.3443 13.3549 16.2247 13.3741L17.1755 13.4987H20.0457L20.8381 13.6392H27.5468L28.2336 13.7606H35.629L36.4742 13.898H46.8454L47.6378 14.0258L48.5711 13.8757L49.9269 14.0003L50.596 13.9108L51.3356 14.0226L52.0928 13.9044L52.6034 13.9875C52.709 14.0034 52.7971 14.029 52.8851 14.029H67.7465L68.2924 14.1249C68.398 14.1249 68.486 14.1568 68.5917 14.1568H89.2637L89.9856 14.2846H101.237C101.378 14.3453 101.466 14.3836 101.554 14.4124C103.474 14.4124 105.393 14.4348 107.312 14.4539C107.312 14.4539 107.312 14.4827 107.453 14.4987C105.492 14.5967 103.403 14.5662 101.554 14.4124C101.185 14.4171 100.814 14.4171 100.445 14.4124L99.6702 14.5402C98.8602 14.5913 98.6137 14.4475 97.9094 14.3996L96.5183 14.5306H88.3833L87.6614 14.406H68.2924L67.6408 14.291C66.7793 14.2614 65.8911 14.2702 65.0524 14.3165V14.4827C65.1933 14.5082 65.2813 14.537 65.3693 14.537H77.2373L78.0473 14.668L78.8221 14.5466L79.4736 14.6616L80.2836 14.5498H82.6078C82.9247 14.5498 83.1361 14.7223 83.9813 14.668L84.7384 14.5466L85.5132 14.6712H111.538L112.331 14.8022L112.982 14.684L113.792 14.7926H116.856L117.472 14.6808L118.264 14.7958L119.022 14.6776L119.532 14.7638C119.737 14.7828 119.957 14.7957 120.184 14.8022H145.064L145.839 14.9268L146.614 14.8086C147.477 14.7542 147.67 14.9172 148.516 14.9396L149.59 14.8181L150.241 14.9204H230.13L230.746 14.8054L231.538 14.9332H233.651L234.426 14.8054H235.888L236.662 14.9268H241.945L242.561 14.8181L243.776 14.9491L244.921 14.8181L245.643 14.9332H247.104L247.879 14.8086L248.812 14.9555L250.133 14.8309L251.224 14.9491L252.334 14.8213L253.478 14.9619L254.588 14.8086L255.503 14.9555L257.123 14.8054H265.804L266.121 14.668H264.36L263.568 14.5402L263.022 14.6392C257.397 14.7019 251.754 14.6923 246.136 14.6105C246.136 14.6105 246.224 14.5721 246.312 14.5658C246.525 14.5498 246.751 14.5401 246.981 14.537H259.87L260.61 14.406H268.058L268.833 14.2686H278.517L279.292 14.1312H290.456L291.125 14.013H295.562L296.372 13.8757H299.33L300.14 13.7415H305.317L305.969 13.6265C307.166 13.5881 308.522 13.6265 309.842 13.6009L310.494 13.4859H315.776L316.498 13.3581L317.273 13.4699L318.048 13.3517H321.693L322.644 13.1536C322.644 13.1536 322.45 13.0865 322.327 13.0865C320.848 13.0865 319.368 13.0865 317.889 13.0865C317.889 13.0865 317.713 13.0578 317.625 13.0418C317.801 12.93 318.382 12.9811 318.77 12.9491L320.126 12.7063L320.918 12.8277H324.616L325.39 12.6999H327.591L328.419 12.5626H329.845L330.691 12.4284H332.856L333.86 12.0897L333.226 11.9683C333.737 11.8597 334.406 11.9268 334.987 11.9044L336.554 12.1696H338.033C338.896 12.029 338.227 11.9395 337.593 11.8309C338.456 11.7656 339.411 11.7511 340.322 11.7894L341.22 11.914L341.414 11.6904L339.97 11.6009L340.516 11.4188C339.988 11.3229 339.336 11.4188 338.843 11.3709L337.91 11.5178L337.593 11.3293C338.51 11.2733 339.313 11.1687 339.9 11.029C339.45 11.012 339.017 10.9829 338.614 10.9427C338.209 10.8884 337.892 10.8245 337.294 10.8533C336.501 10.9332 337.188 11.0897 336.765 11.2079C336.343 11.3261 335.885 11.2271 335.427 11.2431V11.6233L334.564 11.684C333.631 11.6265 333.437 11.4316 332.469 11.4124C331.501 11.3932 331.289 11.2846 330.955 11.1728C330.867 10.9651 332.416 10.9427 332.434 10.7511H331.236C331.166 10.6941 331.066 10.6384 330.937 10.5849C330.761 10.521 330.497 10.4635 330.286 10.4028L331.324 10.2303L332.434 10.4156V10.7511L333.138 10.6999V10.275C333.05 10.2143 332.117 10.1824 332.663 9.98748L333.42 9.8469C334.177 9.87565 334.371 10.0258 335.427 10.0833H336.466L337.329 10.2271C337.711 10.1484 338.064 10.0651 338.385 9.97789C338.773 9.85329 338.949 9.70632 339.389 9.59131C339.863 9.48612 340.394 9.38979 340.974 9.30377H343.316L344.531 9.0322H345.57L345.974 8.83412L344.372 8.61367V8.29418L343.65 8.15361L344.337 8.01623C344.443 7.90441 344.143 7.78939 344.724 7.69674L345.464 7.9747L346.468 7.62645L345.886 7.50824L346.591 7.37086V7.10569C346.38 7.08652 346.186 7.04498 345.992 7.04498H337.276L336.484 6.90441H333.297C333.437 6.74147 334.195 6.69674 334.582 6.58492C334.476 6.55936 334.353 6.50824 334.23 6.50824C332.258 6.50824 330.286 6.50824 328.313 6.50824L327.486 6.21431L324.616 6.47629L321.693 6.21112L320.918 6.50504H320.143C319.509 6.42198 319.879 6.30057 319.756 6.18556L318.787 6.00345L317.026 5.96831C316.938 5.96831 316.762 5.93635 316.762 5.92038C316.762 5.74466 316.762 5.56894 316.762 5.39642L316.023 5.25265L317.097 5.06415L317.889 5.19195H319.65C319.879 5.13444 320.073 5.06415 320.302 5.06096C320.848 5.06096 321.464 5.01623 321.957 5.11527C321.341 5.25585 320.478 5.16319 319.65 5.19195C320.065 5.30698 320.43 5.42768 320.742 5.55297L321.886 5.62326L322.08 5.94275C322.573 6.04179 323.242 5.9715 323.841 5.99387L324.651 5.85968H326.2L326.605 5.6584L324.264 5.31974V5.13124C324.757 5.02581 325.408 5.08013 326.024 5.07054C326.641 5.06096 327.028 5.07054 327.521 5.07054H329.282C329.405 5.25265 328.683 5.16958 328.049 5.32933C328.155 5.27182 328.049 5.35169 327.838 5.41878C327.627 5.48588 327.433 5.45393 327.222 5.4699V5.92677L326.341 6.09291L327.803 6.13444L328.049 5.91719L329.81 5.5977L330.972 5.55616V5.13444L332.099 4.92358H333.614C334.494 5.06096 333.613 5.24306 334.107 5.406L334.723 5.45393V5.13444L335.515 4.98747L333.754 4.7223C334.018 4.64242 334.265 4.57853 334.459 4.50824C334.652 4.43795 334.776 4.36128 334.917 4.29099C335.656 4.24307 335.744 4.25265 336.184 4.40281C336.396 4.40281 336.748 4.42517 336.783 4.44754C336.871 4.52421 336.554 4.53699 336.184 4.5338C336.184 4.67437 337.012 4.68396 337.17 4.80856L338.931 4.53061H340.569L340.745 4.30696C339.793 4.29561 338.863 4.24925 338.012 4.17071C337.162 4.09218 336.408 3.9831 335.797 3.85009L333.825 4.02262C332.627 3.86927 333.983 3.61687 332.892 3.47948L331.835 3.66799C332.117 3.75425 332.927 3.79898 332.328 3.98748C331.536 4.06415 330.409 3.98748 329.106 4.02262L328.12 3.85009C327.908 3.5945 329.194 3.57533 329.405 3.39961L328.63 3.25265C327.186 3.10569 326.218 3.44754 324.457 3.30377L323.612 3.19514L322.397 3.35488H320.337L319.368 3.2239C318.382 3.2239 318.101 3.44115 317.079 3.32932L316.85 3.16319L318.048 2.9715C319.104 2.86926 319.809 3.08332 320.9 3.10249L321.746 2.96192L322.52 3.08971C323.577 3.12805 324.087 2.85009 325.655 3.00025L326.148 3.07054L327.363 2.94275L328.542 3.08652L329.37 2.88204L328.137 2.77342C328.313 2.66479 328.93 2.71591 329.282 2.67757C329.533 2.64606 329.774 2.61192 330.004 2.57533L330.497 2.67757L331.43 2.53699H334.952L331.606 2.36447L333.103 2.23348C332.627 2.05776 331.342 2.23348 330.831 2.06415C332.025 2.02147 333.246 2.00857 334.459 2.02582C335.649 2.04334 336.847 2.01726 337.98 1.94914C336.781 1.89831 335.548 1.87894 334.318 1.89163L332.909 1.70633C334.265 1.54658 335.603 1.70632 336.765 1.57533L336.061 1.42837L337.523 1.30377V1.16639L335.427 0.974693H333.543L332.68 0.837316H325.302L324.475 0.703131H308.856L308.152 0.578526C306.004 0.552967 303.68 0.578529 301.373 0.562555L300.704 0.444341H285.068L284.275 0.306963H257.528L256.753 0.16958H175.544L174.857 0.0481777H151.034L150.294 0.166388L149.149 0.0130339L147.934 0.175972H76.4978L75.8286 0.297379H63.9078L63.1331 0.437955H58.6606L57.9562 0.562555H52.5857L50.8249 0.9715H47.5498C46.6694 1.11527 47.409 1.20153 47.9196 1.29099V1.55297C48.8528 1.68076 49.293 1.92358 50.8073 1.90121C50.7846 1.95665 50.6699 2.00953 50.4781 2.05289C50.2863 2.09624 50.0266 2.12802 49.7332 2.14402C48.9936 2.16319 48.7471 2.19514 48.6239 2.33252C48.6239 2.41878 47.8843 2.48907 47.6202 2.54339C46.1763 2.58811 46.6694 2.37086 46.1059 2.29418L45.3135 2.41559H43.1301C42.7075 2.38683 42.6019 2.26543 41.968 2.2846C41.968 2.32294 41.8447 2.38684 41.7215 2.39003C41.2813 2.4092 41.2108 2.35169 41.2284 2.2846C41.144 2.28909 41.0549 2.28993 40.9684 2.28705C40.8819 2.28418 40.8003 2.27767 40.7301 2.26804C40.66 2.25841 40.6031 2.24594 40.5643 2.23161C40.5255 2.21729 40.5057 2.20152 40.5065 2.18556C40.5065 2.0961 40.5064 2.01303 41.2284 2.02262C41.3164 1.98428 41.3869 1.91399 41.4925 1.91399C42.549 1.91399 43.2533 1.67118 44.8733 1.78939L45.7362 1.93635L44.8909 2.12166L46.0179 2.16C46.9335 2.0322 46.0179 1.86287 46.4405 1.72549L47.2152 1.50824H45.4544C44.0105 1.30057 46.1588 1.21112 45.7009 1.04498C44.8734 0.94594 44.8734 0.94594 43.9401 1.08013L42.7779 0.949134L41.2284 1.11208L40.0487 0.9715C40.0487 1.01623 39.7142 1.07693 39.7846 1.11527C39.8852 1.17721 40.0677 1.23376 40.3163 1.27998C40.5648 1.32619 40.872 1.36069 41.2109 1.38045C41.3341 1.29418 41.2108 1.19195 41.9328 1.28141L41.2109 1.38045C41.5278 1.57214 40.4537 1.69994 40.1896 1.87565C40.0135 1.96103 39.7954 2.04336 39.5381 2.12166C39.1487 2.13316 38.7769 2.15928 38.4464 2.19834C38.0414 2.25584 37.7067 2.30696 37.1609 2.2846L34.8718 2.67757L34.1147 2.56894C33.3223 2.54658 32.4771 2.51143 31.8784 2.68076H29.6246L28.8146 2.54978L27.7934 2.783V3.02901L26.2614 3.23028V3.59131L23.8843 3.93636L24.2893 4.14722L25.1345 4.01303L25.9093 4.13444L26.9834 3.94275V3.80856L28.7442 3.48907C29.1668 3.51143 29.2725 3.63284 29.8888 3.61048C29.8888 3.47949 30.5579 3.43795 30.9628 3.36447C31.3678 3.29099 31.5967 3.36447 31.8784 3.36447C32.4419 3.55936 31.8785 3.68396 31.4911 3.83732C32.0193 3.92677 32.6708 3.85648 33.2519 3.88524C33.7978 4.04498 33.9562 4.25585 35.5233 4.33572L33.8506 4.43476L33.3575 4.67118C33.1638 4.63923 32.8997 4.61687 32.8821 4.59131C32.856 4.50938 32.856 4.42724 32.8821 4.3453C32.3186 4.23029 31.6671 4.30057 31.1213 4.27821L30.3113 4.4092H27.3707L26.5959 4.537L25.8212 4.41878C25.3458 4.50185 24.9408 4.63284 24.4654 4.64562C23.673 4.66479 23.2856 4.783 22.5989 4.80537C22.2124 4.8118 21.8233 4.8118 21.4368 4.80537L20.6268 4.67118H19.9224C19.6762 4.67438 19.4291 4.67438 19.1829 4.67118C19.1829 4.67118 19.0068 4.64243 18.9187 4.62965L16.841 4.42198L16.2599 4.52421H14.3406L12.1044 4.74147C12.8087 4.86927 13.7771 4.9715 14.1293 5.12166C14.4057 5.25978 14.9022 5.37989 15.5556 5.46671C16.3832 5.48268 16.6825 5.41239 16.5417 5.26223L17.651 5.08332H20.0281L20.5387 5.33891L21.4015 5.20153H23.6554L24.6943 5.39962L23.2856 5.52102C23.4265 5.60089 24.1132 5.62326 23.9899 5.72869C25.1345 5.68396 25.8565 5.86607 26.8073 5.90441C26.5784 6.00665 26.3671 6.11208 26.0853 6.2239C26.0853 6.24946 25.6979 6.25265 25.5218 6.24945C25.3986 6.33252 25.5219 6.43476 24.8 6.3453C25.0303 6.31087 25.2713 6.27887 25.5218 6.24945C25.5003 6.18561 25.5003 6.1216 25.5218 6.05776C25.064 5.97789 24.5358 5.89163 24.0428 5.80217C24.0428 5.80217 24.0428 5.76064 24.0428 5.73827H22.0883L21.6833 5.51783C21.3761 5.48192 21.0185 5.46282 20.6532 5.46282C20.2878 5.46282 19.9302 5.48192 19.6231 5.51783L20.257 5.65521C20.0457 5.74147 19.2885 5.78619 19.5879 5.92038L20.3274 6.06096V6.38044C20.5672 6.37694 20.8082 6.3835 21.0318 6.39961C21.155 6.31655 21.0317 6.21431 21.7361 6.30377C21.5122 6.33826 21.277 6.37027 21.0318 6.39961C21.3084 6.45879 21.5504 6.52304 21.7537 6.59131L19.1125 7.05776C18.6018 6.89482 19.0068 6.7191 18.6723 6.56575C18.4004 6.50154 18.2082 6.42743 18.1088 6.3485C18.1088 6.2878 18.3729 6.23348 18.8307 6.24945C18.7427 6.12485 19.042 5.99387 18.5314 5.85968L17.739 5.9715L16.9643 5.85648L16.2951 6.10888C15.8856 6.06875 15.5018 6.02053 15.1506 5.96511C15.0274 6.05137 15.1506 6.15361 14.4287 6.06415C14.6419 6.02676 14.8716 5.99256 15.1154 5.96191ZM312.889 5.30696C313.47 5.33572 314.033 5.32613 313.54 5.44115C313.364 5.406 313.188 5.36767 313.294 5.33572C312.73 5.30696 312.149 5.31655 312.66 5.20153C312.748 5.23348 312.889 5.27182 312.889 5.30696ZM34.4316 8.26543C34.5901 8.16319 34.5373 8.06096 35.1888 8.15041C34.9775 8.18236 34.7838 8.21111 34.5901 8.19195C34.4317 8.29418 34.4845 8.39642 33.833 8.30696C33.9739 8.27821 34.1675 8.24626 34.3612 8.26543H34.4316ZM317.555 10.6105C318.048 10.6328 318.717 10.5466 318.981 10.6872C317.995 10.7447 317.995 10.7447 317.643 10.5977L317.502 10.6233L316.886 10.5306L317.115 10.4891C317.281 10.5246 317.407 10.5659 317.484 10.6105H317.555ZM29.3781 8.05457C29.2196 8.1568 29.2724 8.25904 28.6209 8.16958C28.8152 8.13576 29.042 8.10869 29.29 8.08971V7.77022L31.4382 7.58173V7.92038L30.417 8.10249C30.0612 8.10775 29.705 8.09326 29.3957 8.06096L29.3781 8.05457ZM35.224 3.46351C36.439 3.48588 35.6466 3.23348 36.4214 3.19834C36.9848 3.2207 37.6363 3.15361 38.1822 3.24626L38.2702 3.37725C37.7243 3.57533 36.5095 3.60089 35.3825 3.72549C35.3825 3.62645 35.2944 3.54658 35.2944 3.46351C34.5196 3.38364 34.5196 3.38364 34.8542 3.21112C35.5409 3.26543 35.048 3.38364 35.1536 3.4699L35.224 3.46351ZM43.1477 8.60089C43.8344 8.6552 44.5035 8.75105 45.0846 8.74147C45.6657 8.73188 46.2996 8.84051 46.8454 8.85968L47.3737 8.76703H55.8081L56.8998 8.9747L56.5476 9.14722H55.72L54.9277 9.01623H43.7992C43.4294 8.93316 42.7956 8.88843 42.6371 8.74786L43.1477 8.60089ZM37.0905 8.4699C37.9885 8.7191 39.2915 8.55936 40.2072 8.66159L41.968 8.83092L41.6686 9.00984L40.2072 8.85968L39.2739 9.01623H37.0729L36.3157 8.89163L35.6114 8.99706L34.3612 8.85968L33.4104 8.99706C33.0664 8.95279 32.6939 8.91631 32.3011 8.88843C31.8425 8.86942 31.3779 8.85555 30.91 8.8469C30.91 8.8469 30.91 8.81815 30.8219 8.80856L31.8433 8.62006H33.3223L34.0971 8.49227L34.9071 8.62006C35.629 8.61687 36.439 8.67118 37.0201 8.47629L37.0905 8.4699ZM44.0458 4.23668L42.5315 4.12485C41.7391 4.06415 41.3341 4.21112 40.6121 4.23668L40.4537 4.06096C40.9285 3.98761 41.3701 3.90748 41.7743 3.82134C41.9874 3.74394 42.1527 3.66251 42.2673 3.57853H44.0281L44.4331 3.36447L45.7537 3.50824L45.6657 3.80217C44.8029 3.95553 44.0106 4.04817 43.9754 4.24306L44.0458 4.23668ZM322.397 9.41239C321.834 9.39003 321.182 9.45712 320.495 9.34211C320.848 9.25265 320.108 9.11527 320.936 9.02262H323.137L323.911 9.14722L324.739 9.01623L326.2 9.03859C326.288 9.03859 326.376 9.06735 326.482 9.08651C325.69 9.20473 325.232 9.40601 324.017 9.42837L323.154 9.29419L322.397 9.41239ZM47.5322 3.72549C48.3774 3.74466 49.293 3.68715 50.0854 3.77341C49.817 3.83109 49.5974 3.8957 49.4339 3.96511C49.2754 4.06096 49.6452 4.17917 49.0113 4.25585C48.2013 4.23987 47.2505 4.29738 46.4933 4.21112V3.92038L47.5322 3.72549ZM315.178 5.88524C315.178 6.07054 314.086 5.90121 313.945 6.01943L313.54 6.24307C312.853 6.21751 312.219 6.2846 311.568 6.17278C311.568 6.08971 311.568 5.99067 311.709 5.88843C311.709 5.86926 311.867 5.85648 311.938 5.84371C312.941 5.84371 313.91 5.84371 314.896 5.84371C314.931 5.85009 315.019 5.87246 315.125 5.89163L315.178 5.88524ZM337.54 8.55616C337.663 8.49546 337.241 8.38364 337.294 8.38364L339.9 8.68396C339.653 8.82454 340.058 8.94594 339.371 9.02262C338.808 9.00025 338.139 9.07054 337.611 8.9747C337.082 8.87885 337.787 8.77342 338.227 8.69674L337.54 8.55616ZM315.547 11.5338C315.9 11.6073 316.463 11.6488 316.586 11.767C316.04 11.799 315.917 11.9427 315.178 11.9332C313.417 11.7095 313.417 11.6552 314.121 11.5338H315.547ZM328.243 9.02262H329.828C330.006 9.07119 330.226 9.11433 330.479 9.15041C330.796 9.18236 331.43 9.10888 331.483 9.28779H327.574C327.433 9.28779 327.327 9.23667 327.204 9.21112L328.243 9.02262ZM307.395 5.85009C307.958 5.87246 308.61 5.80217 309.156 5.89482C309.156 6.02582 308.487 5.96511 308.099 5.98747C307.412 6.11207 306.726 6.23668 306.021 6.35808C306.021 6.35808 305.845 6.35808 305.757 6.35808C305.616 6.17597 305.616 6.17597 307.448 5.85009H307.395ZM334.018 9.06735L333.702 9.34211L332.469 9.07693C333.44 8.95872 334.451 8.85201 335.498 8.75744C335.712 8.77046 335.919 8.7876 336.114 8.80856C335.779 8.99706 334.529 8.98108 334.018 9.06735ZM32.7413 5.31974C30.7692 5.31974 30.7691 5.31974 29.9592 5.2175C30.3289 5.20139 30.7063 5.19176 31.0861 5.18875C31.9122 5.16844 32.7527 5.18042 33.5512 5.2239C33.6921 5.3485 33.9739 5.4731 33.2695 5.5945L32.7413 5.31974ZM25.5043 5.39003C25.9093 5.32933 26.1558 5.23028 26.9834 5.20153C26.9834 5.35169 26.9834 5.49866 26.9834 5.64243C26.9834 5.6616 26.7016 5.68077 26.5432 5.70313C26.2086 5.61367 25.4867 5.58173 25.5043 5.39003ZM318.171 6.31335C317.819 6.37086 317.484 6.43156 317.15 6.49227C316.481 6.49227 315.759 6.56575 315.125 6.43156C315.567 6.41421 315.998 6.38851 316.41 6.35488C316.798 6.31016 317.044 6.22709 317.625 6.24945L318.171 6.31335ZM321.182 11.4763C321.552 11.406 321.798 11.3134 322.415 11.2942L323.313 11.4635L322.291 11.6712L321.182 11.4763ZM38.1998 4.00984L37.9181 4.27182L36.527 4.22389L36.7559 4.00984H38.1998ZM107.964 14.4987C109.725 14.438 109.725 14.4411 110.288 14.5338C109.921 14.5677 109.509 14.5823 109.098 14.5761C108.688 14.5699 108.295 14.5431 107.964 14.4987ZM325.919 10.7095C326.359 10.8181 326.958 10.8565 327.046 10.9683C326.947 10.9834 326.832 10.9947 326.708 11.0015C326.584 11.0082 326.453 11.0103 326.325 11.0076C326.196 11.0049 326.072 10.9975 325.96 10.9858C325.848 10.9741 325.75 10.9584 325.672 10.9396L325.919 10.7095ZM314.421 6.53699C312.871 6.64882 312.871 6.64562 312.343 6.53699C312.698 6.52556 313.057 6.51808 313.417 6.51463C313.754 6.51738 314.09 6.52486 314.421 6.53699ZM319.703 3.537C319.399 3.58935 318.995 3.61854 318.576 3.61854C318.157 3.61854 317.753 3.58935 317.449 3.537C317.598 3.50937 317.776 3.48742 317.973 3.47244C318.169 3.45745 318.38 3.44973 318.594 3.44973C318.807 3.44973 319.018 3.45745 319.214 3.47244C319.411 3.48742 319.589 3.50937 319.738 3.537H319.703ZM42.9012 2.92358C43.4823 3.0322 43.447 3.10568 43.0068 3.20472L42.1969 3.18236L42.9012 2.92358ZM304.19 11.8181H304.666C304.666 11.8757 304.771 11.9364 304.789 11.9939C304.806 12.0514 304.595 12.0386 304.542 12.0354C304.489 12.0322 304.084 12.0066 304.067 11.9907C304.085 11.9323 304.138 11.8744 304.225 11.8181H304.19ZM307.835 11.8661C307.148 11.9491 306.673 11.9907 306.374 11.8469C306.849 11.7734 307.254 11.7798 307.87 11.8661H307.835ZM327.979 11.2463V11.16C328.296 11.16 328.63 11.144 328.965 11.1408C329.299 11.1376 329.229 11.1728 329.211 11.1824C329.194 11.1919 329.035 11.2654 328.947 11.2654C328.634 11.2631 328.322 11.2567 328.014 11.2463H327.979ZM330.127 10.8086C330.043 10.8303 329.93 10.8481 329.8 10.8603C329.67 10.8726 329.525 10.879 329.379 10.879C329.232 10.879 329.087 10.8726 328.957 10.8603C328.827 10.8481 328.715 10.8303 328.63 10.8086C328.711 10.7848 328.823 10.7651 328.957 10.7515C329.091 10.7378 329.243 10.7307 329.396 10.7307C329.55 10.7307 329.701 10.7378 329.835 10.7515C329.969 10.7651 330.082 10.7848 330.162 10.8086H330.127ZM332.451 8.73188V8.64882C332.784 8.63927 333.119 8.63287 333.455 8.62965C333.455 8.62965 333.702 8.66159 333.684 8.67118C333.666 8.68076 333.525 8.75105 333.42 8.75425C333.105 8.75227 332.793 8.74478 332.487 8.73188H332.451ZM42.9717 1.3453C43.4471 1.46351 43.676 1.54658 42.866 1.60409C42.4963 1.52421 42.5138 1.45073 43.0068 1.3453H42.9717ZM53.3957 4.00025C53.2759 3.98564 53.1777 3.9659 53.1098 3.94278C53.0419 3.91966 53.0064 3.89387 53.0064 3.86767C53.0064 3.84147 53.0419 3.81567 53.1098 3.79255C53.1777 3.76943 53.2759 3.74969 53.3957 3.73508C53.5214 3.74862 53.626 3.76773 53.6998 3.79061C53.7736 3.81349 53.8141 3.83939 53.8176 3.8659C53.8211 3.8924 53.7875 3.91863 53.7199 3.94213C53.6522 3.96563 53.5529 3.98563 53.431 4.00025H53.3957ZM313.012 6.83092C313.094 6.80852 313.205 6.79014 313.336 6.77742C313.466 6.76471 313.612 6.75805 313.76 6.75805C313.908 6.75805 314.054 6.76471 314.185 6.77742C314.315 6.79014 314.427 6.80852 314.509 6.83092C314.427 6.85333 314.315 6.87171 314.185 6.88443C314.054 6.89714 313.908 6.9038 313.76 6.9038C313.612 6.9038 313.466 6.89714 313.336 6.88443C313.205 6.87171 313.094 6.85333 313.012 6.83092ZM331.007 7.00345V6.92038C331.334 6.91084 331.663 6.90444 331.993 6.90121C331.993 6.90121 332.258 6.93316 332.24 6.94275C332.222 6.95233 332.082 7.02581 331.976 7.02581C331.652 7.02779 331.327 7.02351 331.007 7.01304V7.00345ZM301.954 11.9683L302.218 11.9204C302.316 11.9482 302.393 11.9783 302.447 12.0098C302.447 12.0098 302.306 12.0386 302.218 12.0546L301.954 11.9683ZM332.117 12.0354L331.641 11.9875C331.729 11.9875 331.835 11.9427 331.888 11.9459C332.063 11.9551 332.229 11.9691 332.381 11.9875L332.117 12.0354ZM312.748 11.6776L313.012 11.7223C312.852 11.7401 312.681 11.7541 312.501 11.7638C312.501 11.7638 312.343 11.7383 312.255 11.7223L312.748 11.6776ZM172.111 11.5721L171.847 11.6584C171.847 11.6584 171.6 11.6233 171.618 11.6137C171.676 11.5824 171.753 11.5524 171.847 11.5242L172.111 11.5721ZM320.02 11.5434L320.513 11.5913C320.513 11.5913 320.319 11.636 320.266 11.6328C320.087 11.6231 319.915 11.6091 319.756 11.5913L320.02 11.5434ZM320.407 10.6456L320.126 10.7319C320.126 10.7159 319.879 10.6999 319.897 10.6872C319.958 10.6572 320.035 10.6283 320.126 10.6009L320.407 10.6456ZM93.9651 9.85329L93.6834 9.93955C93.6834 9.93955 93.4369 9.90441 93.4545 9.89482C93.5128 9.86359 93.5896 9.8336 93.6834 9.80536L93.9651 9.85329ZM79.6496 9.5338L79.1743 9.48588C79.1743 9.4699 79.3503 9.44115 79.4032 9.44434C79.5826 9.45412 79.7542 9.46808 79.9138 9.48588L79.6496 9.5338ZM63.045 9.04179L63.5205 9.08971C63.5205 9.08971 63.3444 9.13124 63.2739 9.13124C63.1048 9.11934 62.9402 9.10547 62.781 9.08971L63.045 9.04179ZM24.6767 8.14402L24.4126 8.23029C24.4126 8.23029 24.166 8.19514 24.1837 8.18556C24.2419 8.15433 24.3187 8.12434 24.4126 8.0961L24.6767 8.14402ZM46.7574 8.0961C46.7574 8.0961 46.5109 8.06415 46.5285 8.05457C46.5868 8.02334 46.6635 7.99334 46.7574 7.96511C46.7574 7.96511 47.0039 7.99706 47.0039 8.00664C46.9333 8.04267 46.8388 8.07701 46.7223 8.10888L46.7574 8.0961ZM36.1924 7.94594L35.9284 7.89802C36.084 7.88098 36.2492 7.86706 36.4214 7.85649C36.4214 7.85649 36.5975 7.88524 36.6679 7.89802L36.1924 7.94594ZM25.6275 7.48268L25.8917 7.43476C25.9894 7.46261 26.0664 7.49269 26.1206 7.52421C26.1206 7.52421 25.9797 7.55297 25.8917 7.56894L25.6275 7.48268ZM22.6517 7.21751L22.9159 7.17278C23.0063 7.20022 23.083 7.22909 23.1448 7.25904C23.1448 7.25904 22.9863 7.28779 22.9159 7.30377L22.6517 7.21751ZM311.427 6.95553L311.163 7.03859C311.163 7.03859 310.917 7.00664 310.934 6.99706C310.984 6.96527 311.062 6.93509 311.163 6.9076L311.427 6.95553ZM309.367 6.19195L309.631 6.10888C309.719 6.10888 309.878 6.14083 309.86 6.15041C309.81 6.1822 309.732 6.21238 309.631 6.23987L309.367 6.19195ZM34.5196 5.5306L34.7838 5.44754C34.7838 5.44754 35.0303 5.47949 35.0127 5.48907C34.9544 5.5203 34.8777 5.5503 34.7838 5.57853L34.5196 5.5306ZM322.027 5.36127L322.291 5.31335C322.391 5.34149 322.473 5.37148 322.538 5.40281C322.538 5.40281 322.379 5.43156 322.291 5.44754L322.027 5.36127ZM52.2864 4.21431L52.0222 4.26224C51.9228 4.23409 51.8402 4.2041 51.7758 4.17278C51.7758 4.17278 51.9342 4.14402 52.0222 4.13124L52.2864 4.21431ZM39.45 4.01623L39.7317 4.06415C39.5721 4.08194 39.4005 4.09591 39.2211 4.10569C39.2211 4.10569 39.0626 4.08012 38.9746 4.06415L39.45 4.01623ZM324.158 3.95233L323.894 3.99706C323.796 3.97032 323.719 3.9413 323.665 3.9108C323.665 3.9108 323.806 3.88204 323.894 3.86607L324.158 3.95233ZM38.1998 3.79897C38.1118 3.81495 38.0237 3.8437 37.9533 3.84051C37.7781 3.83138 37.6118 3.81737 37.4603 3.79897C37.4603 3.79897 37.6363 3.75744 37.7067 3.75744C37.7772 3.75744 38.0061 3.78619 38.1998 3.79897ZM47.99 2.98747L48.2542 2.93955C48.3519 2.96741 48.4289 2.99749 48.4831 3.02901C48.4831 3.02901 48.3422 3.05776 48.2542 3.07374L47.99 2.98747Z" fill="#FFC906"/>
</svg>
