<svg width="93" height="15" viewBox="0 0 93 15" fill="none" xmlns="http://www.w3.org/2000/svg">
<path d="M4.5319 9.03809C4.48994 9.12435 4.66711 9.14671 4.71373 9.23936L4.46662 9.29048C4.25554 9.19755 4.10005 9.05587 4.02835 8.89112L3.78124 9.03809L3.68798 8.63872H3.0166L2.64359 8.89112C2.6173 8.83924 2.58454 8.789 2.54569 8.74096C2.46176 8.6547 2.36385 8.57163 2.25662 8.47259L2.06079 8.75374H1.83233L1.70178 8.50134L1.31946 8.48856L0.578125 8.0285L0.601432 7.86236C0.883492 7.83169 1.16958 7.82205 1.45467 7.83361L1.69711 7.98377L1.79969 7.61316C1.93956 7.5269 2.11207 7.59399 2.26594 7.56844L2.47109 7.44703L2.7182 7.58441L2.80212 7.19144C3.13781 7.26492 3.21708 7.5269 3.55278 7.57163C3.65069 7.68984 3.65069 7.68984 3.88848 7.67387C3.88848 7.65789 3.94443 7.64192 3.94443 7.62595C3.94443 7.4055 3.94443 7.18825 3.94443 6.98697L3.74394 6.83681C3.74394 6.73777 3.74394 6.64831 3.95375 6.6515C4.16356 6.6547 4.39202 6.85917 4.5925 7.1531C4.68109 7.16908 4.77434 7.18186 4.85827 7.20103C4.94219 7.22019 4.90955 7.22978 4.9282 7.24256V7.37994L5.20795 7.56524C5.45972 7.48856 5.50168 7.31285 5.62757 7.17547C5.75346 7.03808 6.0472 7.0285 6.24302 6.93585L6.38289 7.0317C6.56006 7.00294 6.53675 6.90071 6.48546 6.8432C6.43418 6.78569 6.24302 6.69623 6.34093 6.56524C6.54141 6.46939 6.77921 6.53649 6.99368 6.52051L7.20349 6.38952C7.40397 6.33521 7.4739 6.47578 7.60445 6.50454L7.86091 6.36397L8.19659 6.50134L8.44372 6.34799C8.44372 6.31604 8.41574 6.27451 8.37844 6.25534C8.08341 6.10195 7.73428 6.00493 7.36668 5.97419C7.21748 5.83681 7.32937 5.68026 7.29208 5.52371L6.9051 5.39911V5.26173C7.19417 5.02211 7.67441 4.99336 8.00545 4.79527H9.1757L9.35754 4.67387H10.7563L10.9288 4.55885C11.2272 4.48537 11.5629 4.60358 11.8846 4.463C11.5971 4.40059 11.2935 4.38098 10.9941 4.4055C10.7003 4.4055 10.4019 4.4055 10.1082 4.4055H8.39708L8.20593 4.2777H4.6671L4.44797 4.14351H2.87672L2.69954 4.02531H2.11208L1.92092 3.89751L1.45467 3.85917L1.37074 3.62275L0.988424 3.42147C1.04437 3.17547 1.34277 3.10198 1.52461 2.94863H1.8976L2.10275 2.83042H2.68555L2.93733 2.96141L3.00727 2.73777C3.1891 2.62275 3.43156 2.71221 3.65536 2.68665L3.86983 2.81444L4.13559 2.4694L3.57609 2.0924L4.21484 1.66428C4.39668 1.59719 4.5925 1.64512 4.82563 1.62595L5.0774 1.50135H5.83739L6.0472 1.36077H7.8236L8.00545 1.23936H9.96366L10.1875 1.10198H12.9336L13.1435 0.974186L13.3906 1.12435L13.7496 0.999746L13.9268 1.0892L14.1226 0.977384L14.3231 1.09559L14.4583 1.01253C14.4863 0.996553 14.5096 0.970993 14.5329 0.970993H18.468L18.6126 0.875145C18.6405 0.875145 18.6638 0.843199 18.6918 0.843199H24.1655L24.3567 0.715401H27.336C27.3733 0.654698 27.3966 0.616361 27.4199 0.587607C27.9281 0.587607 28.4364 0.565241 28.9446 0.546072C28.9446 0.546072 28.9446 0.517318 28.9819 0.501344C28.4626 0.4033 27.9096 0.433846 27.4199 0.587607C27.3221 0.582905 27.224 0.582905 27.1262 0.587607L26.9211 0.459809C26.7066 0.40869 26.6413 0.552461 26.4548 0.600385L26.0865 0.469393H23.9324L23.7413 0.593993H18.6126L18.44 0.70901C18.2119 0.738579 17.9767 0.729813 17.7547 0.683455V0.517319C17.792 0.49176 17.8153 0.463007 17.8386 0.463007H20.9811L21.1956 0.332015L21.4007 0.453422L21.5732 0.338406L21.7877 0.450224H22.4031C22.487 0.450224 22.543 0.277702 22.7668 0.332015L22.9673 0.453422L23.1724 0.328822H30.0636L30.2734 0.19783L30.4459 0.31604L30.6604 0.207415H31.4716L31.6348 0.319233L31.8446 0.204221L32.0451 0.322431L32.1803 0.236167C32.2345 0.217199 32.2927 0.204259 32.3528 0.19783H38.9409L39.1461 0.0732299L39.3512 0.191439C39.5797 0.245752 39.631 0.0828118 39.8548 0.0604476L40.1392 0.181855L40.3117 0.0796162H61.4653L61.6285 0.194632L61.8383 0.0668388H62.3978L62.6029 0.194632H62.9899L63.1951 0.0732299H64.5938L64.757 0.181855L65.0787 0.0508633L65.3818 0.181855L65.5729 0.0668388H65.9599L66.1651 0.191439L66.4122 0.0444771L66.7618 0.169078L67.0509 0.0508633L67.3447 0.178662L67.6477 0.0380859L67.9415 0.191439L68.1839 0.0444771L68.6129 0.194632H70.9114L70.9954 0.332015H70.5291L70.3193 0.459809L70.1748 0.360768C68.6852 0.298135 67.1911 0.307743 65.7035 0.389521C65.7035 0.389521 65.7268 0.427859 65.7501 0.434249C65.8066 0.450186 65.8664 0.459895 65.9273 0.463007H69.3402L69.536 0.593993H71.5082L71.7134 0.731376H74.2777L74.4829 0.868754H77.4389L77.6161 0.986968H78.791L79.0055 1.12435H79.7888L80.0033 1.25853H81.374L81.5465 1.37355C81.8636 1.41189 82.2226 1.37355 82.5723 1.39911L82.7448 1.51412H84.1435L84.3347 1.64192L84.5398 1.5301L84.745 1.64831H85.7101L85.9619 1.84639C85.9619 1.84639 85.9106 1.91348 85.878 1.91348C85.4863 1.91348 85.0947 1.91348 84.703 1.91348C84.703 1.91348 84.6564 1.94224 84.6331 1.95821C84.6797 2.07003 84.8336 2.01892 84.9362 2.05087L85.2951 2.29368L85.505 2.17227H86.4841L86.6892 2.30007H87.272L87.4912 2.43745H87.8688L88.0926 2.57163H88.6661L88.9319 2.91029L88.764 3.03169C88.8992 3.14032 89.0764 3.07323 89.2303 3.09559L89.6452 2.83042H90.0369C90.2654 2.97099 90.0882 3.06045 89.9203 3.16908C90.149 3.23437 90.4017 3.24889 90.643 3.21061L90.8808 3.08601L90.9321 3.30965L90.5498 3.39911L90.6943 3.58122C90.5544 3.67706 90.3819 3.58121 90.2514 3.62914L90.0043 3.48218L89.9203 3.67067C90.1631 3.72671 90.3759 3.83132 90.5311 3.97099C90.412 3.98802 90.2973 4.01709 90.1907 4.05726C90.0835 4.11157 89.9996 4.17547 89.841 4.14671C89.6312 4.06684 89.8131 3.91029 89.7012 3.79208C89.5893 3.67387 89.4681 3.77291 89.3468 3.75694V3.37674L89.1184 3.31604C88.8713 3.37355 88.82 3.56844 88.5635 3.58761C88.3071 3.60678 88.2512 3.7154 88.1626 3.82722C88.1393 4.03489 88.5495 4.05725 88.5542 4.24895H88.2372C88.2186 4.30593 88.192 4.36157 88.1579 4.41508C88.1113 4.47898 88.0414 4.53649 87.9854 4.59719L88.2605 4.76971L88.5542 4.58441V4.24895L88.7407 4.30007V4.72499C88.7174 4.78569 88.4703 4.81764 88.6148 5.01252L88.8153 5.1531C89.0158 5.12435 89.0671 4.97419 89.3468 4.91668H89.6219L89.8504 4.77291C89.9516 4.85161 90.0451 4.93486 90.1301 5.02211C90.2327 5.14671 90.2793 5.29368 90.3959 5.40869C90.5214 5.51388 90.662 5.61021 90.8155 5.69623H91.4356L91.7573 5.9678H92.0324L92.1396 6.16588L91.7154 6.38633V6.70582L91.5242 6.84639L91.706 6.98377C91.734 7.09559 91.6548 7.21061 91.8086 7.30326L92.0044 7.0253L92.2702 7.37355L92.1163 7.49176L92.3028 7.62914V7.89431C92.2469 7.91348 92.1956 7.95502 92.1443 7.95502H89.8364L89.6266 8.09559H88.7827C88.82 8.25853 89.0205 8.30326 89.123 8.41508C89.0951 8.44064 89.0624 8.49176 89.0298 8.49176C88.5076 8.49176 87.9854 8.49176 87.4632 8.49176L87.2441 8.78569L86.4841 8.52371L85.7101 8.78888L85.505 8.49496H85.2998C85.132 8.57802 85.2299 8.69943 85.1973 8.81444L84.9408 8.99655L84.4745 9.03169C84.4512 9.03169 84.4046 9.06365 84.4046 9.07962C84.4046 9.25534 84.4046 9.43106 84.4046 9.60358L84.2088 9.74735L84.4932 9.93585L84.703 9.80805H85.1693C85.2299 9.86556 85.2812 9.93585 85.3418 9.93904C85.4863 9.93904 85.6495 9.98377 85.7801 9.88473C85.6169 9.74415 85.3884 9.83681 85.1693 9.80805C85.2791 9.69302 85.3758 9.57232 85.4584 9.44703L85.7614 9.37674L85.8127 9.05725C85.9432 8.95821 86.1204 9.0285 86.2789 9.00613L86.4934 9.14032H86.9037L87.0109 9.3416L86.3908 9.68026V9.86876C86.5214 9.97419 86.6939 9.91987 86.8571 9.92946C87.0203 9.93904 87.1228 9.92946 87.2534 9.92946H87.7196C87.7523 9.74735 87.5611 9.83042 87.3933 9.67067C87.4212 9.72818 87.3933 9.64831 87.3373 9.58122C87.2814 9.51412 87.2301 9.54607 87.1741 9.5301V9.07323L86.941 8.90709L87.328 8.86556L87.3933 9.08281L87.8595 9.4023L88.1672 9.44384V9.86556L88.4656 10.0764H88.8666C89.0997 9.93904 88.8666 9.75694 88.9971 9.594L89.1603 9.54607V9.86556L89.3701 10.0125L88.9039 10.2777C88.9738 10.3576 89.0391 10.4215 89.0904 10.4918C89.1417 10.562 89.1743 10.6387 89.2116 10.709C89.4075 10.7569 89.4308 10.7474 89.5473 10.5972C89.6033 10.5972 89.6965 10.5748 89.7058 10.5525C89.7292 10.4758 89.6452 10.463 89.5473 10.4662C89.5473 10.3256 89.7664 10.316 89.8084 10.1914L90.2747 10.4694H90.7083L90.7549 10.693C90.5027 10.7044 90.2566 10.7508 90.0314 10.8293C89.8062 10.9078 89.6066 11.0169 89.4448 11.1499L88.9226 10.9774C88.6055 11.1307 88.9645 11.3831 88.6754 11.5205L88.3957 11.332C88.4703 11.2458 88.6848 11.201 88.5262 11.0125C88.3164 10.9358 88.018 11.0125 87.673 10.9774L87.4119 11.1499C87.356 11.4055 87.6963 11.4247 87.7523 11.6004L87.5471 11.7473C87.1648 11.8943 86.9084 11.5525 86.4421 11.6962L86.2183 11.8049L85.8966 11.6451H85.3511L85.0947 11.7761C84.8336 11.7761 84.759 11.5589 84.4885 11.6707L84.4279 11.8368L84.745 12.0285C85.0247 12.1307 85.2112 11.9167 85.5003 11.8975L85.7241 12.0381L85.9292 11.9103C86.209 11.872 86.3442 12.1499 86.7592 11.9997L86.8897 11.9295L87.2114 12.0573L87.5238 11.9135L87.7429 12.118L87.4166 12.2266C87.4632 12.3352 87.6264 12.2841 87.7196 12.3224C87.7862 12.3539 87.85 12.3881 87.9108 12.4247L88.0413 12.3224L88.2885 12.463H89.221L88.3351 12.6355L88.7314 12.7665C88.6055 12.9422 88.2651 12.7665 88.1299 12.9358C88.4461 12.9785 88.7692 12.9914 89.0904 12.9742C89.4056 12.9567 89.7227 12.9827 90.0229 13.0509C89.7053 13.1017 89.3787 13.1211 89.0531 13.1084L88.6801 13.2937C89.0391 13.4534 89.3935 13.2937 89.7012 13.4247L89.5147 13.5716L89.9017 13.6962V13.8336L89.3468 14.0253H88.8479L88.6195 14.1627H86.6659L86.4468 14.2969H82.3112L82.1247 14.4215C81.5559 14.447 80.9404 14.4215 80.3296 14.4374L80.1525 14.5557H76.0122L75.8024 14.693H68.7201L68.5149 14.8304H47.0116L46.8298 14.9518H40.5215L40.3256 14.8336L40.0226 14.987L39.7009 14.824H20.7853L20.6081 14.7026H17.4516L17.2464 14.562H16.0622L15.8757 14.4374H14.4536L13.9874 14.0285H13.1202C12.887 13.8847 13.0829 13.7985 13.2181 13.709V13.447C13.4652 13.3192 13.5817 13.0764 13.9827 13.0988C13.9767 13.0433 13.9463 12.9905 13.8955 12.9471C13.8448 12.9038 13.776 12.872 13.6983 12.856C13.5025 12.8368 13.4372 12.8049 13.4046 12.6675C13.4046 12.5812 13.2087 12.5109 13.1388 12.4566C12.7565 12.4119 12.887 12.6291 12.7378 12.7058L12.528 12.5844H11.9499C11.838 12.6132 11.81 12.7346 11.6422 12.7154C11.6422 12.6771 11.6095 12.6132 11.5769 12.61C11.4603 12.5908 11.4417 12.6483 11.4463 12.7154C11.424 12.7109 11.4004 12.7101 11.3775 12.7129C11.3546 12.7158 11.333 12.7223 11.3144 12.732C11.2958 12.7416 11.2808 12.7541 11.2705 12.7684C11.2602 12.7827 11.255 12.7985 11.2552 12.8144C11.2552 12.9039 11.2552 12.987 11.4463 12.9774C11.4696 13.0157 11.4883 13.086 11.5163 13.086C11.796 13.086 11.9825 13.3288 12.4115 13.2106L12.6399 13.0636L12.4161 12.8783L12.7145 12.84C12.957 12.9678 12.7145 13.1371 12.8264 13.2745L13.0316 13.4918H12.5653C12.183 13.6994 12.7518 13.7889 12.6306 13.955C12.4115 14.0541 12.4115 14.0541 12.1644 13.9199L11.8566 14.0509L11.4463 13.8879L11.1339 14.0285C11.1339 13.9838 11.0454 13.9231 11.064 13.8847C11.0907 13.8228 11.139 13.7662 11.2048 13.72C11.2706 13.6738 11.352 13.6393 11.4417 13.6196C11.4743 13.7058 11.4417 13.8081 11.6328 13.7186L11.4417 13.6196C11.5256 13.4279 11.2412 13.3001 11.1713 13.1243C11.1246 13.039 11.0669 12.9566 10.9987 12.8783C10.8956 12.8668 10.7972 12.8407 10.7097 12.8017C10.6024 12.7442 10.5138 12.693 10.3693 12.7154L9.76318 12.3224L9.56269 12.4311C9.35288 12.4534 9.12908 12.4886 8.97055 12.3192H8.37377L8.15929 12.4502L7.88888 12.217V11.971L7.48322 11.7697V11.4087L6.8538 11.0636L6.96104 10.8528L7.18483 10.987L7.39 10.8656L7.6744 11.0573V11.1914L8.14065 11.5109C8.25255 11.4886 8.28053 11.3672 8.44372 11.3895C8.44372 11.5205 8.62089 11.562 8.72812 11.6355C8.83536 11.709 8.89595 11.6355 8.97055 11.6355C9.11975 11.4406 8.97057 11.316 8.86799 11.1627C9.00786 11.0732 9.18038 11.1435 9.33424 11.1148C9.47877 10.955 9.52073 10.7442 9.93569 10.6643L9.49277 10.5652L9.36221 10.3288C9.31092 10.3608 9.24098 10.3831 9.23632 10.4087C9.22941 10.4906 9.22941 10.5728 9.23632 10.6547C9.08712 10.7697 8.91461 10.6994 8.77007 10.7218L8.55561 10.5908H7.77696L7.57181 10.463L7.36668 10.5812C7.24079 10.4981 7.13356 10.3672 7.00767 10.3544C6.79786 10.3352 6.69529 10.217 6.51345 10.1946C6.41109 10.1882 6.30809 10.1882 6.20573 10.1946L5.99124 10.3288H5.80475C5.73956 10.3256 5.67412 10.3256 5.60893 10.3288C5.60893 10.3288 5.56229 10.3576 5.53898 10.3704L4.98881 10.578L4.83496 10.4758H4.32675L3.73461 10.2585C3.92111 10.1307 4.17754 10.0285 4.27079 9.87834C4.34398 9.74022 4.47545 9.62011 4.64846 9.53329C4.8676 9.51732 4.94686 9.58761 4.90956 9.73777L5.20328 9.91668H5.83272L5.96794 9.66109L6.19639 9.79847H6.79319L7.06827 9.60038L6.69528 9.47898C6.73258 9.39911 6.91441 9.37674 6.88178 9.27131C7.18484 9.31604 7.37601 9.13393 7.62779 9.09559C7.56718 8.99335 7.51121 8.88792 7.43661 8.7761C7.43661 8.75054 7.33403 8.74735 7.28741 8.75055C7.25477 8.66748 7.28742 8.56524 7.09626 8.6547C7.15725 8.68913 7.22106 8.72113 7.28741 8.75055C7.28169 8.81439 7.28169 8.8784 7.28741 8.94224C7.16618 9.02211 7.02631 9.10837 6.89576 9.19783C6.89576 9.19783 6.89576 9.23936 6.89576 9.26173H6.37824L6.27099 9.48217C6.18967 9.51808 6.09498 9.53718 5.99824 9.53718C5.9015 9.53718 5.80681 9.51808 5.72549 9.48217L5.89333 9.34479C5.83739 9.25853 5.6369 9.21381 5.71616 9.07962L5.91199 8.93904V8.61956C5.97548 8.62306 6.03929 8.6165 6.09848 8.60039C6.13112 8.68345 6.09848 8.78569 6.28498 8.69623C6.22569 8.66174 6.16341 8.62973 6.09848 8.60039C6.17174 8.54121 6.23581 8.47696 6.28965 8.40869L5.59028 7.94224C5.45507 8.10518 5.5623 8.2809 5.47372 8.43425C5.40174 8.49846 5.35084 8.57257 5.32451 8.6515C5.32451 8.7122 5.39445 8.76652 5.51568 8.75055C5.49236 8.87515 5.57162 9.00613 5.43641 9.14032L5.22661 9.0285L5.02146 9.14352L4.84428 8.89112C4.73584 8.93125 4.63421 8.97947 4.54122 9.03489C4.50858 8.94863 4.54122 8.84639 4.35006 8.93585C4.40653 8.97324 4.46735 9.00744 4.5319 9.03809ZM83.3789 9.69304C83.5327 9.66428 83.6819 9.67387 83.5514 9.55885C83.5048 9.594 83.4581 9.63233 83.4861 9.66428C83.3369 9.69304 83.1831 9.68345 83.3183 9.79847C83.3416 9.76652 83.3789 9.72818 83.3789 9.69304ZM9.64662 6.73457C9.68858 6.83681 9.67459 6.93904 9.8471 6.84959C9.79115 6.81764 9.73988 6.78889 9.68859 6.80805C9.64663 6.70582 9.66062 6.60358 9.48811 6.69304C9.52541 6.72179 9.57669 6.75374 9.62798 6.73457H9.64662ZM84.6144 4.38952C84.745 4.36716 84.9222 4.45342 84.9921 4.31284C84.731 4.25533 84.731 4.25534 84.6377 4.4023L84.6004 4.37674L84.4373 4.46939L84.4979 4.51093C84.5421 4.47537 84.5753 4.43408 84.5958 4.38952H84.6144ZM8.30849 6.94543C8.26653 6.8432 8.28052 6.74096 8.10801 6.83042C8.15944 6.86424 8.21949 6.89131 8.28518 6.91029V7.22978L8.85399 7.41827V7.07962L8.58359 6.89751C8.48939 6.89225 8.39507 6.90674 8.31316 6.93904L8.30849 6.94543ZM9.85643 11.5365C10.1781 11.5141 9.96833 11.7665 10.1735 11.8017C10.3227 11.7793 10.4952 11.8464 10.6397 11.7537L10.663 11.6227C10.5185 11.4247 10.1968 11.3991 9.89841 11.2745C9.89841 11.3735 9.87507 11.4534 9.87507 11.5365C9.66992 11.6164 9.66992 11.6164 9.75851 11.7889C9.94035 11.7346 9.80982 11.6164 9.83779 11.5301L9.85643 11.5365ZM11.9545 6.39911C12.1364 6.3448 12.3135 6.24895 12.4674 6.25853C12.6213 6.26812 12.7891 6.15949 12.9336 6.14032L13.0735 6.23297H15.3069L15.5959 6.0253L15.5027 5.85278H15.2836L15.0737 5.98377H12.1271C12.0291 6.06684 11.8613 6.11157 11.8193 6.25214L11.9545 6.39911ZM10.3507 6.5301C10.5884 6.2809 10.9335 6.44064 11.1759 6.33841L11.6422 6.16908L11.5629 5.99016L11.1759 6.14032L10.9288 5.98377H10.346L10.1455 6.10837L9.95902 6.00294L9.62798 6.14032L9.37621 6.00294C9.28512 6.04721 9.18648 6.08369 9.08247 6.11157C8.96106 6.13058 8.83803 6.14445 8.71412 6.1531C8.71412 6.1531 8.71413 6.18185 8.69081 6.19144L8.96125 6.37994H9.35288L9.55803 6.50773L9.77251 6.37994C9.96367 6.38313 10.1782 6.32882 10.332 6.52371L10.3507 6.5301ZM12.1923 10.7633L11.7914 10.8751C11.5816 10.9358 11.4743 10.7889 11.2831 10.7633L11.2412 10.939C11.3669 11.0124 11.4838 11.0925 11.5909 11.1787C11.6473 11.2561 11.6911 11.3375 11.7214 11.4215H12.1877L12.2949 11.6355L12.6446 11.4918L12.6213 11.1978C12.3928 11.0445 12.183 10.9518 12.1737 10.7569L12.1923 10.7633ZM85.8966 5.58761C85.7474 5.60997 85.5749 5.54288 85.3931 5.65789C85.4863 5.74735 85.2905 5.88473 85.5096 5.97738H86.0924L86.2976 5.85278L86.5167 5.98377L86.9037 5.96141C86.927 5.96141 86.9503 5.93265 86.9783 5.91349C86.7685 5.79527 86.6473 5.59399 86.3256 5.57163L86.0971 5.70581L85.8966 5.58761ZM13.1155 11.2745C13.3393 11.2553 13.5817 11.3128 13.7916 11.2266C13.7205 11.1689 13.6623 11.1043 13.619 11.0349C13.5771 10.939 13.675 10.8208 13.5072 10.7442C13.2927 10.7601 13.0409 10.7026 12.8404 10.7889V11.0796L13.1155 11.2745ZM83.985 9.11476C83.985 8.92946 83.6959 9.09879 83.6586 8.98057L83.5514 8.75693C83.3696 8.78249 83.2017 8.7154 83.0292 8.82722C83.0292 8.91029 83.0292 9.00933 83.0665 9.11157C83.0665 9.13074 83.1085 9.14352 83.1271 9.15629C83.3929 9.15629 83.6493 9.15629 83.9104 9.15629C83.9197 9.14991 83.943 9.12754 83.971 9.10837L83.985 9.11476ZM89.9063 6.44384C89.939 6.50454 89.8271 6.61636 89.841 6.61636L90.5311 6.31604C90.4658 6.17546 90.5731 6.05406 90.3912 5.97738C90.242 5.99975 90.0648 5.92946 89.925 6.0253C89.7851 6.12115 89.9716 6.22658 90.0882 6.30326L89.9063 6.44384ZM84.0829 3.4662C84.1762 3.39272 84.3253 3.35119 84.358 3.23297C84.2134 3.20103 84.1808 3.05725 83.985 3.06684C83.5187 3.29048 83.5188 3.34479 83.7053 3.4662H84.0829ZM87.4445 5.97738H87.8642C87.9115 5.92881 87.9697 5.88567 88.0367 5.84959C88.1206 5.81764 88.2885 5.89112 88.3024 5.71221H87.2674C87.2301 5.71221 87.2021 5.76333 87.1695 5.78888L87.4445 5.97738ZM81.9242 9.14991C82.0734 9.12754 82.2459 9.19783 82.3904 9.10518C82.3904 8.97418 82.2133 9.03489 82.1107 9.01253C81.9289 8.88793 81.747 8.76332 81.5605 8.64192C81.5605 8.64192 81.5139 8.64192 81.4906 8.64192C81.4533 8.82403 81.4533 8.82403 81.9382 9.14991H81.9242ZM88.9738 5.93265L88.8899 5.65789L88.5635 5.92307C88.8205 6.04128 89.0884 6.14799 89.3655 6.24256C89.4224 6.22954 89.4771 6.2124 89.5287 6.19144C89.4401 6.00294 89.1091 6.01892 88.9738 5.93265ZM9.19904 9.68026C8.67684 9.68026 8.67683 9.68026 8.46236 9.7825C8.56025 9.79861 8.66018 9.80824 8.76076 9.81125C8.97951 9.83156 9.20206 9.81958 9.41349 9.7761C9.45079 9.6515 9.5254 9.5269 9.33891 9.4055L9.19904 9.68026ZM7.28276 9.60997C7.38999 9.67067 7.45526 9.76972 7.6744 9.79847C7.6744 9.64831 7.6744 9.50134 7.6744 9.35757C7.6744 9.3384 7.5998 9.31923 7.55784 9.29687C7.46925 9.38633 7.27809 9.41827 7.28276 9.60997ZM84.7776 8.68665C84.6844 8.62914 84.5958 8.56844 84.5072 8.50773C84.33 8.50773 84.1389 8.43425 83.971 8.56844C84.0881 8.58579 84.2021 8.61149 84.3114 8.64512C84.4139 8.68984 84.4792 8.77291 84.6331 8.75055L84.7776 8.68665ZM85.5749 3.52371C85.6728 3.594 85.7381 3.68665 85.9013 3.70582L86.1391 3.53649L85.8687 3.32882L85.5749 3.52371ZM10.6444 10.9902L10.5698 10.7282L10.2015 10.7761L10.2621 10.9902H10.6444ZM29.1171 0.501344C29.5833 0.562047 29.5833 0.558852 29.7325 0.4662C29.6353 0.432329 29.5262 0.417678 29.4175 0.423885C29.3088 0.430092 29.2048 0.456913 29.1171 0.501344ZM86.8291 4.29048C86.9457 4.18186 87.1042 4.14352 87.1275 4.0317C87.1013 4.01658 87.0708 4.0053 87.038 3.99854C87.0052 3.99177 86.9707 3.98967 86.9366 3.99236C86.9026 3.99506 86.8697 4.00248 86.84 4.01419C86.8103 4.0259 86.7844 4.04164 86.7638 4.06045L86.8291 4.29048ZM83.7845 8.46301C83.3742 8.35118 83.3742 8.35438 83.2343 8.46301C83.3284 8.47444 83.4234 8.48192 83.5187 8.48537C83.608 8.48262 83.6969 8.47514 83.7845 8.46301ZM85.1833 11.463C85.1027 11.4106 84.9959 11.3815 84.8848 11.3815C84.7738 11.3815 84.667 11.4106 84.5865 11.463C84.626 11.4906 84.6731 11.5126 84.7251 11.5276C84.7772 11.5425 84.8331 11.5503 84.8895 11.5503C84.946 11.5503 85.0018 11.5425 85.0539 11.5276C85.1059 11.5126 85.1531 11.4906 85.1926 11.463H85.1833ZM11.8893 12.0764C12.0431 11.9678 12.0338 11.8943 11.9172 11.7953L11.7028 11.8176L11.8893 12.0764ZM81.0756 3.18185H81.2015C81.2015 3.12435 81.2295 3.06364 81.2342 3.00613C81.2388 2.94863 81.1829 2.96141 81.1689 2.9646C81.1549 2.9678 81.0476 2.99336 81.043 3.00933C81.0477 3.06772 81.0618 3.12557 81.085 3.18185H81.0756ZM82.0408 3.13393C81.8589 3.05087 81.733 3.00933 81.6538 3.1531C81.7796 3.22658 81.8869 3.2202 82.0501 3.13393H82.0408ZM87.3746 3.75374V3.84C87.4585 3.84 87.5471 3.85597 87.6357 3.85917C87.7243 3.86236 87.7057 3.82722 87.701 3.81764C87.6963 3.80805 87.6544 3.73457 87.6311 3.73457C87.5481 3.73685 87.4655 3.74326 87.3839 3.75374H87.3746ZM87.9434 4.19144C87.921 4.16969 87.8914 4.15194 87.8569 4.13968C87.8224 4.12743 87.7841 4.12103 87.7453 4.12103C87.7064 4.12103 87.6682 4.12743 87.6337 4.13968C87.5992 4.15194 87.5695 4.16969 87.5471 4.19144C87.5684 4.21523 87.5982 4.23489 87.6337 4.24853C87.6692 4.26216 87.7092 4.26932 87.7499 4.26932C87.7906 4.26932 87.8307 4.26216 87.8662 4.24853C87.9017 4.23489 87.9315 4.21523 87.9528 4.19144H87.9434ZM88.5589 6.26812V6.35118C88.6469 6.36073 88.7356 6.36713 88.8246 6.37035C88.8246 6.37035 88.8899 6.33841 88.8853 6.32882C88.8806 6.31924 88.8433 6.24895 88.8153 6.24575C88.7321 6.24773 88.6493 6.25522 88.5682 6.26812H88.5589ZM11.9079 13.6547C12.0338 13.5365 12.0944 13.4534 11.88 13.3959C11.782 13.4758 11.7867 13.5493 11.9172 13.6547H11.9079ZM14.6681 10.9997C14.6364 11.0144 14.6104 11.0341 14.5924 11.0572C14.5744 11.0803 14.565 11.1061 14.565 11.1323C14.565 11.1585 14.5744 11.1843 14.5924 11.2075C14.6104 11.2306 14.6364 11.2503 14.6681 11.2649C14.7014 11.2514 14.7291 11.2323 14.7486 11.2094C14.7681 11.1865 14.7789 11.1606 14.7798 11.1341C14.7807 11.1076 14.7718 11.0814 14.7539 11.0579C14.736 11.0344 14.7097 11.0144 14.6774 10.9997H14.6681ZM83.4115 8.16908C83.4332 8.19148 83.4627 8.20986 83.4972 8.22258C83.5318 8.23529 83.5704 8.24195 83.6097 8.24195C83.6489 8.24195 83.6875 8.23529 83.7221 8.22258C83.7567 8.20986 83.7861 8.19148 83.8078 8.16908C83.7861 8.14667 83.7567 8.12829 83.7221 8.11557C83.6875 8.10286 83.6489 8.0962 83.6097 8.0962C83.5704 8.0962 83.5318 8.10286 83.4972 8.11557C83.4627 8.12829 83.4332 8.14667 83.4115 8.16908ZM88.1765 7.99655V8.07962C88.263 8.08916 88.3502 8.09556 88.4376 8.09879C88.4376 8.09879 88.5076 8.06684 88.5029 8.05725C88.4983 8.04767 88.461 7.97419 88.433 7.97419C88.3471 7.97221 88.2611 7.97649 88.1765 7.98696V7.99655ZM80.4835 3.03169L80.5534 3.07962C80.5793 3.05177 80.5997 3.02168 80.614 2.99016C80.614 2.99016 80.5767 2.96141 80.5534 2.94543L80.4835 3.03169ZM88.4703 2.9646L88.3444 3.01253C88.3677 3.01253 88.3957 3.05726 88.4097 3.05406C88.4561 3.04493 88.5001 3.03092 88.5402 3.01253L88.4703 2.9646ZM83.3416 3.32243L83.4115 3.2777C83.3693 3.25991 83.3238 3.24595 83.2763 3.23617C83.2763 3.23617 83.2344 3.26173 83.211 3.2777L83.3416 3.32243ZM46.1024 3.42786L46.0325 3.3416C46.0325 3.3416 45.9673 3.37674 45.9719 3.38633C45.9873 3.41756 46.0077 3.44755 46.0325 3.47578L46.1024 3.42786ZM85.2672 3.45662L85.3977 3.40869C85.3977 3.40869 85.3464 3.36396 85.3325 3.36716C85.285 3.37694 85.2395 3.3909 85.1973 3.40869L85.2672 3.45662ZM85.3698 4.35438L85.2951 4.26812C85.2951 4.28409 85.2299 4.30006 85.2345 4.31284C85.2509 4.34279 85.2712 4.37166 85.2951 4.39911L85.3698 4.35438ZM25.4104 5.14671L25.3358 5.06045C25.3358 5.06045 25.2706 5.09559 25.2752 5.10518C25.2906 5.13641 25.311 5.1664 25.3358 5.19464L25.4104 5.14671ZM21.6198 5.4662L21.494 5.51412C21.494 5.5301 21.5406 5.55885 21.5546 5.55566C21.6021 5.54588 21.6475 5.53192 21.6898 5.51412L21.6198 5.4662ZM17.2231 5.95821L17.349 5.91029C17.349 5.91029 17.3024 5.86876 17.2837 5.86876C17.239 5.88066 17.1954 5.89453 17.1532 5.91029L17.2231 5.95821ZM7.06362 6.85598L6.99368 6.76971C6.99368 6.76971 6.92841 6.80486 6.93307 6.81444C6.9485 6.84567 6.96883 6.87566 6.99368 6.9039L7.06362 6.85598ZM12.9103 6.9039C12.9103 6.9039 12.8451 6.93585 12.8497 6.94543C12.8652 6.97666 12.8855 7.00666 12.9103 7.03489C12.9103 7.03489 12.9756 7.00294 12.9756 6.99336C12.9569 6.95733 12.9319 6.92299 12.901 6.89112L12.9103 6.9039ZM10.1129 7.05406L10.0429 7.10198C10.0841 7.11902 10.1279 7.13294 10.1735 7.14351C10.1735 7.14351 10.2201 7.11476 10.2388 7.10198L10.1129 7.05406ZM7.31538 7.51732L7.38533 7.56524C7.41121 7.53739 7.4316 7.50731 7.44594 7.47579C7.44594 7.47579 7.40864 7.44703 7.38533 7.43106L7.31538 7.51732ZM6.52744 7.78249L6.59737 7.82722C6.62133 7.79978 6.64162 7.77091 6.65799 7.74096C6.65799 7.74096 6.61602 7.71221 6.59737 7.69623L6.52744 7.78249ZM82.9919 8.04447L82.922 7.96141C82.922 7.96141 82.8567 7.99336 82.8614 8.00294C82.8747 8.03473 82.8951 8.06491 82.922 8.0924L82.9919 8.04447ZM82.4464 8.80805L82.5163 8.89112C82.5396 8.89112 82.5816 8.85917 82.577 8.84959C82.5636 8.8178 82.5432 8.78762 82.5163 8.76013L82.4464 8.80805ZM9.66992 9.4694L9.73987 9.55246C9.73987 9.55246 9.80515 9.52051 9.80048 9.51093C9.78505 9.4797 9.76473 9.4497 9.73987 9.42147L9.66992 9.4694ZM85.7987 9.63873L85.8687 9.68665C85.895 9.65851 85.9169 9.62852 85.9339 9.59719C85.9339 9.59719 85.892 9.56844 85.8687 9.55246L85.7987 9.63873ZM14.3744 10.7857L14.3044 10.7378C14.2781 10.7659 14.2562 10.7959 14.2392 10.8272C14.2392 10.8272 14.2811 10.856 14.3044 10.8688L14.3744 10.7857ZM10.9754 10.9838L11.05 10.9359C11.0078 10.9181 10.9623 10.9041 10.9148 10.8943C10.9148 10.8943 10.8729 10.9199 10.8495 10.9359L10.9754 10.9838ZM86.3629 11.0477L86.2929 11.0029C86.2671 11.0297 86.2467 11.0587 86.2323 11.0892C86.2323 11.0892 86.2696 11.118 86.2929 11.1339L86.3629 11.0477ZM10.6444 11.201C10.6211 11.1851 10.5978 11.1563 10.5791 11.1595C10.5327 11.1686 10.4887 11.1826 10.4486 11.201C10.4486 11.201 10.4952 11.2426 10.5138 11.2426C10.5325 11.2426 10.5931 11.2138 10.6444 11.201ZM13.2367 12.0125L13.3067 12.0604C13.3326 12.0326 13.3529 12.0025 13.3673 11.971C13.3673 11.971 13.33 11.9422 13.3067 11.9263L13.2367 12.0125Z" fill="#FFC906"/>
</svg>
