<svg width="257" height="20" viewBox="0 0 257 20" fill="none" xmlns="http://www.w3.org/2000/svg">
<path d="M11.6314 12.0513C11.5145 12.1663 12.0083 12.1961 12.1382 12.3196L11.4495 12.3878C10.8611 12.2639 10.4277 12.075 10.2279 11.8553L9.53915 12.0513L9.27923 11.5188H7.40793L6.36828 11.8553C6.29498 11.7861 6.20368 11.7191 6.09538 11.6551C5.86147 11.5401 5.58857 11.4293 5.28968 11.2973L4.74385 11.6721H4.10709L3.74322 11.3356L2.67759 11.3186L0.611328 10.7052L0.676289 10.4836C1.46246 10.4427 2.25985 10.4299 3.05447 10.4453L3.73021 10.6455L4.01611 10.1514C4.40597 10.0364 4.8868 10.1258 5.31565 10.0917L5.88745 9.92986L6.57621 10.113L6.81011 9.58907C7.74578 9.68705 7.96672 10.0364 8.90239 10.096C9.17529 10.2536 9.1753 10.2536 9.83806 10.2323C9.83806 10.211 9.994 10.1897 9.994 10.1684C9.994 9.87449 9.994 9.58482 9.994 9.31644L9.43521 9.11623C9.43521 8.98418 9.43518 8.8649 10.02 8.86916C10.6048 8.87342 11.2415 9.14605 11.8003 9.53796C12.0472 9.55926 12.3072 9.57629 12.5411 9.60185C12.775 9.62741 12.684 9.64019 12.736 9.65723V9.8404L13.5157 10.0875C14.2175 9.98524 14.3344 9.75095 14.6853 9.56777C15.0362 9.3846 15.8549 9.37182 16.4007 9.24829L16.7906 9.37608C17.2844 9.33774 17.2194 9.20143 17.0765 9.12475C16.9335 9.04808 16.4007 8.9288 16.6736 8.75414C17.2324 8.62635 17.8952 8.7158 18.493 8.6945L19.0778 8.51985C19.6366 8.44743 19.8315 8.63486 20.1953 8.6732L20.9102 8.48578L21.8458 8.66895L22.5346 8.46447C22.5346 8.42188 22.4566 8.36649 22.3526 8.34094C21.5303 8.13642 20.5572 8.00707 19.5326 7.96607C19.1168 7.7829 19.4286 7.57417 19.3247 7.36543L18.2461 7.1993V7.01612C19.0518 6.69663 20.3903 6.6583 21.313 6.39419H24.5748L25.0816 6.23231H28.9802L29.4611 6.07896C30.2928 5.98098 31.2284 6.13859 32.1251 5.95116C31.3238 5.86793 30.4776 5.8418 29.643 5.87448C28.8243 5.87448 27.9926 5.87448 27.1739 5.87448H22.4046L21.8718 5.70409H12.0083L11.3975 5.52517H7.01804L6.52421 5.36756H4.88682L4.35401 5.19717L3.05447 5.14605L2.82052 4.83082L1.75493 4.56245C1.91087 4.23444 2.74257 4.13647 3.24939 3.93199H4.28901L4.86081 3.77437H6.48523L7.18699 3.94903L7.38191 3.65084C7.88873 3.49749 8.56451 3.61676 9.18829 3.58268L9.78607 3.75308L10.5268 3.29302L8.96735 2.79035L10.7477 2.21953C11.2545 2.13008 11.8003 2.19397 12.4501 2.16842L13.1519 2.00228H15.2701L15.8549 1.81485H20.8062L21.313 1.65297H26.771L27.3948 1.4698H35.0491L35.6339 1.2994L36.3227 1.49962L37.3233 1.33348L37.8171 1.45276L38.363 1.30367L38.9217 1.46128L39.2986 1.35053C39.3766 1.32923 39.4416 1.29515 39.5066 1.29515H50.4747L50.8775 1.16735C50.9555 1.16735 51.0204 1.12475 51.0984 1.12475H66.355L66.8878 0.954356H75.1918C75.2958 0.873419 75.3608 0.822303 75.4257 0.783964C76.8422 0.783964 78.2588 0.754143 79.6753 0.728584C79.6753 0.728584 79.6753 0.690246 79.7792 0.668947C78.332 0.538222 76.7904 0.578949 75.4257 0.783964C75.1532 0.777695 74.8796 0.777695 74.607 0.783964L74.0352 0.613566C73.4374 0.545409 73.2555 0.737103 72.7357 0.801001L71.7091 0.626345H65.7052L65.1724 0.792479H50.8775L50.3966 0.945834C49.7608 0.98526 49.1053 0.973572 48.4863 0.911761V0.690247C48.5903 0.656168 48.6553 0.61783 48.7202 0.61783H57.4791L58.0769 0.443175L58.6487 0.605051L59.1296 0.451697L59.7274 0.600787H61.4427C61.6766 0.600787 61.8326 0.370758 62.4564 0.443175L63.0152 0.605051L63.587 0.438918H82.7942L83.3789 0.264262L83.8597 0.421874L84.4576 0.277041H86.7187L87.1736 0.426132L87.7584 0.272784L88.3172 0.430396L88.6941 0.315378C88.8451 0.290087 89.0074 0.272834 89.1749 0.264262H107.537L108.109 0.0981281L108.681 0.255741C109.318 0.328158 109.461 0.110904 110.084 0.0810851L110.877 0.242962L111.358 0.106643H170.318L170.773 0.259998L171.358 0.0896066H172.917L173.489 0.259998H174.568L175.139 0.0981281H179.038L179.493 0.242962L180.39 0.0683061L181.234 0.242962L181.767 0.0896066H182.846L183.417 0.255741L184.106 0.0597911L185.081 0.225925L185.887 0.0683061L186.705 0.238704L187.55 0.0512695L188.369 0.255741L189.044 0.0597911L190.24 0.259998H196.647L196.881 0.443175H195.581L194.996 0.613566L194.593 0.481512C190.442 0.398002 186.277 0.410812 182.131 0.519849C182.131 0.519849 182.196 0.570967 182.261 0.579487C182.418 0.600736 182.585 0.613681 182.755 0.61783H192.267L192.813 0.792479H198.31L198.882 0.975656H206.029L206.601 1.15883H214.84L215.334 1.31645H218.609L219.207 1.49962H221.39L221.988 1.67853H225.808L226.289 1.83188C227.173 1.883 228.174 1.83188 229.148 1.86596L229.629 2.01932H233.528L234.06 2.18972L234.632 2.04062L235.204 2.19823H237.894L238.596 2.46235C238.596 2.46235 238.453 2.5518 238.362 2.5518C237.27 2.5518 236.179 2.5518 235.087 2.5518C235.087 2.5518 234.957 2.59014 234.892 2.61144C235.022 2.76053 235.451 2.69238 235.737 2.73498L236.737 3.05872L237.322 2.89685H240.051L240.623 3.06724H242.248L242.858 3.25042H243.911L244.535 3.42933H246.133L246.874 3.88087L246.406 4.04275C246.783 4.18758 247.277 4.09812 247.706 4.12794L248.862 3.77437H249.954C250.591 3.96181 250.097 4.08109 249.629 4.22592C250.266 4.31298 250.971 4.33234 251.643 4.2813L252.306 4.11516L252.449 4.41335L251.383 4.53263L251.786 4.77544C251.396 4.90324 250.915 4.77544 250.552 4.83934L249.863 4.64339L249.629 4.89472C250.306 4.96944 250.899 5.10891 251.331 5.29514C250.999 5.31785 250.68 5.35661 250.383 5.41016C250.084 5.48258 249.85 5.56778 249.408 5.52944C248.823 5.42294 249.33 5.21421 249.018 5.05659C248.706 4.89898 248.368 5.03103 248.03 5.00974V4.50281L247.394 4.42187C246.705 4.49855 246.562 4.7584 245.847 4.78396C245.133 4.80952 244.977 4.95436 244.73 5.10345C244.665 5.38034 245.808 5.41016 245.821 5.66575H244.938C244.886 5.74173 244.812 5.81591 244.717 5.88726C244.587 5.97246 244.392 6.04914 244.236 6.13008L245.003 6.36011L245.821 6.11304V5.66575L246.341 5.73391V6.30047C246.276 6.38141 245.587 6.424 245.99 6.68385L246.549 6.87129C247.108 6.83295 247.251 6.63274 248.03 6.55606H248.797L249.434 6.36436C249.716 6.46929 249.977 6.5803 250.214 6.69663C250.5 6.86277 250.63 7.05872 250.954 7.21208C251.304 7.35233 251.696 7.48076 252.124 7.59546H253.852L254.749 7.95755H255.516L255.815 8.22166L254.632 8.51559V8.94158L254.099 9.12901L254.606 9.31218C254.684 9.46128 254.463 9.61463 254.892 9.73817L255.438 9.36756L256.179 9.83188L255.75 9.9895L256.27 10.1727V10.5262C256.114 10.5518 255.971 10.6072 255.828 10.6072H249.395L248.81 10.7946H246.458C246.562 11.0119 247.121 11.0715 247.407 11.2206C247.329 11.2547 247.238 11.3228 247.147 11.3228C245.691 11.3228 244.236 11.3228 242.78 11.3228L242.17 11.7147L240.051 11.3654L237.894 11.719L237.322 11.3271H236.75C236.283 11.4379 236.556 11.5997 236.465 11.7531L235.75 11.9959L234.45 12.0427C234.385 12.0427 234.255 12.0853 234.255 12.1066C234.255 12.3409 234.255 12.5752 234.255 12.8053L233.71 12.997L234.502 13.2483L235.087 13.0779H236.387C236.556 13.1546 236.699 13.2483 236.867 13.2525C237.27 13.2525 237.725 13.3122 238.089 13.1801C237.634 12.9927 236.997 13.1162 236.387 13.0779C236.693 12.9245 236.962 12.7636 237.192 12.5965L238.037 12.5028L238.18 12.0768C238.544 11.9448 239.038 12.0385 239.479 12.0087L240.077 12.1876H241.221L241.52 12.456L239.791 12.9075V13.1588C240.155 13.2994 240.636 13.227 241.091 13.2398C241.546 13.2525 241.832 13.2398 242.196 13.2398H243.495C243.586 12.997 243.053 13.1077 242.585 12.8947C242.663 12.9714 242.585 12.8649 242.429 12.7754C242.274 12.686 242.131 12.7286 241.975 12.7073V12.0981L241.325 11.8766L242.403 11.8212L242.585 12.1109L243.885 12.5369L244.743 12.5923V13.1546L245.574 13.4357H246.692C247.342 13.2525 246.692 13.0097 247.056 12.7925L247.511 12.7286V13.1546L248.095 13.3505L246.796 13.7041C246.991 13.8106 247.173 13.8958 247.316 13.9895C247.459 14.0832 247.55 14.1855 247.654 14.2792C248.199 14.3431 248.264 14.3303 248.589 14.1301C248.745 14.1301 249.005 14.1003 249.031 14.0704C249.096 13.9682 248.862 13.9512 248.589 13.9554C248.589 13.768 249.2 13.7552 249.317 13.5891L250.617 13.9597H251.825L251.955 14.2579C251.252 14.273 250.566 14.3348 249.938 14.4395C249.311 14.5443 248.754 14.6897 248.303 14.867L246.848 14.637C245.964 14.8415 246.965 15.178 246.159 15.3612L245.379 15.1098C245.587 14.9948 246.185 14.9352 245.743 14.6839C245.158 14.5816 244.327 14.6839 243.365 14.637L242.637 14.867C242.482 15.2078 243.43 15.2334 243.586 15.4677L243.014 15.6636C241.949 15.8596 241.234 15.4038 239.934 15.5955L239.311 15.7403L238.414 15.5273H236.893L236.179 15.702C235.451 15.702 235.243 15.4123 234.489 15.5614L234.32 15.7829L235.204 16.0385C235.984 16.1748 236.504 15.8894 237.309 15.8638L237.933 16.0513L238.505 15.8809C239.285 15.8298 239.661 16.2004 240.818 16.0002L241.182 15.9064L242.079 16.0768L242.949 15.8851L243.56 16.1578L242.65 16.3026C242.78 16.4474 243.235 16.3793 243.495 16.4304C243.681 16.4724 243.859 16.5179 244.028 16.5667L244.392 16.4304L245.081 16.6178H247.68L245.211 16.8479L246.315 17.0225C245.964 17.2568 245.016 17.0225 244.639 17.2483C245.52 17.3052 246.42 17.3224 247.316 17.2994C248.194 17.276 249.078 17.3108 249.915 17.4016C249.03 17.4694 248.119 17.4952 247.212 17.4783L246.172 17.7254C247.173 17.9384 248.16 17.7254 249.018 17.9L248.498 18.096L249.577 18.2621V18.4453L248.03 18.7009H246.64L246.003 18.8841H240.558L239.947 19.063H228.42L227.901 19.2291C226.315 19.2632 224.6 19.2291 222.897 19.2504L222.404 19.408H210.864L210.279 19.5912H190.539L189.967 19.7744H130.032L129.526 19.9362H111.943L111.397 19.7786L110.552 19.9831L109.656 19.7659H56.9333L56.4395 19.604H47.6416L47.0698 19.4165H43.769L43.2492 19.2504H39.2856L37.986 18.7052H35.5689C34.9191 18.5135 35.465 18.3984 35.8418 18.2792V17.9299C36.5306 17.7595 36.8554 17.4357 37.973 17.4655C37.9563 17.3916 37.8716 17.3211 37.7301 17.2633C37.5885 17.2055 37.3969 17.1631 37.1803 17.1418C36.6345 17.1162 36.4526 17.0736 36.3616 16.8905C36.3616 16.7754 35.8158 16.6817 35.6209 16.6093C34.5552 16.5497 34.9191 16.8393 34.5033 16.9416L33.9185 16.7797H32.3071C31.9952 16.818 31.9172 16.9799 31.4494 16.9544C31.4494 16.9032 31.3584 16.818 31.2674 16.8138C30.9426 16.7882 30.8905 16.8649 30.9035 16.9544C30.8412 16.9484 30.7755 16.9473 30.7117 16.9511C30.6478 16.9549 30.5876 16.9636 30.5358 16.9764C30.484 16.9893 30.4421 17.0059 30.4134 17.025C30.3848 17.0441 30.3702 17.0651 30.3708 17.0864C30.3708 17.2057 30.3707 17.3164 30.9035 17.3037C30.9685 17.3548 31.0205 17.4485 31.0985 17.4485C31.8782 17.4485 32.398 17.7722 33.5936 17.6146L34.2304 17.4187L33.6066 17.1716L34.4383 17.1205C35.1141 17.2909 34.4383 17.5167 34.7502 17.6998L35.322 17.9895H34.0225C32.9568 18.2664 34.5423 18.3857 34.2044 18.6072C33.5936 18.7392 33.5936 18.7392 32.9049 18.5603L32.0471 18.735L30.9035 18.5177L30.0329 18.7052C30.0329 18.6455 29.786 18.5646 29.838 18.5135C29.9122 18.4309 30.0469 18.3555 30.2304 18.2939C30.4138 18.2322 30.6405 18.1862 30.8906 18.1599C30.9816 18.2749 30.8906 18.4112 31.4234 18.2919L30.8906 18.1599C31.1245 17.9043 30.3318 17.7339 30.1368 17.4996C30.0069 17.3858 29.846 17.276 29.656 17.1716C29.3687 17.1563 29.0943 17.1215 28.8503 17.0694C28.5514 16.9927 28.3045 16.9245 27.9016 16.9544L26.2122 16.4304L25.6534 16.5752C25.0686 16.605 24.4448 16.6519 24.003 16.4261H22.3396L21.7418 16.6008L20.9881 16.2898V15.9618L19.8575 15.6934V15.2121L18.1031 14.752L18.402 14.4709L19.0258 14.6498L19.5976 14.4879L20.3903 14.7435V14.9224L21.6898 15.3484C22.0017 15.3186 22.0797 15.1567 22.5346 15.1865C22.5346 15.3612 23.0284 15.4166 23.3273 15.5145C23.6262 15.6125 23.7951 15.5145 24.003 15.5145C24.4188 15.2547 24.003 15.0885 23.7171 14.8841C24.107 14.7648 24.5878 14.8585 25.0167 14.8202C25.4195 14.6072 25.5365 14.326 26.693 14.2195L25.4585 14.0875L25.0946 13.7722C24.9517 13.8148 24.7567 13.8447 24.7437 13.8787C24.7245 13.988 24.7245 14.0975 24.7437 14.2068C24.3279 14.3601 23.8471 14.2664 23.4442 14.2962L22.8465 14.1216H20.6762L20.1044 13.9512L19.5326 14.1088C19.1817 13.998 18.8829 13.8234 18.532 13.8063C17.9472 13.7808 17.6613 13.6232 17.1545 13.5933C16.8692 13.5847 16.5821 13.5847 16.2968 13.5933L15.699 13.7722H15.1791C14.9974 13.768 14.8151 13.768 14.6334 13.7722C14.6334 13.7722 14.5034 13.8106 14.4384 13.8276L12.905 14.1045L12.4761 13.9682H11.0596L9.40919 13.6785C9.92901 13.5081 10.6437 13.3718 10.9037 13.1716C11.1076 12.9874 11.4741 12.8273 11.9563 12.7115C12.5671 12.6902 12.788 12.784 12.6841 12.9842L13.5027 13.2227H15.2571L15.634 12.8819L16.2708 13.0651H17.9342L18.7009 12.801L17.6613 12.6391C17.7652 12.5326 18.272 12.5028 18.1811 12.3622C19.0258 12.4219 19.5586 12.1791 20.2604 12.1279C20.0914 11.9916 19.9355 11.8511 19.7275 11.702C19.7275 11.6679 19.4416 11.6636 19.3117 11.6679C19.2207 11.5571 19.3117 11.4208 18.7789 11.5401C18.9489 11.586 19.1268 11.6287 19.3117 11.6679C19.2957 11.753 19.2957 11.8384 19.3117 11.9235C18.9738 12.03 18.5839 12.145 18.2201 12.2643C18.2201 12.2643 18.2201 12.3196 18.2201 12.3495H16.7776L16.4787 12.6434C16.252 12.6913 15.9881 12.7167 15.7185 12.7167C15.4488 12.7167 15.1849 12.6913 14.9582 12.6434L15.4261 12.4602C15.2701 12.3452 14.7113 12.2856 14.9322 12.1066L15.4781 11.9192V11.4932C15.655 11.4979 15.8329 11.4892 15.9979 11.4677C16.0888 11.5784 15.9979 11.7147 16.5177 11.5955C16.3524 11.5495 16.1788 11.5068 15.9979 11.4677C16.202 11.3888 16.3806 11.3031 16.5307 11.2121L14.5814 10.5901C14.2045 10.8074 14.5034 11.0417 14.2565 11.2462C14.0559 11.3318 13.914 11.4306 13.8406 11.5358C13.8406 11.6168 14.0356 11.6892 14.3734 11.6679C14.3085 11.834 14.5294 12.0087 14.1525 12.1876L13.5677 12.0385L12.9959 12.1918L12.5021 11.8553C12.1999 11.9088 11.9166 11.9731 11.6574 12.047C11.5664 11.932 11.6574 11.7957 11.1246 11.9149C11.282 11.9648 11.4515 12.0104 11.6314 12.0513V12.0513ZM231.396 12.9245C231.825 12.8862 232.241 12.899 231.877 12.7456C231.747 12.7925 231.617 12.8436 231.695 12.8862C231.279 12.9245 230.851 12.9118 231.227 13.0651C231.292 13.0225 231.396 12.9714 231.396 12.9245ZM25.8873 8.97991C26.0043 9.11623 25.9653 9.25254 26.4461 9.13327C26.2902 9.09067 26.1473 9.05234 26.0043 9.07789C25.8874 8.94158 25.9264 8.80526 25.4455 8.92454C25.5495 8.96288 25.6924 9.00547 25.8354 8.97991H25.8873ZM234.84 5.85318C235.204 5.82337 235.698 5.93838 235.893 5.75095C235.165 5.67427 235.165 5.67427 234.905 5.87023L234.801 5.83615L234.346 5.95968L234.515 6.01506C234.638 5.96765 234.731 5.9126 234.788 5.85318H234.84ZM22.1577 9.26106C22.0407 9.12475 22.0797 8.98843 21.5989 9.10771C21.7422 9.15281 21.9096 9.18891 22.0927 9.21421V9.64019L23.6781 9.89152V9.43998L22.9244 9.19717C22.6619 9.19016 22.399 9.20947 22.1707 9.25254L22.1577 9.26106ZM26.4721 15.3825C27.3688 15.3526 26.784 15.6892 27.3558 15.736C27.7717 15.7062 28.2525 15.7957 28.6554 15.6721L28.7203 15.4975C28.3175 15.2334 27.4208 15.1993 26.5891 15.0332C26.5891 15.1652 26.5241 15.2717 26.5241 15.3825C25.9523 15.489 25.9523 15.489 26.1992 15.719C26.706 15.6466 26.3422 15.489 26.4202 15.374L26.4721 15.3825ZM32.3201 8.53263C32.8269 8.46022 33.3207 8.33242 33.7495 8.3452C34.1784 8.35798 34.6462 8.21314 35.0491 8.18758L35.439 8.31112H41.6638L42.4695 8.03423L42.2095 7.8042H41.5988L41.014 7.97885H32.8009C32.528 8.08961 32.0602 8.14924 31.9432 8.33668L32.3201 8.53263ZM27.8496 8.70728C28.5124 8.37501 29.4741 8.58801 30.1499 8.4517L31.4494 8.22592L31.2284 7.98737L30.1499 8.18758L29.4611 7.97885H27.8366L27.2778 8.14499L26.7581 8.00441L25.8354 8.18758L25.1337 8.00441C24.8798 8.06344 24.6048 8.11208 24.3149 8.14924C23.9765 8.17459 23.6336 8.19309 23.2883 8.20462C23.2883 8.20462 23.2883 8.24296 23.2233 8.25574L23.977 8.50707H25.0686L25.6404 8.67747L26.2382 8.50707C26.771 8.51133 27.3688 8.43892 27.7977 8.69877L27.8496 8.70728ZM32.9828 14.3516L31.8653 14.5007C31.2805 14.5816 30.9815 14.3857 30.4487 14.3516L30.3318 14.5859C30.6822 14.6837 31.0081 14.7905 31.3065 14.9054C31.4637 15.0086 31.5857 15.1171 31.6703 15.2291H32.9698L33.2687 15.5145L34.2434 15.3228L34.1784 14.9309C33.5416 14.7265 32.9569 14.6029 32.9309 14.3431L32.9828 14.3516ZM238.414 7.45063C237.998 7.48045 237.517 7.39099 237.01 7.54435C237.27 7.66362 236.725 7.84679 237.335 7.97033H238.96L239.532 7.8042L240.142 7.97885L241.221 7.94903C241.286 7.94903 241.351 7.91069 241.429 7.88513C240.844 7.72752 240.506 7.45915 239.61 7.42933L238.973 7.60824L238.414 7.45063ZM35.5559 15.0332C36.1797 15.0076 36.8555 15.0843 37.4403 14.9693C37.2422 14.8924 37.0801 14.8062 36.9594 14.7137C36.8425 14.5859 37.1154 14.4283 36.6476 14.326C36.0498 14.3473 35.348 14.2706 34.7892 14.3857V14.7733L35.5559 15.0332ZM233.086 12.1535C233.086 11.9064 232.28 12.1322 232.176 11.9746L231.877 11.6764C231.37 11.7105 230.903 11.621 230.422 11.7701C230.422 11.8809 230.422 12.0129 230.526 12.1492C230.526 12.1748 230.643 12.1918 230.695 12.2089C231.435 12.2089 232.15 12.2089 232.878 12.2089C232.904 12.2004 232.969 12.1705 233.047 12.145L233.086 12.1535ZM249.59 8.59227C249.681 8.67321 249.369 8.8223 249.408 8.8223L251.331 8.42187C251.149 8.23444 251.448 8.07257 250.941 7.97033C250.526 8.00015 250.032 7.90643 249.642 8.03423C249.252 8.16202 249.772 8.3026 250.097 8.40484L249.59 8.59227ZM233.359 4.62209C233.619 4.52411 234.034 4.46873 234.125 4.31112C233.723 4.26852 233.632 4.07683 233.086 4.08961C231.786 4.3878 231.786 4.46021 232.306 4.62209H233.359ZM242.728 7.97033H243.898C244.03 7.90556 244.192 7.84805 244.379 7.79994C244.613 7.75734 245.081 7.85531 245.12 7.61676H242.235C242.131 7.61676 242.053 7.68492 241.962 7.719L242.728 7.97033ZM227.342 12.2004C227.758 12.1705 228.239 12.2643 228.641 12.1407C228.641 11.9661 228.148 12.047 227.862 12.0172C227.355 11.8511 226.848 11.6849 226.328 11.523C226.328 11.523 226.198 11.523 226.133 11.523C226.029 11.7659 226.029 11.7659 227.381 12.2004H227.342ZM246.991 7.91069L246.757 7.54435L245.847 7.89791C246.564 8.05552 247.31 8.19781 248.083 8.3239C248.241 8.30654 248.394 8.28369 248.537 8.25574C248.29 8.00441 247.368 8.02571 246.991 7.91069ZM24.6398 12.9075C23.1843 12.9075 23.1843 12.9075 22.5865 13.0438C22.8594 13.0653 23.1379 13.0781 23.4183 13.0822C24.028 13.1092 24.6482 13.0933 25.2376 13.0353C25.3415 12.8692 25.5495 12.703 25.0297 12.5411L24.6398 12.9075ZM19.2987 12.8138C19.5976 12.8947 19.7795 13.0268 20.3903 13.0651C20.3903 12.8649 20.3903 12.6689 20.3903 12.4773C20.3903 12.4517 20.1824 12.4261 20.0654 12.3963C19.8185 12.5156 19.2857 12.5582 19.2987 12.8138V12.8138ZM235.295 11.5827C235.035 11.506 234.788 11.4251 234.541 11.3441C234.047 11.3441 233.515 11.2462 233.047 11.4251C233.373 11.4482 233.691 11.4825 233.995 11.5273C234.281 11.5869 234.463 11.6977 234.892 11.6679L235.295 11.5827ZM237.517 4.69877C237.79 4.79248 237.972 4.91602 238.427 4.94158L239.09 4.7158L238.336 4.43892L237.517 4.69877ZM28.6684 14.654L28.4605 14.3047L27.4338 14.3686L27.6027 14.654H28.6684ZM80.1561 0.668947C81.4556 0.749884 81.4556 0.745624 81.8715 0.622088C81.6005 0.576927 81.2965 0.557392 80.9935 0.565668C80.6905 0.573944 80.4006 0.609705 80.1561 0.668947V0.668947ZM241.013 5.72113C241.338 5.57629 241.78 5.52518 241.845 5.37608C241.772 5.35593 241.687 5.34089 241.595 5.33187C241.504 5.32285 241.408 5.32005 241.313 5.32364C241.218 5.32723 241.126 5.33713 241.043 5.35274C240.961 5.36835 240.888 5.38934 240.831 5.41442L241.013 5.72113ZM232.527 11.2845C231.383 11.1354 231.383 11.1397 230.994 11.2845C231.256 11.2997 231.52 11.3097 231.786 11.3143C232.035 11.3106 232.283 11.3007 232.527 11.2845ZM236.426 15.2845C236.201 15.2147 235.903 15.1758 235.594 15.1758C235.284 15.1758 234.987 15.2147 234.762 15.2845C234.872 15.3213 235.004 15.3506 235.149 15.3706C235.294 15.3906 235.45 15.4008 235.607 15.4008C235.764 15.4008 235.92 15.3906 236.065 15.3706C236.21 15.3506 236.342 15.3213 236.452 15.2845H236.426ZM32.1381 16.1024C32.567 15.9575 32.541 15.8596 32.2161 15.7275L31.6183 15.7573L32.1381 16.1024ZM224.977 4.24296H225.328C225.328 4.16628 225.406 4.08535 225.419 4.00867C225.432 3.93199 225.276 3.94903 225.237 3.95329C225.198 3.95755 224.899 3.99163 224.886 4.01293C224.899 4.09078 224.938 4.16791 225.003 4.24296H224.977ZM227.667 4.17907C227.16 4.06831 226.809 4.01293 226.588 4.20462C226.939 4.3026 227.238 4.29408 227.693 4.17907H227.667ZM242.533 5.00547V5.12049C242.767 5.12049 243.014 5.14179 243.261 5.14605C243.508 5.15031 243.456 5.10345 243.443 5.09067C243.43 5.07789 243.313 4.97991 243.248 4.97991C243.017 4.98296 242.787 4.9915 242.559 5.00547H242.533ZM244.119 5.58908C244.056 5.56007 243.974 5.5364 243.878 5.52006C243.782 5.50373 243.675 5.4952 243.567 5.4952C243.458 5.4952 243.352 5.50373 243.255 5.52006C243.159 5.5364 243.077 5.56007 243.014 5.58908C243.074 5.6208 243.157 5.64701 243.256 5.66519C243.355 5.68337 243.466 5.69292 243.58 5.69292C243.693 5.69292 243.805 5.68337 243.904 5.66519C244.003 5.64701 244.086 5.6208 244.145 5.58908H244.119ZM245.834 8.35798V8.46873C246.08 8.48146 246.327 8.48999 246.575 8.49429C246.575 8.49429 246.757 8.4517 246.744 8.43892C246.731 8.42614 246.627 8.33242 246.549 8.32816C246.317 8.33079 246.086 8.34078 245.86 8.35798H245.834ZM32.1901 18.2068C32.541 18.0491 32.71 17.9384 32.1122 17.8617C31.8393 17.9682 31.8522 18.0662 32.2161 18.2068H32.1901ZM39.8834 14.6668C39.7949 14.6863 39.7224 14.7126 39.6723 14.7434C39.6222 14.7743 39.596 14.8087 39.596 14.8436C39.596 14.8785 39.6222 14.9129 39.6723 14.9438C39.7224 14.9746 39.7949 15.0009 39.8834 15.0204C39.9761 15.0023 40.0533 14.9769 40.1078 14.9463C40.1622 14.9158 40.1921 14.8813 40.1947 14.846C40.1973 14.8106 40.1725 14.7756 40.1226 14.7443C40.0727 14.713 39.9994 14.6863 39.9094 14.6668H39.8834ZM231.487 10.8926C231.548 10.9225 231.63 10.947 231.726 10.9639C231.823 10.9809 231.93 10.9898 232.04 10.9898C232.149 10.9898 232.257 10.9809 232.353 10.9639C232.449 10.947 232.532 10.9225 232.592 10.8926C232.532 10.8627 232.449 10.8382 232.353 10.8213C232.257 10.8043 232.149 10.7954 232.04 10.7954C231.93 10.7954 231.823 10.8043 231.726 10.8213C231.63 10.8382 231.548 10.8627 231.487 10.8926V10.8926ZM244.769 10.6626V10.7733C245.01 10.786 245.253 10.7946 245.496 10.7989C245.496 10.7989 245.691 10.7563 245.678 10.7435C245.665 10.7307 245.561 10.6327 245.483 10.6327C245.244 10.6301 245.004 10.6358 244.769 10.6498V10.6626ZM223.326 4.04275L223.521 4.10665C223.593 4.06951 223.65 4.0294 223.69 3.98737C223.69 3.98737 223.586 3.94903 223.521 3.92773L223.326 4.04275ZM245.587 3.95329L245.237 4.01719C245.302 4.01719 245.379 4.07683 245.418 4.07257C245.548 4.0604 245.67 4.04171 245.782 4.01719L245.587 3.95329ZM231.292 4.4304L231.487 4.37076C231.37 4.34703 231.243 4.32842 231.111 4.31538C231.111 4.31538 230.994 4.34946 230.929 4.37076L231.292 4.4304ZM127.498 4.57097L127.303 4.45595C127.303 4.45595 127.121 4.50281 127.134 4.51559C127.177 4.55723 127.234 4.59722 127.303 4.63487L127.498 4.57097ZM236.66 4.60931L237.023 4.54541C237.023 4.54541 236.88 4.48577 236.841 4.49003C236.709 4.50307 236.582 4.52169 236.465 4.54541L236.66 4.60931ZM236.945 5.80633L236.737 5.69131C236.737 5.71261 236.556 5.73391 236.569 5.75095C236.614 5.79088 236.671 5.82937 236.737 5.86596L236.945 5.80633ZM69.8247 6.86277L69.6168 6.74776C69.6168 6.74776 69.4349 6.79461 69.4479 6.80739C69.4909 6.84903 69.5476 6.88902 69.6168 6.92667L69.8247 6.86277ZM59.2595 7.28875L58.9087 7.35265C58.9087 7.37395 59.0386 7.41229 59.0776 7.40803C59.21 7.39499 59.3367 7.37638 59.4544 7.35265L59.2595 7.28875ZM47.0048 7.94477L47.3557 7.88087C47.3557 7.88087 47.2258 7.8255 47.1738 7.8255C47.049 7.84137 46.9275 7.85986 46.81 7.88087L47.0048 7.94477ZM18.6879 9.14179L18.493 9.02677C18.493 9.02677 18.3111 9.07363 18.324 9.08641C18.3671 9.12805 18.4237 9.16804 18.493 9.20568L18.6879 9.14179ZM34.9841 9.20568C34.9841 9.20568 34.8022 9.24829 34.8152 9.26106C34.8582 9.30271 34.9148 9.3427 34.9841 9.38034C34.9841 9.38034 35.1661 9.33775 35.1661 9.32497C35.1139 9.27692 35.0441 9.23114 34.9582 9.18865L34.9841 9.20568ZM27.1869 9.4059L26.992 9.4698C27.1068 9.49251 27.2288 9.51107 27.3558 9.52517C27.3558 9.52517 27.4858 9.48684 27.5378 9.4698L27.1869 9.4059ZM19.3896 10.0236L19.5846 10.0875C19.6567 10.0503 19.7136 10.0102 19.7535 9.9682C19.7535 9.9682 19.6496 9.92986 19.5846 9.90856L19.3896 10.0236ZM17.1935 10.3771L17.3884 10.4368C17.4552 10.4002 17.5117 10.3617 17.5573 10.3218C17.5573 10.3218 17.4404 10.2834 17.3884 10.2621L17.1935 10.3771ZM230.318 10.7265L230.123 10.6157C230.123 10.6157 229.941 10.6583 229.954 10.6711C229.991 10.7135 230.048 10.7537 230.123 10.7903L230.318 10.7265ZM228.797 11.7446L228.992 11.8553C229.057 11.8553 229.174 11.8127 229.161 11.7999C229.124 11.7576 229.067 11.7173 228.992 11.6807L228.797 11.7446ZM25.9523 12.6264L26.1473 12.7371C26.1473 12.7371 26.3292 12.6945 26.3162 12.6817C26.2732 12.6401 26.2165 12.6001 26.1473 12.5624L25.9523 12.6264ZM238.141 12.8521L238.336 12.916C238.409 12.8785 238.47 12.8385 238.518 12.7967C238.518 12.7967 238.401 12.7584 238.336 12.7371L238.141 12.8521ZM39.0647 14.3814L38.8697 14.3175C38.7963 14.355 38.7354 14.395 38.6878 14.4368C38.6878 14.4368 38.8047 14.4751 38.8697 14.4922L39.0647 14.3814ZM29.5911 14.6455L29.799 14.5816C29.6812 14.5579 29.5545 14.5393 29.4221 14.5262C29.4221 14.5262 29.3051 14.5603 29.2402 14.5816L29.5911 14.6455ZM239.713 14.7307L239.519 14.6711C239.447 14.7067 239.39 14.7454 239.35 14.7861C239.35 14.7861 239.454 14.8244 239.519 14.8457L239.713 14.7307ZM28.6684 14.9352C28.6034 14.9139 28.5384 14.8755 28.4864 14.8798C28.3571 14.892 28.2344 14.9107 28.1226 14.9352C28.1226 14.9352 28.2525 14.9906 28.3045 14.9906C28.3564 14.9906 28.5254 14.9522 28.6684 14.9352ZM35.8938 16.0172L36.0888 16.0811C36.1609 16.0439 36.2177 16.0038 36.2577 15.9618C36.2577 15.9618 36.1537 15.9235 36.0888 15.9022L35.8938 16.0172Z" fill="#FFC906"/>
</svg>
