<svg width="281" height="16" viewBox="0 0 281 16" fill="none" xmlns="http://www.w3.org/2000/svg">
<path d="M13.5478 9.64102C13.4223 9.73303 13.952 9.75688 14.0913 9.85571L13.3526 9.91024C12.7216 9.81111 12.2568 9.65998 12.0425 9.48425L11.3038 9.64102L11.025 9.21503H9.018L7.90295 9.48425C7.82434 9.42891 7.72642 9.37532 7.61027 9.32408C7.35939 9.23207 7.0667 9.14346 6.74613 9.03782L6.16073 9.33771H5.47779L5.08753 9.06849L3.94462 9.05486L1.72852 8.56412L1.79819 8.38691C2.64137 8.35419 3.49659 8.34391 4.34883 8.35624L5.07358 8.51641L5.38021 8.1211C5.79835 8.02909 6.31405 8.10065 6.77399 8.07339L7.38726 7.94389L8.12596 8.09043L8.37683 7.67126C9.38035 7.74964 9.61732 8.02909 10.6208 8.0768C10.9135 8.20289 10.9135 8.20289 11.6244 8.18585C11.6244 8.16881 11.7916 8.15177 11.7916 8.13473C11.7916 7.89959 11.7916 7.66785 11.7916 7.45316L11.1923 7.29299C11.1923 7.18734 11.1923 7.09192 11.8195 7.09533C12.4467 7.09874 13.1296 7.31684 13.7289 7.63037C13.9938 7.64741 14.2725 7.66104 14.5234 7.68148C14.7743 7.70193 14.6767 7.71216 14.7325 7.72579V7.87232L15.5687 8.06998C16.3214 7.98819 16.4468 7.80076 16.8231 7.65422C17.1995 7.50768 18.0775 7.49746 18.6629 7.39863L19.0811 7.50087C19.6107 7.4702 19.541 7.36114 19.3877 7.2998C19.2344 7.23846 18.6629 7.14304 18.9556 7.00331C19.5549 6.90108 20.2658 6.97264 20.9069 6.9556L21.5341 6.81588C22.1334 6.75795 22.3425 6.90789 22.7328 6.93856L23.4994 6.78862L24.5029 6.93516L25.2416 6.77158C25.2416 6.7375 25.158 6.6932 25.0465 6.67275C24.1645 6.50913 23.1209 6.40565 22.022 6.37286C21.5759 6.22632 21.9104 6.05933 21.7989 5.89235L20.6421 5.75944V5.6129C21.5063 5.35731 22.9419 5.32664 23.9315 5.11535H27.4298L27.9734 4.98585H32.1547L32.6704 4.86316C33.5624 4.78478 34.5659 4.91087 35.5276 4.76093C34.6683 4.69435 33.7607 4.67344 32.8656 4.69959C31.9875 4.69959 31.0954 4.69959 30.2173 4.69959H25.1022L24.5308 4.56327H13.952L13.2969 4.42014H8.59984L8.0702 4.29405H6.31406L5.74261 4.15774L4.34883 4.11684L4.09792 3.86466L2.95505 3.64996C3.1223 3.38755 4.01431 3.30917 4.55789 3.1456H5.67289L6.28616 3.0195H8.02839L8.78104 3.15922L8.9901 2.92067C9.53367 2.79799 10.2585 2.89341 10.9275 2.86615L11.5686 3.00246L12.3631 2.63441L10.6905 2.23228L12.6 1.77563C13.1436 1.70406 13.7289 1.75518 14.4258 1.73473L15.1785 1.60183H17.4504L18.0776 1.45188H23.3879L23.9315 1.32238H29.7853L30.4543 1.17584H38.6637L39.2909 1.03952L40.0296 1.19969L41.1028 1.06679L41.6324 1.16221L42.2179 1.04293L42.8172 1.16902L43.2213 1.08042C43.305 1.06338 43.3747 1.03612 43.4444 1.03612H55.2079L55.64 0.933879C55.7236 0.933879 55.7933 0.899803 55.8769 0.899803H72.2399L72.8113 0.763485H81.7175C81.829 0.698735 81.8987 0.657842 81.9684 0.627172C83.4876 0.627172 85.0069 0.603315 86.5261 0.582867C86.5261 0.582867 86.5261 0.552197 86.6376 0.535157C85.0854 0.430577 83.4321 0.46316 81.9684 0.627172C81.6761 0.622156 81.3827 0.622156 81.0903 0.627172L80.4771 0.490853C79.8359 0.436327 79.6408 0.589683 79.0833 0.640801L77.9822 0.501076H71.543L70.9715 0.633984H55.64L55.1242 0.756667C54.4423 0.788208 53.7393 0.778858 53.0754 0.729409V0.552198C53.1869 0.524935 53.2566 0.494264 53.3262 0.494264H62.7203L63.3615 0.35454L63.9747 0.484041L64.4904 0.361357L65.1316 0.48063H66.9713C67.2222 0.48063 67.3895 0.296606 68.0585 0.35454L68.6578 0.484041L69.2711 0.351134H89.8712L90.4983 0.21141L91.014 0.3375L91.6552 0.221633H94.0804L94.5682 0.340906L95.1954 0.218227L95.7948 0.344317L96.1989 0.252303C96.3609 0.232069 96.535 0.218267 96.7146 0.21141H116.409L117.022 0.0785025L117.635 0.204592C118.318 0.262526 118.472 0.0887232 119.141 0.0648681L119.991 0.194369L120.506 0.0853145H183.742L184.23 0.207998L184.857 0.0716853H186.53L187.143 0.207998H188.3L188.913 0.0785025H193.095L193.582 0.194369L194.544 0.0546449L195.45 0.194369L196.021 0.0716853H197.178L197.792 0.204592L198.53 0.0478328L199.576 0.18074L200.44 0.0546449L201.318 0.190963L202.224 0.0410156L203.102 0.204592L203.827 0.0478328L205.109 0.207998H211.98L212.231 0.35454H210.837L210.21 0.490853L209.778 0.38521C205.325 0.318402 200.859 0.328649 196.412 0.415879C196.412 0.415879 196.481 0.456774 196.551 0.463589C196.72 0.480589 196.899 0.490945 197.081 0.494264H207.283L207.869 0.633984H213.764L214.378 0.780525H222.043L222.657 0.927061H231.493L232.023 1.05316H235.535L236.176 1.19969H238.518L239.159 1.34282H243.257L243.772 1.46551C244.72 1.5064 245.793 1.46551 246.839 1.49277L247.354 1.61545H251.536L252.107 1.75177L252.72 1.6325L253.334 1.75859H256.219L256.971 1.96988C256.971 1.96988 256.818 2.04144 256.721 2.04144C255.55 2.04144 254.379 2.04144 253.208 2.04144C253.208 2.04144 253.069 2.07211 252.999 2.08915C253.139 2.20843 253.599 2.1539 253.905 2.18798L254.978 2.44698L255.606 2.31748H258.532L259.146 2.4538H260.888L261.543 2.60033H262.672L263.341 2.74346H265.055L265.85 3.1047L265.348 3.2342C265.752 3.35007 266.282 3.2785 266.742 3.30235L267.982 3.0195H269.153C269.836 3.16945 269.306 3.26487 268.805 3.38074C269.488 3.45038 270.244 3.46587 270.965 3.42504L271.676 3.29213L271.829 3.53068L270.686 3.62611L271.118 3.82035C270.7 3.92259 270.185 3.82035 269.794 3.87147L269.056 3.71471L268.805 3.91577C269.531 3.97555 270.167 4.08713 270.631 4.23612C270.275 4.25428 269.932 4.28529 269.613 4.32813C269.292 4.38606 269.042 4.45422 268.568 4.42355C267.941 4.33835 268.484 4.17137 268.15 4.04528C267.815 3.91918 267.453 4.02483 267.09 4.00779V3.60225L266.407 3.5375C265.669 3.59884 265.515 3.80672 264.749 3.82717C263.982 3.84762 263.815 3.96349 263.55 4.08276C263.48 4.30427 264.707 4.32813 264.721 4.5326H263.773C263.717 4.59339 263.638 4.65273 263.536 4.70981C263.397 4.77797 263.188 4.83931 263.021 4.90406L263.843 5.08809L264.721 4.89043V4.5326L265.278 4.58713V5.04038C265.209 5.10513 264.47 5.1392 264.902 5.34708L265.501 5.49703C266.101 5.46636 266.254 5.30619 267.09 5.24485H267.913L268.596 5.09149C268.898 5.17544 269.178 5.26424 269.432 5.35731C269.738 5.49021 269.878 5.64698 270.226 5.76966C270.602 5.88187 271.022 5.98461 271.481 6.07637H273.335L274.296 6.36604H275.118L275.439 6.57733L274.171 6.81247V7.15326L273.599 7.30321L274.143 7.44974C274.226 7.56902 273.99 7.6917 274.45 7.79053L275.035 7.49405L275.829 7.86551L275.369 7.9916L275.927 8.13814V8.42099C275.76 8.44144 275.606 8.48574 275.453 8.48574H268.554L267.927 8.63569H265.404C265.515 8.80949 266.115 8.8572 266.421 8.97648C266.338 9.00374 266.24 9.05826 266.143 9.05826C264.582 9.05826 263.021 9.05826 261.459 9.05826L260.804 9.37179L258.532 9.09235L256.219 9.3752L255.606 9.06168H254.992C254.491 9.15028 254.783 9.27978 254.686 9.40246L253.919 9.59671L252.525 9.6342C252.456 9.6342 252.316 9.66828 252.316 9.68532C252.316 9.87275 252.316 10.0602 252.316 10.2442L251.731 10.3976L252.581 10.5986L253.208 10.4623H254.602C254.783 10.5237 254.937 10.5986 255.118 10.602C255.55 10.602 256.038 10.6497 256.428 10.5441C255.94 10.3942 255.257 10.493 254.602 10.4623C254.93 10.3396 255.219 10.2109 255.466 10.0772L256.372 10.0022L256.525 9.66146C256.916 9.55582 257.445 9.63079 257.919 9.60693L258.56 9.75006H259.787L260.107 9.96476L258.254 10.326V10.5271C258.644 10.6395 259.16 10.5816 259.648 10.5918C260.135 10.602 260.442 10.5918 260.832 10.5918H262.226C262.324 10.3976 261.752 10.4862 261.25 10.3158C261.334 10.3771 261.25 10.2919 261.083 10.2204C260.916 10.1488 260.763 10.1829 260.595 10.1658V9.6785L259.898 9.50129L261.055 9.45699L261.25 9.68872L262.644 10.0295L263.564 10.0738V10.5237L264.456 10.7486H265.655C266.352 10.602 265.655 10.4078 266.045 10.234L266.533 10.1829V10.5237L267.16 10.6804L265.766 10.9633C265.975 11.0485 266.17 11.1166 266.324 11.1916C266.477 11.2666 266.575 11.3484 266.686 11.4233C267.272 11.4745 267.341 11.4642 267.69 11.3041C267.857 11.3041 268.136 11.2802 268.164 11.2564C268.233 11.1746 267.982 11.1609 267.69 11.1643C267.69 11.0144 268.345 11.0042 268.47 10.8713L269.864 11.1677H271.16L271.3 11.4063C270.546 11.4184 269.81 11.4679 269.137 11.5516C268.463 11.6354 267.867 11.7518 267.383 11.8936L265.822 11.7096C264.874 11.8732 265.947 12.1424 265.083 12.2889L264.247 12.0879C264.47 11.9959 265.111 11.9481 264.637 11.7471C264.01 11.6653 263.118 11.7471 262.087 11.7096L261.306 11.8936C261.139 12.1663 262.156 12.1867 262.324 12.3741L261.71 12.5309C260.567 12.6877 259.801 12.323 258.407 12.4764L257.738 12.5922L256.776 12.4218H255.146L254.379 12.5616C253.599 12.5616 253.376 12.3298 252.567 12.4491L252.386 12.6263L253.334 12.8308C254.17 12.9398 254.727 12.7115 255.592 12.6911L256.261 12.841L256.874 12.7047C257.71 12.6638 258.114 12.9603 259.355 12.8001L259.745 12.7251L260.707 12.8615L261.641 12.7081L262.296 12.9262L261.32 13.0421C261.459 13.1579 261.947 13.1034 262.226 13.1443C262.425 13.1779 262.616 13.2143 262.797 13.2534L263.188 13.1443L263.926 13.2943H266.714L264.066 13.4783L265.251 13.618C264.874 13.8054 263.857 13.618 263.453 13.7986C264.398 13.8442 265.364 13.8579 266.324 13.8395C267.266 13.8208 268.214 13.8486 269.111 13.9213C268.162 13.9755 267.186 13.9962 266.212 13.9827L265.097 14.1803C266.17 14.3507 267.23 14.1803 268.15 14.32L267.592 14.4768L268.749 14.6097V14.7562L267.09 14.9607H265.599L264.916 15.1073H259.076L258.421 15.2504H246.058L245.501 15.3833C243.8 15.4106 241.96 15.3833 240.135 15.4003L239.605 15.5264H227.228L226.601 15.673H205.429L204.816 15.8195H140.535L139.991 15.949H121.134L120.548 15.8229L119.642 15.9865L118.681 15.8127H62.1349L61.6053 15.6832H52.1694L51.5561 15.5332H48.0159L47.4584 15.4003H43.2074L41.8136 14.9641H39.2212C38.5243 14.8108 39.1097 14.7188 39.5139 14.6233V14.3439C40.2526 14.2076 40.601 13.9486 41.7997 13.9724C41.7817 13.9133 41.6909 13.8569 41.5391 13.8106C41.3873 13.7644 41.1817 13.7305 40.9495 13.7134C40.3641 13.693 40.1689 13.6589 40.0714 13.5124C40.0714 13.4204 39.486 13.3454 39.2769 13.2874C38.134 13.2397 38.5243 13.4715 38.0783 13.5533L37.4511 13.4238H35.7228C35.3883 13.4544 35.3047 13.5839 34.8029 13.5635C34.8029 13.5226 34.7053 13.4544 34.6078 13.451C34.2593 13.4306 34.2035 13.4919 34.2175 13.5635C34.1507 13.5587 34.0802 13.5578 34.0117 13.5609C33.9432 13.5639 33.8787 13.5709 33.8231 13.5811C33.7676 13.5914 33.7226 13.6047 33.6918 13.62C33.6611 13.6353 33.6454 13.6521 33.6461 13.6691C33.6461 13.7645 33.646 13.8532 34.2175 13.8429C34.2872 13.8838 34.343 13.9588 34.4266 13.9588C35.2629 13.9588 35.8203 14.2178 37.1026 14.0917L37.7856 13.9349L37.1166 13.7373L38.0086 13.6964C38.7334 13.8327 38.0086 14.0133 38.3431 14.1599L38.9564 14.3916H37.5626C36.4197 14.6131 38.1201 14.7085 37.7577 14.8857C37.1027 14.9914 37.1027 14.9914 36.364 14.8483L35.444 14.988L34.2175 14.8142L33.2837 14.9641C33.2837 14.9164 33.0189 14.8517 33.0747 14.8108C33.1543 14.7447 33.2987 14.6844 33.4955 14.6351C33.6923 14.5858 33.9354 14.549 34.2036 14.5279C34.3012 14.6199 34.2036 14.729 34.775 14.6336L34.2036 14.5279C34.4545 14.3234 33.6043 14.1871 33.3952 13.9997C33.2558 13.9086 33.0832 13.8208 32.8795 13.7373C32.5713 13.725 32.277 13.6972 32.0154 13.6555C31.6948 13.5942 31.4299 13.5396 30.9979 13.5635L29.186 13.1443L28.5866 13.2602C27.9594 13.284 27.2904 13.3215 26.8165 13.1409H25.0325L24.3914 13.2806L23.583 13.0319V12.7694L22.3704 12.5548V12.1697L20.4888 11.8016L20.8094 11.5767L21.4784 11.7198L22.0917 11.5903L22.9419 11.7948V11.9379L24.3356 12.2787C24.6701 12.2549 24.7538 12.1254 25.2416 12.1492C25.2416 12.2889 25.7712 12.3332 26.0918 12.4116C26.4124 12.49 26.5935 12.4116 26.8165 12.4116C27.2625 12.2037 26.8166 12.0708 26.5099 11.9073C26.9281 11.8118 27.4438 11.8868 27.9037 11.8561C28.3358 11.6857 28.4612 11.4608 29.7017 11.3756L28.3776 11.27L27.9873 11.0178C27.834 11.0519 27.6249 11.0757 27.611 11.103C27.5903 11.1904 27.5903 11.278 27.611 11.3654C27.165 11.4881 26.6493 11.4131 26.2172 11.437L25.5761 11.2972H23.2484L22.6352 11.1609L22.022 11.287C21.6456 11.1984 21.3251 11.0587 20.9488 11.0451C20.3216 11.0246 20.0149 10.8985 19.4714 10.8747C19.1654 10.8678 18.8574 10.8678 18.5515 10.8747L17.9103 11.0178H17.3528C17.1579 11.0144 16.9623 11.0144 16.7674 11.0178C16.7674 11.0178 16.628 11.0485 16.5583 11.0621L14.9137 11.2836L14.4537 11.1746H12.9345L11.1644 10.9428C11.7219 10.8065 12.4885 10.6975 12.7672 10.5373C12.986 10.39 13.379 10.2618 13.8962 10.1692C14.5513 10.1522 14.7882 10.2272 14.6767 10.3873L15.5548 10.5782H17.4364L17.8406 10.3056L18.5236 10.4521H20.3076L21.1299 10.2408L20.0149 10.1113C20.1264 10.0261 20.67 10.0022 20.5724 9.88979C21.4784 9.9375 22.0499 9.74325 22.8025 9.70235C22.6213 9.5933 22.454 9.48084 22.231 9.36157C22.231 9.3343 21.9244 9.3309 21.785 9.33431C21.6874 9.2457 21.785 9.13665 21.2136 9.23207C21.3959 9.26879 21.5867 9.30293 21.785 9.33431C21.7679 9.4024 21.7679 9.47068 21.785 9.53878C21.4226 9.62397 21.0045 9.71599 20.6142 9.81141C20.6142 9.81141 20.6142 9.85571 20.6142 9.87957H19.0671L18.7466 10.1147C18.5035 10.153 18.2204 10.1734 17.9312 10.1734C17.642 10.1734 17.359 10.153 17.1159 10.1147L17.6176 9.96817C17.4503 9.87616 16.851 9.82845 17.088 9.68532L17.6734 9.53537V9.19458C17.8632 9.19832 18.0539 9.19132 18.2309 9.17414C18.3284 9.26274 18.2309 9.37179 18.7884 9.27637C18.6111 9.23958 18.425 9.20544 18.2309 9.17414C18.4499 9.11101 18.6414 9.04248 18.8023 8.96966L16.7117 8.47211C16.3075 8.64591 16.628 8.83335 16.3632 8.99693C16.148 9.06542 15.9959 9.14446 15.9172 9.22866C15.9172 9.29341 16.1263 9.35135 16.4886 9.33431C16.419 9.46721 16.6559 9.60693 16.2517 9.75006L15.6245 9.63079L15.0112 9.75348L14.4816 9.48425C14.1574 9.52706 13.8536 9.57849 13.5756 9.63761C13.4781 9.5456 13.5756 9.43654 13.0042 9.53196C13.173 9.57185 13.3548 9.60832 13.5478 9.64102ZM249.25 10.3396C249.71 10.309 250.156 10.3192 249.766 10.1965C249.626 10.234 249.487 10.2749 249.57 10.309C249.124 10.3396 248.665 10.3294 249.069 10.4521C249.138 10.418 249.25 10.3771 249.25 10.3396ZM28.8375 7.18393C28.963 7.29298 28.9211 7.40204 29.4368 7.30661C29.2696 7.27254 29.1163 7.24187 28.963 7.26232C28.8376 7.15326 28.8794 7.04421 28.3637 7.13963C28.4752 7.1703 28.6285 7.20438 28.7818 7.18393H28.8375ZM252.943 4.68255C253.334 4.65869 253.863 4.7507 254.072 4.60076C253.292 4.53941 253.292 4.53942 253.013 4.69618L252.902 4.66892L252.414 4.76774L252.595 4.81205C252.727 4.77412 252.827 4.73008 252.888 4.68255H252.943ZM24.8374 7.40885C24.7119 7.2998 24.7538 7.19075 24.2381 7.28617C24.3918 7.32225 24.5713 7.35113 24.7677 7.37137V7.71215L26.4681 7.91322V7.55198L25.6597 7.35774C25.3781 7.35213 25.0962 7.36758 24.8513 7.40203L24.8374 7.40885ZM29.4647 12.306C30.4264 12.2821 29.7992 12.5513 30.4125 12.5888C30.8585 12.565 31.3742 12.6365 31.8063 12.5377L31.8759 12.398C31.4439 12.1867 30.4822 12.1594 29.5902 12.0265C29.5902 12.1322 29.5205 12.2174 29.5205 12.306C28.9072 12.3912 28.9072 12.3912 29.172 12.5752C29.7156 12.5173 29.3254 12.3912 29.409 12.2992L29.4647 12.306ZM35.7367 6.82611C36.2803 6.76817 36.8099 6.66594 37.2699 6.67616C37.7298 6.68638 38.2316 6.57051 38.6637 6.55006L39.0819 6.6489H45.758L46.6222 6.42738L46.3434 6.24336H45.6884L45.0611 6.38308H36.2524C35.9597 6.47169 35.458 6.5194 35.3326 6.66934L35.7367 6.82611ZM30.9421 6.96583C31.653 6.70001 32.6844 6.87041 33.4092 6.76136L34.8029 6.58074L34.5659 6.38989L33.4092 6.55006L32.6704 6.38308H30.9282L30.3289 6.51599L29.7714 6.40353L28.7818 6.55006L28.0292 6.40353C27.7569 6.45075 27.462 6.48966 27.1511 6.51939C26.7881 6.53967 26.4204 6.55447 26.05 6.5637C26.05 6.5637 26.05 6.59437 25.9803 6.60459L26.7887 6.80566H27.9594L28.5727 6.94197L29.2139 6.80566C29.7853 6.80906 30.4265 6.75113 30.8864 6.95901L30.9421 6.96583ZM36.4476 11.4813L35.249 11.6005C34.6218 11.6653 34.3011 11.5085 33.7297 11.4813L33.6043 11.6687C33.9801 11.7469 34.3297 11.8324 34.6496 11.9243C34.8183 12.0069 34.9491 12.0937 35.0399 12.1833H36.4336L36.7542 12.4116L37.7995 12.2583L37.7298 11.9447C37.0469 11.7812 36.4197 11.6823 36.3919 11.4745L36.4476 11.4813ZM256.776 5.9605C256.33 5.98436 255.815 5.91279 255.271 6.03548C255.55 6.1309 254.964 6.27744 255.62 6.37626H257.362L257.975 6.24336L258.63 6.38308L259.787 6.35922C259.857 6.35922 259.926 6.32856 260.01 6.30811C259.383 6.18202 259.02 5.96732 258.059 5.94346L257.376 6.08659L256.776 5.9605ZM39.2072 12.0265C39.8763 12.0061 40.601 12.0674 41.2282 11.9754C41.0158 11.9139 40.842 11.845 40.7126 11.7709C40.5871 11.6687 40.8798 11.5426 40.3781 11.4608C39.7369 11.4779 38.9843 11.4165 38.385 11.5085V11.8187L39.2072 12.0265ZM251.062 9.72281C251.062 9.52515 250.198 9.70576 250.086 9.57967L249.766 9.34112C249.222 9.36838 248.72 9.29682 248.205 9.41609C248.205 9.5047 248.205 9.61034 248.316 9.71939C248.316 9.73984 248.442 9.75347 248.497 9.76711C249.292 9.76711 250.058 9.76711 250.839 9.76711C250.867 9.76029 250.936 9.73644 251.02 9.71599L251.062 9.72281ZM268.763 6.87382C268.86 6.93857 268.526 7.05784 268.568 7.05784L270.631 6.7375C270.435 6.58755 270.756 6.45805 270.212 6.37626C269.766 6.40012 269.237 6.32514 268.819 6.42738C268.4 6.52962 268.958 6.64208 269.306 6.72387L268.763 6.87382ZM251.355 3.69767C251.633 3.61929 252.079 3.57499 252.177 3.4489C251.745 3.41482 251.647 3.26146 251.062 3.27169C249.668 3.51024 249.668 3.56817 250.226 3.69767H251.355ZM261.404 6.37626H262.658C262.799 6.32445 262.974 6.27844 263.174 6.23995C263.425 6.20587 263.926 6.28425 263.968 6.09341H260.874C260.763 6.09341 260.679 6.14794 260.581 6.1752L261.404 6.37626ZM244.901 9.76029C245.347 9.73644 245.863 9.81141 246.295 9.71258C246.295 9.57285 245.766 9.63761 245.459 9.61375C244.915 9.48084 244.372 9.34794 243.814 9.21844C243.814 9.21844 243.675 9.21844 243.605 9.21844C243.494 9.41269 243.494 9.41269 244.943 9.76029H244.901ZM265.975 6.32855L265.724 6.03548L264.749 6.31833C265.517 6.44442 266.318 6.55825 267.146 6.65912C267.316 6.64523 267.48 6.62695 267.634 6.60459C267.369 6.40353 266.379 6.42057 265.975 6.32855ZM27.4995 10.326C25.9385 10.326 25.9385 10.326 25.2973 10.4351C25.59 10.4522 25.8887 10.4625 26.1894 10.4657C26.8433 10.4874 27.5086 10.4746 28.1406 10.4282C28.2521 10.2953 28.4752 10.1624 27.9177 10.0329L27.4995 10.326ZM21.7711 10.251C22.0917 10.3158 22.2868 10.4214 22.9419 10.4521C22.9419 10.2919 22.9419 10.1352 22.9419 9.9818C22.9419 9.96136 22.7188 9.94091 22.5934 9.91705C22.3286 10.0125 21.7571 10.0466 21.7711 10.251ZM253.431 9.26615C253.153 9.2048 252.888 9.14005 252.623 9.0753C252.093 9.0753 251.522 8.99693 251.02 9.14006C251.37 9.15856 251.711 9.18598 252.038 9.22185C252.344 9.26956 252.539 9.35816 252.999 9.33431L253.431 9.26615ZM255.815 3.75901C256.107 3.83399 256.302 3.93281 256.79 3.95326L257.501 3.77264L256.693 3.55113L255.815 3.75901ZM31.8202 11.7232L31.5973 11.4438L30.4961 11.4949L30.6773 11.7232H31.8202ZM87.0418 0.535157C88.4356 0.599907 88.4356 0.596499 88.8816 0.49767C88.5909 0.461542 88.2649 0.445913 87.94 0.452534C87.615 0.459155 87.304 0.487764 87.0418 0.535157ZM259.564 4.5769C259.912 4.46104 260.386 4.42014 260.456 4.30087C260.377 4.28475 260.286 4.27271 260.188 4.2655C260.09 4.25828 259.987 4.25604 259.885 4.25891C259.784 4.26178 259.685 4.26971 259.596 4.28219C259.508 4.29468 259.43 4.31147 259.369 4.33154L259.564 4.5769ZM250.463 9.0276C249.236 8.90832 249.236 8.91173 248.818 9.0276C249.099 9.0398 249.383 9.04777 249.668 9.05145C249.935 9.04852 250.201 9.04054 250.463 9.0276ZM254.644 12.2276C254.403 12.1717 254.084 12.1406 253.752 12.1406C253.42 12.1406 253.101 12.1717 252.86 12.2276C252.978 12.2571 253.119 12.2805 253.274 12.2965C253.43 12.3124 253.597 12.3207 253.766 12.3207C253.935 12.3207 254.102 12.3124 254.257 12.2965C254.413 12.2805 254.554 12.2571 254.672 12.2276H254.644ZM35.5416 12.8819C36.0015 12.766 35.9737 12.6877 35.6252 12.582L34.9841 12.6059L35.5416 12.8819ZM242.365 3.39437H242.741C242.741 3.33303 242.825 3.26828 242.839 3.20693C242.853 3.14559 242.685 3.15923 242.643 3.16264C242.602 3.16604 242.281 3.19331 242.267 3.21035C242.281 3.27262 242.323 3.33433 242.393 3.39437H242.365ZM245.25 3.34325C244.706 3.25465 244.33 3.21034 244.093 3.3637C244.469 3.44208 244.79 3.43527 245.278 3.34325H245.25ZM261.195 4.00438V4.09639C261.446 4.09639 261.71 4.11343 261.975 4.11684C262.24 4.12025 262.184 4.08276 262.17 4.07254C262.156 4.06232 262.031 3.98393 261.961 3.98393C261.713 3.98637 261.466 3.9932 261.223 4.00438H261.195ZM262.895 4.47126C262.828 4.44806 262.739 4.42912 262.636 4.41605C262.533 4.40298 262.419 4.39616 262.303 4.39616C262.187 4.39616 262.072 4.40298 261.969 4.41605C261.866 4.42912 261.777 4.44806 261.71 4.47126C261.774 4.49664 261.863 4.51761 261.969 4.53215C262.075 4.5467 262.195 4.55434 262.317 4.55434C262.438 4.55434 262.558 4.5467 262.664 4.53215C262.77 4.51761 262.859 4.49664 262.923 4.47126H262.895ZM264.735 6.68638V6.77499C264.998 6.78517 265.263 6.79199 265.529 6.79543C265.529 6.79543 265.724 6.76136 265.71 6.75113C265.697 6.74091 265.585 6.66593 265.501 6.66253C265.253 6.66464 265.005 6.67263 264.763 6.68638H264.735ZM35.5974 14.5654C35.9737 14.4393 36.1549 14.3507 35.5138 14.2894C35.2211 14.3746 35.235 14.4529 35.6252 14.5654H35.5974ZM43.8486 11.7335C43.7537 11.749 43.6759 11.7701 43.6222 11.7948C43.5684 11.8194 43.5403 11.8469 43.5403 11.8749C43.5403 11.9028 43.5684 11.9303 43.6222 11.955C43.6759 11.9797 43.7537 12.0007 43.8486 12.0163C43.948 12.0019 44.0308 11.9815 44.0892 11.9571C44.1476 11.9327 44.1797 11.905 44.1825 11.8768C44.1852 11.8485 44.1587 11.8205 44.1051 11.7954C44.0516 11.7704 43.9729 11.7491 43.8765 11.7335H43.8486ZM249.348 8.71407C249.412 8.73797 249.5 8.75758 249.604 8.77114C249.707 8.7847 249.823 8.7918 249.94 8.7918C250.057 8.7918 250.173 8.7847 250.276 8.77114C250.379 8.75758 250.467 8.73797 250.532 8.71407C250.467 8.69017 250.379 8.67056 250.276 8.657C250.173 8.64344 250.057 8.63634 249.94 8.63634C249.823 8.63634 249.707 8.64344 249.604 8.657C249.5 8.67056 249.412 8.69017 249.348 8.71407ZM263.592 8.53005V8.61865C263.85 8.62883 264.111 8.63566 264.372 8.6391C264.372 8.6391 264.582 8.60502 264.568 8.59479C264.554 8.58457 264.442 8.50619 264.359 8.50619C264.102 8.50408 263.845 8.50864 263.592 8.51982V8.53005ZM240.595 3.2342L240.804 3.28532C240.881 3.25561 240.942 3.22352 240.985 3.18989C240.985 3.18989 240.873 3.15922 240.804 3.14218L240.595 3.2342ZM264.47 3.16264L264.094 3.21375C264.163 3.21375 264.247 3.26146 264.289 3.25806C264.427 3.24832 264.559 3.23337 264.679 3.21375L264.47 3.16264ZM249.138 3.54432L249.348 3.49661C249.221 3.47763 249.085 3.46273 248.943 3.4523C248.943 3.4523 248.818 3.47957 248.748 3.49661L249.138 3.54432ZM137.817 3.65678L137.608 3.56476C137.608 3.56476 137.413 3.60225 137.427 3.61247C137.473 3.64579 137.534 3.67778 137.608 3.70789L137.817 3.65678ZM254.895 3.68745L255.285 3.63633C255.285 3.63633 255.132 3.58862 255.09 3.59203C254.948 3.60246 254.812 3.61735 254.686 3.63633L254.895 3.68745ZM255.201 4.64506L254.978 4.55305C254.978 4.57009 254.783 4.58712 254.797 4.60076C254.846 4.6327 254.907 4.6635 254.978 4.69277L255.201 4.64506ZM75.9612 5.49021L75.7383 5.3982C75.7383 5.3982 75.5431 5.43569 75.5571 5.44591C75.6032 5.47923 75.6639 5.51122 75.7383 5.54133L75.9612 5.49021ZM64.6298 5.831L64.2535 5.88212C64.2535 5.89916 64.3929 5.92983 64.4347 5.92643C64.5767 5.916 64.7126 5.9011 64.8389 5.88212L64.6298 5.831ZM51.4864 6.35582L51.8628 6.3047C51.8628 6.3047 51.7234 6.2604 51.6676 6.2604C51.5338 6.27309 51.4035 6.28789 51.2774 6.3047L51.4864 6.35582ZM21.116 7.31343L20.9069 7.22142C20.9069 7.22142 20.7118 7.2589 20.7257 7.26913C20.7719 7.30244 20.8326 7.33443 20.9069 7.36455L21.116 7.31343ZM38.594 7.36455C38.594 7.36455 38.3988 7.39863 38.4128 7.40885C38.4589 7.44216 38.5197 7.47416 38.594 7.50427C38.594 7.50427 38.7891 7.4702 38.7891 7.45997C38.7332 7.42154 38.6584 7.38491 38.5662 7.35092L38.594 7.36455ZM30.2313 7.52472L30.0223 7.57584C30.1454 7.59401 30.2763 7.60886 30.4125 7.62014C30.4125 7.62014 30.5519 7.58947 30.6076 7.57584L30.2313 7.52472ZM21.8686 8.01887L22.0777 8.06998C22.1551 8.04027 22.216 8.00819 22.2589 7.97456C22.2589 7.97456 22.1474 7.94389 22.0777 7.92685L21.8686 8.01887ZM19.5132 8.30171L19.7222 8.34943C19.7938 8.32015 19.8545 8.28936 19.9034 8.25742C19.9034 8.25742 19.778 8.22675 19.7222 8.20971L19.5132 8.30171ZM248.093 8.58116L247.884 8.49256C247.884 8.49256 247.689 8.52664 247.703 8.53686C247.743 8.57077 247.804 8.60296 247.884 8.63228L248.093 8.58116ZM246.462 9.39565L246.671 9.48425C246.741 9.48425 246.867 9.45017 246.853 9.43995C246.813 9.40604 246.752 9.37385 246.671 9.34453L246.462 9.39565ZM28.9072 10.1011L29.1163 10.1897C29.1163 10.1897 29.3114 10.1556 29.2975 10.1454C29.2513 10.1121 29.1906 10.0801 29.1163 10.05L28.9072 10.1011ZM256.484 10.2817L256.693 10.3328C256.772 10.3028 256.837 10.2708 256.888 10.2374C256.888 10.2374 256.762 10.2067 256.693 10.1897L256.484 10.2817ZM42.9705 11.5051L42.7614 11.454C42.6826 11.484 42.6173 11.516 42.5663 11.5494C42.5663 11.5494 42.6917 11.5801 42.7614 11.5937L42.9705 11.5051ZM32.8098 11.7164L33.0328 11.6653C32.9065 11.6463 32.7706 11.6314 32.6286 11.621C32.6286 11.621 32.5032 11.6483 32.4335 11.6653L32.8098 11.7164ZM258.17 11.7846L257.961 11.7369C257.884 11.7654 257.823 11.7963 257.78 11.8289C257.78 11.8289 257.891 11.8595 257.961 11.8766L258.17 11.7846ZM31.8202 11.9482C31.7505 11.9311 31.6808 11.9004 31.6251 11.9038C31.4864 11.9136 31.3548 11.9285 31.2349 11.9482C31.2349 11.9482 31.3742 11.9925 31.4299 11.9925C31.4857 11.9925 31.6669 11.9618 31.8202 11.9482ZM39.5696 12.8138L39.7787 12.8649C39.8561 12.8352 39.917 12.8031 39.9599 12.7694C39.9599 12.7694 39.8484 12.7388 39.7787 12.7217L39.5696 12.8138Z" fill="#FFC906" fill-opacity="0.7"/>
<path d="M278.798 4.38938C278.822 4.31907 278.822 4.2484 278.798 4.17809L279.676 4.0929L280.972 4.50184L280.624 4.60749C280.624 4.6995 280.54 4.81196 280.484 4.94827C280.206 4.94827 279.816 4.99258 279.69 4.94827C279.035 4.81196 278.45 4.66201 277.767 4.49844L276.596 4.66883L275.815 4.39279H274.84L274.645 4.16787L275.774 4.06223C275.551 3.97021 275.341 3.88161 275.105 3.77596L276.15 3.63965C276.359 3.74188 276.596 3.84412 276.819 3.94636L276.443 4.04519C276.862 4.08966 277.272 4.13972 277.669 4.19513C278.059 4.25648 278.254 4.37916 278.756 4.37916C278.854 4.46095 278.756 4.57 279.328 4.47458C279.164 4.44151 278.987 4.41294 278.798 4.38938Z" fill="#FFC906" fill-opacity="0.7"/>
<path d="M45.0754 0.735906L44.4482 0.872225L43.9465 0.752947H40.2669L39.8348 0.855184L38.8452 0.71546L37.8974 0.872225H36.8243C36.3504 0.787028 36.3922 0.691603 36.8243 0.596182L37.4376 0.729094L37.9811 0.602999H49.1313L50.0233 0.429199L51.3196 0.609816L52.1976 0.466686C52.56 0.514396 52.5182 0.596184 52.3928 0.677973C52.3092 0.701828 52.2394 0.7325 52.1697 0.7325L45.0754 0.735906Z" fill="#FFC906" fill-opacity="0.7"/>
<path d="M30.6072 0.87601L30.3981 1.00551H23.2899L22.7463 1.13501C22.0334 1.16579 21.3072 1.17381 20.5859 1.15886C20.6556 1.11797 20.6835 1.06004 20.795 1.043C21.1992 0.99188 21.6173 0.9578 22.3699 0.882827H24.8509L25.8266 0.722656L27.1367 0.896456L27.9869 0.746509L28.5862 0.87601H30.6072Z" fill="#FFC906" fill-opacity="0.7"/>
<path d="M274.241 3.91216L272.735 4.17116C273.042 4.30066 273.265 4.39267 273.516 4.51194V4.76413L272.122 5.10492C271.787 5.00268 271.119 4.95156 271.244 4.76413L272.345 4.63463C272.693 4.46764 271.969 4.39608 271.718 4.31429C272.498 4.00417 272.958 3.8883 273.627 3.84741C273.711 3.83378 273.892 3.87467 274.241 3.91216Z" fill="#FFC906" fill-opacity="0.7"/>
<path d="M216.342 0.453208H217.192L217.819 0.316895L218.335 0.442984H224.245C224.335 0.45758 224.411 0.476867 224.468 0.499477C224.524 0.522087 224.56 0.547466 224.572 0.573812C224.584 0.600157 224.572 0.626825 224.537 0.651921C224.502 0.677017 224.445 0.699925 224.37 0.719022H222.976L222.461 0.596338H216.509L216.342 0.453208Z" fill="#FFC906" fill-opacity="0.7"/>
<path d="M276.485 6.94189H278.52L279.398 7.18045L278.366 7.3338C278.129 7.49738 278.366 7.60643 277.781 7.63029L277.405 7.38492L276.011 7.34743C275.788 7.29631 275.788 7.29631 276.373 7.14978L276.485 6.94189Z" fill="#FFC906" fill-opacity="0.7"/>
<path d="M228.719 0.695007L228.858 0.425781L229.597 0.592769L230.21 0.456456L230.712 0.57914C231.701 0.64389 232.858 0.541651 234.029 0.630256C233.109 0.763163 232.649 0.76998 228.719 0.695007Z" fill="#FFC906" fill-opacity="0.7"/>
<path d="M212.217 0.313296C213.443 0.313296 214.67 0.313296 215.896 0.313296C215.967 0.311985 216.037 0.314879 216.101 0.321735C216.166 0.328592 216.223 0.339199 216.267 0.352634C216.311 0.366069 216.341 0.381925 216.354 0.398826C216.367 0.415726 216.363 0.43316 216.342 0.449609H215.478L214.879 0.585922L214.21 0.439386H212.426L212.217 0.313296Z" fill="#FFC906" fill-opacity="0.7"/>
<path d="M8.54378 7.45634L7.27547 7.51769L6.77369 7.78691H6.14647C5.53321 7.66082 6.49492 7.63355 6.45311 7.53813C6.43257 7.45642 6.43257 7.37448 6.45311 7.29277L6.73188 7.22461C7.03851 7.3507 7.62388 7.3507 8.54378 7.45634Z" fill="#FFC906" fill-opacity="0.7"/>
<path d="M36.0014 0.790716C35.6948 0.84865 35.6251 0.875913 35.5554 0.875913H32.6424C32.5727 0.875913 32.517 0.845241 32.4473 0.831609C33.2138 0.715741 33.2138 0.715743 36.0014 0.790716Z" fill="#FFC906" fill-opacity="0.7"/>
<path d="M14.691 1.29834C14.4087 1.37492 14.0652 1.43651 13.6816 1.4793C13.298 1.52209 12.8825 1.54517 12.4609 1.54711C12.4609 1.42102 12.9767 1.38354 13.2275 1.29834H14.691Z" fill="#FFC906" fill-opacity="0.7"/>
<path d="M19.3602 5.36719V5.64664L18.3985 5.69094L18.1895 5.42513L19.3602 5.36719Z" fill="#FFC906" fill-opacity="0.7"/>
<path d="M259.327 1.84375V2.11638L258.365 2.16069L258.156 1.89487L259.327 1.84375Z" fill="#FFC906" fill-opacity="0.7"/>
<path d="M14.6914 1.27101C15.444 1.10062 16.2246 1.18582 17.0051 1.20285C16.3082 1.35962 15.458 1.25397 14.6914 1.27101Z" fill="#FFC906" fill-opacity="0.7"/>
<path d="M10.1739 7.2417C10.7592 7.2417 10.4387 7.3712 10.592 7.43254C10.7453 7.49389 10.9962 7.51774 11.4422 7.60294L10.2157 7.64724C10.0519 7.58759 9.96102 7.51777 9.95362 7.44596C9.94621 7.37414 10.0226 7.30329 10.1739 7.2417Z" fill="#FFC906" fill-opacity="0.7"/>
<path d="M272.832 3.26123L274.226 3.32257C273.752 3.41117 273.571 3.52023 273.027 3.54068L272.832 3.26123Z" fill="#FFC906" fill-opacity="0.7"/>
<path d="M267.062 3.9772V4.22938C266.393 4.25323 266.407 4.08625 265.961 4.07943C266.128 3.90904 266.672 4.00446 267.062 3.9772Z" fill="#FFC906" fill-opacity="0.7"/>
<path d="M267.006 4.9654C267.006 4.83931 267.131 4.76093 267.201 4.65869C267.522 4.73366 267.731 4.77456 267.912 4.82227C267.995 4.85219 268.065 4.88417 268.121 4.91769L267.647 4.9654C267.434 4.96955 267.219 4.96955 267.006 4.9654Z" fill="#FFC906" fill-opacity="0.7"/>
<path d="M3.48438 8.0699V7.87224C3.79101 7.73592 4.20912 7.80408 4.72482 7.78704C4.3485 7.94721 4.05582 8.04945 3.48438 8.0699Z" fill="#FFC906" fill-opacity="0.7"/>
<path d="M31.821 14.6984H30.9986C30.4829 14.6235 30.5108 14.5314 30.8593 14.4326C31.0969 14.4541 31.3091 14.4896 31.4769 14.5359C31.6448 14.5823 31.7629 14.6381 31.821 14.6984Z" fill="#FFC906" fill-opacity="0.7"/>
<path d="M225.723 0.534979C226.21 0.442966 226.531 0.436151 226.88 0.514533C226.643 0.654256 226.266 0.61336 225.723 0.534979Z" fill="#FFC906" fill-opacity="0.7"/>
<path d="M30.5664 0.896331C30.9567 0.732753 30.9567 0.732752 31.7372 0.794094C31.5142 0.940633 30.9845 0.841805 30.5664 0.896331Z" fill="#FFC906" fill-opacity="0.7"/>
<path d="M20.586 1.15881C20.2375 1.30194 20.2375 1.30194 19.457 1.2406C19.68 1.09065 20.2097 1.18266 20.586 1.15881Z" fill="#FFC906" fill-opacity="0.7"/>
<path d="M262.24 2.25943C261.985 2.27429 261.723 2.28229 261.46 2.28329C261.46 2.28329 261.293 2.22536 261.251 2.19128C261.209 2.1572 261.376 2.14697 261.446 2.14697C261.708 2.15156 261.968 2.15953 262.226 2.17083L262.24 2.25943Z" fill="#FFC906" fill-opacity="0.7"/>
<path d="M269.375 4.6243C269.515 4.58459 269.71 4.55858 269.922 4.55107C270.135 4.54356 270.351 4.55504 270.532 4.58341C270.267 4.74699 269.891 4.70609 269.375 4.6243Z" fill="#FFC906" fill-opacity="0.7"/>
<path d="M17.8823 5.95361C17.9772 5.9692 18.0549 5.99025 18.1086 6.01492C18.1624 6.03958 18.1905 6.0671 18.1905 6.09504C18.1905 6.12299 18.1624 6.1505 18.1086 6.17517C18.0549 6.19983 17.9772 6.22088 17.8823 6.23647C17.7844 6.22144 17.7037 6.20058 17.6478 6.17585C17.5918 6.15111 17.5625 6.12331 17.5625 6.09504C17.5625 6.06678 17.5918 6.03898 17.6478 6.01424C17.7037 5.9895 17.7844 5.96864 17.8823 5.95361Z" fill="#FFC906" fill-opacity="0.7"/>
<path d="M16.1687 6.22266C16.559 6.33852 16.5729 6.4169 16.2524 6.49869C15.6112 6.44076 15.7924 6.35216 16.1687 6.22266Z" fill="#FFC906" fill-opacity="0.7"/>
<path d="M31.8194 14.2042C31.7546 14.2281 31.6666 14.2477 31.5632 14.2613C31.4599 14.2748 31.3444 14.2819 31.2271 14.2819C31.1098 14.2819 30.9943 14.2748 30.8909 14.2613C30.7876 14.2477 30.6996 14.2281 30.6348 14.2042C30.6996 14.1803 30.7876 14.1607 30.8909 14.1471C30.9943 14.1336 31.1098 14.1265 31.2271 14.1265C31.3444 14.1265 31.4599 14.1336 31.5632 14.1471C31.6666 14.1607 31.7546 14.1803 31.8194 14.2042Z" fill="#FFC906" fill-opacity="0.7"/>
<path d="M34.7336 13.5703C34.7825 13.6322 34.7825 13.6958 34.7336 13.7577C34.65 13.7986 34.3572 13.8191 34.1621 13.8498V13.5703H34.7336Z" fill="#FFC906" fill-opacity="0.7"/>
<path d="M25.3105 12.1593V11.8765C25.8541 11.8765 25.9238 11.9583 25.882 12.0503C25.8819 12.0673 25.866 12.0842 25.8353 12.0996C25.8047 12.1149 25.7601 12.1284 25.705 12.1389C25.6499 12.1494 25.5858 12.1567 25.5174 12.1602C25.4491 12.1638 25.3783 12.1635 25.3105 12.1593Z" fill="#FFC906" fill-opacity="0.7"/>
<path d="M25.3117 11.8766C24.6985 11.7949 24.6985 11.7949 24.9633 11.6074C25.5905 11.6585 25.2002 11.7812 25.3117 11.8766Z" fill="#FFC906" fill-opacity="0.7"/>
<path d="M10.2731 10.7588C10.3679 10.7744 10.4456 10.7954 10.4994 10.8201C10.5531 10.8448 10.5812 10.8723 10.5812 10.9002C10.5812 10.9282 10.5531 10.9557 10.4994 10.9803C10.4456 11.005 10.3679 11.0261 10.2731 11.0416C10.1782 11.0261 10.1005 11.005 10.0467 10.9803C9.99298 10.9557 9.96484 10.9282 9.96484 10.9002C9.96484 10.8723 9.99298 10.8448 10.0467 10.8201C10.1005 10.7954 10.1782 10.7744 10.2731 10.7588Z" fill="#FFC906" fill-opacity="0.7"/>
<path d="M11.1493 10.5369C11.0862 10.5608 10.9994 10.5805 10.8972 10.5941C10.7949 10.6077 10.6804 10.6149 10.5639 10.6149C10.4475 10.6149 10.3329 10.6077 10.2307 10.5941C10.1284 10.5805 10.0417 10.5608 9.97852 10.5369C10.0417 10.513 10.1284 10.4933 10.2307 10.4797C10.3329 10.4661 10.4475 10.459 10.5639 10.459C10.6804 10.459 10.7949 10.4661 10.8972 10.4797C10.9994 10.4933 11.0862 10.513 11.1493 10.5369Z" fill="#FFC906" fill-opacity="0.7"/>
<path d="M16.4875 10.1144C16.4205 10.1376 16.3318 10.1565 16.2287 10.1696C16.1256 10.1826 16.0112 10.1894 15.8951 10.1894C15.779 10.1894 15.6646 10.1826 15.5615 10.1696C15.4584 10.1565 15.3696 10.1376 15.3027 10.1144C15.3676 10.0905 15.4556 10.0708 15.559 10.0573C15.6623 10.0437 15.7778 10.0366 15.8951 10.0366C16.0124 10.0366 16.1279 10.0437 16.2312 10.0573C16.3346 10.0708 16.4226 10.0905 16.4875 10.1144Z" fill="#FFC906" fill-opacity="0.7"/>
<path d="M10.5644 8.06999C10.6759 7.97798 10.2856 7.85189 10.9128 7.79736C11.1637 7.9848 11.1637 7.9848 10.5644 8.06999Z" fill="#FFC906" fill-opacity="0.7"/>
<path d="M227.925 0.473633L228.134 0.524749C227.995 0.524749 227.87 0.558829 227.73 0.569053C227.591 0.579277 227.605 0.53838 227.535 0.524749L227.925 0.473633Z" fill="#FFC906" fill-opacity="0.7"/>
<path d="M235.117 0.684788L234.908 0.735904C234.828 0.706582 234.766 0.674392 234.727 0.640484C234.727 0.640484 234.838 0.609813 234.908 0.592773L235.117 0.684788Z" fill="#FFC906" fill-opacity="0.7"/>
<path d="M18.1472 1.06674L17.9381 1.15876C17.8684 1.14172 17.743 1.12468 17.7569 1.11105C17.8025 1.07768 17.8633 1.04567 17.9381 1.01562L18.1472 1.06674Z" fill="#FFC906" fill-opacity="0.7"/>
<path d="M4.50195 2.86579L5.01764 2.72266C5.42184 2.84534 4.9619 2.83512 4.50195 2.86579Z" fill="#FFC906" fill-opacity="0.7"/>
<path d="M4.83686 2.83545L4.32113 2.97858C3.94481 2.8559 4.37692 2.86612 4.83686 2.83545Z" fill="#FFC906" fill-opacity="0.7"/>
<path d="M272.414 4.01768L271.814 3.895C272.33 3.79957 272.288 3.90863 272.414 4.01768Z" fill="#FFC906" fill-opacity="0.7"/>
<path d="M10.3549 5.64669L9.97852 5.59557C9.97852 5.59557 10.1179 5.55127 10.1737 5.55127C10.3075 5.56397 10.4379 5.57877 10.5639 5.59557L10.3549 5.64669Z" fill="#FFC906" fill-opacity="0.7"/>
<path d="M14.1738 6.27403L13.5605 6.15134C14.0762 6.05592 14.0344 6.16497 14.1738 6.27403Z" fill="#FFC906" fill-opacity="0.7"/>
<path d="M14.6896 6.37623C14.2854 6.37623 14.0903 6.33193 14.1042 6.23651C14.5084 6.2331 14.7035 6.27741 14.6896 6.37623Z" fill="#FFC906" fill-opacity="0.7"/>
<path d="M14.6211 6.32861L15.2344 6.4547C14.7187 6.55694 14.7605 6.44789 14.6211 6.32861Z" fill="#FFC906" fill-opacity="0.7"/>
<path d="M276.094 6.49533L275.885 6.44762C276.011 6.42865 276.147 6.41375 276.289 6.40332C276.289 6.40332 276.414 6.43059 276.484 6.44762L276.094 6.49533Z" fill="#FFC906" fill-opacity="0.7"/>
<path d="M276.541 6.97911L275.941 6.85642C276.457 6.761 276.415 6.87005 276.541 6.97911Z" fill="#FFC906" fill-opacity="0.7"/>
<path d="M14.1895 7.17355L14.3985 7.08154C14.4682 7.08154 14.5936 7.11562 14.5797 7.12925C14.5366 7.16179 14.4756 7.19273 14.3985 7.22126L14.1895 7.17355Z" fill="#FFC906" fill-opacity="0.7"/>
<path d="M15.5819 7.64404C15.651 7.67481 15.7116 7.70669 15.7631 7.73946C15.7631 7.73946 15.6376 7.77013 15.5819 7.78717C15.5031 7.75716 15.4377 7.72517 15.3867 7.69175C15.3867 7.69175 15.5122 7.66108 15.5819 7.64404Z" fill="#FFC906" fill-opacity="0.7"/>
<path d="M0.613224 8.25065L0 8.12797C0.515699 8.03255 0.473846 8.13819 0.613224 8.25065Z" fill="#FFC906" fill-opacity="0.7"/>
<path d="M3.65143 8.05273L3.13574 8.19586C2.74548 8.07318 3.19148 8.08341 3.65143 8.05273Z" fill="#FFC906" fill-opacity="0.7"/>
<path d="M0.474609 8.16846L1.07392 8.29455C0.558226 8.38997 0.60005 8.28092 0.474609 8.16846Z" fill="#FFC906" fill-opacity="0.7"/>
<path d="M17.6462 9.19766H17.0469C17.1166 9.15676 17.1584 9.0886 17.2559 9.08519C17.6044 9.05452 17.6601 9.1295 17.6462 9.19766Z" fill="#FFC906" fill-opacity="0.7"/>
<path d="M17.0463 9.19794C17.0463 9.29336 16.8651 9.34107 16.4609 9.33766C16.4888 9.23883 16.6421 9.19453 17.0463 9.19794Z" fill="#FFC906" fill-opacity="0.7"/>
<path d="M10.4821 9.56955L10.273 9.62067C10.1928 9.59135 10.1316 9.55916 10.0918 9.52525C10.0918 9.52525 10.2033 9.49458 10.273 9.47754L10.4821 9.56955Z" fill="#FFC906" fill-opacity="0.7"/>
<path d="M266.295 10.1998L266.797 10.0566C267.201 10.1793 266.741 10.1691 266.295 10.1998Z" fill="#FFC906" fill-opacity="0.7"/>
<path d="M253.863 10.3056L253.486 10.2545C253.486 10.2375 253.626 10.2068 253.681 10.2102C253.82 10.22 253.952 10.2349 254.072 10.2545L253.863 10.3056Z" fill="#FFC906" fill-opacity="0.7"/>
<path d="M260.72 10.1689L260.204 10.3121C259.814 10.1894 260.26 10.1996 260.72 10.1689Z" fill="#FFC906" fill-opacity="0.7"/>
<path d="M267.634 11.3106C267.341 11.3106 267.09 11.3106 267.16 11.2186C267.16 11.1948 267.467 11.1879 267.634 11.1709V11.3106Z" fill="#FFC906" fill-opacity="0.7"/>
<path d="M263.8 12.8647C263.877 12.8933 263.938 12.9242 263.982 12.9568C263.982 12.9568 263.87 12.9874 263.8 13.0045C263.72 12.9751 263.659 12.943 263.619 12.9091C263.619 12.9091 263.731 12.8784 263.8 12.8647Z" fill="#FFC906" fill-opacity="0.7"/>
<path d="M31.7227 14.6572L32.322 14.7799C31.8202 14.8753 31.8202 14.7663 31.7227 14.6572Z" fill="#FFC906" fill-opacity="0.7"/>
<path d="M39.0821 11.6143L39.4584 11.6654C39.3887 11.6654 39.3052 11.7131 39.2633 11.7097C39.1271 11.6984 38.9962 11.6835 38.873 11.6654L39.0821 11.6143Z" fill="#FFC906" fill-opacity="0.7"/>
</svg>
