<svg width="84" height="14" viewBox="0 0 84 14" fill="none" xmlns="http://www.w3.org/2000/svg">
<g clip-path="url(#clip0_697_472)">
<path d="M0 11.001H2.91247V13.7955H0V11.001Z" fill="black"/>
<path d="M45.2715 11.3555H48.0271V13.9996H45.2715V11.3555Z" fill="black"/>
<path d="M80.627 5.62891H83.1075V8.00738H80.627V5.62891Z" fill="black"/>
<path d="M72.55 5.0967V13.795H69.1515L65.5201 3.26242C65.5589 3.66012 65.5978 4.13238 65.6365 4.6792C65.6754 5.22602 65.7078 5.77906 65.7336 6.33832C65.7725 6.89758 65.792 7.39469 65.792 7.82966V9.44873H63.2285V0.186523H66.627L70.2973 10.7191C70.2586 10.2593 70.2132 9.73113 70.1615 9.13459C70.1096 8.52562 70.0643 7.92288 70.0254 7.32633C69.9997 6.71738 69.9867 6.20162 69.9867 5.77906V5.0967H72.55Z" fill="black"/>
<path d="M13.7413 13.4782C14.4404 13.8137 15.2625 13.9815 16.2076 13.9815C17.1657 13.9815 17.9878 13.8137 18.674 13.4782C19.3731 13.1302 19.9104 12.6517 20.2859 12.0427C20.6742 11.4213 20.8684 10.7005 20.8684 9.88028V7.68652H17.9554V9.88028C17.9554 10.9988 17.3729 11.558 16.2076 11.558C15.0425 11.558 14.4599 10.9988 14.4599 9.88028V7.68652H11.5469V9.88028C11.5469 10.7005 11.7346 11.4213 12.11 12.0427C12.4984 12.6517 13.0422 13.1302 13.7413 13.4782Z" fill="black"/>
<path d="M11.5469 5.34079V4.1012C11.5469 3.28096 11.7346 2.56636 12.11 1.95739C12.4984 1.336 13.0422 0.857523 13.7413 0.52197C14.4404 0.17399 15.2625 0 16.2076 0C17.1657 0 17.9878 0.17399 18.674 0.52197C19.3731 0.857523 19.9104 1.336 20.2859 1.95739C20.6742 2.56636 20.8684 3.28096 20.8684 4.1012V5.34079H17.9554V4.1012C17.9554 2.98269 17.3729 2.42343 16.2076 2.42343C15.0425 2.42343 14.4599 2.98269 14.4599 4.1012V5.34079H11.5469Z" fill="black"/>
<path d="M0 0.186523V9.74999H2.91299V8.03472H4.2918L6.69987 13.795H9.90416L6.87465 6.69252L9.78764 0.186523H6.62219L4.2918 5.46215H2.91299V0.186523H0Z" fill="black"/>
<path d="M27.269 13.9996C25.7801 13.9996 24.5956 13.6144 23.7152 12.8438C22.8478 12.0609 22.4141 11.0107 22.4141 9.69337H25.3269C25.3269 10.2651 25.5017 10.7249 25.8513 11.0729C26.2008 11.4084 26.6735 11.5762 27.269 11.5762C27.8645 11.5762 28.3371 11.4146 28.6867 11.0915C29.0362 10.756 29.211 10.3023 29.211 9.73066V9.35547H32.124V9.73066C32.124 11.048 31.6903 12.0919 30.8229 12.8625C29.9555 13.6206 28.7708 13.9996 27.269 13.9996Z" fill="black"/>
<path d="M25.2305 2.79638H29.0676V2.79159H32.1245V0.186523H25.2305V2.79638Z" fill="black"/>
<path d="M37.0304 13.4782C37.7295 13.8137 38.5517 13.9815 39.4968 13.9815C40.4548 13.9815 41.277 13.8137 41.9631 13.4782C42.6622 13.1302 43.1995 12.6517 43.5749 12.0427C43.9633 11.4213 44.1576 10.7005 44.1576 9.88028V7.68652H41.2445V9.88028C41.2445 10.9988 40.662 11.558 39.4968 11.558C38.3315 11.558 37.749 10.9988 37.749 9.88028V7.68652H34.8359V9.88028C34.8359 10.7005 35.0237 11.4213 35.3992 12.0427C35.7875 12.6517 36.3313 13.1302 37.0304 13.4782Z" fill="black"/>
<path d="M44.1576 4.1012V5.34079H41.2445V4.1012C41.2445 2.98269 40.662 2.42343 39.4968 2.42343C38.3315 2.42343 37.749 2.98269 37.749 4.1012V5.34079H34.8359V4.1012C34.8359 3.28096 35.0237 2.56636 35.3992 1.95739C35.7875 1.336 36.3313 0.857523 37.0304 0.52197C37.7295 0.17399 38.5517 0 39.4968 0C40.4548 0 41.277 0.17399 41.9631 0.52197C42.6622 0.857523 43.1995 1.336 43.5749 1.95739C43.9633 2.56636 44.1576 3.28096 44.1576 4.1012Z" fill="black"/>
<path d="M56.2447 13.9815C55.2996 13.9815 54.4776 13.8137 53.7784 13.4782C53.0793 13.1302 52.5355 12.6517 52.1471 12.0427C51.7717 11.4213 51.584 10.7005 51.584 9.88028V7.68652H54.4969V9.88028C54.4969 10.9988 55.0796 11.558 56.2447 11.558C57.4099 11.558 57.9924 10.9988 57.9924 9.88028V7.68652H60.9055V9.88028C60.9055 10.7005 60.7113 11.4213 60.3229 12.0427C59.9474 12.6517 59.4101 13.1302 58.711 13.4782C58.0249 13.8137 57.2027 13.9815 56.2447 13.9815Z" fill="black"/>
<path d="M60.9055 5.34079V4.1012C60.9055 3.28096 60.7113 2.56636 60.3229 1.95739C59.9474 1.336 59.4101 0.857523 58.711 0.52197C58.0249 0.17399 57.2027 0 56.2447 0C55.2996 0 54.4776 0.17399 53.7784 0.52197C53.0793 0.857523 52.5355 1.336 52.1471 1.95739C51.7717 2.56636 51.584 3.28096 51.584 4.1012V5.34079H54.4969V4.1012C54.4969 2.98269 55.0796 2.42343 56.2447 2.42343C57.4099 2.42343 57.9924 2.98269 57.9924 4.1012V5.34079H60.9055Z" fill="black"/>
<path d="M75.2617 13.795V0.186523H84.0007V2.57268H78.1164V5.62993H79.1802V8.01609H78.1164V11.4089H84.0007V13.795H75.2617Z" fill="black"/>
</g>
<defs>
<clipPath id="clip0_697_472">
<rect width="84" height="14" fill="white"/>
</clipPath>
</defs>
</svg>
