<svg width="24" height="19" viewBox="0 0 24 19" fill="none" xmlns="http://www.w3.org/2000/svg">
<path fill-rule="evenodd" clip-rule="evenodd" d="M12.0014 15.615L13.0513 13.9525L9.70031 8.6475L9.20151 7.855H13.8615L14.9115 6.195L14.8949 6.17H8.13779L6.36307 3.36H7.39098L8.70548 5.4325H10.8081L9.49363 3.36L8.43266 1.6775H3.19669L7.60593 8.6475L12.0152 15.615H12.0014ZM0 0H24L12.0014 19L0 0ZM1.10231 0.5825H22.8729L11.9876 17.8325L1.0968 0.5825H1.10231ZM16.1543 9.0475L15.1044 10.7125L14.6194 11.4775L13.5694 13.1425L10.7144 8.59H12.8171L13.5832 9.8025L13.7265 9.5725L16.1268 5.7975L16.372 5.425H11.7754L10.9321 4.0875L9.40544 1.6675H20.8033L19.7396 3.35H12.5746L13.0403 4.0875H19.2794L18.2156 5.77L16.937 7.7975L16.1543 9.0475Z" fill="black"/>
</svg>
