<svg width="203" height="70" viewBox="0 0 203 70" fill="none" xmlns="http://www.w3.org/2000/svg">
<path d="M8.97821 42.1787C8.8858 42.5813 9.27594 42.6856 9.37862 43.118L8.83445 43.3566C8.36962 42.9229 8.02721 42.2617 7.86932 41.4929L7.32515 42.1787L7.11979 40.315H5.64132L4.81991 41.4929C4.762 41.2507 4.68987 41.0163 4.60431 40.7921C4.41949 40.3896 4.20389 40.0019 3.96774 39.5397L3.53649 40.8518H3.0334L2.74592 39.6739L1.90399 39.6143L0.271484 37.4673L0.322809 36.692C0.943941 36.5489 1.57394 36.5039 2.20175 36.5578L2.73564 37.2586L2.96152 35.5291C3.26955 35.1265 3.64944 35.4396 3.98826 35.3203L4.44003 34.7538L4.98419 35.3949L5.169 33.561C5.90825 33.904 6.08281 35.1265 6.82206 35.3353C7.03767 35.8869 7.03767 35.8869 7.56131 35.8124C7.56131 35.7378 7.68451 35.6633 7.68451 35.5887C7.68451 34.56 7.68451 33.5461 7.68451 32.6068L7.24302 31.9061C7.24302 31.4439 7.243 31.0264 7.70503 31.0413C8.16707 31.0562 8.67016 32.0105 9.11166 33.3821C9.30674 33.4567 9.51209 33.5163 9.6969 33.6058C9.88171 33.6952 9.80984 33.74 9.85091 33.7996V34.4407L10.467 35.3054C11.0214 34.9476 11.1138 34.1276 11.391 33.4865C11.6682 32.8454 12.3151 32.8006 12.7463 32.3683L13.0543 32.8156C13.4445 32.6814 13.3931 32.2043 13.2802 31.9359C13.1673 31.6675 12.7463 31.2501 12.9619 30.6388C13.4034 30.1915 13.9271 30.5046 14.3994 30.43L14.8614 29.8187C15.3029 29.5653 15.4569 30.2213 15.7444 30.3555L16.3091 29.6995L17.0483 30.3406L17.5925 29.6249C17.5925 29.4758 17.5309 29.282 17.4488 29.1925C16.7991 28.4767 16.0303 28.024 15.2207 27.8805C14.8922 27.2394 15.1386 26.5089 15.0565 25.7783L14.2043 25.1968V24.5557C14.8409 23.4375 15.8984 23.3033 16.6274 22.3789H19.2044L19.6049 21.8124H22.6851L23.065 21.2756C23.7221 20.9327 24.4613 21.4843 25.1698 20.8283C24.5367 20.537 23.8681 20.4456 23.2087 20.56C22.5619 20.56 21.9048 20.56 21.2579 20.56H17.4898L17.0689 19.9636H9.27594L8.79337 19.3374H5.33328L4.94312 18.7857H3.64945L3.22849 18.1894L2.20175 18.0104L2.01691 16.9071L1.17502 15.9678C1.29822 14.8198 1.95533 14.4769 2.35575 13.7612H3.17713L3.6289 13.2096H4.91231L5.46676 13.8209L5.62076 12.7772C6.02119 12.2405 6.55511 12.6579 7.04794 12.5387L7.52023 13.1351L8.10548 11.5248L6.87338 9.7655L8.28 7.76763C8.68043 7.45453 9.11166 7.67818 9.62502 7.58872L10.1795 7.00726H11.8531L12.3151 6.35123H16.227L16.6274 5.78467H20.9396L21.4325 5.14357H27.4799L27.942 4.54718L28.4862 5.24792L29.2767 4.66646L29.6669 5.08392L30.0982 4.5621L30.5396 5.11375L30.8374 4.72611C30.899 4.65156 30.9503 4.53228 31.0017 4.53228H39.6673L39.9856 4.08499C40.0472 4.08499 40.0985 3.93591 40.1601 3.93591H52.214L52.6349 3.33951H59.1958C59.2779 3.05623 59.3292 2.87733 59.3806 2.74314C60.4997 2.74314 61.6189 2.63877 62.738 2.54931C62.738 2.54931 62.738 2.41513 62.8202 2.34058C61.6768 1.88304 60.4588 2.02559 59.3806 2.74314C59.1652 2.7212 58.9491 2.7212 58.7337 2.74314L58.282 2.14675C57.8097 1.9082 57.6659 2.57913 57.2552 2.80277L56.4441 2.19148H51.7006L51.2797 2.77295H39.9856L39.6057 3.30969C39.1033 3.44768 38.5855 3.40677 38.0964 3.19043V2.41513C38.1785 2.29586 38.2299 2.16167 38.2812 2.16167H45.2014L45.6737 1.55038L46.1255 2.11695L46.5054 1.58021L46.9777 2.10202H48.3329C48.5177 2.10202 48.641 1.29692 49.1338 1.55038L49.5753 2.11695L50.027 1.53548H65.2022L65.6642 0.924185L66.0441 1.47583L66.5164 0.968912H68.3029L68.6623 1.49073L69.1243 0.95401L69.5658 1.50565L69.8636 1.10309C69.9829 1.01457 70.1111 0.954186 70.2435 0.924185H84.7512L85.203 0.342716L85.6548 0.89436C86.1579 1.14782 86.2708 0.387432 86.7636 0.283065L87.3899 0.849633L87.7698 0.372519H134.353L134.712 0.909261L135.174 0.312891H136.406L136.858 0.909261H137.71L138.162 0.342716H141.242L141.602 0.849633L142.31 0.238339L142.977 0.849633L143.398 0.312891H144.251L144.702 0.89436L145.246 0.208536L146.016 0.790005L146.653 0.238339L147.3 0.834732L147.967 0.178711L148.614 0.89436L149.148 0.208536L150.093 0.909261H155.154L155.339 1.55038H154.313L153.85 2.14675L153.532 1.68456C150.252 1.39227 146.962 1.43711 143.686 1.81874C143.686 1.81874 143.737 1.99765 143.788 2.02747C143.913 2.10184 144.045 2.14715 144.179 2.16167H151.694L152.126 2.77295H156.469L156.92 3.41407H162.567L163.019 4.05516H169.529L169.919 4.60683H172.506L172.979 5.24792H174.703L175.176 5.87412H178.194L178.574 6.41086C179.272 6.58978 180.063 6.41087 180.833 6.53014L181.213 7.06688H184.293L184.714 7.66328L185.166 7.14144L185.618 7.69308H187.743L188.297 8.61748C188.297 8.61748 188.184 8.93057 188.113 8.93057C187.25 8.93057 186.388 8.93057 185.525 8.93057C185.525 8.93057 185.423 9.06475 185.371 9.1393C185.474 9.66113 185.813 9.42259 186.039 9.57169L186.829 10.7048L187.291 10.1382H189.447L189.899 10.7346H191.183L191.665 11.3757H192.497L192.99 12.0019H194.253L194.838 13.5823L194.468 14.1489C194.766 14.6558 195.156 14.3427 195.495 14.4471L196.409 13.2096H197.271C197.774 13.8656 197.384 14.2831 197.014 14.79C197.518 15.0947 198.074 15.1625 198.606 14.9838L199.13 14.4023L199.242 15.446L198.401 15.8635L198.719 16.7133C198.411 17.1606 198.031 16.7133 197.743 16.937L197.199 16.2511L197.014 17.1308C197.549 17.3923 198.018 17.8805 198.359 18.5323C198.097 18.6117 197.845 18.7474 197.61 18.9348C197.374 19.1883 197.189 19.4865 196.84 19.3523C196.378 18.9796 196.778 18.249 196.532 17.6973C196.285 17.1457 196.018 17.6079 195.752 17.5333V15.7591L195.248 15.4758C194.704 15.7442 194.591 16.6537 194.027 16.7431C193.462 16.8326 193.339 17.3395 193.144 17.8614C193.092 18.8305 193.996 18.9348 194.006 19.8294H193.308C193.267 20.0953 193.208 20.355 193.133 20.6047C193.031 20.9029 192.877 21.1713 192.753 21.4545L193.359 22.2596L194.006 21.3949V19.8294L194.417 20.068V22.0509C194.365 22.3342 193.821 22.4833 194.14 23.3928L194.581 24.0488C195.023 23.9146 195.135 23.2139 195.752 22.9455H196.357L196.86 22.2745C197.083 22.6418 197.289 23.0303 197.476 23.4375C197.702 24.019 197.805 24.7048 198.062 25.2415C198.338 25.7324 198.648 26.1819 198.986 26.5834H200.351L201.06 27.8507H201.666L201.902 28.7751L200.967 29.8038V31.2948L200.546 31.9508L200.947 32.5919C201.008 33.1137 200.834 33.6505 201.173 34.0829L201.604 32.7857L202.189 34.4109L201.85 34.9625L202.261 35.6036V36.8411C202.138 36.9306 202.025 37.1244 201.912 37.1244H196.83L196.368 37.7804H194.509C194.591 38.5408 195.033 38.7495 195.259 39.2714C195.197 39.3906 195.125 39.6292 195.053 39.6292C193.903 39.6292 192.753 39.6292 191.604 39.6292L191.121 41.0009L189.447 39.7783L187.743 41.0158L187.291 39.6441H186.839C186.47 40.0318 186.685 40.5983 186.614 41.1351L186.049 41.9849L185.022 42.1489C184.971 42.1489 184.868 42.298 184.868 42.3725C184.868 43.1926 184.868 44.0126 184.868 44.8177L184.437 45.4886L185.063 46.3683L185.525 45.7719H186.552C186.685 46.0403 186.798 46.3683 186.932 46.3832C187.25 46.3832 187.61 46.5919 187.897 46.1297C187.538 45.4737 187.035 45.9061 186.552 45.7719C186.794 45.2351 187.007 44.6718 187.189 44.0871L187.856 43.7591L187.969 42.2682C188.256 41.806 188.646 42.134 188.996 42.0296L189.468 42.6558H190.371L190.608 43.5951L189.242 45.1755V46.0552C189.53 46.5472 189.909 46.2937 190.269 46.3384C190.628 46.3832 190.854 46.3384 191.141 46.3384H192.168C192.24 45.4886 191.819 45.8763 191.449 45.1308C191.511 45.3992 191.449 45.0264 191.326 44.7133C191.203 44.4002 191.09 44.5493 190.967 44.4748V42.3427L190.454 41.5674L191.306 41.3736L191.449 42.3874L192.476 43.8784L193.154 44.0722V46.0403L193.811 47.0243H194.694C195.207 46.3832 194.694 45.5334 194.981 44.773L195.341 44.5493V46.0403L195.803 46.7261L194.776 47.9636C194.93 48.3363 195.074 48.6345 195.187 48.9625C195.3 49.2905 195.372 49.6484 195.454 49.9764C195.885 50.2 195.936 50.1553 196.193 49.4545C196.316 49.4545 196.522 49.3502 196.542 49.2458C196.593 48.888 196.409 48.8283 196.193 48.8433C196.193 48.1872 196.676 48.1425 196.768 47.561L197.795 48.8582H198.75L198.852 49.9018C198.297 49.9548 197.755 50.1711 197.259 50.5377C196.763 50.9042 196.323 51.4132 195.967 52.0339L194.817 51.2288C194.119 51.9444 194.91 53.1223 194.273 53.7634L193.657 52.8837C193.821 52.4812 194.294 52.2724 193.944 51.3928C193.482 51.0349 192.825 51.3928 192.066 51.2288L191.491 52.0339C191.367 53.2266 192.117 53.3161 192.24 54.1361L191.788 54.8219C190.946 55.5078 190.382 53.9125 189.355 54.5834L188.862 55.0903L188.154 54.3449H186.952L186.388 54.9561C185.813 54.9561 185.648 53.9423 185.053 54.4641L184.919 55.2394L185.618 56.134C186.234 56.6111 186.644 55.6121 187.281 55.5227L187.774 56.1787L188.226 55.5823C188.842 55.4034 189.139 56.7006 190.053 55.9998L190.341 55.6718L191.049 56.2682L191.737 55.5972L192.22 56.5514L191.501 57.0584C191.603 57.5653 191.963 57.3267 192.168 57.5057C192.315 57.6527 192.455 57.812 192.589 57.9828L192.877 57.5057L193.421 58.1617H195.474L193.524 58.9668L194.396 59.5781C194.119 60.3981 193.37 59.5781 193.072 60.3683C193.768 60.5675 194.479 60.6276 195.187 60.5472C195.881 60.4654 196.579 60.5871 197.24 60.905C196.541 61.1422 195.822 61.2326 195.105 61.1734L194.283 62.0381C195.074 62.7836 195.854 62.0381 196.532 62.6494L196.121 63.3353L196.973 63.9167V64.5578L195.752 65.4524H194.653L194.15 66.0935H189.848L189.365 66.7197H180.258L179.847 67.3012C178.595 67.4205 177.24 67.3012 175.895 67.3757L175.504 67.9274H166.387L165.925 68.5685H150.329L149.877 69.2096H102.524L102.124 69.7762H88.2319L87.8006 69.2245L87.1333 69.9402L86.4248 69.1798H44.7702L44.38 68.6132H37.429L36.9772 67.9572H34.3693L33.9586 67.3757H30.8271L29.8004 65.4673H27.8906C27.3773 64.7964 27.8085 64.3938 28.1063 63.9764V62.7538C28.6505 62.1574 28.9071 61.0243 29.7901 61.1286C29.7769 60.8699 29.71 60.6232 29.5981 60.4208C29.4863 60.2185 29.3349 60.0702 29.1638 59.9955C28.7326 59.9061 28.5888 59.757 28.5169 59.1159C28.5169 58.7133 28.0857 58.3853 27.9317 58.1319C27.0898 57.9231 27.3773 58.937 27.0487 59.2948L26.5867 58.7282H25.3135C25.0671 58.8624 25.0055 59.429 24.6359 59.3395C24.6359 59.1606 24.564 58.8624 24.4922 58.8475C24.2355 58.758 24.1944 59.0264 24.2046 59.3395C24.1554 59.3186 24.1035 59.3147 24.053 59.3281C24.0026 59.3415 23.955 59.3719 23.9141 59.4168C23.8732 59.4617 23.8401 59.5199 23.8174 59.5868C23.7948 59.6536 23.7832 59.7272 23.7837 59.8017C23.7837 60.2192 23.7837 60.6068 24.2046 60.5621C24.256 60.741 24.2971 61.069 24.3587 61.069C24.9747 61.069 25.3854 62.2021 26.33 61.6505L26.8331 60.9647L26.3403 60.0999L26.9974 59.921C27.5313 60.5174 26.9974 61.3076 27.2438 61.9487L27.6956 62.9625H26.6688C25.8269 63.9316 27.0795 64.3491 26.8126 65.1244C26.33 65.5866 26.33 65.5866 25.7859 64.9604L25.1082 65.5717L24.2046 64.8113L23.5167 65.4673C23.5167 65.2586 23.3217 64.9753 23.3628 64.7964C23.4214 64.5073 23.5278 64.2434 23.6728 64.0278C23.8177 63.8121 23.9968 63.6511 24.1944 63.5589C24.2663 63.9615 24.1944 64.4386 24.6154 64.0211L24.1944 63.5589C24.3792 62.6643 23.7529 62.0679 23.5989 61.2479C23.4962 60.8495 23.3691 60.4653 23.219 60.0999C22.992 60.0462 22.7752 59.9244 22.5824 59.7421C22.3463 59.4737 22.1512 59.2351 21.8329 59.3395L20.4981 57.5057L20.0567 58.0126C19.5946 58.1169 19.1018 58.281 18.7527 57.4908H17.4385L16.9662 58.102L16.3707 57.0136V55.8656L15.4774 54.9263V53.2415L14.0913 51.6313L14.3275 50.6473L14.8203 51.2735L15.2721 50.7069L15.8984 51.6015V52.2277L16.9251 53.7187C17.1715 53.6143 17.2332 53.0477 17.5925 53.1521C17.5925 53.7634 17.9827 53.9572 18.2188 54.3001C18.455 54.643 18.5884 54.3001 18.7527 54.3001C19.0812 53.3906 18.7527 52.8092 18.5268 52.0935C18.8348 51.676 19.2147 52.0041 19.5536 51.8699C19.8719 51.1244 19.9642 50.1404 20.878 49.7676L19.9027 49.3054L19.6152 48.2021C19.5022 48.3512 19.3482 48.4556 19.3379 48.5749C19.3227 48.9572 19.3227 49.3405 19.3379 49.7229C19.0094 50.2596 18.6295 49.9316 18.3112 50.036L17.8389 49.4247H16.1242L15.6725 48.8283L15.2207 49.38C14.9435 48.9923 14.7074 48.3811 14.4302 48.3214C13.9681 48.232 13.7423 47.6803 13.3418 47.5759C13.1164 47.5459 12.8896 47.5459 12.6642 47.5759L12.1919 48.2021H11.7812C11.6376 48.1872 11.4935 48.1872 11.35 48.2021C11.35 48.2021 11.2473 48.3363 11.1959 48.396L9.98439 49.3651L9.64558 48.888H8.52644L7.22247 47.8741C7.63316 47.2777 8.19786 46.8007 8.40321 46.0999C8.56438 45.4553 8.85388 44.8948 9.23489 44.4897C9.71746 44.4151 9.892 44.7431 9.80986 45.4439L10.4567 46.2788H11.8428L12.1405 45.0861L12.6436 45.7272H13.9578L14.5636 44.8028L13.7422 44.2362C13.8244 43.8635 14.2248 43.7591 14.1529 43.2671C14.8203 43.4758 15.2413 42.626 15.7957 42.4471C15.6623 41.97 15.539 41.478 15.3747 40.9561C15.3747 40.8368 15.1489 40.822 15.0462 40.8369C14.9743 40.4492 15.0462 39.9721 14.6252 40.3896C14.7596 40.5502 14.9001 40.6996 15.0462 40.8369C15.0336 41.1348 15.0336 41.4335 15.0462 41.7314C14.7792 42.1042 14.4712 42.5067 14.1837 42.9242C14.1837 42.9242 14.1837 43.118 14.1837 43.2224H13.0441L12.8079 44.2511C12.6288 44.4187 12.4203 44.5078 12.2073 44.5078C11.9942 44.5078 11.7857 44.4187 11.6066 44.2511L11.9763 43.61C11.853 43.2075 11.4115 42.9987 11.5861 42.3725L12.0173 41.7165V40.2256C12.1571 40.2419 12.2977 40.2113 12.428 40.1361C12.4999 40.5238 12.428 41.0009 12.8387 40.5834C12.7081 40.4224 12.571 40.2731 12.428 40.1361C12.5893 39.86 12.7304 39.5601 12.849 39.2415L11.3089 37.0648C11.0111 37.8251 11.2473 38.6452 11.0522 39.3608C10.8937 39.6605 10.7816 40.0063 10.7236 40.3747C10.7236 40.6579 10.8777 40.9114 11.1446 40.8369C11.0933 41.4183 11.2678 42.0296 10.97 42.6558L10.508 42.134L10.0563 42.6707L9.6661 41.4929C9.42731 41.6801 9.2035 41.9052 8.99873 42.1638C8.92686 41.7613 8.99873 41.2841 8.57777 41.7016C8.70212 41.8761 8.83605 42.0357 8.97821 42.1787ZM182.609 45.2352C182.948 45.101 183.277 45.1457 182.989 44.609C182.887 44.773 182.784 44.9519 182.845 45.101C182.517 45.2351 182.178 45.1904 182.476 45.7272C182.527 45.5781 182.609 45.3992 182.609 45.2352ZM20.2415 31.429C20.3339 31.9061 20.3031 32.3832 20.6829 31.9657C20.5597 31.8166 20.4468 31.6824 20.3339 31.7719C20.2415 31.2948 20.2723 30.8177 19.8924 31.2352C19.9745 31.3693 20.0875 31.5184 20.2004 31.429H20.2415ZM185.33 20.4854C185.618 20.381 186.008 20.7836 186.162 20.1276C185.587 19.8592 185.587 19.8592 185.382 20.5451L185.299 20.4258L184.94 20.8582L185.074 21.052C185.171 20.886 185.244 20.6934 185.289 20.4854H185.33ZM17.2947 32.413C17.2023 31.9359 17.2331 31.4588 16.8532 31.8763C16.9665 32.0341 17.0988 32.1604 17.2434 32.249V33.7399L18.496 34.6196V33.0392L17.9005 32.1894C17.6931 32.1648 17.4854 32.2324 17.305 32.3832L17.2947 32.413ZM20.7035 53.8379C21.4119 53.7335 20.9499 54.9114 21.4017 55.0754C21.7302 54.971 22.1101 55.2841 22.4284 54.8518L22.4797 54.2405C22.1614 53.3161 21.453 53.1968 20.7959 52.6153C20.7959 53.0775 20.7445 53.4503 20.7445 53.8379C20.2928 54.2107 20.2928 54.2107 20.4879 55.0158C20.8883 54.7623 20.6009 54.2107 20.6625 53.8081L20.7035 53.8379ZM25.3238 29.8635C25.7242 29.61 26.1144 29.1627 26.4532 29.2075C26.792 29.2522 27.1616 28.7453 27.4799 28.6558L27.788 29.0882H32.706L33.3426 28.1191L33.1372 27.314H32.6547L32.1927 27.9253H25.7037C25.4881 28.3129 25.1185 28.5216 25.0261 29.1776L25.3238 29.8635ZM21.7918 30.4748C22.3155 29.3118 23.0753 30.0573 23.6092 29.5802L24.6359 28.79L24.4613 27.9551L23.6092 28.6558L23.065 27.9253H21.7816L21.3401 28.5067L20.9294 28.0147L20.2004 28.6558L19.646 28.0147C19.4454 28.2213 19.2282 28.3915 18.9991 28.5216C18.7318 28.6103 18.4608 28.6751 18.188 28.7155C18.188 28.7155 18.188 28.8496 18.1367 28.8944L18.7322 29.774H19.5946L20.0464 30.3704L20.5187 29.774C20.9397 29.7889 21.412 29.5355 21.7508 30.445L21.7918 30.4748ZM25.8475 50.2298L24.9645 50.7517C24.5024 51.0349 24.2663 50.3491 23.8453 50.2298L23.7529 51.0498C24.0298 51.3921 24.2873 51.7661 24.523 52.1681C24.6472 52.5293 24.7436 52.9093 24.8104 53.3012H25.8372L26.0733 54.3001L26.8434 53.6292L26.792 52.2575C26.2889 51.5419 25.8269 51.1095 25.8064 50.2L25.8475 50.2298ZM188.154 26.0765C187.825 26.1808 187.445 25.8677 187.045 26.4045C187.25 26.8219 186.819 27.4631 187.301 27.8954H188.585L189.037 27.314L189.519 27.9253L190.371 27.8209C190.423 27.8209 190.474 27.6867 190.536 27.5972C190.074 27.0456 189.807 26.1063 189.098 26.0019L188.595 26.6281L188.154 26.0765ZM27.8804 52.6153C28.3732 52.5259 28.9071 52.7943 29.3691 52.3917C29.2126 52.1226 29.0846 51.8211 28.9893 51.4971C28.8969 51.0499 29.1125 50.4982 28.7429 50.1404C28.2706 50.2149 27.7161 49.9465 27.2746 50.3491V51.7059L27.8804 52.6153ZM183.944 42.5365C183.944 41.6718 183.307 42.462 183.225 41.9103L182.989 40.8667C182.589 40.9859 182.219 40.6728 181.839 41.1947C181.839 41.5823 181.839 42.0445 181.921 42.5216C181.921 42.6111 182.014 42.6707 182.055 42.7304C182.64 42.7304 183.205 42.7304 183.78 42.7304C183.8 42.7005 183.852 42.5962 183.913 42.5067L183.944 42.5365ZM196.984 30.0722C197.055 30.3555 196.809 30.8773 196.84 30.8773L198.359 29.4758C198.216 28.8198 198.452 28.2533 198.051 27.8954C197.723 27.9998 197.333 27.6718 197.025 28.1191C196.717 28.5663 197.127 29.0584 197.384 29.4162L196.984 30.0722ZM184.16 16.1766C184.365 15.8337 184.694 15.6398 184.765 15.0882C184.447 14.9391 184.375 14.2682 183.944 14.3129C182.917 15.3566 182.917 15.61 183.328 16.1766H184.16ZM191.562 27.8954H192.486C192.591 27.6687 192.719 27.4675 192.866 27.2991C193.051 27.15 193.421 27.4929 193.452 26.6579H191.172C191.09 26.6579 191.029 26.8965 190.957 27.0158L191.562 27.8954ZM179.406 42.7006C179.734 42.5962 180.114 42.9242 180.433 42.4918C180.433 41.8805 180.043 42.1638 179.817 42.0594C179.416 41.478 179.016 40.8965 178.605 40.3299C178.605 40.3299 178.502 40.3299 178.451 40.3299C178.369 41.1798 178.369 41.1798 179.437 42.7006H179.406ZM194.93 27.6867L194.745 26.4045L194.027 27.642C194.593 28.1936 195.182 28.6916 195.793 29.1329C195.918 29.0722 196.038 28.9922 196.152 28.8944C195.957 28.0147 195.228 28.0893 194.93 27.6867ZM19.2558 45.1755C18.1059 45.1755 18.1059 45.1755 17.6336 45.6526C17.8491 45.7278 18.0692 45.7727 18.2907 45.7868C18.7724 45.8816 19.2625 45.8257 19.7281 45.6228C19.8102 45.0413 19.9745 44.4599 19.5638 43.8933L19.2558 45.1755ZM15.0359 44.8475C15.2721 45.1308 15.4158 45.593 15.8984 45.7272C15.8984 45.0264 15.8984 44.3406 15.8984 43.6697C15.8984 43.5802 15.7341 43.4907 15.6417 43.3864C15.4466 43.8038 15.0257 43.9529 15.0359 44.8475ZM185.69 40.5387C185.484 40.2703 185.289 39.987 185.094 39.7037C184.704 39.7037 184.283 39.3608 183.913 39.987C184.171 40.068 184.422 40.1879 184.663 40.3449C184.889 40.5536 185.032 40.9412 185.371 40.8369L185.69 40.5387ZM187.445 16.445C187.661 16.773 187.805 17.2053 188.164 17.2948L188.688 16.5046L188.092 15.5355L187.445 16.445ZM22.4387 51.2884L22.2744 50.0658L21.4633 50.2895L21.5968 51.2884H22.4387ZM63.1179 2.34058C64.1446 2.62386 64.1447 2.60895 64.4732 2.17658C64.2591 2.01851 64.0189 1.95014 63.7796 1.97911C63.5402 2.00807 63.3111 2.13324 63.1179 2.34058ZM190.207 20.0232C190.464 19.5163 190.813 19.3374 190.864 18.8156C190.806 18.745 190.739 18.6924 190.667 18.6608C190.595 18.6293 190.519 18.6194 190.444 18.632C190.369 18.6446 190.297 18.6792 190.231 18.7339C190.166 18.7885 190.109 18.862 190.063 18.9497L190.207 20.0232ZM183.503 39.495C182.599 38.9732 182.599 38.9881 182.291 39.495C182.498 39.5484 182.707 39.5833 182.917 39.5994C183.114 39.5865 183.31 39.5516 183.503 39.495ZM186.583 53.495C186.405 53.2507 186.17 53.1145 185.926 53.1145C185.681 53.1145 185.446 53.2507 185.269 53.495C185.356 53.6239 185.459 53.7264 185.574 53.7963C185.689 53.8662 185.812 53.9022 185.936 53.9022C186.06 53.9022 186.183 53.8662 186.298 53.7963C186.412 53.7264 186.516 53.6239 186.603 53.495H186.583ZM25.18 56.3576C25.5189 55.8507 25.4983 55.5078 25.2417 55.0456L24.7694 55.15L25.18 56.3576ZM177.537 14.8496H177.814C177.814 14.5813 177.876 14.298 177.886 14.0296C177.897 13.7612 177.773 13.8209 177.743 13.8358C177.712 13.8507 177.476 13.97 177.465 14.0445C177.476 14.317 177.507 14.587 177.558 14.8496H177.537ZM179.663 14.626C179.262 14.2384 178.985 14.0445 178.81 14.7155C179.088 15.0584 179.324 15.0286 179.683 14.626H179.663ZM191.408 17.5184V17.921C191.593 17.921 191.788 17.9955 191.983 18.0104C192.178 18.0253 192.137 17.8614 192.127 17.8166C192.117 17.7719 192.024 17.429 191.973 17.429C191.79 17.4396 191.609 17.4695 191.429 17.5184H191.408ZM192.661 19.561C192.612 19.4595 192.546 19.3767 192.47 19.3195C192.395 19.2623 192.31 19.2325 192.225 19.2325C192.139 19.2325 192.055 19.2623 191.979 19.3195C191.903 19.3767 191.838 19.4595 191.788 19.561C191.835 19.6721 191.901 19.7638 191.979 19.8274C192.057 19.8911 192.145 19.9245 192.235 19.9245C192.325 19.9245 192.413 19.8911 192.491 19.8274C192.569 19.7638 192.635 19.6721 192.682 19.561H192.661ZM194.016 29.2522V29.6398C194.21 29.6844 194.406 29.7142 194.602 29.7293C194.602 29.7293 194.745 29.5802 194.735 29.5355C194.725 29.4908 194.643 29.1627 194.581 29.1478C194.398 29.157 194.216 29.192 194.037 29.2522H194.016ZM25.2212 63.7229C25.4984 63.1713 25.6319 62.7836 25.1596 62.5152C24.9439 62.888 24.9542 63.2309 25.2417 63.7229H25.2212ZM31.2994 51.3331C31.2295 51.4013 31.1722 51.4934 31.1327 51.6013C31.0931 51.7092 31.0724 51.8296 31.0724 51.9519C31.0724 52.0741 31.0931 52.1945 31.1327 52.3024C31.1722 52.4103 31.2295 52.5024 31.2994 52.5706C31.3727 52.5074 31.4337 52.4183 31.4767 52.3115C31.5197 52.2047 31.5433 52.0838 31.5454 51.9601C31.5474 51.8364 31.5279 51.714 31.4884 51.6044C31.449 51.4947 31.391 51.4014 31.32 51.3331H31.2994ZM182.681 38.1233C182.729 38.2279 182.794 38.3137 182.87 38.373C182.946 38.4324 183.031 38.4634 183.118 38.4634C183.204 38.4634 183.289 38.4324 183.365 38.373C183.441 38.3137 183.506 38.2279 183.554 38.1233C183.506 38.0188 183.441 37.933 183.365 37.8736C183.289 37.8143 183.204 37.7833 183.118 37.7833C183.031 37.7833 182.946 37.8143 182.87 37.8736C182.794 37.933 182.729 38.0188 182.681 38.1233ZM193.174 37.3182V37.7059C193.365 37.7504 193.557 37.7803 193.749 37.7953C193.749 37.7953 193.903 37.6462 193.893 37.6015C193.883 37.5568 193.801 37.2139 193.739 37.2139C193.55 37.2046 193.361 37.2246 193.174 37.2735V37.3182ZM176.233 14.1489L176.387 14.3725C176.444 14.2426 176.489 14.1022 176.521 13.9551C176.521 13.9551 176.439 13.8209 176.387 13.7463L176.233 14.1489ZM193.821 13.8358L193.544 14.0594C193.595 14.0594 193.657 14.2682 193.688 14.2533C193.79 14.2107 193.887 14.1453 193.975 14.0594L193.821 13.8358ZM182.527 15.5057L182.681 15.2969C182.588 15.2139 182.488 15.1487 182.383 15.1031C182.383 15.1031 182.291 15.2224 182.24 15.2969L182.527 15.5057ZM100.522 15.9977L100.368 15.5951C100.368 15.5951 100.224 15.7591 100.234 15.8038C100.268 15.9496 100.313 16.0895 100.368 16.2213L100.522 15.9977ZM186.768 16.1318L187.055 15.9082C187.055 15.9082 186.942 15.6995 186.911 15.7144C186.807 15.76 186.707 15.8252 186.614 15.9082L186.768 16.1318ZM186.993 20.3214L186.829 19.9188C186.829 19.9934 186.685 20.0679 186.696 20.1276C186.732 20.2673 186.776 20.4021 186.829 20.5301L186.993 20.3214ZM54.9554 24.019L54.7911 23.6164C54.7911 23.6164 54.6474 23.7804 54.6576 23.8251C54.6916 23.9709 54.7364 24.1109 54.7911 24.2426L54.9554 24.019ZM46.608 25.5099L46.3308 25.7336C46.3308 25.8081 46.4335 25.9423 46.4643 25.9274C46.5689 25.8818 46.669 25.8166 46.762 25.7336L46.608 25.5099ZM36.9259 27.806L37.2031 27.5823C37.2031 27.5823 37.1004 27.3885 37.0594 27.3885C36.9608 27.4441 36.8648 27.5088 36.7719 27.5823L36.9259 27.806ZM14.5534 31.9955L14.3994 31.593C14.3994 31.593 14.2556 31.757 14.2659 31.8017C14.2999 31.9474 14.3446 32.0874 14.3994 32.2192L14.5534 31.9955ZM27.4286 32.2192C27.4286 32.2192 27.2849 32.3683 27.2951 32.413C27.3291 32.5587 27.3739 32.6987 27.4286 32.8305C27.4286 32.8305 27.5724 32.6814 27.5724 32.6367C27.5312 32.4685 27.476 32.3083 27.4081 32.1595L27.4286 32.2192ZM21.2682 32.9199L21.1142 33.1436C21.205 33.2231 21.3013 33.288 21.4017 33.3374C21.4017 33.3374 21.5044 33.2032 21.5454 33.1436L21.2682 32.9199ZM15.1078 35.0818L15.2618 35.3054C15.3188 35.1755 15.3637 35.0351 15.3953 34.888C15.3953 34.888 15.3132 34.7538 15.2618 34.6792L15.1078 35.0818ZM13.3726 36.3193L13.5266 36.528C13.5794 36.3999 13.6241 36.2652 13.6601 36.1255C13.6601 36.1255 13.5677 35.9913 13.5266 35.9167L13.3726 36.3193ZM181.757 37.5419L181.603 37.1542C181.603 37.1542 181.459 37.3033 181.47 37.348C181.499 37.4964 181.544 37.6372 181.603 37.7655L181.757 37.5419ZM180.556 41.1052L180.71 41.4929C180.761 41.4929 180.854 41.3438 180.843 41.2991C180.814 41.1507 180.769 41.0099 180.71 40.8816L180.556 41.1052ZM20.2928 44.1915L20.4468 44.5791C20.4468 44.5791 20.5906 44.43 20.5803 44.3853C20.5463 44.2396 20.5016 44.0996 20.4468 43.9678L20.2928 44.1915ZM187.938 44.9817L188.092 45.2053C188.15 45.074 188.198 44.9341 188.236 44.7879C188.236 44.7879 188.143 44.6537 188.092 44.5791L187.938 44.9817ZM30.6526 50.3342L30.4985 50.1105C30.4405 50.2419 30.3924 50.3818 30.3548 50.528C30.3548 50.528 30.4472 50.6622 30.4985 50.7218L30.6526 50.3342ZM23.1677 51.2586L23.3319 51.0349C23.2389 50.9519 23.1388 50.8868 23.0342 50.8411C23.0342 50.8411 22.9418 50.9604 22.8905 51.0349L23.1677 51.2586ZM189.18 51.5568L189.026 51.348C188.97 51.4728 188.925 51.6083 188.893 51.7506C188.893 51.7506 188.975 51.8848 189.026 51.9593L189.18 51.5568ZM22.4387 52.2724C22.3873 52.1979 22.336 52.0637 22.2949 52.0786C22.1928 52.1212 22.0958 52.1866 22.0075 52.2724C22.0075 52.2724 22.1101 52.4662 22.1512 52.4662C22.1922 52.4662 22.3257 52.3321 22.4387 52.2724ZM28.1473 56.0594L28.3014 56.2831C28.3584 56.1531 28.4032 56.0127 28.4348 55.8656C28.4348 55.8656 28.3527 55.7314 28.3014 55.6569L28.1473 56.0594Z" fill="#FFC906" fill-opacity="0.7"/>
</svg>
