<svg width="208" height="48" viewBox="0 0 208 48" fill="none" xmlns="http://www.w3.org/2000/svg">
<path fill-rule="evenodd" clip-rule="evenodd" d="M13.9453 8.18182H13.6235C13.0764 8.18182 10.459 4.69091 9.76173 4.69091C8.98938 4.69091 7.84157 6.15273 7.05848 6.96C6.55431 7.46182 4.71996 9.06545 4.71996 9.70909C4.71996 10.5491 5.1705 10.6582 6.02867 11.5418C9.07519 14.64 8.28138 13.3091 6.87612 16.8218C5.36359 20.5964 6.94048 20.2145 1.71635 20.1818C0.600722 20.1709 0 20.2036 0 21.3818V26.5636C0.128726 28.0364 0.654358 27.8182 2.57452 27.8182C7.25157 27.8182 4.99887 27.3927 7.54121 32.5855C8.61392 34.7673 8.49592 33.7636 5.1705 37.3418C4.00124 38.5964 5.0525 39.1309 6.88685 40.9964C9.94409 44.1055 9.3541 44.1055 12.0359 41.3782C14.3744 39 13.4197 39.6982 16.4555 40.9745C20.2315 42.5673 19.8453 41.1709 19.8453 45.1636C19.8453 46.0145 19.4698 48 20.8107 48C23.4711 48 25.638 45.72 25.638 42.9818C25.638 41.2255 25.7881 33.7527 25.5307 32.6182C25.3054 32.5091 24.9407 32.4655 24.6725 32.4C24.4258 31.3309 24.8763 31.0909 23.0634 31.0909C22.3447 31.0909 22.7202 32.0945 22.0336 32.3345C21.5831 32.4982 20.5962 32.1382 20.5962 31.5273C20.5962 31.0582 20.7678 31.1891 20.8107 30.6545C20.4996 30.2945 19.738 29.7709 19.3089 29.6727C18.7833 30.0327 18.9013 30.3273 18.2362 30.3273C17.7535 30.3273 17.2708 29.88 17.2708 29.4545C17.2708 28.8436 17.732 28.5927 18.0217 28.2545C17.9573 27.9491 17.6355 27.2945 17.4853 27.0545C17.024 26.3018 17.0133 26.8364 16.0908 26.8364C15.5866 26.8364 15.4471 26.28 15.4471 25.8545C15.4471 25.0473 16.1015 25.0255 16.7344 24.8727C16.8953 24.1527 16.8953 23.7382 16.7344 23.0182C16.1015 22.7127 15.4471 23.0073 15.4471 21.9273C15.4471 20.5418 17.0348 21.2618 17.1635 21.2727C17.3888 21.0764 17.4746 20.9782 17.6355 20.6618C17.8286 20.2691 18.0217 20.0618 18.0217 19.7455C18.0217 19.2 17.378 19.4182 17.378 18.5455C17.378 18.0545 17.8071 17.5636 18.2362 17.5636C19.5449 17.5636 18.322 19.1455 20.8107 17.4545L20.682 16.3636C20.6284 15.7964 22.0765 15.1964 22.452 16.1127C22.6236 16.5382 22.5485 16.8655 23.1707 16.8982C23.3745 16.9091 24.3078 16.7673 24.458 16.6909C24.576 16.44 24.5974 15.9273 24.6725 15.6C24.9407 15.5345 25.3161 15.4909 25.5307 15.3818C25.7881 14.2473 25.638 6.77455 25.638 5.01818C25.638 4.37455 25.4449 3.50182 25.2411 3.02182C25.0372 2.53091 24.5974 1.86545 24.2649 1.50545C23.5569 0.709091 22.0551 0 20.918 0C19.5556 0 19.8453 1.38545 19.8453 2.72727C19.8453 6.37091 20.0813 5.70545 17.9251 6.44727C16.5628 6.91636 14.2886 8.18182 13.9453 8.18182Z" fill="white"/>
<path fill-rule="evenodd" clip-rule="evenodd" d="M190.086 39.7086H195.449L195.556 24.545C195.556 25.2977 195.696 25.7777 195.792 26.4868C195.868 27.0541 195.986 27.7959 196.082 28.3741L197.809 39.7086H200.169C200.169 38.8032 201.832 28.7559 202.079 26.9232C202.175 26.2141 202.315 25.7341 202.315 24.9813L202.422 38.0722C202.422 40.1886 201.467 39.7086 208 39.7086V10.6904H200.813C200.727 11.7159 200.512 12.9377 200.394 13.9741L199.204 23.5632C199.107 23.8468 199.171 23.6613 199.096 23.7813C199.096 22.6359 198.893 21.5013 198.764 20.4104L197.809 12.1086C197.734 11.2141 197.788 10.6904 197.38 10.6904H190.086V39.7086Z" fill="white"/>
<path fill-rule="evenodd" clip-rule="evenodd" d="M104.268 34.4722H102.981V26.945C105.63 26.945 105.126 26.8686 105.126 33.0541C105.126 33.7959 105.008 34.4722 104.268 34.4722ZM104.161 21.8177H102.981V15.7086C105.341 15.7086 104.912 15.5886 104.912 20.6177C104.912 21.1413 104.622 21.8177 104.161 21.8177ZM96.5446 11.0177V39.7086H106.735C112.571 39.7086 111.777 32.945 111.777 28.5813C111.777 27.4359 111.445 26.1813 110.962 25.4832C110.05 24.1304 109.149 24.2068 108.774 23.6722C109.975 23.3886 111.241 21.3704 111.241 19.5268C111.241 15.3704 111.895 10.6904 106.199 10.6904H96.8664C96.6196 10.6904 96.5446 10.7668 96.5446 11.0177Z" fill="white"/>
<path fill-rule="evenodd" clip-rule="evenodd" d="M45.2687 39.7086H51.705V16.7995H53.5286V39.7086H59.9649V10.6904H45.2687V39.7086Z" fill="white"/>
<path fill-rule="evenodd" clip-rule="evenodd" d="M142.242 11.0177V39.7086H148.679V16.7995H150.502V39.3813C150.502 39.6322 150.577 39.7086 150.824 39.7086H156.939V10.6904H142.564C142.318 10.6904 142.242 10.7668 142.242 11.0177Z" fill="white"/>
<path fill-rule="evenodd" clip-rule="evenodd" d="M180.217 33.0549V17.3458C180.217 15.9495 182.362 15.7095 182.362 17.564V33.0549C182.362 34.3967 180.217 34.4077 180.217 33.0549ZM173.566 18.2186V32.7277C173.566 37.2877 176.258 40.1458 180.538 40.1458H182.04C186.492 40.1458 189.013 36.9495 189.013 32.4004V18.3277C189.013 16.1786 188.466 13.9422 187.533 12.7531C185.409 10.0149 182.898 10.364 179.788 10.364C178.018 10.364 176.151 11.2477 175.1 12.6877C174.113 14.0295 173.566 15.9167 173.566 18.2186Z" fill="white"/>
<path fill-rule="evenodd" clip-rule="evenodd" d="M132.481 32.7275V17.673C132.481 15.873 134.733 15.5784 134.733 17.8911V32.7275C134.733 34.1348 133.929 34.0366 133.446 34.0366C132.77 34.0366 132.481 33.4148 132.481 32.7275ZM125.83 20.182V30.6548C125.83 33.5348 126.044 35.782 127.257 37.4948C129.059 40.0693 131.462 40.1457 134.412 40.1457C135.559 40.1457 136.439 39.9166 137.297 39.5893C139.7 38.673 141.277 35.8366 141.277 33.1639V17.5639C141.277 13.5275 138.896 10.3639 134.948 10.3639C132.631 10.3639 131.204 10.1239 129.123 11.193C126.087 12.753 125.83 16.7457 125.83 20.182Z" fill="white"/>
<path fill-rule="evenodd" clip-rule="evenodd" d="M61.2522 39.7086H67.5812V28.5813L70.3703 39.7086H77.0212L73.2881 24.9595C72.859 23.2141 72.8912 23.6722 73.5992 21.3922L75.7339 14.2904C76.0557 13.1013 76.5277 11.8904 76.8066 10.6904H70.4776L69.0509 15.6759C68.8041 16.5486 68.5789 17.3122 68.3536 18.1304C68.2249 18.5886 68.1283 18.9377 67.9996 19.4068L67.6885 20.3995C67.6778 20.4213 67.6671 20.4541 67.6563 20.4759L67.5812 10.6904H61.2522V39.7086Z" fill="white"/>
<path fill-rule="evenodd" clip-rule="evenodd" d="M88.2847 21.7086C88.2847 23.585 88.703 25.8541 88.821 27.7086C88.8639 28.2868 89.0248 29.1159 89.0356 29.6722H87.3192L87.9521 23.6613C88.0379 22.6795 87.9736 21.9377 88.2847 21.7086ZM80.7756 39.7086H86.3538L86.7829 35.4541H89.5719L89.9688 38.7595C90.0225 39.2613 89.8616 39.7086 90.3228 39.7086H96.2228L92.5112 12.5013C92.4254 11.8904 92.2966 11.2359 92.2537 10.6904H84.4229C84.4229 11.2141 84.2727 11.9341 84.2191 12.4468L83.5325 17.9668C83.2322 20.3122 82.8996 22.8541 82.6207 25.2213C82.3203 27.6759 82.0307 30.0213 81.7089 32.4759C81.5265 33.8504 81.0009 38.705 80.7756 39.7086Z" fill="white"/>
<path fill-rule="evenodd" clip-rule="evenodd" d="M165.413 23.1268H164.555V15.8177C165.499 15.8177 166.271 15.6868 166.271 16.9086V22.2541C166.271 22.7777 165.928 23.1268 165.413 23.1268ZM158.119 11.0177V39.3813C158.119 39.6322 158.194 39.7086 158.44 39.7086H164.233C164.48 39.7086 164.555 39.6322 164.555 39.3813V28.5813C165.992 28.5813 168.342 28.7013 169.554 28.2104C171.796 27.305 172.708 25.145 172.708 22.4722V16.5813C172.708 12.7741 171.088 10.6904 167.344 10.6904H158.44C158.194 10.6904 158.119 10.7668 158.119 11.0177Z" fill="white"/>
<path fill-rule="evenodd" clip-rule="evenodd" d="M31.1088 16.7995H34.6487V39.7086H40.9778V16.7995H44.5177V10.6904H31.1088V16.7995Z" fill="white"/>
<path fill-rule="evenodd" clip-rule="evenodd" d="M111.885 16.7995H115.424V39.7086H121.754V16.7995H125.293V10.6904H111.885V16.7995Z" fill="white"/>
</svg>
