<?xml version="1.0" encoding="utf-8"?>
<!-- Generator: Adobe Illustrator 26.0.3, SVG Export Plug-In . SVG Version: 6.00 Build 0)  -->
<svg version="1.1" id="Слой_1" xmlns:xodm="http://www.corel.com/coreldraw/odm/2003"
	 xmlns="http://www.w3.org/2000/svg" xmlns:xlink="http://www.w3.org/1999/xlink" x="0px" y="0px" viewBox="0 0 1939 440"
	 style="enable-background:new 0 0 1939 440;" xml:space="preserve">
<style type="text/css">
	.st0{fill-rule:evenodd;clip-rule:evenodd;fill:#FFFFFF;}
</style>
<g id="Слой_x0020_1">
	<g>
		<g id="_1345233369840_00000128466766933140355720000011248446157138856635_">
			<path class="st0" d="M130,75h-3c-5.1,0-29.5-32-36-32c-7.2,0-17.9,13.4-25.2,20.8C61.1,68.4,44,83.1,44,89
				c0,7.7,4.2,8.7,12.2,16.8c28.4,28.4,21,16.2,7.9,48.4C50,188.8,64.7,185.3,16,185c-10.4-0.1-16,0.2-16,11v47.5
				C1.2,257,6.1,255,24,255c43.6,0,22.6-3.9,46.3,43.7c10,20,8.9,10.8-22.1,43.6c-10.9,11.5-1.1,16.4,16,33.5
				c28.5,28.5,23,28.5,48,3.5c21.8-21.8,12.9-15.4,41.2-3.7c35.2,14.6,31.6,1.8,31.6,38.4c0,7.8-3.5,26,9,26c24.8,0,45-20.9,45-46
				c0-16.1,1.4-84.6-1-95c-2.1-1-5.5-1.4-8-2c-2.3-9.8,1.9-12-15-12c-6.7,0-3.2,9.2-9.6,11.4c-4.2,1.5-13.4-1.8-13.4-7.4
				c0-4.3,1.6-3.1,2-8c-2.9-3.3-10-8.1-14-9c-4.9,3.3-3.8,6-10,6c-4.5,0-9-4.1-9-8c0-5.6,4.3-7.9,7-11c-0.6-2.8-3.6-8.8-5-11
				c-4.3-6.9-4.4-2-13-2c-4.7,0-6-5.1-6-9c0-7.4,6.1-7.6,12-9c1.5-6.6,1.5-10.4,0-17c-5.9-2.8-12-0.1-12-10c0-12.7,14.8-6.1,16-6
				c2.1-1.8,2.9-2.7,4.4-5.6c1.8-3.6,3.6-5.5,3.6-8.4c0-5-6-3-6-11c0-4.5,4-9,8-9c12.2,0,0.8,14.5,24-1l-1.2-10
				c-0.5-5.2,13-10.7,16.5-2.3c1.6,3.9,0.9,6.9,6.7,7.2c1.9,0.1,10.6-1.2,12-1.9c1.1-2.3,1.3-7,2-10c2.5-0.6,6-1,8-2
				c2.4-10.4,1-78.9,1-95c0-5.9-1.8-13.9-3.7-18.3c-1.9-4.5-6-10.6-9.1-13.9C219.6,6.5,205.6,0,195,0c-12.7,0-10,12.7-10,25
				c0,33.4,2.2,27.3-17.9,34.1C154.4,63.4,133.2,75,130,75L130,75z"/>
			<path class="st0" d="M1772,364h50l1-139c0,6.9,1.3,11.3,2.2,17.8c0.7,5.2,1.8,12,2.7,17.3L1844,364h22
				c0-8.3,15.5-100.4,17.8-117.2c0.9-6.5,2.2-10.9,2.2-17.8l1,120c0,19.4-8.9,15,52,15V98h-67c-0.8,9.4-2.8,20.6-3.9,30.1L1857,216
				c-0.9,2.6-0.3,0.9-1,2c0-10.5-1.9-20.9-3.1-30.9L1844,111c-0.7-8.2-0.2-13-4-13h-68L1772,364L1772,364z"/>
			<path class="st0" d="M972,316h-12v-69c24.7,0,20-0.7,20,56C980,309.8,978.9,316,972,316z M971,200h-11v-56c22,0,18-1.1,18,45
				C978,193.8,975.3,200,971,200z M900,101v263h95c54.4,0,47-62,47-102c0-10.5-3.1-22-7.6-28.4c-8.5-12.4-16.9-11.7-20.4-16.6
				c11.2-2.6,23-21.1,23-38c0-38.1,6.1-81-47-81h-87C900.7,98,900,98.7,900,101z"/>
			<polygon class="st0" points="422,364 482,364 482,154 499,154 499,364 559,364 559,98 422,98 			"/>
			<path class="st0" d="M1326,101v263h60V154h17v207c0,2.3,0.7,3,3,3h57V98h-134C1326.7,98,1326,98.7,1326,101L1326,101z"/>
			<path class="st0" d="M1680,303V159c0-12.8,20-15,20,2v142C1700,315.3,1680,315.4,1680,303z M1618,167v133c0,41.8,25.1,68,65,68
				h14c41.5,0,65-29.3,65-71V168c0-19.7-5.1-40.2-13.8-51.1C1728.4,91.8,1705,95,1676,95c-16.5,0-33.9,8.1-43.7,21.3
				C1623.1,128.6,1618,145.9,1618,167L1618,167z"/>
			<path class="st0" d="M1235,300V162c0-16.5,21-19.2,21,2v136c0,12.9-7.5,12-12,12C1237.7,312,1235,306.3,1235,300z M1173,185v96
				c0,26.4,2,47,13.3,62.7c16.8,23.6,39.2,24.3,66.7,24.3c10.7,0,18.9-2.1,26.9-5.1c22.4-8.4,37.1-34.4,37.1-58.9V161
				c0-37-22.2-66-59-66c-21.6,0-34.9-2.2-54.3,7.6C1175.4,116.9,1173,153.5,1173,185z"/>
			<path class="st0" d="M571,364h59V262l26,102h62l-34.8-135.2c-4-16-3.7-11.8,2.9-32.7L706,131c3-10.9,7.4-22,10-33h-59l-13.3,45.7
				c-2.3,8-4.4,15-6.5,22.5c-1.2,4.2-2.1,7.4-3.3,11.7l-2.9,9.1c-0.1,0.2-0.2,0.5-0.3,0.7L630,98h-59L571,364L571,364z"/>
			<path class="st0" d="M823,199c0,17.2,3.9,38,5,55c0.4,5.3,1.9,12.9,2,18h-16l5.9-55.1C820.7,207.9,820.1,201.1,823,199L823,199z
				 M753,364h52l4-39h26l3.7,30.3c0.5,4.6-1,8.7,3.3,8.7h55l-34.6-249.4c-0.8-5.6-2-11.6-2.4-16.6h-73c0,4.8-1.4,11.4-1.9,16.1
				l-6.4,50.6c-2.8,21.5-5.9,44.8-8.5,66.5c-2.8,22.5-5.5,44-8.5,66.5C760,310.3,755.1,354.8,753,364L753,364z"/>
			<path class="st0" d="M1542,212h-8v-67c8.8,0,16-1.2,16,10v49C1550,208.8,1546.8,212,1542,212z M1474,101v260c0,2.3,0.7,3,3,3h54
				c2.3,0,3-0.7,3-3v-99c13.4,0,35.3,1.1,46.6-3.4c20.9-8.3,29.4-28.1,29.4-52.6v-54c0-34.9-15.1-54-50-54h-83
				C1474.7,98,1474,98.7,1474,101L1474,101z"/>
			<polygon class="st0" points="290,154 323,154 323,364 382,364 382,154 415,154 415,98 290,98 			"/>
			<polygon class="st0" points="1043,154 1076,154 1076,364 1135,364 1135,154 1168,154 1168,98 1043,98 			"/>
		</g>
	</g>
</g>
</svg>
