<?xml version="1.0" encoding="utf-8"?>
<!-- Generator: Adobe Illustrator 26.0.3, SVG Export Plug-In . SVG Version: 6.00 Build 0)  -->
<svg version="1.1" id="Слой_1" xmlns:xodm="http://www.corel.com/coreldraw/odm/2003"
	 xmlns="http://www.w3.org/2000/svg" xmlns:xlink="http://www.w3.org/1999/xlink" x="0px" y="0px" viewBox="0 0 905.7 69.2"
	 style="enable-background:new 0 0 905.7 69.2;" xml:space="preserve">
<style type="text/css">
	.st0{fill:#FFFFFF;}
</style>
<g>
	<path class="st0" d="M0,0.7h12.8v67.8H0V0.7z M5.9,0.7h39.5V13H5.9V0.7z M37.1,0.7h12.8v67.8H37.1V0.7z"/>
	<path class="st0" d="M62,0.7h12.8v67.8H62V0.7z M66.6,0.7h40.8V13H66.6V0.7z M66.6,28.7h35.6V41H66.6V28.7z M66.6,56.1h40.8v12.3
		H66.6V56.1z"/>
	<path class="st0" d="M116.3,0.7H129v67.8h-12.8V0.7z M121.8,28.7h24V41h-24V28.7z M135.1,38.6l11.6-4.9L170,68.5h-16L135.1,38.6z
		 M135.1,31.3l17.3-30.6h14.7l-22.6,38.9L135.1,31.3z"/>
	<path class="st0" d="M194.1,0.7h8.1l25.9,67.8h-13.7l-16.2-46.3L182,68.5h-13.7L194.1,0.7z M180.7,45.3h35.6v12.3h-35.6V45.3z"/>
	<path class="st0" d="M233.8,0.7h12.8v67.8h-12.8V0.7z M239.6,29.9h21.7c1.5,0,2.9-0.3,4-1c1.2-0.7,2.1-1.7,2.7-3s1-2.7,1-4.4
		c0-1.7-0.3-3.2-1-4.5c-0.6-1.3-1.5-2.3-2.7-3c-1.2-0.7-2.5-1-4.1-1h-21.7V0.7h21.3c4.2,0,7.9,0.9,11.2,2.6s5.7,4.2,7.5,7.3
		c1.8,3.1,2.7,6.8,2.7,10.9c0,4.1-0.9,7.8-2.7,10.9c-1.8,3.1-4.3,5.5-7.5,7.2c-3.2,1.7-6.9,2.6-11.2,2.6h-21.3V29.9z"/>
	<path class="st0" d="M290.9,0.7h12.8v67.8h-12.8V0.7z M296.8,28.7h39.5V41h-39.5V28.7z M328,0.7h12.8v67.8H328V0.7z"/>
	<path class="st0" d="M392.6,68.4V14.2l1.1,1.2l-25.6,53h-15.2V0.7h12.2v55l-1.1-1.2l25.7-53.8h15.1v67.7H392.6z"/>
	<path class="st0" d="M449.7,66.2c-3.7-2-6.5-4.8-8.4-8.6c-1.9-3.8-2.9-8.3-2.9-13.7V25.3c0-5.3,1-9.9,2.9-13.7
		c1.9-3.8,4.7-6.7,8.4-8.6c3.7-2,8.1-3,13.2-3c4.3,0,8.1,0.9,11.4,2.7c3.4,1.8,6.1,4.5,8.3,8c2.2,3.5,3.7,7.7,4.5,12.7h-13.2
		c-0.5-2.2-1.3-4.1-2.3-5.7s-2.3-2.8-3.8-3.6c-1.5-0.8-3.1-1.3-5-1.3c-2.4,0-4.4,0.5-6.1,1.5c-1.7,1-3,2.4-3.8,4.3
		c-0.9,1.9-1.3,4.1-1.3,6.8v18.6c0,2.6,0.4,4.9,1.3,6.8c0.9,1.9,2.2,3.3,3.8,4.3c1.7,1,3.7,1.5,6.1,1.5c1.9,0,3.5-0.4,5-1.2
		s2.7-2,3.8-3.6c1-1.6,1.8-3.5,2.2-5.8h13.2c-0.9,4.9-2.4,9.2-4.6,12.7c-2.2,3.5-5,6.2-8.3,8c-3.3,1.8-7.1,2.8-11.4,2.8
		C457.7,69.2,453.3,68.2,449.7,66.2z"/>
	<path class="st0" d="M534.8,68.4V14.2l1.1,1.2l-25.6,53h-15.2V0.7h12.2v55l-1.1-1.2l25.7-53.8H547v67.7H534.8z"/>
	<path class="st0" d="M559.2,0.7H572v67.8h-12.8V0.7z M565.1,28.7h39.5V41h-39.5V28.7z M596.3,0.7H609v67.8h-12.8V0.7z"/>
	<path class="st0" d="M621.2,0.7H634v67.8h-12.8V0.7z M627.1,28.7h39.5V41h-39.5V28.7z M658.3,0.7h12.8v67.8h-12.8V0.7z"/>
	<path class="st0" d="M701.6,0.7h8.1l25.9,67.8h-13.7l-16.2-46.3l-16.2,46.3h-13.7L701.6,0.7z M688.2,45.3h35.6v12.3h-35.6V45.3z"/>
	<path class="st0" d="M741.3,0.7h12.8v67.8h-12.8V0.7z M745.9,0.7h38.9V13h-38.9V0.7z M747.1,56.1h21.7c1.5,0,2.9-0.4,4-1.1
		c1.2-0.7,2.1-1.7,2.7-3s1-2.8,1-4.5c0-1.7-0.3-3.3-1-4.6c-0.6-1.3-1.5-2.3-2.7-3.1c-1.2-0.7-2.5-1.1-4.1-1.1h-21.7V26.5h21.3
		c4.2,0,7.9,0.9,11.2,2.6c3.2,1.7,5.7,4.2,7.5,7.4c1.8,3.2,2.7,6.9,2.7,11c0,4.2-0.9,7.8-2.7,11c-1.8,3.2-4.3,5.6-7.5,7.3
		c-3.2,1.7-6.9,2.6-11.2,2.6h-21.3V56.1z"/>
	<path class="st0" d="M808.3,66.1c-3.7-2.1-6.6-5-8.7-8.8c-2.1-3.8-3.1-8.1-3.1-13.1V25c0-5,1-9.3,3.1-13.1c2-3.8,4.9-6.7,8.7-8.8
		C812,1,816.4,0,821.3,0c4.9,0,9.2,1,13,3.1c3.7,2.1,6.6,5,8.7,8.8C845,15.6,846,20,846,25v19.2c0,5-1,9.3-3.1,13.1
		c-2,3.8-4.9,6.7-8.7,8.8c-3.7,2.1-8.1,3.1-13,3.1C816.4,69.2,812,68.1,808.3,66.1z M827.3,54.9c1.7-1,3.1-2.4,4-4.2
		c0.9-1.8,1.4-3.9,1.4-6.2V24.6c0-2.4-0.5-4.4-1.4-6.2c-0.9-1.8-2.3-3.2-4-4.2c-1.7-1-3.8-1.5-6.1-1.5c-2.3,0-4.3,0.5-6.1,1.5
		c-1.7,1-3.1,2.4-4,4.2c-0.9,1.8-1.4,3.9-1.4,6.2v19.9c0,2.4,0.5,4.4,1.4,6.2c0.9,1.8,2.3,3.2,4,4.2c1.7,1,3.8,1.5,6.1,1.5
		C823.6,56.4,825.6,55.9,827.3,54.9z"/>
	<path class="st0" d="M855.8,0.7h12.8v67.8h-12.8V0.7z M861.8,28.7h39.5V41h-39.5V28.7z M892.9,0.7h12.8v67.8h-12.8V0.7z"/>
</g>
</svg>
