<svg width="176" height="51" viewBox="0 0 176 51" fill="none" xmlns="http://www.w3.org/2000/svg">
<path d="M19.3209 22H13.0604V4.93052H6.7213V22H0.476562V0.0899183H19.3209V22Z" fill="#B6B6B6"/>
<path d="M41.1664 22H27.513V0.0899183H41.1664V4.8406H33.7262V8.28747H40.6159V13.0381H33.7262V17.1744H41.1664V22Z" fill="#B6B6B6"/>
<path d="M68.5174 22H61.4862L54.6595 10.8951V22H48.4147V0.0899183H54.6595V10.7003L61.2345 0.0899183H68.0613L60.9671 10.5504L68.5174 22Z" fill="#B6B6B6"/>
<path d="M88.208 22L87.0755 17.8937H79.6038L78.4398 22H71.6131L79.1162 0H87.4058L95.0033 22H88.208ZM85.7856 13.0381L84.7946 9.44142C84.5639 8.64214 84.2808 7.60808 83.9452 6.33924C83.6201 5.07039 83.4052 4.16122 83.3003 3.61172C83.2059 4.12125 83.0172 4.96049 82.734 6.12943C82.4614 7.29837 81.8479 9.60127 80.8936 13.0381H85.7856Z" fill="#B6B6B6"/>
<path d="M117.415 7.05858C117.415 9.50636 116.655 11.3996 115.134 12.7384C113.624 14.0672 111.474 14.7316 108.685 14.7316H106.939V22H100.726V0.0899183H108.685C111.59 0.0899183 113.771 0.694369 115.229 1.90327C116.686 3.11217 117.415 4.83061 117.415 7.05858ZM106.939 9.906H108.072C109.005 9.906 109.744 9.65622 110.29 9.15668C110.845 8.65713 111.123 7.96776 111.123 7.08856C111.123 5.6099 110.263 4.87057 108.544 4.87057H106.939V9.906Z" fill="#B6B6B6"/>
<path d="M144.011 22H137.766V13.0681H130.546V22H124.302V0.0899183H130.546V8.21253H137.766V0.0899183H144.011V22Z" fill="#B6B6B6"/>
<path d="M152.219 0.0899183H157.756V9.50136C157.756 10.5005 157.672 12.4986 157.504 15.4959H157.63L166.8 0.0899183H174.477V22H168.971V12.8283C168.971 11.4396 169.066 9.36149 169.254 6.59401H169.128L159.879 22H152.219V0.0899183Z" fill="#B6B6B6"/>
<path d="M10.3271 33.0225C8.9502 33.0225 7.87598 33.5889 7.10449 34.7217C6.33301 35.8447 5.94727 37.3975 5.94727 39.3799C5.94727 43.501 7.51465 45.5615 10.6494 45.5615C11.5967 45.5615 12.5146 45.4297 13.4033 45.166C14.292 44.9023 15.1855 44.585 16.084 44.2139V49.1064C14.2969 49.8975 12.2754 50.293 10.0195 50.293C6.78711 50.293 4.30664 49.3555 2.57812 47.4805C0.859375 45.6055 0 42.8955 0 39.3506C0 37.1338 0.415039 35.1855 1.24512 33.5059C2.08496 31.8262 3.28613 30.5371 4.84863 29.6387C6.4209 28.7305 8.2666 28.2764 10.3857 28.2764C12.7002 28.2764 14.9121 28.7793 17.0215 29.7852L15.249 34.3408C14.458 33.9697 13.667 33.6572 12.876 33.4033C12.085 33.1494 11.2354 33.0225 10.3271 33.0225Z" fill="#B6B6B6"/>
<path d="M20.2734 28.584H25.4297V37.7832C25.4297 38.7598 25.3516 40.7129 25.1953 43.6426H25.3125L33.8525 28.584H41.001V50H35.874V41.0352C35.874 39.6777 35.9619 37.6465 36.1377 34.9414H36.0205L27.4072 50H20.2734V28.584Z" fill="#B6B6B6"/>
<path d="M63.999 50H58.1836V41.2695H51.46V50H45.6445V28.584H51.46V36.5234H58.1836V28.584H63.999V50Z" fill="#B6B6B6"/>
<path d="M86.9971 50H81.1816V41.2695H74.458V50H68.6426V28.584H74.458V36.5234H81.1816V28.584H86.9971V50Z" fill="#B6B6B6"/>
<path d="M104.78 50L103.726 45.9863H96.7676L95.6836 50H89.3262L96.3135 28.4961H104.033L111.108 50H104.78ZM102.524 41.2402L101.602 37.7246C101.387 36.9434 101.123 35.9326 100.811 34.6924C100.508 33.4521 100.308 32.5635 100.21 32.0264C100.122 32.5244 99.9463 33.3447 99.6826 34.4873C99.4287 35.6299 98.8574 37.8809 97.9688 41.2402H102.524Z" fill="#B6B6B6"/>
<path d="M129.272 43.042C129.272 45.2881 128.501 47.0117 126.958 48.2129C125.425 49.4043 123.208 50 120.308 50H113.438V28.584H127.529V33.2275H119.253V36.4941H120.088C123.086 36.4941 125.366 37.041 126.929 38.1348C128.491 39.2188 129.272 40.8545 129.272 43.042ZM119.253 45.5322H120.029C121.24 45.5322 122.109 45.332 122.637 44.9316C123.164 44.5312 123.428 43.9404 123.428 43.1592C123.428 42.3779 123.145 41.8018 122.578 41.4307C122.021 41.0596 121.162 40.874 120 40.874H119.253V45.5322Z" fill="#B6B6B6"/>
<path d="M152.9 39.2627C152.9 42.8662 152.017 45.6055 150.249 47.4805C148.481 49.3555 145.894 50.293 142.485 50.293C139.126 50.293 136.548 49.3506 134.751 47.4658C132.964 45.5811 132.07 42.8369 132.07 39.2334C132.07 35.6689 132.959 32.9492 134.736 31.0742C136.523 29.1895 139.116 28.2471 142.515 28.2471C145.923 28.2471 148.506 29.1797 150.264 31.0449C152.021 32.9102 152.9 35.6494 152.9 39.2627ZM138.164 39.2627C138.164 43.4033 139.604 45.4736 142.485 45.4736C143.95 45.4736 145.034 44.9707 145.737 43.9648C146.45 42.959 146.807 41.3916 146.807 39.2627C146.807 37.124 146.445 35.5469 145.723 34.5312C145.01 33.5059 143.94 32.9932 142.515 32.9932C139.614 32.9932 138.164 35.083 138.164 39.2627Z" fill="#B6B6B6"/>
<path d="M175.122 50H169.307V41.2695H162.583V50H156.768V28.584H162.583V36.5234H169.307V28.584H175.122V50Z" fill="#B6B6B6"/>
</svg>
