<svg width="228" height="29" viewBox="0 0 228 29" fill="none" xmlns="http://www.w3.org/2000/svg">
<path d="M17.5689 28.6146H11.7322V6.66711H5.82209V28.6146H0V0.443189H17.5689V28.6146Z" fill="#B6B6B6"/>
<path d="M37.7629 9.40332C37.7629 12.5506 37.0541 14.9849 35.6365 16.7063C34.2286 18.4148 32.2243 19.2691 29.6237 19.2691H27.9959V28.6146H22.2031V0.443189H29.6237C32.3319 0.443189 34.3655 1.22038 35.7244 2.77475C37.0834 4.32912 37.7629 6.53865 37.7629 9.40332ZM27.9959 13.0645H29.0518C29.9219 13.0645 30.6112 12.7433 31.1196 12.101C31.6377 11.4587 31.8968 10.5723 31.8968 9.44186C31.8968 7.54064 31.0951 6.59003 29.4917 6.59003H27.9959V13.0645Z" fill="#B6B6B6"/>
<path d="M61.2419 14.4904C61.2419 19.2306 60.3571 22.8339 58.5875 25.3003C56.8179 27.7668 54.2271 29 50.8149 29C47.4517 29 44.8706 27.7604 43.0717 25.2811C41.2826 22.8018 40.388 19.192 40.388 14.4518C40.388 9.76301 41.2777 6.18538 43.0571 3.71894C44.8462 1.23965 47.4419 0 50.8443 0C54.2564 0 56.8423 1.2268 58.6022 3.6804C60.362 6.134 61.2419 9.73732 61.2419 14.4904ZM46.4887 14.4904C46.4887 19.9371 47.9308 22.6605 50.8149 22.6605C52.2815 22.6605 53.3667 21.9989 54.0706 20.6757C54.7843 19.3526 55.1412 17.2908 55.1412 14.4904C55.1412 11.6771 54.7794 9.60244 54.056 8.26645C53.3423 6.91761 52.2717 6.24319 50.8443 6.24319C47.9406 6.24319 46.4887 8.99225 46.4887 14.4904Z" fill="#B6B6B6"/>
<path d="M74.4553 28.6146L70.0704 8.32425H69.9384C70.1437 11.7798 70.2463 14.4647 70.2463 16.3787V28.6146H65.1135V0.443189H72.8274L77.3003 20.4445H77.4176L81.8025 0.443189H89.5311V28.6146H84.2076V16.2631C84.2076 15.6208 84.2125 14.9079 84.2223 14.1243C84.2418 13.3406 84.3103 11.4202 84.4276 8.36279H84.2956L79.9694 28.6146H74.4553Z" fill="#B6B6B6"/>
<path d="M112.409 28.6146H106.587V6.66711H102.495C102.27 9.86578 101.967 13.1223 101.586 16.4365C101.214 19.7508 100.858 22.076 100.515 23.412C100.173 24.748 99.7381 25.8142 99.2101 26.6106C98.692 27.3942 98.0467 27.9916 97.2743 28.4027C96.502 28.8009 95.5683 29 94.4733 29C93.6422 29 92.8845 28.8587 92.2002 28.5761V22.699C92.7868 22.9559 93.2658 23.0844 93.6374 23.0844C94.1458 23.0844 94.5319 22.8082 94.7959 22.2558C95.0697 21.6906 95.319 20.74 95.5438 19.404C95.7687 18.0551 96.0816 15.563 96.4824 11.9276C96.8833 8.27929 97.2548 4.45116 97.597 0.443189H112.409V28.6146Z" fill="#B6B6B6"/>
<path d="M129.787 28.6146H117.058V0.443189H129.787V6.5515H122.85V10.9834H129.274V17.0917H122.85V22.41H129.787V28.6146Z" fill="#B6B6B6"/>
<path d="M143.088 6.28173C141.71 6.28173 140.634 7.0268 139.862 8.51694C139.09 9.99424 138.704 12.0368 138.704 14.6445C138.704 20.0656 140.273 22.7761 143.411 22.7761C144.359 22.7761 145.278 22.6027 146.168 22.2558C147.058 21.909 147.952 21.4915 148.852 21.0033V27.4392C147.063 28.4797 145.039 29 142.78 29C139.544 29 137.061 27.7668 135.331 25.3003C133.61 22.8339 132.749 19.2691 132.749 14.606C132.749 11.6899 133.165 9.12713 133.996 6.91761C134.837 4.70808 136.039 3.0124 137.604 1.83056C139.178 0.63588 141.026 0.0385382 143.147 0.0385382C145.464 0.0385382 147.679 0.700111 149.79 2.02326L148.016 8.01595C147.224 7.5278 146.432 7.11672 145.64 6.78272C144.848 6.44873 143.998 6.28173 143.088 6.28173Z" fill="#B6B6B6"/>
<path d="M162.505 28.6146H156.712V6.66711H151.477V0.443189H167.726V6.66711H162.505V28.6146Z" fill="#B6B6B6"/>
<path d="M190.853 14.4904C190.853 19.2306 189.968 22.8339 188.199 25.3003C186.429 27.7668 183.838 29 180.426 29C177.063 29 174.482 27.7604 172.683 25.2811C170.894 22.8018 169.999 19.192 169.999 14.4518C169.999 9.76301 170.889 6.18538 172.668 3.71894C174.457 1.23965 177.053 0 180.455 0C183.867 0 186.453 1.2268 188.213 3.6804C189.973 6.134 190.853 9.73732 190.853 14.4904ZM176.1 14.4904C176.1 19.9371 177.542 22.6605 180.426 22.6605C181.893 22.6605 182.978 21.9989 183.682 20.6757C184.395 19.3526 184.752 17.2908 184.752 14.4904C184.752 11.6771 184.391 9.60244 183.667 8.26645C182.953 6.91761 181.883 6.24319 180.455 6.24319C177.552 6.24319 176.1 8.99225 176.1 14.4904Z" fill="#B6B6B6"/>
<path d="M210.284 9.40332C210.284 12.5506 209.576 14.9849 208.158 16.7063C206.75 18.4148 204.746 19.2691 202.145 19.2691H200.517V28.6146H194.725V0.443189H202.145C204.853 0.443189 206.887 1.22038 208.246 2.77475C209.605 4.32912 210.284 6.53865 210.284 9.40332ZM200.517 13.0645H201.573C202.443 13.0645 203.133 12.7433 203.641 12.101C204.159 11.4587 204.418 10.5723 204.418 9.44186C204.418 7.54064 203.617 6.59003 202.013 6.59003H200.517V13.0645Z" fill="#B6B6B6"/>
<path d="M228 0.443189V6.59003H219.523V28.6146H213.701V0.443189H228Z" fill="#B6B6B6"/>
</svg>
