<?xml version="1.0" encoding="utf-8"?>
<!-- Generator: Adobe Illustrator 26.0.3, SVG Export Plug-In . SVG Version: 6.00 Build 0)  -->
<svg version="1.1" id="Слой_1" xmlns="http://www.w3.org/2000/svg" xmlns:xlink="http://www.w3.org/1999/xlink" x="0px" y="0px"
	 viewBox="0 0 175.9 21" style="enable-background:new 0 0 175.9 21;" xml:space="preserve">
<style type="text/css">
	.st0{fill:#FFFFFF;}
</style>
<path class="st0" d="M14.5,0.3v20.4h-4.4v-16H4.4v16H0V0.3H14.5z M16.9,20.7V0.3h7.2c1.2,0,2.3,0.3,3.2,0.9c0.9,0.6,1.6,1.4,2.2,2.5
	c0.5,1.1,0.8,2.4,0.8,3.8c0,1.5-0.3,2.7-0.8,3.8c-0.5,1.1-1.3,1.9-2.2,2.5c-0.9,0.6-2.1,0.9-3.3,0.9h-4.3v-4.3h3.4
	c0.5,0,1-0.1,1.4-0.3c0.4-0.2,0.7-0.6,0.9-1c0.2-0.4,0.3-0.9,0.3-1.5c0-0.6-0.1-1.1-0.3-1.5c-0.2-0.4-0.5-0.7-0.9-1
	c-0.4-0.2-0.8-0.3-1.4-0.3h-1.6v16H16.9z M47.6,10.5c0,2.3-0.4,4.2-1.1,5.8c-0.7,1.6-1.7,2.7-2.9,3.5C42.4,20.6,41,21,39.5,21
	c-1.5,0-2.9-0.4-4.1-1.2c-1.2-0.8-2.2-2-2.9-3.6c-0.7-1.6-1.1-3.5-1.1-5.7c0-2.3,0.4-4.2,1.1-5.7c0.7-1.6,1.7-2.7,2.9-3.5
	C36.6,0.4,38,0,39.5,0c1.5,0,2.9,0.4,4.1,1.2c1.2,0.8,2.2,2,2.9,3.5C47.2,6.3,47.6,8.2,47.6,10.5z M43,10.5c0-1.2-0.1-2.3-0.4-3.1
	c-0.3-0.8-0.6-1.5-1.2-1.9c-0.5-0.4-1.1-0.7-1.9-0.7c-0.7,0-1.4,0.2-1.9,0.7c-0.5,0.4-0.9,1.1-1.2,1.9c-0.3,0.8-0.4,1.9-0.4,3.1
	s0.1,2.3,0.4,3.1c0.3,0.8,0.7,1.5,1.2,1.9c0.5,0.4,1.1,0.6,1.9,0.6c0.7,0,1.4-0.2,1.9-0.6c0.5-0.4,0.9-1.1,1.2-1.9
	C42.8,12.8,43,11.7,43,10.5z M49.2,0.3h5.6l3.9,11.6h0.2l3.9-11.6h5.6v20.4H64V8.9h-0.1l-3.7,11.7h-2.7L53.8,8.8h-0.1v11.9h-4.4V0.3
	z M69.5,20.7v-4.3l0.5-0.1c0.6-0.1,1-0.4,1.4-0.9c0.4-0.5,0.6-1.3,0.8-2.3c0.2-1.1,0.3-2.5,0.4-4.3l0.3-8.6h12v20.4h-4.4V4.6H77
	L76.7,11c-0.1,2.4-0.4,4.3-0.8,5.7s-1.1,2.4-1.9,3.1c-0.9,0.6-2,0.9-3.4,0.9H69.5z M86.6,20.7V0.3h12v4.5h-7.5v3.5h6.9v4.5h-6.9v3.5
	h7.4v4.5H86.6z M115.9,7.9h-4.6c0-0.5-0.1-0.9-0.3-1.3c-0.1-0.4-0.3-0.7-0.6-1c-0.2-0.3-0.5-0.5-0.9-0.6c-0.3-0.2-0.7-0.2-1.2-0.2
	c-0.8,0-1.4,0.2-1.9,0.7c-0.5,0.5-0.9,1.1-1.2,1.9c-0.3,0.8-0.4,1.9-0.4,3c0,1.3,0.1,2.3,0.4,3.1c0.3,0.8,0.7,1.5,1.2,1.9
	c0.5,0.4,1.1,0.6,1.9,0.6c0.4,0,0.8-0.1,1.1-0.2c0.3-0.1,0.6-0.3,0.9-0.6c0.2-0.2,0.4-0.5,0.6-0.9c0.2-0.4,0.3-0.7,0.3-1.2l4.6,0
	c-0.1,0.9-0.3,1.7-0.6,2.6c-0.3,0.9-0.8,1.7-1.5,2.5c-0.6,0.8-1.4,1.4-2.3,1.8s-2,0.7-3.2,0.7c-1.5,0-2.9-0.4-4.1-1.2
	c-1.2-0.8-2.2-2-2.9-3.6c-0.7-1.6-1-3.5-1-5.7c0-2.3,0.4-4.2,1.1-5.7c0.7-1.6,1.7-2.7,2.9-3.5c1.2-0.8,2.6-1.2,4.1-1.2
	c1.1,0,2,0.2,2.9,0.5c0.9,0.4,1.7,0.9,2.3,1.5c0.7,0.7,1.2,1.5,1.6,2.5C115.5,5.5,115.8,6.7,115.9,7.9z M117,4.8V0.3h14.5v4.5h-5v16
	H122v-16H117z M148,10.5c0,2.3-0.4,4.2-1.1,5.8c-0.7,1.6-1.7,2.7-2.9,3.5c-1.2,0.8-2.6,1.2-4.1,1.2c-1.5,0-2.9-0.4-4.1-1.2
	c-1.2-0.8-2.2-2-2.9-3.6c-0.7-1.6-1.1-3.5-1.1-5.7c0-2.3,0.4-4.2,1.1-5.7c0.7-1.6,1.7-2.7,2.9-3.5c1.2-0.8,2.6-1.2,4.1-1.2
	c1.5,0,2.9,0.4,4.1,1.2c1.2,0.8,2.2,2,2.9,3.5C147.6,6.3,148,8.2,148,10.5z M143.4,10.5c0-1.2-0.1-2.3-0.4-3.1
	c-0.3-0.8-0.6-1.5-1.2-1.9c-0.5-0.4-1.1-0.7-1.9-0.7c-0.7,0-1.4,0.2-1.9,0.7c-0.5,0.4-0.9,1.1-1.2,1.9c-0.3,0.8-0.4,1.9-0.4,3.1
	s0.1,2.3,0.4,3.1c0.3,0.8,0.7,1.5,1.2,1.9c0.5,0.4,1.1,0.6,1.9,0.6c0.7,0,1.4-0.2,1.9-0.6c0.5-0.4,0.9-1.1,1.2-1.9
	C143.2,12.8,143.4,11.7,143.4,10.5z M149.6,20.7V0.3h7.2c1.2,0,2.3,0.3,3.2,0.9c0.9,0.6,1.6,1.4,2.2,2.5c0.5,1.1,0.8,2.4,0.8,3.8
	c0,1.5-0.3,2.7-0.8,3.8c-0.5,1.1-1.3,1.9-2.2,2.5c-0.9,0.6-2.1,0.9-3.3,0.9h-4.3v-4.3h3.4c0.5,0,1-0.1,1.4-0.3
	c0.4-0.2,0.7-0.6,0.9-1c0.2-0.4,0.3-0.9,0.3-1.5c0-0.6-0.1-1.1-0.3-1.5c-0.2-0.4-0.5-0.7-0.9-1c-0.4-0.2-0.8-0.3-1.4-0.3h-1.6v16
	H149.6z M175.9,0.3v4.5h-7.2v16h-4.5V0.3H175.9z"/>
</svg>
