<svg width="234" height="21" viewBox="0 0 234 21" fill="none" xmlns="http://www.w3.org/2000/svg">
<path d="M16.1725 10.5C16.1725 12.7756 15.8125 14.6953 15.0926 16.2591C14.3727 17.8162 13.4013 18.9974 12.1779 19.8023C10.9548 20.6009 9.59075 21 8.08612 21C6.57063 21 5.20118 20.5977 3.97805 19.7925C2.76034 18.9805 1.79155 17.7962 1.07167 16.2391C0.357224 14.6756 0 12.7622 0 10.5C0 8.2244 0.357224 6.30787 1.07167 4.75075C1.79155 3.18731 2.76034 2.00613 3.97805 1.20754C5.20118 0.402634 6.57063 0 8.08612 0C9.59075 0 10.9548 0.402634 12.1779 1.20754C13.4013 2.00613 14.3727 3.18731 15.0926 4.75075C15.8125 6.30787 16.1725 8.2244 16.1725 10.5ZM11.5286 10.5C11.5286 9.2756 11.396 8.24443 11.1308 7.4058C10.8708 6.56083 10.4838 5.9221 9.96969 5.48961C9.461 5.05044 8.83315 4.83086 8.08612 4.83086C7.33938 4.83086 6.70867 5.05044 6.19455 5.48961C5.68586 5.9221 5.29863 6.56083 5.03343 7.4058C4.77366 8.24443 4.64391 9.2756 4.64391 10.5C4.64391 11.7244 4.77366 12.7591 5.03343 13.604C5.29863 14.4427 5.68586 15.0814 6.19455 15.5206C6.70867 15.9531 7.33938 16.1691 8.08612 16.1691C8.83315 16.1691 9.461 15.9531 9.96969 15.5206C10.4838 15.0814 10.8708 14.4427 11.1308 13.604C11.396 12.7591 11.5286 11.7244 11.5286 10.5ZM33.9114 10.5C33.9114 12.7756 33.5513 14.6953 32.8315 16.2591C32.1116 17.8162 31.1402 18.9974 29.9168 19.8023C28.6937 20.6009 27.3296 21 25.825 21C24.3095 21 22.9401 20.5977 21.7169 19.7925C20.4992 18.9805 19.5304 17.7962 18.8106 16.2391C18.0961 14.6756 17.7389 12.7622 17.7389 10.5C17.7389 8.2244 18.0961 6.30787 18.8106 4.75075C19.5304 3.18731 20.4992 2.00613 21.7169 1.20754C22.9401 0.402634 24.3095 0 25.825 0C27.3296 0 28.6937 0.402634 29.9168 1.20754C31.1402 2.00613 32.1116 3.18731 32.8315 4.75075C33.5513 6.30787 33.9114 8.2244 33.9114 10.5ZM29.2675 10.5C29.2675 9.2756 29.1346 8.24443 28.8694 7.4058C28.6096 6.56083 28.2227 5.9221 27.7086 5.48961C27.1999 5.05044 26.572 4.83086 25.825 4.83086C25.078 4.83086 24.4476 5.05044 23.9334 5.48961C23.4245 5.9221 23.0375 6.56083 22.7723 7.4058C22.5125 8.24443 22.3828 9.2756 22.3828 10.5C22.3828 11.7244 22.5125 12.7591 22.7723 13.604C23.0375 14.4427 23.4245 15.0814 23.9334 15.5206C24.4476 15.9531 25.078 16.1691 25.825 16.1691C26.572 16.1691 27.1999 15.9531 27.7086 15.5206C28.2227 15.0814 28.6096 14.4427 28.8694 13.604C29.1346 12.7591 29.2675 11.7244 29.2675 10.5ZM51.65 10.5C51.65 12.7756 51.2902 14.6953 50.5703 16.2591C49.8505 17.8162 48.8788 18.9974 47.6557 19.8023C46.4325 20.6009 45.0685 21 43.5639 21C42.0484 21 40.679 20.5977 39.4558 19.7925C38.2381 18.9805 37.269 17.7962 36.5492 16.2391C35.8347 14.6756 35.4775 12.7622 35.4775 10.5C35.4775 8.2244 35.8347 6.30787 36.5492 4.75075C37.269 3.18731 38.2381 2.00613 39.4558 1.20754C40.679 0.402634 42.0484 0 43.5639 0C45.0685 0 46.4325 0.402634 47.6557 1.20754C48.8788 2.00613 49.8505 3.18731 50.5703 4.75075C51.2902 6.30787 51.65 8.2244 51.65 10.5ZM47.0061 10.5C47.0061 9.2756 46.8735 8.24443 46.6083 7.4058C46.3485 6.56083 45.9616 5.9221 45.4475 5.48961C44.9388 5.05044 44.3109 4.83086 43.5639 4.83086C42.8169 4.83086 42.1864 5.05044 41.6723 5.48961C41.1634 5.9221 40.7764 6.56083 40.5112 7.4058C40.2514 8.24443 40.1214 9.2756 40.1214 10.5C40.1214 11.7244 40.2514 12.7591 40.5112 13.604C40.7764 14.4427 41.1634 15.0814 41.6723 15.5206C42.1864 15.9531 42.8169 16.1691 43.5639 16.1691C44.3109 16.1691 44.9388 15.9531 45.4475 15.5206C45.9616 15.0814 46.3485 14.4427 46.6083 13.604C46.8735 12.7591 47.0061 11.7244 47.0061 10.5ZM72.6419 0.279311V20.7207H68.1929V4.671H62.5748V20.7207H58.1258V0.279311H72.6419ZM75.0731 20.7207V0.279311H82.2498C83.4841 0.279311 84.5638 0.578651 85.4894 1.17768C86.4148 1.7767 87.1346 2.61815 87.6488 3.70307C88.1632 4.78765 88.4201 6.05526 88.4201 7.50557C88.4201 8.96959 88.1549 10.2372 87.6245 11.3084C87.0995 12.3796 86.3608 13.2049 85.4083 13.7839C84.4609 14.3626 83.3541 14.6521 82.0875 14.6521H77.8008V10.3405H81.1782C81.7086 10.3405 82.1607 10.2274 82.5342 10.0011C82.9128 9.76817 83.2026 9.43862 83.4027 9.0128C83.6084 8.58698 83.7113 8.08457 83.7113 7.50557C83.7113 6.92025 83.6084 6.421 83.4027 6.00853C83.2026 5.58939 82.9128 5.27003 82.5342 5.05044C82.1607 4.82418 81.7086 4.71106 81.1782 4.71106H79.5869V20.7207H75.0731ZM105.727 10.5C105.727 12.7756 105.367 14.6953 104.647 16.2591C103.927 17.8162 102.955 18.9974 101.732 19.8023C100.509 20.6009 99.1451 21 97.6405 21C96.125 21 94.7555 20.5977 93.5324 19.7925C92.3147 18.9805 91.3456 17.7962 90.6257 16.2391C89.9113 14.6756 89.5541 12.7622 89.5541 10.5C89.5541 8.2244 89.9113 6.30787 90.6257 4.75075C91.3456 3.18731 92.3147 2.00613 93.5324 1.20754C94.7555 0.402634 96.125 0 97.6405 0C99.1451 0 100.509 0.402634 101.732 1.20754C102.955 2.00613 103.927 3.18731 104.647 4.75075C105.367 6.30787 105.727 8.2244 105.727 10.5ZM101.083 10.5C101.083 9.2756 100.95 8.24443 100.685 7.4058C100.425 6.56083 100.038 5.9221 99.524 5.48961C99.0154 5.05044 98.3875 4.83086 97.6405 4.83086C96.8934 4.83086 96.263 5.05044 95.7489 5.48961C95.2399 5.9221 94.853 6.56083 94.5878 7.4058C94.328 8.24443 94.198 9.2756 94.198 10.5C94.198 11.7244 94.328 12.7591 94.5878 13.604C94.853 14.4427 95.2399 15.0814 95.7489 15.5206C96.263 15.9531 96.8934 16.1691 97.6405 16.1691C98.3875 16.1691 99.0154 15.9531 99.524 15.5206C100.038 15.0814 100.425 14.4427 100.685 13.604C100.95 12.7591 101.083 11.7244 101.083 10.5ZM107.358 0.279311H112.976L116.841 11.8576H117.035L120.9 0.279311H126.518V20.7207H122.102V8.90318H121.972L118.269 20.5608H115.607L111.905 8.82308H111.775V20.7207H107.358V0.279311ZM127.648 20.7207V16.4488L128.103 16.3691C128.655 16.2626 129.112 15.9696 129.475 15.4907C129.843 15.0048 130.124 14.2364 130.319 13.1849C130.519 12.127 130.647 10.6862 130.701 8.86313L130.961 0.279311H143.009V20.7207H138.657V4.59125H135.117L134.857 11.0189C134.76 13.4013 134.5 15.301 134.078 16.7183C133.656 18.1356 133.014 19.1569 132.154 19.7826C131.294 20.408 130.16 20.7207 128.752 20.7207H127.648ZM144.689 20.7207V0.279311H156.672V4.75075H149.203V8.2641H156.055V12.7359H149.203V16.2492H156.64V20.7207H144.689ZM173.977 7.94474H169.398C169.365 7.47922 169.278 7.05657 169.138 6.67712C169.002 6.29803 168.813 5.972 168.569 5.69901C168.331 5.4197 168.042 5.20679 167.701 5.06028C167.36 4.90745 166.973 4.83086 166.54 4.83086C165.782 4.83086 165.141 5.05712 164.616 5.50964C164.096 5.96181 163.701 6.61072 163.43 7.45568C163.165 8.301 163.032 9.31565 163.032 10.5C163.032 11.7511 163.168 12.7991 163.439 13.6441C163.714 14.4824 164.112 15.1148 164.632 15.5406C165.152 15.9597 165.777 16.1691 166.507 16.1691C166.924 16.1691 167.297 16.1063 167.628 15.9798C167.958 15.8466 168.245 15.6569 168.488 15.4106C168.732 15.1647 168.93 14.8685 169.081 14.5224C169.238 14.1697 169.343 13.7737 169.398 13.3346L173.977 13.3746C173.922 14.2396 173.725 15.1211 173.384 16.0195C173.043 16.9112 172.558 17.7364 171.93 18.495C171.308 19.2468 170.537 19.8522 169.617 20.3114C168.697 20.7706 167.628 21 166.41 21C164.883 21 163.514 20.5977 162.302 19.7925C161.095 18.9872 160.14 17.8029 159.436 16.2391C158.738 14.6756 158.389 12.7622 158.389 10.5C158.389 8.2244 158.746 6.30787 159.46 4.75075C160.175 3.18731 161.138 2.00613 162.351 1.20754C163.563 0.402634 164.916 0 166.41 0C167.46 0 168.426 0.176372 169.308 0.528761C170.19 0.881501 170.965 1.39726 171.63 2.07604C172.296 2.74815 172.832 3.57659 173.238 4.56138C173.644 5.54618 173.89 6.67396 173.977 7.94474ZM175.113 4.75075V0.279311H189.564V4.75075H184.563V20.7207H180.114V4.75075H175.113ZM206.132 10.5C206.132 12.7756 205.772 14.6953 205.052 16.2591C204.332 17.8162 203.36 18.9974 202.137 19.8023C200.914 20.6009 199.55 21 198.045 21C196.53 21 195.161 20.5977 193.937 19.7925C192.719 18.9805 191.751 17.7962 191.031 16.2391C190.316 14.6756 189.959 12.7622 189.959 10.5C189.959 8.2244 190.316 6.30787 191.031 4.75075C191.751 3.18731 192.719 2.00613 193.937 1.20754C195.161 0.402634 196.53 0 198.045 0C199.55 0 200.914 0.402634 202.137 1.20754C203.36 2.00613 204.332 3.18731 205.052 4.75075C205.772 6.30787 206.132 8.2244 206.132 10.5ZM201.488 10.5C201.488 9.2756 201.355 8.24443 201.09 7.4058C200.83 6.56083 200.443 5.9221 199.929 5.48961C199.42 5.05044 198.792 4.83086 198.045 4.83086C197.299 4.83086 196.668 5.05044 196.154 5.48961C195.645 5.9221 195.258 6.56083 194.993 7.4058C194.733 8.24443 194.603 9.2756 194.603 10.5C194.603 11.7244 194.733 12.7591 194.993 13.604C195.258 14.4427 195.645 15.0814 196.154 15.5206C196.668 15.9531 197.299 16.1691 198.045 16.1691C198.792 16.1691 199.42 15.9531 199.929 15.5206C200.443 15.0814 200.83 14.4427 201.09 13.604C201.355 12.7591 201.488 11.7244 201.488 10.5ZM207.763 20.7207V0.279311H214.94C216.174 0.279311 217.254 0.578651 218.179 1.17768C219.105 1.7767 219.825 2.61815 220.339 3.70307C220.853 4.78765 221.11 6.05526 221.11 7.50557C221.11 8.96959 220.845 10.2372 220.315 11.3084C219.789 12.3796 219.051 13.2049 218.098 13.7839C217.151 14.3626 216.044 14.6521 214.778 14.6521H210.491V10.3405H213.868C214.399 10.3405 214.851 10.2274 215.224 10.0011C215.603 9.76817 215.892 9.43862 216.093 9.0128C216.299 8.58698 216.401 8.08457 216.401 7.50557C216.401 6.92025 216.299 6.421 216.093 6.00853C215.892 5.58939 215.603 5.27003 215.224 5.05044C214.851 4.82418 214.399 4.71106 213.868 4.71106H212.277V20.7207H207.763ZM234 0.279311V4.75075H226.823V20.7207H222.309V0.279311H234Z" fill="white"/>
</svg>
