<svg width="204" height="43" viewBox="0 0 204 43" fill="none" xmlns="http://www.w3.org/2000/svg">
<path d="M203.999 8.33504H187.509C187.613 8.98673 187.994 9.57646 188.569 9.98011C189.249 10.4544 190.061 10.748 190.916 10.828C192.568 11.0896 194.264 11.0142 195.88 10.6075C196.276 10.5383 196.649 10.3905 196.975 10.1749C197.299 9.95934 197.566 9.68139 197.758 9.36109C197.786 9.32596 197.822 9.29705 197.865 9.27655C197.907 9.25597 197.954 9.24426 198.002 9.24234C199.945 9.24234 201.888 9.24234 203.83 9.24234C203.83 9.24234 203.896 9.24234 203.962 9.24234C203.963 9.80225 203.832 10.3559 203.58 10.8672C203.327 11.3786 202.959 11.8362 202.498 12.2103C201.238 13.2145 199.683 13.8658 198.02 14.0842C195.36 14.485 192.653 14.5732 189.967 14.3471C188.06 14.281 186.2 13.7823 184.561 12.8971C183.558 12.3558 182.73 11.5845 182.163 10.6612C181.596 9.73784 181.309 8.69542 181.333 7.63971C181.258 6.62352 181.388 5.60351 181.717 4.62945C182.054 3.76006 182.608 2.97223 183.335 2.32679C184.062 1.68135 184.945 1.19556 185.913 0.906915C187.361 0.417287 188.891 0.150718 190.436 0.118313C193.009 -0.0831438 195.601 0.0654931 198.124 0.559252C199.134 0.745196 200.09 1.11857 200.931 1.65572C201.773 2.19287 202.483 2.8821 203.014 3.67974C203.6 4.65826 203.921 5.74771 203.952 6.85959C204.018 7.30053 203.999 7.80082 203.999 8.33504ZM197.702 5.53677C197.549 5.04414 197.251 4.59834 196.839 4.24725C196.428 3.89617 195.918 3.65306 195.364 3.54407C194.056 3.22681 192.692 3.14044 191.347 3.28968C190.454 3.32782 189.587 3.57629 188.832 4.01044C188.235 4.36695 187.808 4.91096 187.63 5.53677H197.702Z" fill="black" fill-opacity="0.2"/>
<path d="M133.876 8.33434H117.422C117.539 8.98232 117.916 9.56837 118.483 9.97934C119.162 10.4536 119.975 10.7473 120.829 10.8274C122.481 11.0888 124.179 11.0135 125.794 10.6069C126.19 10.5375 126.564 10.3898 126.888 10.1742C127.212 9.95866 127.481 9.68072 127.671 9.36041C127.698 9.32547 127.732 9.29655 127.773 9.27597C127.814 9.25538 127.86 9.24358 127.906 9.24166C129.849 9.24166 131.792 9.24166 133.735 9.24166C133.779 9.237 133.823 9.237 133.867 9.24166C133.868 9.80084 133.739 10.3542 133.488 10.8654C133.237 11.3767 132.871 11.8347 132.411 12.2095C131.151 13.2127 129.596 13.8636 127.934 14.0835C125.274 14.4846 122.567 14.5728 119.882 14.3464C117.984 14.2776 116.135 13.7821 114.503 12.9048C113.502 12.361 112.677 11.5891 112.11 10.6663C111.544 9.74366 111.255 8.70258 111.275 7.6475C111.207 6.63091 111.341 5.61168 111.668 4.63724C112.004 3.76843 112.556 2.98089 113.282 2.33543C114.007 1.68997 114.888 1.20389 115.855 0.914702C117.304 0.425072 118.833 0.158503 120.379 0.126099C122.955 -0.0753132 125.549 0.0733193 128.075 0.567037C129.079 0.755236 130.029 1.12881 130.866 1.66432C131.702 2.19984 132.408 2.88575 132.938 3.67904C133.518 4.65908 133.839 5.7476 133.876 6.85889C133.941 7.29983 133.876 7.80013 133.876 8.33434ZM127.588 5.53608C127.434 5.04387 127.136 4.59854 126.724 4.24758C126.313 3.89662 125.803 3.65323 125.25 3.54337C123.941 3.22612 122.577 3.13975 121.233 3.28899C120.336 3.32684 119.466 3.57527 118.709 4.00975C118.115 4.36916 117.688 4.91197 117.507 5.53608H127.588Z" fill="black" fill-opacity="0.2"/>
<path d="M204.003 32.2817H187.512C187.611 32.9491 187.991 33.5564 188.572 33.9776C189.257 34.4447 190.066 34.7375 190.919 34.8256C192.572 35.0837 194.267 35.0084 195.884 34.6051C196.279 34.5357 196.653 34.388 196.978 34.1724C197.302 33.9569 197.57 33.6789 197.761 33.3585C197.788 33.322 197.824 33.292 197.866 33.2713C197.909 33.2506 197.957 33.2398 198.005 33.2399C199.951 33.2399 201.894 33.2399 203.833 33.2399C203.877 33.2327 203.922 33.2327 203.965 33.2399C203.966 33.7997 203.835 34.3534 203.583 34.8647C203.331 35.3761 202.962 35.8337 202.501 36.2077C201.243 37.179 199.701 37.803 198.061 38.0054C195.401 38.4089 192.695 38.5002 190.008 38.2767C188.112 38.201 186.266 37.7059 184.631 36.8352C183.626 36.2926 182.799 35.5197 182.232 34.5949C181.665 33.6702 181.378 32.6264 181.402 31.5694C181.317 30.5636 181.435 29.5524 181.749 28.5845C182.086 27.7142 182.64 26.9253 183.367 26.2785C184.094 25.6317 184.976 25.1442 185.945 24.8535C187.393 24.3639 188.922 24.0973 190.468 24.065C193.041 23.8677 195.632 24.0163 198.155 24.5058C199.167 24.6952 200.125 25.0727 200.966 25.6143C201.809 26.1559 202.517 26.8498 203.045 27.6518C203.629 28.6277 203.951 29.7142 203.984 30.8232C204.021 31.2811 204.003 31.7559 204.003 32.2817ZM197.705 29.4919C197.553 28.9982 197.255 28.551 196.843 28.1985C196.432 27.8459 195.921 27.6013 195.367 27.4907C194.059 27.1762 192.695 27.0928 191.351 27.2448C190.456 27.279 189.588 27.5277 188.835 27.9655C188.239 28.3221 187.811 28.866 187.634 29.4919H197.705Z" fill="black" fill-opacity="0.2"/>
<path d="M149.904 13.9477V9.07187H141.457V13.9477H135.234V0.337891H141.391V5.28149H149.886V0.337891H156.108V13.9477H149.904Z" fill="black" fill-opacity="0.2"/>
<path d="M34.0021 14.4223C32.0706 14.5345 30.1317 14.3685 28.2579 13.9305C26.315 13.5668 24.5841 12.5786 23.3867 11.1492C22.667 10.2043 22.2512 9.09782 22.1854 7.9524C22.0604 6.83389 22.1979 5.70413 22.5889 4.63688C22.9475 3.78162 23.5114 3.00877 24.2401 2.37392C24.9687 1.73906 25.8441 1.25796 26.8031 0.965223C28.4037 0.422713 30.0964 0.135786 31.8057 0.11726C34.1398 -0.0172117 36.4828 0.0651906 38.7981 0.363169C40.5086 0.567666 42.1283 1.1793 43.491 2.1354C44.1634 2.64553 44.7078 3.27914 45.0881 3.99409C45.4684 4.70903 45.6759 5.48893 45.6967 6.28193C45.8143 7.38654 45.7286 8.50113 45.4433 9.58045C45.1877 10.4359 44.7155 11.226 44.064 11.8882C43.4124 12.5504 42.5993 13.0667 41.689 13.3963C40.2026 13.972 38.6121 14.2968 36.9961 14.3545C36.0199 14.3969 35.0063 14.4223 34.0021 14.4223ZM33.5703 10.7507C34.914 10.8357 36.2599 10.6141 37.4841 10.1062C38.1308 9.81173 38.6595 9.34202 38.996 8.76274C39.3326 8.18346 39.4603 7.5236 39.3614 6.87549C39.3454 6.29257 39.1354 5.72749 38.7587 5.25402C38.382 4.78056 37.856 4.42068 37.2495 4.22138C35.2641 3.5079 33.0636 3.45084 31.0361 4.06027C30.312 4.21757 29.6671 4.5895 29.2044 5.1167C28.7416 5.64389 28.4877 6.29594 28.4831 6.96877C28.4195 7.66501 28.6074 8.36113 29.0185 8.95278C29.4297 9.5444 30.0421 9.99974 30.764 10.2503C31.6535 10.5833 32.6074 10.7533 33.5703 10.7507Z" fill="black" fill-opacity="0.2"/>
<path d="M0 0.421875H20.3578V14.0825H14.1725V4.19529H6.23216V14.0825H0V0.421875Z" fill="black" fill-opacity="0.2"/>
<path d="M77.7989 14.3637C75.8711 14.4742 73.9361 14.3112 72.0641 13.8804C70.1373 13.5044 68.4247 12.5141 67.2399 11.0907C66.5156 10.1473 66.0963 9.04032 66.0291 7.89381C65.9042 6.77808 66.0417 5.65109 66.4327 4.58677C66.7892 3.73082 67.3511 2.95685 68.0782 2.32053C68.8052 1.68421 69.6793 1.20134 70.6376 0.906626C72.2415 0.364649 73.9373 0.0777554 75.6495 0.0586667C77.9835 -0.0758055 80.3267 0.00659681 82.642 0.304576C84.3543 0.503033 85.9756 1.11531 87.3349 2.07681C88.0086 2.58585 88.554 3.21923 88.9344 3.93442C89.3148 4.6496 89.5214 5.43003 89.5405 6.22332C89.658 7.32795 89.5724 8.44253 89.2872 9.52189C89.0283 10.3759 88.5548 11.1645 87.9036 11.8263C87.2526 12.4881 86.4412 13.0053 85.5328 13.3377C84.0436 13.9055 82.4547 14.2299 80.8399 14.2959C79.8262 14.3468 78.8126 14.3637 77.7989 14.3637ZM77.3765 10.692C78.7206 10.7804 80.0674 10.5586 81.2905 10.0476C81.9433 9.75802 82.4787 9.29015 82.8206 8.71026C83.1626 8.13037 83.2938 7.46795 83.1957 6.8169C83.1806 6.23484 82.9707 5.67056 82.5938 5.19833C82.2168 4.7261 81.6905 4.36804 81.0839 4.17127C79.0952 3.4579 76.8918 3.40085 74.8612 4.01015C74.1404 4.16873 73.4987 4.54009 73.0379 5.06542C72.5772 5.59073 72.3237 6.23995 72.3176 6.91018C72.254 7.60641 72.4418 8.30254 72.853 8.89418C73.2642 9.48584 73.8766 9.9411 74.5983 10.1918C75.4778 10.5255 76.4227 10.6957 77.3765 10.692Z" fill="black" fill-opacity="0.2"/>
<path d="M91.9649 0.380859H109.92V13.9482H103.716V4.12884H97.6151C97.6151 4.64609 97.6151 5.15487 97.6151 5.67213C97.5119 7.17301 97.4556 8.69085 97.2585 10.1833C96.93 12.5915 95.2781 13.7193 92.7815 13.9397C91.8429 14.0245 90.8387 13.9397 89.8438 13.9397V10.2935C89.8438 10.2935 89.9 10.2935 89.9376 10.2935C91.0357 10.2426 91.4863 9.92888 91.6458 8.92829C91.8196 7.9973 91.923 7.05673 91.9556 6.11306C92.0025 4.20515 91.9649 2.3142 91.9649 0.380859Z" fill="black" fill-opacity="0.2"/>
<path d="M158.008 14.0837V0.448492H164.203V9.0468L164.588 8.71609L173.438 0.685922C173.527 0.597382 173.635 0.527809 173.758 0.48232C173.879 0.436831 174.011 0.416579 174.142 0.423054H180.074V14.0837H173.88V5.47689C173.72 5.62104 173.617 5.69736 173.523 5.77368L165.789 12.8033C165.385 13.1764 164.982 13.5495 164.568 13.9141C164.481 14.0061 164.356 14.0637 164.222 14.0752L158.008 14.0837Z" fill="black" fill-opacity="0.2"/>
<path d="M53.7446 7.82584V14.0838H47.5312V0.440119H53.7258V5.87554C53.9229 5.71442 54.045 5.62115 54.167 5.51091C55.9784 3.90827 57.8556 2.26323 59.6389 0.643631C59.7658 0.524308 59.9354 0.449248 60.1175 0.431641C62.2575 0.431641 64.3881 0.431641 66.528 0.431641H66.7814L59.7327 6.58782C62.3701 9.07234 65.0075 11.5399 67.7106 14.0753H60.7651C60.6234 14.0803 60.4821 14.0563 60.3519 14.0049C60.2219 13.9534 60.1064 13.876 60.0143 13.7785L53.9605 7.98695L53.7446 7.82584Z" fill="black" fill-opacity="0.2"/>
<path d="M137.034 38.4277C135.105 38.5396 133.169 38.3737 131.298 37.936C129.355 37.5723 127.625 36.584 126.428 35.1546C125.704 34.2107 125.285 33.1041 125.217 31.9579C125.091 30.8393 125.229 29.7095 125.62 28.6423C125.978 27.7883 126.541 27.0163 127.268 26.3815C127.994 25.7468 128.867 25.265 129.825 24.9707C131.429 24.4287 133.125 24.1418 134.836 24.1227C137.17 23.9811 139.514 24.0607 141.83 24.3601C143.539 24.5662 145.159 25.1777 146.522 26.1324C147.195 26.6425 147.738 27.2761 148.119 27.9911C148.499 28.706 148.706 29.4859 148.728 30.2789C148.845 31.3835 148.759 32.4981 148.474 33.5774C148.217 34.432 147.744 35.2212 147.093 35.8831C146.441 36.5452 145.629 37.062 144.72 37.3933C143.233 37.9676 141.643 38.2951 140.027 38.3599C139.06 38.4023 138.046 38.4277 137.034 38.4277ZM136.61 34.7561C137.955 34.8404 139.3 34.6189 140.525 34.1116C141.172 33.8182 141.702 33.3486 142.039 32.7691C142.375 32.1895 142.502 31.5292 142.402 30.881C142.386 30.298 142.175 29.733 141.799 29.2595C141.423 28.786 140.896 28.4261 140.29 28.2269C138.3 27.5177 136.098 27.4607 134.067 28.0657C133.345 28.2247 132.702 28.5973 132.242 29.1243C131.781 29.6513 131.528 30.3026 131.524 30.9742C131.465 31.6787 131.664 32.381 132.09 32.9737C132.515 33.5664 133.143 34.0168 133.88 34.2558C134.745 34.5841 135.673 34.7541 136.61 34.7561Z" fill="black" fill-opacity="0.2"/>
<path d="M112.977 31.8903V38.1143H106.773V24.547H112.968V29.94C113.166 29.7789 113.296 29.6856 113.41 29.5753C115.23 27.9558 117.042 26.3276 118.872 24.7081C118.999 24.5888 119.168 24.5137 119.35 24.4961C121.49 24.4961 123.621 24.4961 125.761 24.4961H126.015L118.919 30.6437L126.897 38.1312H126.371C124.231 38.1312 122.101 38.1312 119.961 38.1312C119.818 38.1363 119.677 38.1122 119.547 38.0608C119.417 38.0094 119.302 37.932 119.209 37.8344L113.231 32.0514L112.977 31.8903Z" fill="black" fill-opacity="0.2"/>
<path d="M161.921 43.0004V38.591H161.216C159.171 38.6416 157.132 38.3542 155.2 37.7431C153.267 37.1793 151.647 35.9648 150.677 34.3512C149.82 32.8665 149.635 31.1395 150.161 29.5341C150.686 27.9286 151.88 26.57 153.492 25.7444C155.033 24.9605 156.743 24.4862 158.504 24.3538C159.603 24.2606 160.711 24.2266 161.874 24.1672V19.4102H168.125V24.2606C168.8 24.2606 169.429 24.2606 170.068 24.2606C171.986 24.2831 173.88 24.6461 175.643 25.329C176.667 25.6864 177.585 26.2563 178.323 26.9927C179.059 27.729 179.595 28.6114 179.885 29.5688C180.342 31.0043 180.233 32.5391 179.576 33.9098C178.919 35.2805 177.754 36.4019 176.281 37.0817C174.775 37.8477 173.104 38.3105 171.382 38.4384C170.321 38.5316 169.251 38.5656 168.153 38.6249V43.0004H161.921ZM168.181 34.9108C169.201 34.9712 170.225 34.8795 171.212 34.6396C171.809 34.5206 172.355 34.2497 172.785 33.859C173.217 33.4681 173.515 32.9739 173.644 32.4349C173.744 31.9829 173.779 31.5212 173.747 31.0611C173.751 30.5618 173.612 30.0699 173.344 29.6331C173.076 29.1963 172.688 28.8295 172.217 28.5682C170.975 27.987 169.575 27.7371 168.181 27.8474V34.9108ZM161.874 34.9108V27.8474C160.479 27.7535 159.087 28.0496 157.885 28.6953C157.326 29.0192 156.88 29.4795 156.6 30.0227C156.319 30.5661 156.215 31.1701 156.299 31.765C156.33 32.3465 156.545 32.9078 156.919 33.3815C157.294 33.8553 157.812 34.2214 158.41 34.436C159.506 34.8445 160.694 35.0074 161.874 34.9108Z" fill="black" fill-opacity="0.2"/>
<path d="M0 38.1495C5.85673 38.1495 8.91649 35.2071 11.3662 32.8413C13.6281 30.6705 15.4209 28.9492 19.1376 28.9492C22.8544 28.9492 24.6377 30.6451 26.8996 32.8413C29.3588 35.2071 32.4091 38.1495 38.2658 38.1495C44.1225 38.1495 47.173 35.2071 49.632 32.8413C51.894 30.6705 53.6773 28.9492 57.3941 28.9492C61.1109 28.9492 62.8941 30.6451 65.1561 32.8413C67.6152 35.2071 70.675 38.1495 76.5222 38.1495C82.3696 38.1495 85.4294 35.2071 87.8885 32.8413C90.1505 30.6705 91.9337 28.9492 95.6505 28.9492V24.4805C89.8031 24.4805 86.7434 27.4229 84.2843 29.7887C82.0224 31.968 80.239 33.6808 76.5222 33.6808C72.8056 33.6808 71.0222 31.9849 68.7602 29.7887C66.3011 27.4229 63.2414 24.4805 57.3941 24.4805C51.5467 24.4805 48.4682 27.4229 46.0279 29.7887C43.766 31.968 41.9732 33.6808 38.2658 33.6808C34.5584 33.6808 32.7658 31.9849 30.5038 29.7887C28.0447 27.4229 24.985 24.4805 19.1376 24.4805C13.2903 24.4805 10.2211 27.4229 7.77143 29.7887C5.50006 31.968 3.71677 33.6808 0 33.6808V38.1495Z" fill="black" fill-opacity="0.2"/>
</svg>
