<svg width="204" height="44" viewBox="0 0 204 44" fill="none" xmlns="http://www.w3.org/2000/svg">
<path d="M203.992 8.33895H187.502C187.606 8.99064 187.987 9.58037 188.562 9.98402C189.242 10.4583 190.054 10.7519 190.909 10.8319C192.561 11.0935 194.257 11.0181 195.873 10.6114C196.269 10.5422 196.642 10.3944 196.968 10.1788C197.292 9.96325 197.559 9.6853 197.751 9.365C197.779 9.32987 197.815 9.30096 197.858 9.28046C197.9 9.25988 197.947 9.24817 197.995 9.24625C199.938 9.24625 201.881 9.24625 203.823 9.24625C203.823 9.24625 203.889 9.24625 203.955 9.24625C203.956 9.80616 203.825 10.3598 203.573 10.8711C203.32 11.3825 202.952 11.8401 202.491 12.2142C201.231 13.2184 199.676 13.8697 198.013 14.0881C195.353 14.4889 192.646 14.5771 189.96 14.351C188.053 14.2849 186.193 13.7862 184.554 12.901C183.551 12.3597 182.723 11.5884 182.156 10.6651C181.589 9.74175 181.302 8.69933 181.326 7.64362C181.251 6.62743 181.381 5.60742 181.71 4.63336C182.047 3.76397 182.601 2.97614 183.328 2.3307C184.055 1.68526 184.938 1.19947 185.906 0.910821C187.354 0.421193 188.884 0.154624 190.429 0.122219C193.002 -0.0792375 195.594 0.0693994 198.117 0.563158C199.127 0.749102 200.083 1.12248 200.924 1.65963C201.766 2.19678 202.476 2.88601 203.007 3.68365C203.593 4.66217 203.914 5.75162 203.945 6.8635C204.011 7.30444 203.992 7.80473 203.992 8.33895ZM197.695 5.54068C197.542 5.04805 197.244 4.60225 196.832 4.25116C196.421 3.90008 195.911 3.65697 195.357 3.54798C194.049 3.23072 192.685 3.14435 191.34 3.29359C190.447 3.33173 189.58 3.5802 188.825 4.01435C188.228 4.37086 187.801 4.91487 187.623 5.54068H197.695Z" fill="#B6B6B6"/>
<path d="M133.872 8.33825H117.418C117.535 8.98623 117.912 9.57228 118.479 9.98325C119.158 10.4575 119.971 10.7512 120.825 10.8313C122.477 11.0927 124.175 11.0174 125.79 10.6108C126.186 10.5414 126.56 10.3937 126.884 10.1781C127.208 9.96257 127.477 9.68463 127.667 9.36432C127.694 9.32938 127.728 9.30046 127.769 9.27988C127.81 9.25929 127.856 9.24749 127.902 9.24557C129.845 9.24557 131.788 9.24557 133.731 9.24557C133.775 9.24091 133.819 9.24091 133.863 9.24557C133.864 9.80475 133.735 10.3581 133.484 10.8693C133.233 11.3806 132.867 11.8386 132.407 12.2134C131.147 13.2166 129.592 13.8675 127.93 14.0874C125.27 14.4885 122.563 14.5767 119.878 14.3503C117.98 14.2815 116.131 13.786 114.499 12.9087C113.498 12.3649 112.673 11.593 112.106 10.6702C111.54 9.74757 111.251 8.70649 111.271 7.65141C111.203 6.63482 111.337 5.61559 111.664 4.64115C112 3.77234 112.552 2.9848 113.278 2.33934C114.003 1.69388 114.884 1.2078 115.851 0.918608C117.3 0.428978 118.829 0.162409 120.375 0.130005C122.951 -0.0714071 125.545 0.0772254 128.071 0.570943C129.075 0.759142 130.025 1.13272 130.862 1.66823C131.698 2.20375 132.404 2.88966 132.934 3.68295C133.514 4.66299 133.835 5.75151 133.872 6.8628C133.937 7.30374 133.872 7.80404 133.872 8.33825ZM127.584 5.53999C127.43 5.04778 127.132 4.60245 126.72 4.25149C126.309 3.90053 125.799 3.65714 125.246 3.54728C123.937 3.23003 122.573 3.14366 121.229 3.2929C120.332 3.33075 119.462 3.57918 118.705 4.01366C118.111 4.37307 117.684 4.91588 117.503 5.53999H127.584Z" fill="#B6B6B6"/>
<path d="M203.996 32.2856H187.505C187.604 32.953 187.984 33.5603 188.565 33.9815C189.25 34.4486 190.059 34.7414 190.912 34.8295C192.565 35.0876 194.26 35.0123 195.877 34.609C196.272 34.5396 196.646 34.3919 196.971 34.1763C197.295 33.9608 197.563 33.6828 197.754 33.3624C197.781 33.3259 197.817 33.2959 197.859 33.2752C197.902 33.2545 197.95 33.2437 197.998 33.2438C199.944 33.2438 201.887 33.2438 203.826 33.2438C203.87 33.2366 203.915 33.2366 203.958 33.2438C203.959 33.8036 203.828 34.3573 203.576 34.8686C203.324 35.38 202.955 35.8376 202.494 36.2116C201.236 37.1829 199.694 37.8069 198.054 38.0093C195.394 38.4128 192.688 38.5041 190.001 38.2806C188.105 38.2049 186.259 37.7098 184.624 36.8391C183.619 36.2965 182.792 35.5236 182.225 34.5988C181.658 33.6741 181.371 32.6303 181.395 31.5733C181.31 30.5675 181.428 29.5563 181.742 28.5884C182.079 27.7181 182.633 26.9292 183.36 26.2824C184.087 25.6356 184.969 25.1481 185.938 24.8574C187.386 24.3678 188.915 24.1012 190.461 24.0689C193.034 23.8716 195.625 24.0202 198.148 24.5097C199.16 24.6991 200.118 25.0766 200.959 25.6182C201.802 26.1598 202.51 26.8537 203.038 27.6557C203.622 28.6316 203.944 29.7181 203.977 30.8271C204.014 31.285 203.996 31.7598 203.996 32.2856ZM197.698 29.4958C197.546 29.0021 197.248 28.5549 196.836 28.2024C196.425 27.8498 195.914 27.6052 195.36 27.4946C194.052 27.1801 192.688 27.0967 191.344 27.2487C190.449 27.2829 189.581 27.5316 188.828 27.9694C188.232 28.326 187.804 28.8699 187.627 29.4958H197.698Z" fill="#B6B6B6"/>
<path d="M149.899 13.9516V9.07578H141.452V13.9516H135.229V0.341797H141.386V5.2854H149.881V0.341797H156.103V13.9516H149.899Z" fill="#B6B6B6"/>
<path d="M34.0013 14.4262C32.0698 14.5384 30.1309 14.3724 28.2571 13.9344C26.3142 13.5707 24.5833 12.5825 23.3859 11.1531C22.6662 10.2082 22.2504 9.10173 22.1846 7.95631C22.0596 6.8378 22.1971 5.70804 22.5881 4.64079C22.9467 3.78553 23.5106 3.01268 24.2393 2.37783C24.9679 1.74297 25.8433 1.26187 26.8023 0.969129C28.4029 0.426619 30.0956 0.139692 31.8049 0.121166C34.139 -0.0133053 36.482 0.069097 38.7973 0.367075C40.5078 0.571572 42.1275 1.18321 43.4902 2.13931C44.1626 2.64944 44.707 3.28305 45.0873 3.998C45.4676 4.71294 45.6751 5.49284 45.6959 6.28584C45.8135 7.39045 45.7278 8.50504 45.4425 9.58436C45.1869 10.4398 44.7147 11.2299 44.0632 11.8921C43.4116 12.5543 42.5985 13.0706 41.6882 13.4002C40.2018 13.9759 38.6113 14.3007 36.9953 14.3584C36.0191 14.4008 35.0055 14.4262 34.0013 14.4262ZM33.5695 10.7546C34.9132 10.8396 36.2591 10.618 37.4833 10.1101C38.13 9.81564 38.6587 9.34593 38.9952 8.76665C39.3318 8.18737 39.4595 7.52751 39.3606 6.8794C39.3446 6.29648 39.1346 5.7314 38.7579 5.25793C38.3812 4.78447 37.8552 4.42459 37.2487 4.22529C35.2633 3.51181 33.0628 3.45475 31.0353 4.06418C30.3112 4.22148 29.6663 4.59341 29.2036 5.12061C28.7408 5.6478 28.4869 6.29985 28.4823 6.97268C28.4187 7.66892 28.6066 8.36504 29.0177 8.95669C29.4289 9.54831 30.0413 10.0036 30.7632 10.2542C31.6527 10.5872 32.6066 10.7572 33.5695 10.7546Z" fill="#B6B6B6"/>
<path d="M0 0.425781H20.3578V14.0864H14.1725V4.1992H6.23216V14.0864H0V0.425781Z" fill="#B6B6B6"/>
<path d="M77.7965 14.3676C75.8687 14.4781 73.9337 14.3151 72.0617 13.8843C70.1349 13.5083 68.4223 12.518 67.2375 11.0946C66.5132 10.1512 66.0939 9.04423 66.0267 7.89772C65.9018 6.78199 66.0393 5.655 66.4303 4.59068C66.7868 3.73473 67.3487 2.96076 68.0758 2.32444C68.8028 1.68812 69.6769 1.20525 70.6352 0.910532C72.2391 0.368555 73.9349 0.0816616 75.6471 0.0625729C77.9811 -0.0718993 80.3243 0.0105031 82.6396 0.308482C84.3519 0.506939 85.9732 1.11922 87.3325 2.08072C88.0062 2.58976 88.5516 3.22314 88.932 3.93833C89.3124 4.65351 89.519 5.43394 89.5381 6.22723C89.6556 7.33186 89.57 8.44644 89.2848 9.5258C89.0259 10.3798 88.5524 11.1684 87.9012 11.8302C87.2502 12.492 86.4388 13.0092 85.5304 13.3416C84.0412 13.9094 82.4523 14.2338 80.8375 14.2998C79.8238 14.3507 78.8102 14.3676 77.7965 14.3676ZM77.3741 10.6959C78.7182 10.7843 80.065 10.5625 81.2881 10.0515C81.9409 9.76193 82.4763 9.29406 82.8182 8.71417C83.1602 8.13428 83.2914 7.47186 83.1933 6.82081C83.1782 6.23875 82.9683 5.67447 82.5914 5.20224C82.2144 4.73001 81.6881 4.37195 81.0815 4.17518C79.0928 3.46181 76.8894 3.40476 74.8588 4.01406C74.138 4.17264 73.4963 4.544 73.0355 5.06933C72.5748 5.59464 72.3213 6.24386 72.3152 6.91409C72.2516 7.61032 72.4394 8.30645 72.8506 8.89809C73.2618 9.48975 73.8742 9.94501 74.5959 10.1957C75.4754 10.5294 76.4203 10.6996 77.3741 10.6959Z" fill="#B6B6B6"/>
<path d="M91.9617 0.384766H109.917V13.9521H103.713V4.13275H97.6119C97.6119 4.65 97.6119 5.15878 97.6119 5.67604C97.5087 7.17692 97.4524 8.69476 97.2553 10.1872C96.9268 12.5954 95.2749 13.7232 92.7783 13.9436C91.8397 14.0284 90.8355 13.9436 89.8406 13.9436V10.2974C89.8406 10.2974 89.8968 10.2974 89.9344 10.2974C91.0325 10.2465 91.4831 9.93279 91.6426 8.9322C91.8164 8.00121 91.9198 7.06064 91.9524 6.11697C91.9993 4.20906 91.9617 2.31811 91.9617 0.384766Z" fill="#B6B6B6"/>
<path d="M158.002 14.0876V0.452398H164.197V9.05071L164.582 8.72L173.432 0.689828C173.521 0.601288 173.629 0.531715 173.752 0.486226C173.873 0.440737 174.005 0.420485 174.136 0.42696H180.068V14.0876H173.874V5.4808C173.714 5.62495 173.611 5.70127 173.517 5.77759L165.783 12.8072C165.379 13.1803 164.976 13.5534 164.562 13.918C164.475 14.01 164.35 14.0676 164.216 14.0791L158.002 14.0876Z" fill="#B6B6B6"/>
<path d="M53.7429 7.82975V14.0877H47.5295V0.444025H53.7241V5.87945C53.9212 5.71833 54.0433 5.62506 54.1653 5.51482C55.9767 3.91218 57.8539 2.26714 59.6372 0.647537C59.7641 0.528214 59.9337 0.453154 60.1158 0.435547C62.2558 0.435547 64.3864 0.435547 66.5263 0.435547H66.7797L59.731 6.59173C62.3684 9.07625 65.0058 11.5438 67.7089 14.0792H60.7634C60.6217 14.0842 60.4804 14.0602 60.3502 14.0088C60.2202 13.9573 60.1047 13.8799 60.0126 13.7824L53.9588 7.99086L53.7429 7.82975Z" fill="#B6B6B6"/>
<path d="M137.029 38.4316C135.1 38.5435 133.164 38.3776 131.293 37.9399C129.35 37.5762 127.62 36.5879 126.423 35.1585C125.699 34.2146 125.28 33.108 125.212 31.9618C125.086 30.8432 125.224 29.7134 125.615 28.6462C125.973 27.7922 126.536 27.0202 127.263 26.3854C127.989 25.7507 128.862 25.2689 129.82 24.9746C131.424 24.4326 133.12 24.1457 134.831 24.1266C137.165 23.985 139.509 24.0646 141.825 24.364C143.534 24.5701 145.154 25.1816 146.517 26.1363C147.19 26.6464 147.733 27.28 148.114 27.995C148.494 28.7099 148.701 29.4898 148.723 30.2828C148.84 31.3874 148.754 32.502 148.469 33.5813C148.212 34.4359 147.739 35.2251 147.088 35.887C146.436 36.5491 145.624 37.0659 144.715 37.3972C143.228 37.9715 141.638 38.299 140.022 38.3638C139.055 38.4062 138.041 38.4316 137.029 38.4316ZM136.605 34.76C137.95 34.8443 139.295 34.6228 140.52 34.1155C141.167 33.8221 141.697 33.3525 142.034 32.773C142.37 32.1934 142.497 31.5331 142.397 30.8849C142.381 30.3019 142.17 29.7369 141.794 29.2634C141.418 28.7899 140.891 28.43 140.285 28.2308C138.295 27.5216 136.093 27.4646 134.062 28.0696C133.34 28.2286 132.697 28.6012 132.237 29.1282C131.776 29.6552 131.523 30.3065 131.519 30.9781C131.46 31.6826 131.659 32.3849 132.085 32.9776C132.51 33.5703 133.138 34.0207 133.875 34.2597C134.74 34.588 135.668 34.758 136.605 34.76Z" fill="#B6B6B6"/>
<path d="M112.973 31.8942V38.1182H106.769V24.5509H112.964V29.9439C113.162 29.7828 113.292 29.6895 113.406 29.5792C115.226 27.9597 117.038 26.3315 118.868 24.712C118.995 24.5927 119.164 24.5176 119.346 24.5C121.486 24.5 123.617 24.5 125.757 24.5H126.011L118.915 30.6476L126.893 38.1351H126.367C124.227 38.1351 122.097 38.1351 119.957 38.1351C119.814 38.1402 119.673 38.1161 119.543 38.0647C119.413 38.0133 119.298 37.9359 119.205 37.8383L113.227 32.0553L112.973 31.8942Z" fill="#B6B6B6"/>
<path d="M161.915 43.0043V38.5949H161.21C159.165 38.6455 157.126 38.3581 155.194 37.747C153.261 37.1832 151.641 35.9687 150.672 34.3551C149.815 32.8704 149.63 31.1434 150.156 29.538C150.681 27.9325 151.874 26.5739 153.486 25.7483C155.027 24.9644 156.737 24.4901 158.498 24.3577C159.597 24.2645 160.705 24.2305 161.868 24.1711V19.4141H168.119V24.2645C168.794 24.2645 169.423 24.2645 170.062 24.2645C171.98 24.287 173.874 24.65 175.637 25.3329C176.661 25.6903 177.579 26.2602 178.317 26.9966C179.052 27.7329 179.588 28.6153 179.878 29.5727C180.335 31.0082 180.226 32.543 179.569 33.9137C178.913 35.2844 177.748 36.4058 176.275 37.0856C174.769 37.8516 173.098 38.3144 171.376 38.4423C170.315 38.5355 169.245 38.5695 168.147 38.6288V43.0043H161.915ZM168.175 34.9147C169.195 34.9751 170.219 34.8834 171.206 34.6435C171.803 34.5245 172.349 34.2536 172.779 33.8629C173.211 33.472 173.509 32.9778 173.638 32.4388C173.738 31.9868 173.773 31.5251 173.741 31.065C173.745 30.5657 173.606 30.0738 173.338 29.637C173.07 29.2002 172.682 28.8334 172.211 28.5721C170.969 27.9909 169.569 27.741 168.175 27.8513V34.9147ZM161.868 34.9147V27.8513C160.473 27.7574 159.081 28.0535 157.879 28.6992C157.32 29.0231 156.874 29.4834 156.594 30.0266C156.313 30.57 156.209 31.174 156.293 31.7689C156.324 32.3504 156.539 32.9117 156.913 33.3854C157.288 33.8592 157.806 34.2253 158.404 34.4399C159.5 34.8484 160.688 35.0113 161.868 34.9147Z" fill="#B6B6B6"/>
<path d="M0 38.1534C5.85652 38.1534 8.91617 35.211 11.3658 32.8452C13.6276 30.6744 15.4203 28.9531 19.1369 28.9531C22.8536 28.9531 24.6368 30.649 26.8986 32.8452C29.3577 35.211 32.4079 38.1534 38.2644 38.1534C44.1209 38.1534 47.1713 35.211 49.6302 32.8452C51.8921 30.6744 53.6754 28.9531 57.392 28.9531C61.1087 28.9531 62.8918 30.649 65.1537 32.8452C67.6127 35.211 70.6724 38.1534 76.5194 38.1534C82.3666 38.1534 85.4263 35.211 87.8853 32.8452C90.1472 30.6744 91.9304 28.9531 95.647 28.9531V24.4844C89.7998 24.4844 86.7403 27.4268 84.2812 29.7926C82.0194 31.9719 80.2361 33.6847 76.5194 33.6847C72.803 33.6847 71.0196 31.9888 68.7577 29.7926C66.2987 27.4268 63.2391 24.4844 57.392 24.4844C51.5448 24.4844 48.4664 27.4268 46.0262 29.7926C43.7644 31.9719 41.9717 33.6847 38.2644 33.6847C34.5571 33.6847 32.7646 31.9888 30.5027 29.7926C28.0437 27.4268 24.9841 24.4844 19.1369 24.4844C13.2898 24.4844 10.2207 27.4268 7.77115 29.7926C5.49986 31.9719 3.71664 33.6847 0 33.6847V38.1534Z" fill="#B6B6B6"/>
</svg>
