<?xml version="1.0" encoding="utf-8"?>
<!-- Generator: Adobe Illustrator 26.0.3, SVG Export Plug-In . SVG Version: 6.00 Build 0)  -->
<svg version="1.1" id="Слой_1" xmlns:xodm="http://www.corel.com/coreldraw/odm/2003"
	 xmlns="http://www.w3.org/2000/svg" xmlns:xlink="http://www.w3.org/1999/xlink" x="0px" y="0px" viewBox="0 0 1269 290.6"
	 style="enable-background:new 0 0 1269 290.6;" xml:space="preserve">
<style type="text/css">
	.st0{opacity:0.2;}
</style>
<g class="st0">
	<path d="M593.8,11.6c18.7,12.9,39.4,13.2,60.1,13.6c21.1,0.4,42.3,0.2,63.4,1.7c28.2,2,55.2,8.7,78,26.9
		c19.5,15.5,32.3,35.6,40,59.1c0.6,1.7,1.2,3.4,2.1,6.1c0.4-8.1,0.4-15,1.2-21.9c3-28,17.8-47.1,43.5-58.6
		c18.5-8.3,36.5-17.6,54.6-26.9C942.1,8.7,946.8,4.4,953,0c-0.6,8.4-0.8,15.9-1.8,23.4c-2.5,18.9-7,37.3-16.2,54.2
		c-10.9,19.9-27,35.4-44,49.9c-6.6,5.6-13.5,10.7-21,16.7c-8.3-36.6,5.7-63.6,31.7-86.5c-0.8,0.2-1.8,0.3-2.4,0.8
		c-9.6,7.4-19.9,14.1-28.6,22.4c-11.9,11.4-16.1,26.8-18.4,42.7c-3.1,21.9,2.5,42.3,10.4,62.3c6,15.3,12.6,30.4,19.5,46.7
		c1.2-2.4,2.1-3.8,2.7-5.3c8.6-20.2,17.3-40.4,25.8-60.6c5.4-12.8,14.9-19.1,28.7-19c4.1,0,8.3,0,13.8,0c-0.9,3.7-1.1,7-2.4,9.8
		c-13.8,30.8-27.8,61.6-41.7,92.3c-4.5,9.8-9,19.6-13.3,29.6c-1.2,2.8-2.7,4.2-5.9,4c-4.5-0.3-9-0.3-13.5,0
		c-3.6,0.3-5.2-1.2-6.6-4.4c-18.2-40.3-36.3-80.7-55-120.9c-6.1-13.1-12.9-26-20.5-38.3C780,97.2,758,85,733.3,77.3
		c-7.2-2.3-14.7-3.7-22.4-4.9c41.5,15.3,73.2,39.2,79,87.2c-3.2-3-6.2-5.8-9.3-8.5c-17.2-15.4-37.9-22.5-60.4-24.8
		c-27.7-2.8-53.5-10.3-75.8-27.6c-27.5-21.4-43.6-49.7-50.6-83.5C593.6,14.3,593.8,13.5,593.8,11.6z"/>
	<path d="M125.2,226.1c-16.7,0-32.3,0-47.9,0c0.8-16.5,14.5-30.2,30.4-30.5c16.2-0.3,32.3,0,48.5-0.1c3.6,0,4.5,1.4,4.5,4.7
		c-0.1,19.3,0.1,38.7-0.2,58c0,2.4-1.8,5.3-3.6,7c-14.7,13.5-32.7,20.3-52,23.6c-24.3,4.1-47.5,1.4-68.6-12.3
		c-26.7-17.4-38-42.6-36.1-74.1c2.3-38.7,31.8-65.6,68-72.7c30.8-6,59.4,0.9,86.1,16.9c4.1,2.4,4.5,4.8,2.3,8.8
		c-6,10.6-18.4,16.4-30.5,14.1c-12.5-2.4-25.1-5.5-37.7-6.3c-28.4-1.7-50.4,20-48.9,47.1c1.5,28.1,24.9,47.4,52.6,42.7
		c9.4-1.6,18.4-5.3,27.6-8.1c4.6-1.5,6.4-4.8,5.8-9.6C125,232.5,125.2,229.6,125.2,226.1z"/>
	<path d="M456.3,228.3c-33,0-65.8,0-99.6,0c0.9,2.9,1.1,5.2,2.1,7c7.2,12.8,18.6,19.7,32.9,20.1c8.8,0.3,17.8-1.6,26.6-3.3
		c11.5-2.2,23.6,2.3,30.3,11.9c2.1,3.1,1.8,4.8-1.3,6.8c-10.8,7-22.8,10.8-35.3,13c-19.7,3.4-38.9,2.4-56.7-7.7
		c-22.5-12.7-34-32.2-34.6-57.9c-0.6-25.5,8-47.1,30.2-61c24.6-15.4,50.7-16.8,76.2-2.4c17.9,10.1,26.6,27.2,29,47.1
		C457.1,210.5,456.3,219.2,456.3,228.3z M423.4,201.5c0.1-15.2-14.6-27.4-32.5-27.3c-15.9,0.1-31.7,13.6-31.5,27.3
		C380.5,201.5,401.8,201.5,423.4,201.5z"/>
	<path d="M606.2,228.5c-33.5,0-66.4,0-99.6,0c0.6,7.1,4.3,11.7,8.7,15.8c10.6,10,23.4,12.8,37.5,10.9c5.2-0.7,10.4-2,15.6-3.1
		c12.5-2.8,25.3,3.3,32,15.8c-1.3,1-2.5,2.4-4,3.2c-25.7,14.4-52.8,19.3-81.1,9.5c-30-10.4-45.7-35.8-44.8-68.1
		c1-34.5,23.8-59.1,53.5-65.2c22.5-4.6,43.9-2.1,61.7,14.1c12.4,11.2,18.8,25.7,20.4,42.2C606.8,211.5,606.2,219.5,606.2,228.5z
		 M573.1,201.5c-1.1-16-14.6-27.1-32.4-27.3c-15.6-0.2-30,11.8-32.2,27.3C530,201.5,551.4,201.5,573.1,201.5z"/>
	<path d="M310,282.6c-22.6,2.9-40-2.8-51.9-22c-5.4-8.8-11.9-16.9-17.5-25.6c-2.5-3.8-5.3-5.5-9.8-5c-2.9,0.3-5.9,0.1-9.4,0.1
		c0,17.8,0,35,0,52.7c-11.4,0-22.3,0-33.5,0c0-44.8,0-89.6,0-134.7c1.2-0.1,2.5-0.4,3.7-0.4c24.3,0,48.7-0.4,73,0.1
		c14.8,0.4,27.8,5.7,35.5,19.5c11.6,21,2.4,46.4-20.8,57.7c-1.9,0.9-3.9,1.8-6.4,2.9c1.1,1.7,2,3.2,3,4.7c10.3,14.5,20.7,29,31,43.6
		C308.1,278,308.8,280.1,310,282.6z M240,172.9c0,0.1,0,0.2,0,0.3c-4.8,0-9.7,0.1-14.5-0.1c-3.2-0.1-4.4,1-4.3,4.3
		c0.2,7.2,0.2,14.3,0,21.5c-0.1,3.5,1.1,4.7,4.6,4.6c8.3-0.2,16.7,0.3,25-0.2c4.2-0.3,8.6-1.4,12.3-3.3c6.2-3.1,8.6-8.8,7.7-14.9
		c-0.9-5.7-5-10.1-11.9-11.1C252.7,173.2,246.3,173.3,240,172.9z"/>
	<path d="M663.4,283.2c-11,0-21.3,0.1-31.6-0.1c-0.8,0-2.2-1.4-2.4-2.4c-0.4-1.9-0.2-4-0.2-6c0-40.2,0-80.3,0-120.5
		c0-6.6,0-6.7,6.9-6.6c8.5,0,17,0.1,25.5,0.1c0.3,0,0.6,0.2,1.5,0.5c0.2,3.3,0.4,6.9,0.6,11.5c2.3-1.8,4-3.1,5.5-4.4
		c24.1-19.8,76.1-10.1,83.5,29.9c0.4,2.3,0.6,4.6,0.6,6.9c0,29,0,58,0,87c0,1.1-0.2,2.3-0.3,3.4c-12.9,3.2-28.1-6.6-32.1-20.7
		c-0.8-2.8-1.2-5.9-1.2-8.8c-0.1-16.8,0-33.7-0.1-50.5c0-3-0.3-6-1-8.9c-3.1-13.1-14.6-19.9-27.4-15.9
		c-10.6,3.3-18.9,10.4-26.4,18.2c-1.2,1.3-1.4,4-1.4,6c-0.1,24.8-0.1,49.6-0.1,74.5C663.4,278.4,663.4,280.4,663.4,283.2z"/>
	<path d="M1267.8,283c-34.1,0-68.2,0-102.8,0c0-44.8,0-89.7,0-134.9c10.9,0,21.8,0,33.2,0c0,2.2,0,4.1,0,6.1c0,32.7,0.1,65.3-0.1,98
		c0,4.3,1,5.8,5.5,5.7c13.2-0.3,26.3-0.1,39.5-0.1C1256.3,257.7,1268.4,269.7,1267.8,283z"/>
	<path d="M1147.8,283c-34.1,0-68.2,0-102.8,0c0-44.9,0-89.7,0-134.9c10.8,0,21.5,0,33.2,0c0,1.8,0,3.7,0,5.6c0,32.7,0.1,65.3-0.1,98
		c0,4.7,1.1,6.4,6,6.2c13-0.3,26-0.2,39-0.1C1136.7,257.9,1147.5,269,1147.8,283z"/>
	<path d="M1013.7,215.5c0,20.3-0.1,40.7,0.1,61c0,4.6-1.1,6.6-6.1,6.4c-7.8-0.4-15.7-0.2-23.5-0.1c-3.5,0.1-5.1-1-5-4.8
		c0.1-42,0.1-84,0-126c0-3.8,1.5-4.9,5.1-4.8c8.2,0.2,16.3,0.2,24.5,0c4.1-0.1,5.1,1.6,5.1,5.3
		C1013.7,173.5,1013.7,194.5,1013.7,215.5C1013.7,215.5,1013.7,215.5,1013.7,215.5z"/>
	<path d="M996.4,132.4c-12.9,0-21.1-7.7-19.6-19.5c0.5-3.7,2.8-7.9,5.6-10.6c6.8-6.5,20.5-6.3,27.8-0.3c5.6,4.6,7.6,12,5,19
		C1012.6,128.1,1005.6,132.3,996.4,132.4z"/>
</g>
</svg>
