<?xml version="1.0" encoding="utf-8"?>
<!-- Generator: Adobe Illustrator 26.0.3, SVG Export Plug-In . SVG Version: 6.00 Build 0)  -->
<svg version="1.1" id="Слой_1" xmlns:xodm="http://www.corel.com/coreldraw/odm/2003"
	 xmlns="http://www.w3.org/2000/svg" xmlns:xlink="http://www.w3.org/1999/xlink" x="0px" y="0px" viewBox="0 0 1192.3 162"
	 style="enable-background:new 0 0 1192.3 162;" xml:space="preserve">
<style type="text/css">
	.st0{enable-background:new    ;}
	.st1{fill:#FFFFFF;}
</style>
<g class="st0">
	<path class="st1" d="M0,162V0h109.7v24.8h-80V162H0z"/>
	<path class="st1" d="M167.6,99.3c-2.7,0-5.3,0-7.9-0.1c-2.6-0.1-5-0.2-7.3-0.5V162h-29.7V0h46.7c7.8,0,14.7,0.3,20.5,1
		c5.9,0.7,11.1,1.7,15.7,3.1c11.1,3.4,19.6,8.8,25.5,16.2c6,7.4,9,16.9,9,28.3c0,7.8-1.6,14.9-4.8,21.1c-3.2,6.3-8,11.6-14.2,15.9
		c-6.2,4.4-13.8,7.7-22.8,10C189.5,98.1,179.2,99.3,167.6,99.3z M152.4,73.7c1.7,0.2,3.9,0.4,6.5,0.5c2.6,0.1,5.3,0.2,8.2,0.2
		c8,0,14.7-0.6,20.1-1.9c5.4-1.3,9.8-3.1,13.1-5.4c3.3-2.3,5.7-5.1,7.1-8.4c1.5-3.3,2.2-6.8,2.2-10.7c0-4.8-1.1-8.9-3.3-12.3
		c-2.2-3.5-6-6.2-11.4-8.1c-2.8-1-6.3-1.7-10.5-2.1c-4.2-0.4-9.3-0.7-15.3-0.7h-16.7V73.7z"/>
	<path class="st1" d="M372.3,0h31.1v162h-29.7V87.4c0-9.3,0.5-24.3,1.5-44.9h-0.5c-5.6,9.4-15.3,24-29.1,43.7L292.9,162h-31.1V0
		h29.7v74.6c0,11.9-0.5,26.8-1.5,44.8h0.5c5.2-8.6,14.7-22.8,28.6-42.9L372.3,0z"/>
	<path class="st1" d="M461.9,66.7h75.1V0h29.7v162h-29.7V91.5h-75.1V162h-29.7V0h29.7V66.7z"/>
	<path class="st1" d="M712.7,43.1c0,7-1.6,13.5-4.7,19.3c-3.1,5.9-8.4,10.7-15.6,14.6v0.5c4,1.4,7.7,3.1,11.1,5.3
		c3.3,2.1,6.2,4.7,8.6,7.6c2.4,2.9,4.2,6.3,5.6,10c1.3,3.7,2,7.9,2,12.5c0,4-0.6,8.2-1.9,12.7c-1.3,4.5-3.5,8.9-6.6,13.1
		s-7.3,8.1-12.6,11.7c-5.2,3.6-11.9,6.4-19.9,8.5c-2,0.5-4.2,0.9-6.6,1.3c-2.4,0.4-5,0.7-7.9,1c-2.9,0.3-6.1,0.5-9.7,0.6
		c-3.6,0.1-7.5,0.2-12,0.2h-47.1V0h56.3c12,0,21.7,1.2,29.1,3.6c5.5,1.8,10.2,4.1,14.3,7c4,2.9,7.4,6.1,10,9.6
		c2.6,3.5,4.6,7.2,5.8,11.1C712.1,35.2,712.7,39.1,712.7,43.1z M651.8,66.7c8.1,0,14.1-0.8,18-2.4c4.4-1.9,7.6-4.4,9.5-7.7
		c1.9-3.3,2.8-7,2.8-11.1c0-4.3-1.1-8.1-3.3-11.4c-2.2-3.3-5.9-5.8-11.1-7.4c-2.2-0.6-4.7-1.1-7.6-1.4c-2.9-0.3-6.5-0.4-10.8-0.4
		h-24.3v41.9H651.8z M625.1,91.5v45.6h19.4c5.2,0,9.6-0.1,13.3-0.4c3.7-0.3,6.9-0.7,9.6-1.4c4.1-0.9,7.5-2.1,10.3-3.6
		c2.7-1.5,5-3.2,6.7-5.1c1.7-1.9,2.9-4,3.6-6.3c0.7-2.3,1.1-4.7,1.1-7.3c0-4.5-1.3-8.5-3.8-11.9c-2.5-3.4-6.4-5.9-11.7-7.6
		c-2.3-0.7-5.1-1.2-8.2-1.6c-3.1-0.3-7.2-0.5-12.1-0.5H625.1z"/>
	<path class="st1" d="M850.5,0h31.1v162H852V87.4c0-9.3,0.5-24.3,1.5-44.9h-0.5c-5.6,9.4-15.3,24-29.1,43.7L771.1,162H740V0h29.7
		v74.6c0,11.9-0.5,26.8-1.5,44.8h0.5c5.2-8.6,14.7-22.8,28.6-42.9L850.5,0z"/>
	<path class="st1" d="M975,24.8c-2.7,19.1-5.4,35.9-8.2,50.2c-2.8,14.3-5.8,26.6-9,36.9c-3.1,10.3-6.5,18.8-10,25.4
		c-3.6,6.7-7.4,11.9-11.5,15.9c-4.1,3.9-8.6,6.6-13.3,8.2c-4.8,1.5-10,2.3-15.9,2.3c-4.4,0-8.6-0.5-12.3-1.5v-26.5
		c2.9,0.7,5.8,1.1,8.6,1.1c3.1,0,6-0.5,8.4-1.5c2.5-1,4.8-2.9,7.1-5.6c2.3-2.7,4.8-7,7.4-12.7c2.6-5.7,5.3-13.7,8-23.8
		c2.7-10.1,5.4-22.8,8.2-38c2.7-15.2,5.5-33.6,8.2-55.2h86.3v162h-29.7V24.8H975z"/>
	<path class="st1" d="M1130.3,24.8c-2.7,19.1-5.4,35.9-8.2,50.2c-2.8,14.3-5.8,26.6-9,36.9c-3.1,10.3-6.5,18.8-10,25.4
		c-3.6,6.7-7.4,11.9-11.5,15.9c-4.1,3.9-8.6,6.6-13.3,8.2c-4.8,1.5-10,2.3-15.9,2.3c-4.4,0-8.6-0.5-12.3-1.5v-26.5
		c2.9,0.7,5.8,1.1,8.6,1.1c3.1,0,6-0.5,8.4-1.5c2.5-1,4.8-2.9,7.1-5.6c2.3-2.7,4.8-7,7.4-12.7c2.6-5.7,5.3-13.7,8-23.8
		c2.7-10.1,5.4-22.8,8.2-38c2.7-15.2,5.5-33.6,8.2-55.2h86.3v162h-29.7V24.8H1130.3z"/>
</g>
</svg>
