<svg width="200" height="29" viewBox="0 0 200 29" fill="none" xmlns="http://www.w3.org/2000/svg">
<path d="M16.6681 0V6.24224H6.7869V28.6086H0V0H16.6681Z" fill="white"/>
<path d="M38.3793 9.09919C38.3793 12.2953 37.5531 14.7674 35.9005 16.5155C34.2593 18.2506 31.923 19.1181 28.8914 19.1181H26.9938V28.6086H20.241V0H28.8914C32.0483 0 34.4189 0.789249 36.0031 2.36775C37.5873 3.94624 38.3793 6.19006 38.3793 9.09919ZM26.9938 12.8171H28.2246C29.239 12.8171 30.0425 12.491 30.6351 11.8387C31.2391 11.1865 31.5412 10.2863 31.5412 9.13833C31.5412 7.2076 30.6066 6.24224 28.7375 6.24224H26.9938V12.8171Z" fill="white"/>
<path d="M42.3626 0H48.3802V12.2888C48.3802 13.5933 48.289 16.2024 48.1067 20.1161H48.2434L58.2101 0H66.5527V28.6086H60.5693V16.6329C60.5693 14.8196 60.6719 12.1062 60.877 8.49258H60.7402L50.6881 28.6086H42.3626V0Z" fill="white"/>
<path d="M93.3926 28.6086H86.6057V16.946H78.7589V28.6086H71.972V0H78.7589V10.6059H86.6057V0H93.3926V28.6086Z" fill="white"/>
<path d="M98.8119 0H107.531C110.927 0 113.446 0.580522 115.087 1.74157C116.739 2.88956 117.566 4.68331 117.566 7.12281C117.566 8.7274 117.207 10.0972 116.489 11.2321C115.771 12.3671 114.825 13.0976 113.651 13.4238V13.6194C115.201 14.0891 116.323 14.8718 117.019 15.9676C117.714 17.0634 118.061 18.4854 118.061 20.2335C118.061 22.8295 117.207 24.8776 115.497 26.3779C113.799 27.865 111.48 28.6086 108.539 28.6086H98.8119V0ZM105.565 10.9777H107.599C108.568 10.9777 109.314 10.7494 109.838 10.2928C110.374 9.83626 110.642 9.1579 110.642 8.25776C110.642 6.65317 109.582 5.85088 107.462 5.85088H105.565V10.9777ZM105.565 16.6329V22.6404H107.941C110.049 22.6404 111.104 21.6228 111.104 19.5877C111.104 18.6354 110.819 17.9049 110.249 17.3961C109.69 16.8873 108.875 16.6329 107.804 16.6329H105.565Z" fill="white"/>
<path d="M122.404 0H128.421V12.2888C128.421 13.5933 128.33 16.2024 128.148 20.1161H128.284L138.251 0H146.594V28.6086H140.61V16.6329C140.61 14.8196 140.713 12.1062 140.918 8.49258H140.781L130.729 28.6086H122.404V0Z" fill="white"/>
<path d="M173.297 28.6086H166.51V6.32051H161.74C161.478 9.56883 161.125 12.8758 160.68 16.2416C160.247 19.6073 159.831 21.9685 159.432 23.3252C159.034 24.682 158.526 25.7647 157.911 26.5735C157.307 27.3693 156.555 27.9759 155.654 28.3934C154.754 28.7978 153.666 29 152.389 29C151.42 29 150.537 28.8565 149.739 28.5695V22.6012C150.423 22.8621 150.982 22.9926 151.415 22.9926C152.007 22.9926 152.457 22.7121 152.765 22.1511C153.084 21.5771 153.375 20.6118 153.637 19.2551C153.899 17.8853 154.264 15.3545 154.731 11.6626C155.198 7.95771 155.632 4.07018 156.03 0H173.297V28.6086Z" fill="white"/>
<path d="M200 28.6086H193.213V6.32051H188.443C188.181 9.56883 187.828 12.8758 187.384 16.2416C186.95 19.6073 186.534 21.9685 186.136 23.3252C185.737 24.682 185.23 25.7647 184.614 26.5735C184.01 27.3693 183.258 27.9759 182.357 28.3934C181.457 28.7978 180.369 29 179.092 29C178.123 29 177.24 28.8565 176.442 28.5695V22.6012C177.126 22.8621 177.685 22.9926 178.118 22.9926C178.71 22.9926 179.161 22.7121 179.468 22.1511C179.787 21.5771 180.078 20.6118 180.34 19.2551C180.602 17.8853 180.967 15.3545 181.434 11.6626C181.902 7.95771 182.335 4.07018 182.734 0H200V28.6086Z" fill="white"/>
</svg>
