<svg width="102" height="66" viewBox="0 0 102 66" fill="none" xmlns="http://www.w3.org/2000/svg">
<path fill-rule="evenodd" clip-rule="evenodd" d="M11.9524 11.4828C12.6855 10.7073 13.461 9.87859 14.5499 9.26772C15.5964 8.67809 16.7119 8.49217 17.7584 8.32219C19.1501 8.09378 20.4196 7.8813 21.2589 6.77642C22.0398 5.7459 21.6201 4.11514 21.0358 3.4777C19.3148 1.59197 15.5486 -0.654983 8.36685 0.178992C4.02168 0.683626 1.23292 4.16826 0.632666 7.16419C0.600795 7.33417 0.563611 7.49884 0.53174 7.6582C-0.0844451 10.6913 -0.270363 11.605 0.547676 14.8453C0.622043 15.1374 0.781401 15.488 0.951383 15.8705C1.23292 16.492 1.54101 17.1825 1.54632 17.7562C1.55163 18.2768 1.30197 18.638 1.02575 19.0257C0.728282 19.4507 0.398941 19.9128 0.356446 20.6671C0.260831 22.197 0.850456 23.3868 2.18375 24.1305C3.2302 24.7148 5.0097 24.5873 5.73213 24.2155C6.55548 23.7906 6.95919 23.4718 7.34164 22.4413C7.81441 21.1665 7.68161 19.1692 6.81576 18.4521C6.28457 18.0112 5.77462 17.9315 5.3178 17.8571C4.83972 17.7828 4.41477 17.7137 4.0748 17.2622C3.46393 16.4601 3.32582 15.1002 3.91013 13.6607C4.21822 12.9011 4.63256 12.5239 5.57277 12.3858C6.24207 12.2849 6.93262 12.7205 7.55943 13.1136C8.10125 13.4535 8.59526 13.7669 8.98303 13.6607C10.226 13.3154 11.0547 12.4336 11.9524 11.4828ZM2.34842 11.5147C2.34842 11.5147 2.47591 6.5002 4.48382 4.41792C5.61526 3.24398 6.4758 2.65967 8.05876 2.25596C9.80638 1.81507 13.3813 1.70352 16.9563 2.94651C17.5831 3.1643 18.4967 3.72737 18.4542 4.35949C18.3905 5.34219 17.1847 5.61842 15.8089 5.92651C14.8209 6.14961 13.7425 6.39396 12.9351 6.93578C12.0905 7.50415 11.4903 8.27438 10.9325 9.00212C10.2048 9.94764 9.54079 10.8082 8.46777 11.01C8.02157 11.095 7.53819 10.6169 7.44257 10.0964C7.35758 9.65549 7.75066 8.19471 8.46777 7.40854C8.72275 7.13232 9.03615 6.99421 9.33362 6.86141C9.59922 6.74455 9.84888 6.633 10.0189 6.43645C10.3535 6.04868 10.5447 5.46437 10.3535 5.16159C10.0242 4.64633 9.35487 4.68351 8.88211 4.77382C7.81441 4.97567 7.33633 5.49093 6.66172 6.43645C6.27394 6.98358 6.20489 7.54134 6.13583 8.09909C6.06678 8.67278 5.99241 9.24116 5.57808 9.78829C4.72817 10.941 2.34842 11.5147 2.34842 11.5147Z" fill="#B6B6B6"/>
<path fill-rule="evenodd" clip-rule="evenodd" d="M10.6935 13.9791C10.0295 14.9724 9.69487 16.056 9.89141 17.1397C10.003 17.7718 10.6723 18.3296 11.2513 18.0533C12.1437 17.6337 12.6058 16.4969 13.0626 15.3655C13.5991 14.0428 14.1303 12.7255 15.3574 12.5608C16.3401 12.428 16.6482 13.7932 16.8819 14.8396C16.8925 14.8874 16.9032 14.9299 16.9138 14.9724C17.4184 17.214 17.3228 18.7439 17.2113 20.5606C17.1688 21.2405 17.1263 21.9576 17.1103 22.765C17.0466 25.7981 16.4463 30.4992 16.4463 30.4992C16.4463 30.4992 12.6217 53.3671 10.2367 52.8147C7.66571 52.2144 7.54353 44.2518 9.07337 39.5348C9.63112 37.8084 9.9764 37.3569 10.6351 36.4964C10.7573 36.337 10.8954 36.1564 11.0441 35.9546C11.5806 35.2268 11.4053 33.7448 10.5182 33.9042C8.79715 34.2069 7.08671 36.762 6.49708 37.9784C4.91943 41.2187 4.92475 44.034 4.93006 44.6236C4.93006 44.6396 4.93006 44.6555 4.93006 44.6714C4.93006 44.8414 4.93006 45.0114 4.93006 45.1761C4.92475 48.7882 4.92475 51.0033 6.78924 53.3777C8.26596 55.2581 9.56207 55.2953 10.4014 55.3166C10.4279 55.3166 10.4545 55.3166 10.4757 55.3166C12.1649 55.3644 14.5925 52.3738 15.7452 48.6076C16.7438 45.3354 19.1289 30.5045 19.1289 30.5045L20.7118 50.0737C20.7118 50.0737 20.9137 52.6287 22.2948 53.3724C23.5218 54.0364 25.8272 54.1479 26.0078 53.6486C27.0065 50.9289 27.2827 47.3752 27.5695 43.5931C27.7714 40.9743 27.9786 38.2493 28.446 35.604C29.5775 29.134 31.8191 20.5234 31.8191 20.5234L32.0156 50.0737C32.0156 50.0737 32.3981 53.6752 34.5388 54.5623C36.2014 55.2528 38.1297 55.954 39.6967 54.8651C40.8175 54.0842 41.1893 53.3512 41.7737 52.1188C42.4111 50.7802 42.6608 48.6554 42.6608 48.6554C42.6608 48.6554 44.1428 49.9409 45.1574 50.1534C46.1401 50.3552 46.6925 50.1268 47.654 49.5691C48.9342 48.8307 49.3804 47.7949 49.9487 46.4722C49.9753 46.4031 50.0072 46.3394 50.039 46.2703C50.6287 44.9105 51.0642 42.6104 51.0642 42.6104C51.0642 42.6104 51.6167 42.0845 52.0629 42.0261C52.456 41.973 53.0615 42.2492 53.0615 42.2492C53.0615 42.2492 52.6472 51.9222 52.3975 61.8503C52.3763 62.7586 52.6206 64.3256 53.3696 64.8462C54.1452 65.388 54.7826 65.3986 55.505 64.9843C55.6909 64.8781 55.675 63.1942 55.6537 61.0588C55.6378 59.173 55.6113 56.9314 55.7281 55.1147C55.9672 51.2317 56.9499 45.192 56.9499 45.192C56.9499 45.192 57.0933 49.739 58.5859 50.7642C59.6802 51.5185 61.2207 51.3061 61.72 50.9289C64.1369 49.1016 64.5991 46.7431 65.2365 43.4497C65.2577 43.3488 65.279 43.2425 65.2949 43.1363C65.7092 41.0009 65.8208 40.1988 65.8208 37.2294C65.8208 35.6199 65.1568 31.9016 62.1343 32.045C61.2578 32.0875 60.7745 32.3956 60.0573 32.9055C59.2127 33.5004 58.979 33.952 58.5116 34.8444C58.4053 35.0515 58.2832 35.2799 58.145 35.5402C57.3854 36.9266 56.2328 41.0593 56.2328 41.0593C56.2328 41.0593 57.3164 32.3849 57.8157 24.6508C57.8635 23.9443 57.8051 21.5645 56.7905 20.7677C55.7759 19.9709 54.262 19.3176 53.5184 20.295C53.2103 20.704 53.3271 21.9682 53.4865 23.6787C53.5662 24.5498 53.6618 25.5379 53.7096 26.5896C53.7096 26.9243 53.7096 27.2642 53.7096 27.6095C53.7149 31.3969 53.7202 35.5349 53.1837 38.8708C53.035 39.7845 52.286 40.0023 51.383 40.2041C51.0802 40.2732 51.1545 39.3011 51.2342 38.2228C51.3245 37.0754 51.4201 35.8058 51.0749 35.5455C50.7349 35.2906 50.3896 35.3065 50.0337 35.3224C49.7363 35.3384 49.4335 35.349 49.1094 35.2109C48.796 35.0781 48.6951 34.7009 48.5783 34.2601C48.3817 33.5004 48.132 32.5602 46.6394 32.3849C45.0033 32.1937 43.0538 35.8271 42.3155 38.8708C41.9277 40.4591 41.9543 41.6277 41.9861 42.8176C42.0127 43.8534 42.0339 44.9052 41.7896 46.2703C41.285 49.091 40.2651 53.1015 38.0766 52.5915C37.1045 52.3631 35.8349 48.8148 35.5799 46.2703C34.3051 33.4633 34.0289 25.9787 36.7433 11.7587C36.8814 11.031 36.3342 9.53299 35.41 9.40019C33.5773 9.1399 31.851 10.2448 31.2773 12.0083C29.3437 17.9843 28.6054 22.1382 27.5802 27.8645C27.3677 29.0437 27.1446 30.292 26.9002 31.6306C26.3956 34.361 25.9653 37.9784 25.5935 41.0912C25.142 44.8892 24.7755 47.9277 24.4886 47.6249C23.8831 46.9928 23.4528 41.0753 23.0916 36.0024C23.0385 35.2799 22.9906 34.5735 22.9375 33.9042C22.5391 28.5444 22.4382 20.1569 22.4382 20.1569C22.4382 20.1569 22.2417 12.0083 20.664 8.76275C20.4409 8.30062 18.0399 9.01242 16.0904 10.0111C15.8886 10.1173 15.6867 10.2182 15.4849 10.3192C13.6523 11.2381 11.9684 12.0827 10.6935 13.9791ZM45.5717 47.0246C44.2968 47.6355 46.4853 33.6279 47.8452 37.2932C48.1055 37.9997 47.9621 38.5362 47.8133 39.078C47.6912 39.5401 47.5637 40.0076 47.6805 40.5919C47.8133 41.2452 48.2648 41.0328 48.2648 41.0328C48.2648 41.0328 48.0417 43.301 47.5159 44.4696C47.4681 44.5705 47.4256 44.6714 47.3831 44.7671C46.9316 45.787 46.6022 46.5306 45.5717 47.0246ZM59.4624 48.6607C61.789 52.8518 62.6124 35.179 60.9444 36.098C59.728 36.7673 59.3668 37.8031 58.9578 38.9717C58.8728 39.2214 58.7825 39.4764 58.6816 39.7367C58.1132 41.2134 58.0282 43.6622 58.0282 43.6622C58.0282 43.6622 58.6178 43.3435 58.8834 44.1084C59.1118 44.7671 59.0853 45.447 59.0587 46.1269C59.0321 46.9768 59.0003 47.8321 59.4624 48.6607Z" fill="#B6B6B6"/>
<path d="M78.7288 23.6844V2.67041H86.1867V4.74738H81.3635V11.8441H85.7724V14.0061H81.3635V21.2463H86.1867V23.6844H78.7288Z" fill="#B6B6B6"/>
<path fill-rule="evenodd" clip-rule="evenodd" d="M90.2078 4.77892L89.9316 21.0228H88.6567V26.1488H90.654V23.9019H99.3869V26.1488H101.852L101.99 21.0228H100.019V4.77892C100.019 4.22648 99.8012 3.87589 99.4665 3.4775L99.4612 3.47219C99.1266 3.07379 98.8397 2.72852 98.3032 2.72852C95.9447 2.72852 94.3671 2.72852 92.1201 2.72852C91.5517 2.72852 91.2383 3.06317 90.8665 3.45625C90.8612 3.46156 90.8559 3.47219 90.8453 3.4775C90.4522 3.89183 90.2078 4.77892 90.2078 4.77892ZM95.0842 7.02587L91.812 17.7825H94.2237V19.3071H95.4454V17.7825H97.942L95.0842 7.02587Z" fill="#B6B6B6"/>
<path fill-rule="evenodd" clip-rule="evenodd" d="M65.4488 4.77892L65.1726 21.0228H63.8977V26.1488H65.895V23.9019H74.6278V26.1488H77.0926L77.2307 21.0228H75.2599V4.77892C75.2599 4.22648 75.0422 3.87589 74.7075 3.4775L74.7022 3.47219C74.3675 3.07379 74.0807 2.72852 73.5442 2.72852C71.1857 2.72852 69.608 2.72852 67.3611 2.72852C66.7927 2.72852 66.4793 3.06317 66.1075 3.45625C66.1022 3.46156 66.0968 3.47219 66.0862 3.4775C65.6931 3.89183 65.4488 4.77892 65.4488 4.77892ZM70.4951 6.94088L68.3066 10.9301H69.6399L67.9188 13.8145H69.6399L67.393 17.6391H69.8046V19.1637H71.0263V17.6391H73.5229L71.6372 13.8145H73.0502L71.4407 10.9301H72.6305L70.4951 6.94088Z" fill="#B6B6B6"/>
<path fill-rule="evenodd" clip-rule="evenodd" d="M70.8565 32.5819C68.3068 34.1064 67.6322 35.8859 67.1116 38.4569C67.0585 38.7066 67.0054 38.9562 66.9522 39.2112C66.5645 41.0279 66.1554 42.9561 66.4742 45.8033C66.7079 47.9281 67.6693 49.9997 69.7994 50.1538C71.1965 50.2547 72.0145 49.5801 73.045 48.6293C73.6028 48.1087 73.9746 47.0038 74.3783 45.8086C74.7926 44.5709 75.2389 43.2376 75.956 42.3665C76.2853 41.9681 76.7634 41.9203 77.2627 41.8725C77.608 41.8353 77.9639 41.8034 78.2879 41.6494C79.2653 41.1819 79.8231 40.0399 80.503 38.6375C80.6677 38.2975 80.8429 37.9363 81.0342 37.5698C81.1032 37.437 81.1776 37.267 81.2626 37.0758C81.7354 36.024 82.5215 34.2711 84.1363 33.9364C86.1602 33.5221 83.3608 41.4316 81.7513 43.4182C81.337 43.9335 80.7739 44.3585 80.2586 44.7569C79.5043 45.3359 78.835 45.8458 78.8138 46.4673C78.766 47.8856 79.6371 48.9161 80.8376 48.9905C81.252 49.017 81.5813 48.6558 81.9213 48.284C82.3037 47.8643 82.7021 47.4288 83.2493 47.5244C84.3382 47.705 84.5507 48.8205 84.7525 49.9094C84.7685 49.9944 84.7844 50.0794 84.8003 50.1591C84.8694 50.5097 83.9664 51.2321 82.7234 52.2201C80.4286 54.0474 76.9812 56.8043 76.3437 59.864C75.9613 61.7072 75.9294 62.998 76.5084 64.0498C77.3955 65.654 78.8297 65.8452 80.5827 65.739C81.9691 65.654 84.232 63.6886 85.3209 61.4416C86.3992 59.2159 86.8136 56.9053 87.1854 54.823C87.4351 53.4259 87.6635 52.1351 88.0672 51.0409C88.7046 49.2986 90.0645 47.6519 91.3871 46.053C91.8174 45.5324 92.2424 45.0118 92.6408 44.5019C94.3884 42.239 95.5942 40.1248 95.217 40.4011C91.2225 43.3173 87.3713 48.1352 87.3713 48.1352C87.3713 48.1352 86.7392 46.616 86.0699 45.9149C85.4006 45.219 83.7433 44.6134 83.7433 44.6134C83.7433 44.6134 88.3434 37.3786 88.0141 34.8554C87.7644 32.9644 86.9357 31.5301 85.1881 30.5315C84.4338 30.1012 83.4936 30.0428 82.7765 30.5315C80.4658 32.0985 79.2865 35.3229 78.4366 37.6282C77.9214 39.0306 77.5336 40.093 77.0927 40.2311C76.6518 40.3692 76.365 40.4064 75.956 40.2311C75.122 39.8699 75.7594 35.3547 75.7594 35.3547C75.7594 35.3547 74.4049 35.4981 73.7887 35.0201C73.4275 34.7385 73.4222 34.3242 73.4169 33.9099C73.4115 33.4955 73.4062 33.0812 73.0397 32.7997C72.5404 32.4172 71.5789 32.1516 70.8565 32.5819ZM79.2865 59.3062C81.9744 55.0089 84.4285 52.7088 84.6622 53.4578C84.9916 54.4989 84.8747 55.1098 84.5241 56.1456C83.9398 57.8667 83.3874 59.3912 80.8642 61.9144C80.3171 62.4615 79.515 62.6581 78.8935 62.1906C78.2667 61.7126 78.8669 59.9702 79.2865 59.3062ZM72.5723 37.2936C71.2124 33.6283 69.0239 47.6359 70.2988 47.025C71.3293 46.531 71.6586 45.7874 72.1048 44.7728C72.1473 44.6772 72.1898 44.5762 72.2376 44.4753C72.7635 43.3067 72.9866 41.0385 72.9866 41.0385C72.9866 41.0385 72.5351 41.251 72.4023 40.5976C72.2854 40.0186 72.4129 39.5458 72.5351 39.0837C72.6891 38.5366 72.8325 38.0001 72.5723 37.2936Z" fill="#B6B6B6"/>
</svg>
