<svg width="197" height="29" viewBox="0 0 197 29" fill="none" xmlns="http://www.w3.org/2000/svg">
<path d="M17.3573 9.3045C17.3573 12.5311 16.5666 15.0268 14.9852 16.7916C13.4147 18.5431 11.1789 19.4189 8.27786 19.4189H6.46197V29H0V0.118529H8.27786C11.2989 0.118529 13.5674 0.915304 15.0834 2.50886C16.5993 4.10241 17.3573 6.36762 17.3573 9.3045ZM6.46197 13.0579H7.63984C8.6105 13.0579 9.37939 12.7287 9.94652 12.0702C10.5246 11.4117 10.8136 10.503 10.8136 9.344C10.8136 7.39487 9.91926 6.4203 8.13063 6.4203H6.46197V13.0579Z" fill="white"/>
<path d="M35.8435 29L34.6656 23.5872H26.8949L25.6843 29H18.5843L26.3877 0H35.0091L42.9107 29H35.8435ZM33.3241 17.1866L32.2935 12.4455C32.0535 11.3919 31.7591 10.0288 31.4101 8.35627C31.072 6.6837 30.8484 5.48524 30.7393 4.7609C30.6412 5.43256 30.4449 6.53883 30.1504 8.0797C29.8668 9.62057 29.2288 12.6562 28.2363 17.1866H33.3241Z" fill="white"/>
<path d="M51.9738 18.4905V29H45.5119V0.118529H53.348C59.8482 0.118529 63.0982 2.96322 63.0982 8.65259C63.0982 11.9977 61.7459 14.5856 59.0411 16.4162L66.0102 29H58.6812L53.6098 18.4905H51.9738ZM51.9738 12.6233H53.1844C55.442 12.6233 56.5708 11.4183 56.5708 9.00817C56.5708 7.01953 55.4638 6.0252 53.2499 6.0252H51.9738V12.6233Z" fill="white"/>
<path d="M78.7378 29H72.2759V6.49932H66.4356V0.118529H84.5618V6.49932H78.7378V29Z" fill="white"/>
<path d="M96.5205 10.8256L100.643 0.118529H107.645L99.776 17.72V29H93.265V17.9571L85.3961 0.118529H92.4307L96.5205 10.8256Z" fill="white"/>
<path d="M129.485 29H123.023V6.49932H117.182V0.118529H135.309V6.49932H129.485V29Z" fill="white"/>
<path d="M138.728 29V0.118529H145.222V29H138.728Z" fill="white"/>
<path d="M160.829 29L155.938 8.19823H155.791C156.02 11.7409 156.134 14.4934 156.134 16.4557V29H150.408V0.118529H159.013L164.003 20.624H164.134L169.025 0.118529H177.647V29H171.708V16.3372C171.708 15.6787 171.714 14.9478 171.725 14.1444C171.747 13.3411 171.823 11.3722 171.954 8.23774H171.807L166.98 29H160.829Z" fill="white"/>
<path d="M197 29H182.8V0.118529H197V6.38079H189.262V10.9244H196.427V17.1866H189.262V22.639H197V29Z" fill="white"/>
</svg>
