<?xml version="1.0" encoding="utf-8"?>
<!-- Generator: Adobe Illustrator 26.0.3, SVG Export Plug-In . SVG Version: 6.00 Build 0)  -->
<svg version="1.1" id="Слой_1" xmlns="http://www.w3.org/2000/svg" xmlns:xlink="http://www.w3.org/1999/xlink" x="0px" y="0px"
	 viewBox="0 0 142.6 20.3" style="enable-background:new 0 0 142.6 20.3;" xml:space="preserve">
<style type="text/css">
	.st0{fill:#FFFFFF;}
</style>
<g>
	<g>
		<path class="st0" d="M0,0.3C1.3,0,3.1-0.1,5.5-0.1c2.6,0,4.6,0.5,5.9,1.6c1.2,1,2,2.7,2,4.5c0,2-0.7,3.7-1.8,4.8
			c-1.5,1.4-3.6,2-6,2c-0.5,0-0.9,0-1.3-0.1V20H0V0.3z M4.3,9.3C4.6,9.4,5,9.4,5.5,9.4c2.3,0,3.6-1.2,3.6-3.2c0-1.8-1.1-3-3.2-3
			c-0.7,0-1.3,0.1-1.6,0.1V9.3z"/>
		<path class="st0" d="M18.7,15l-1.2,5H13l5.5-20h5.5l5.5,20h-4.5l-1.3-5H18.7z M23.2,11.8l-1.1-4.2c-0.3-1.2-0.6-2.8-0.9-4.1h-0.1
			c-0.3,1.2-0.6,2.9-0.9,4.1l-1,4.2H23.2z"/>
		<path class="st0" d="M32.2,0.3c1.4-0.2,3.4-0.4,5.5-0.4c2.7,0,4.7,0.4,6.1,1.6c1.2,1,1.8,2.4,1.8,4.2c0,2.4-1.6,4.2-3.4,4.9v0.1
			c1.4,0.6,2.1,1.9,2.6,3.8c0.5,2.3,1.1,4.8,1.5,5.6h-4.4c-0.3-0.6-0.8-2.3-1.3-4.7c-0.5-2.5-1.3-3.2-3-3.2h-1.1V20h-4.3V0.3z
			 M36.5,8.9h1.5c2.1,0,3.3-1.2,3.3-3c0-1.8-1.1-2.8-3.1-2.8c-0.9,0-1.4,0.1-1.7,0.1V8.9z"/>
		<path class="st0" d="M52,3.7h-4.8V0h14.1v3.7h-4.9V20H52V3.7z"/>
		<path class="st0" d="M67.9,20v-8L62.1,0H67l1.8,4.8c0.6,1.4,1,2.6,1.4,3.9h0.1c0.4-1.3,0.8-2.5,1.4-4L73.4,0h4.8l-6,11.8V20H67.9z
			"/>
		<path class="st0" d="M88.1,3.7h-4.8V0h14.1v3.7h-4.9V20h-4.3V3.7z"/>
		<path class="st0" d="M103.9,0v20h-4.3V0H103.9z"/>
		<path class="st0" d="M123.2,12.5c-0.1-2.3-0.2-5.1-0.2-7.8h-0.1c-0.5,2.4-1.3,5.2-1.9,7.3l-2.2,7.6h-3.3l-2-7.5
			c-0.6-2.1-1.2-4.9-1.6-7.4h-0.1c-0.1,2.6-0.2,5.5-0.3,7.8l-0.4,7.4h-3.9l1.3-20h5.5l1.8,6.8c0.6,2.4,1.2,4.8,1.6,7.1h0.1
			c0.4-2.3,1.1-4.8,1.7-7.1l2-6.8h5.4l1.1,20h-4.1L123.2,12.5z"/>
		<path class="st0" d="M141.8,11.4h-6.5v5h7.3V20h-11.6V0h11.2v3.6h-6.9v4.3h6.5V11.4z"/>
	</g>
</g>
</svg>
