<svg width="203" height="50" viewBox="0 0 203 50" fill="none" xmlns="http://www.w3.org/2000/svg">
<path d="M149.933 30.2025C147.941 32.1232 145.404 32.9085 142.241 32.9085C137.921 32.9085 134.409 29.3387 134.407 25.0406C134.406 20.7426 137.915 17.1867 142.241 17.1867C145.615 17.1867 148.079 18.1123 149.933 19.8895L155.651 13.9424C151.298 9.21862 144.004 8.03073 137.491 9.44077C133.049 10.4019 128.957 12.9273 126.459 16.9029C123.065 22.3115 123.539 29.8029 127.466 34.7458C132.579 41.1835 143.202 42.8666 150.71 39.6377C152.696 38.7861 154.433 37.66 155.648 36.1542L155.656 36.145L149.938 30.1978" fill="white"/>
<path d="M16.8414 32.6909C13.4475 33.3081 8.97367 32.3824 10.0381 27.9487C10.4233 26.4799 11.3511 25.212 12.6345 24.4005L19.2033 31.932C18.4597 32.3043 17.6631 32.5592 16.8414 32.6879V32.6909ZM13.8687 8.06474C14.3339 7.79272 14.8653 7.65428 15.4041 7.66461C15.9431 7.67497 16.4687 7.83369 16.9232 8.12336C19.3914 9.77098 17.6143 13.3871 15.3512 14.5287C13.0372 13.3933 11.26 9.6491 13.8687 8.06474ZM30.664 32.6154C32.5154 29.6318 33.6539 25.6732 34.2987 22.2345H25.4034C25.2245 23.1864 24.9406 24.655 24.612 25.6392L19.7247 20.0685C31.1777 13.9255 28.8946 -0.179483 15.3512 0.0133546C3.70842 -0.332211 0.0691711 10.6133 7.60066 18.7141C5.72783 19.8726 3.99228 21.1732 2.60075 22.8933C-2.06748 28.3313 -0.240911 36.7777 6.39582 39.5915C12.3399 42.1971 19.9917 41.5878 25.3463 37.8513L27.537 40.3829H37.4828L30.664 32.6154Z" fill="white"/>
<path d="M55.5782 32.4652C54.1159 32.4634 52.6869 32.0281 51.4719 31.2142C50.2569 30.4006 49.3105 29.2449 48.752 27.8934C48.1937 26.5417 48.0486 25.055 48.335 23.6212C48.6213 22.1871 49.3265 20.8701 50.3612 19.8367C51.3958 18.8034 52.7137 18.0999 54.1481 17.8153C55.5825 17.5307 57.0691 17.6777 58.4198 18.2377C59.7707 18.7977 60.9252 19.7456 61.7374 20.9616C62.5497 22.1778 62.9831 23.6073 62.9831 25.0696C62.9834 26.0416 62.792 27.0041 62.4197 27.9021C62.0476 28.8002 61.502 29.6159 60.8143 30.3029C60.1266 30.9899 59.31 31.5344 58.4114 31.9054C57.513 32.2764 56.5502 32.4666 55.5782 32.4652ZM57.7904 8.88965C52.0592 8.88965 49.4598 12.3947 49.4598 12.3947V9.59929H39.028V49.9504H49.466V37.4251C49.466 37.4251 51.7923 41.1846 57.9648 41.1846C66.2367 41.1846 72.4662 34.0203 72.4662 24.9863C72.4662 16.9642 66.7813 8.89274 57.7904 8.89274" fill="white"/>
<path d="M105.109 32.4652C103.647 32.4652 102.217 32.0315 101.001 31.219C99.7844 30.4062 98.8364 29.2513 98.2767 27.8998C97.7169 26.5484 97.5704 25.0614 97.8558 23.6267C98.1411 22.1921 98.8456 20.8743 99.88 19.8399C100.914 18.8057 102.232 18.1013 103.667 17.8158C105.101 17.5305 106.588 17.677 107.94 18.2368C109.291 18.7966 110.446 19.7444 111.259 20.9607C112.071 22.1769 112.505 23.6067 112.505 25.0696C112.505 26.0408 112.314 27.0026 111.943 27.8999C111.571 28.7974 111.026 29.6128 110.339 30.2997C109.653 30.9864 108.837 31.5312 107.94 31.9026C107.042 32.2743 106.081 32.4655 105.109 32.4652ZM111.226 9.59929V12.3947C111.226 12.3947 108.63 8.88965 102.896 8.88965C93.9032 8.88965 88.2199 16.9533 88.2199 24.9832C88.2199 34.0203 94.4524 41.1815 102.721 41.1815C108.892 41.1815 111.22 37.4219 111.22 37.4219V40.3532H121.656V9.59929H111.226Z" fill="white"/>
<path d="M165.715 22.2276C166.747 15.1312 177.366 15.2006 178.385 22.2276H165.715ZM187.004 16.9485C179.908 6.36091 164.141 5.99529 157.178 16.9485C155.678 19.3853 154.908 22.2009 154.961 25.0615H154.952C154.952 28.5482 156.066 32.0331 158.222 34.7467C163.338 41.1845 173.957 42.8675 181.467 39.6386C183.453 38.7871 185.188 37.6609 186.404 36.1551C186.404 36.1551 186.404 36.1551 186.404 36.1444L180.697 30.2035C178.706 32.1241 176.169 32.9094 173.006 32.9094C171.436 32.9009 169.903 32.4227 168.608 31.5364C167.311 30.6499 166.31 29.396 165.732 27.9356H188.951C189.624 24.2054 189.031 20.236 187.006 16.9485" fill="white"/>
<path d="M85.5683 0H75.1166V40.3557H85.5683V0Z" fill="white"/>
<path d="M200.573 35.6992C200.573 36.7823 200.251 37.8413 199.65 38.742C199.047 39.6425 198.192 40.3445 197.191 40.7589C196.191 41.1735 195.09 41.282 194.027 41.0706C192.966 40.8593 191.989 40.3377 191.224 39.5717C190.457 38.806 189.935 37.83 189.724 36.7677C189.513 35.7053 189.621 34.6043 190.037 33.6035C190.452 32.6027 191.153 31.7474 192.054 31.1457C192.954 30.5438 194.013 30.2227 195.096 30.2227C196.548 30.2227 197.941 30.7996 198.968 31.8267C199.996 32.8537 200.573 34.2468 200.573 35.6992Z" fill="white"/>
<path d="M192.255 0V27.9399H197.963L202.709 0H192.255Z" fill="white"/>
</svg>
