<svg width="146" height="36" viewBox="0 0 146 36" fill="none" xmlns="http://www.w3.org/2000/svg">
<path d="M107.987 21.7526C106.552 23.1359 104.725 23.7015 102.447 23.7015C99.3358 23.7015 96.8058 21.1304 96.8047 18.0348C96.8036 14.9392 99.3313 12.3781 102.447 12.3781C104.877 12.3781 106.652 13.0448 107.987 14.3248L112.105 10.0415C108.97 6.63924 103.717 5.78368 99.0258 6.79924C95.8269 7.49146 92.8791 9.31035 91.0802 12.1737C88.6358 16.0692 88.9769 21.4648 91.8058 25.0248C95.488 29.6615 103.139 30.8737 108.547 28.5481C109.977 27.9348 111.228 27.1237 112.103 26.0392L112.109 26.0326L107.991 21.7492" fill="white"/>
<path d="M12.1298 23.5452C9.68538 23.9897 6.46315 23.323 7.22982 20.1297C7.50721 19.0718 8.17549 18.1586 9.09982 17.5741L13.8309 22.9986C13.2953 23.2667 12.7216 23.4503 12.1298 23.543V23.5452ZM9.98871 5.80855C10.3238 5.61263 10.7065 5.51292 11.0946 5.52036C11.4828 5.52782 11.8613 5.64214 12.1887 5.85077C13.9664 7.03744 12.6864 9.64188 11.0565 10.4641C9.38982 9.64633 8.10982 6.94966 9.98871 5.80855ZM22.0853 23.4908C23.4187 21.3419 24.2387 18.4908 24.7031 16.0141H18.2964C18.1676 16.6997 17.9631 17.7574 17.7264 18.4663L14.2064 14.4541C22.4553 10.0297 20.8109 -0.129232 11.0565 0.00965625C2.67093 -0.239232 0.0498182 7.6441 5.47426 13.4786C4.12538 14.313 2.87538 15.2497 1.87315 16.4886C-1.48907 20.4052 -0.173514 26.4886 4.60649 28.5152C8.8876 30.3919 14.3987 29.953 18.2553 27.2619L19.8331 29.0852H26.9964L22.0853 23.4908Z" fill="white"/>
<path d="M40.0294 23.3823C38.9762 23.381 37.947 23.0675 37.0719 22.4813C36.1968 21.8953 35.5152 21.0629 35.1129 20.0895C34.7108 19.116 34.6063 18.0452 34.8126 17.0125C35.0188 15.9796 35.5267 15.0311 36.2719 14.2868C37.0171 13.5426 37.9663 13.0359 38.9994 12.8309C40.0325 12.6259 41.1032 12.7318 42.076 13.1351C43.049 13.5385 43.8805 14.2212 44.4655 15.097C45.0505 15.9729 45.3627 17.0025 45.3627 18.0557C45.3629 18.7558 45.225 19.449 44.9569 20.0958C44.6889 20.7426 44.2959 21.3301 43.8006 21.8249C43.3053 22.3197 42.7172 22.7119 42.07 22.9791C41.4229 23.2463 40.7295 23.3833 40.0294 23.3823ZM41.6227 6.40234C37.4949 6.40234 35.6227 8.92679 35.6227 8.92679V6.91345H28.1094V35.9757H35.6272V26.9546C35.6272 26.9546 37.3027 29.6623 41.7483 29.6623C47.706 29.6623 52.1927 24.5023 52.1927 17.9957C52.1927 12.2179 48.0983 6.40457 41.6227 6.40457" fill="white"/>
<path d="M75.7035 23.3823C74.6501 23.3823 73.6202 23.0699 72.7442 22.4847C71.8683 21.8993 71.1855 21.0675 70.7824 20.0941C70.3792 19.1208 70.2737 18.0498 70.4792 17.0165C70.6847 15.9832 71.1921 15.0341 71.9371 14.2891C72.682 13.5442 73.6311 13.0369 74.6644 12.8313C75.6976 12.6258 76.7686 12.7313 77.742 13.1345C78.7153 13.5377 79.5472 14.2203 80.1325 15.0963C80.7178 15.9723 81.0302 17.0021 81.0302 18.0557C81.0304 18.7552 80.8927 19.4479 80.6251 20.0942C80.3574 20.7406 79.9651 21.3279 79.4704 21.8226C78.9757 22.3172 78.3885 22.7096 77.7422 22.9771C77.0958 23.2448 76.4031 23.3825 75.7035 23.3823ZM80.1091 6.91345V8.92679C80.1091 8.92679 78.2391 6.40234 74.1091 6.40234C67.6324 6.40234 63.5391 12.2101 63.5391 17.9935C63.5391 24.5023 68.028 29.6601 73.9835 29.6601C78.428 29.6601 80.1046 26.9523 80.1046 26.9523V29.0635H87.6213V6.91345H80.1091Z" fill="white"/>
<path d="M119.354 16.0092C120.097 10.8981 127.745 10.9481 128.479 16.0092H119.354ZM134.687 12.207C129.576 4.58145 118.22 4.31812 113.205 12.207C112.125 13.9621 111.57 15.99 111.608 18.0503H111.602C111.602 20.5615 112.404 23.0715 113.957 25.0259C117.642 29.6626 125.29 30.8748 130.699 28.5492C132.129 27.9359 133.379 27.1248 134.255 26.0403C134.255 26.0403 134.255 26.0403 134.255 26.0326L130.144 21.7537C128.71 23.137 126.883 23.7026 124.605 23.7026C123.474 23.6965 122.37 23.3521 121.437 22.7137C120.503 22.0752 119.782 21.1721 119.366 20.1203H136.089C136.574 17.4337 136.147 14.5748 134.688 12.207" fill="white"/>
<path d="M61.6293 0H54.1016V29.0656H61.6293V0Z" fill="white"/>
<path d="M144.46 25.712C144.46 26.4921 144.228 27.2548 143.795 27.9035C143.361 28.5521 142.745 29.0577 142.024 29.3562C141.304 29.6548 140.511 29.7329 139.745 29.5807C138.981 29.4285 138.277 29.0528 137.726 28.5011C137.174 27.9496 136.798 27.2467 136.646 26.4816C136.494 25.7164 136.572 24.9234 136.871 24.2026C137.17 23.4818 137.675 22.8658 138.324 22.4324C138.972 21.9989 139.735 21.7676 140.515 21.7676C141.561 21.7676 142.564 22.1831 143.304 22.9229C144.044 23.6626 144.46 24.6659 144.46 25.712Z" fill="white"/>
<path d="M138.469 0V20.1233H142.58L145.998 0H138.469Z" fill="white"/>
</svg>
