<svg width="221" height="51" viewBox="0 0 221 51" fill="none" xmlns="http://www.w3.org/2000/svg">
<path d="M67.5391 20.5508H70.4136L74.749 26.2663H74.7608L79.1672 20.5508H82.0121V33.99H78.8951V25.5771H78.8715L75.5179 30.2826H74.0037L70.6915 25.5355H70.6797V33.99H67.5391V20.5508Z" fill="#B6B6B6"/>
<path d="M86.8984 20.5508H90.045V28.8864H90.0568L96.5097 20.5508H99.3842V33.99H96.2258V25.6543H96.2199L89.7848 33.99H86.9103V20.5508H86.8984Z" fill="#B6B6B6"/>
<path d="M104.387 20.5508H107.492V25.7672H113.525V20.5508H116.642V33.99H113.525V28.6488H107.492V33.99H104.387V20.5508Z" fill="#B6B6B6"/>
<path d="M121.656 20.5508H124.803V28.8864H124.815L131.267 20.5508H134.142V33.99H130.984V25.6543H130.972L124.543 33.99H121.668V20.5508H121.656Z" fill="#B6B6B6"/>
<path d="M141.27 33.4438C140.223 32.814 139.389 31.9466 138.792 30.8594C138.194 29.7721 137.887 28.5838 137.887 27.2768C137.887 25.9697 138.182 24.7992 138.792 23.712C139.389 22.6247 140.217 21.7632 141.27 21.1216C142.317 20.4799 143.494 20.165 144.795 20.165C145.919 20.165 146.936 20.3849 147.847 20.8305C148.77 21.2761 149.539 21.8821 150.142 22.6544C150.763 23.4327 151.189 24.318 151.443 25.3102H148.231C147.936 24.5854 147.486 24.0328 146.889 23.6645C146.291 23.2842 145.588 23.106 144.801 23.106C144.138 23.106 143.523 23.2723 142.944 23.611C142.364 23.9496 141.897 24.4309 141.536 25.0666C141.181 25.6964 141.004 26.445 141.004 27.2886C141.004 28.1323 141.181 28.8809 141.536 29.5107C141.891 30.1405 142.364 30.6276 142.944 30.9663C143.523 31.305 144.138 31.4713 144.801 31.4713C145.599 31.4713 146.303 31.2693 146.912 30.8831C147.522 30.4851 147.959 29.8909 148.237 29.0889H151.437C151.206 30.1226 150.775 31.0495 150.165 31.8516C149.556 32.6536 148.781 33.2834 147.859 33.729C146.936 34.1805 145.907 34.4063 144.795 34.4063C143.494 34.4063 142.317 34.0914 141.27 33.4557V33.4438Z" fill="#B6B6B6"/>
<path d="M155.211 20.5627H158.357V25.5355H160.049L163.302 20.5627H167.005L162.586 26.8664L167.395 33.9781H163.639L160.256 28.6785H158.357V33.9781H155.211V20.5508V20.5627Z" fill="#B6B6B6"/>
<path d="M169.725 31.3105H170.304C170.831 31.3105 171.215 31.1322 171.487 30.752C171.759 30.3836 171.895 29.8548 171.895 29.1597V20.5508H184.18V33.9781H181.022V23.2184H175.042V29.3023C175.042 30.3242 174.841 31.1976 174.433 31.8927C174.025 32.5997 173.48 33.1166 172.783 33.4612C172.091 33.8117 171.333 33.9781 170.505 33.9781H169.742V31.2986L169.719 31.3105H169.725Z" fill="#B6B6B6"/>
<path d="M196.727 30.9128C197.324 30.5445 197.809 30.0395 198.152 29.3978C198.501 28.7561 198.679 28.0491 198.679 27.2768C198.679 26.5044 198.501 25.8093 198.152 25.1676C197.803 24.5259 197.324 24.0209 196.727 23.6526C196.13 23.2842 195.467 23.0941 194.757 23.0941C194.048 23.0941 193.385 23.2723 192.788 23.6229C192.19 23.9734 191.717 24.4665 191.362 25.1082C191.013 25.738 190.836 26.4687 190.836 27.2886C190.836 28.1085 191.013 28.869 191.368 29.5107C191.723 30.1523 192.196 30.6395 192.794 30.9782C193.391 31.3168 194.042 31.4832 194.757 31.4832C195.473 31.4832 196.141 31.2931 196.739 30.9247L196.727 30.9128ZM190.777 33.4438C189.813 32.814 189.056 31.9466 188.512 30.8594C187.967 29.7721 187.695 28.5838 187.695 27.2768C187.695 25.9697 187.967 24.7992 188.523 23.712C189.067 22.6247 189.825 21.7632 190.789 21.1216C191.741 20.4799 192.811 20.165 193.977 20.165C195.065 20.165 196.035 20.4086 196.881 20.8839C197.732 21.3592 198.359 22.0128 198.803 22.8446V20.569H201.796V33.9964H198.803V31.7387C198.371 32.5704 197.732 33.224 196.881 33.6993C196.029 34.1746 195.077 34.4063 193.983 34.4063C192.806 34.4063 191.735 34.0914 190.771 33.4557V33.4438H190.777Z" fill="#B6B6B6"/>
<path d="M215.562 23.2183H211.387L211.239 25.4939C211.144 26.8247 210.937 27.9417 210.618 28.8447C210.304 29.7597 209.873 30.5915 209.34 31.352H215.551V23.2183H215.562ZM206.17 31.352C206.767 30.5618 207.252 29.6052 207.619 28.4823C207.986 27.3654 208.216 26.0167 208.323 24.4363L208.595 20.5566H218.691V31.346H220.004V36.913H216.887V33.9839H208.234V36.913H205.117V31.346H206.176L206.17 31.352Z" fill="#B6B6B6"/>
<path d="M33.8493 29.7718V21.2401C33.8493 18.9052 35.7361 17.004 38.0665 17.004H46.5717C48.8961 17.004 50.777 15.1146 50.777 12.7797V4.22425C50.777 1.88933 48.8961 0 46.5717 0H38.0605C35.7361 0 33.8553 1.88933 33.8553 4.22425V12.7678C33.8553 15.1027 31.9685 17.004 29.6381 17.004H21.1447C18.8203 17.004 16.9276 15.1087 16.9276 12.7678V4.22425C16.9276 1.88933 15.0468 0 12.7223 0H4.20529C1.88085 0 0 1.88933 0 4.22425V12.7738C0 15.1087 1.88085 16.998 4.20529 16.998H12.7105C15.035 16.998 16.9276 18.8933 16.9276 21.2342V29.7658C16.9276 32.1008 15.0409 34.002 12.7105 34.002H4.20529C1.88085 34.002 0 35.8913 0 38.2262V46.7757C0 49.1107 1.88085 51 4.20529 51H12.7164C15.0409 51 16.9217 49.1107 16.9217 46.7757V38.2322C16.9217 35.8972 18.8085 33.996 21.1388 33.996H29.6322C31.9567 33.996 33.8493 35.8913 33.8493 38.2322V46.7757C33.8493 49.1107 35.7302 51 38.0546 51H46.5658C48.8902 51 50.7711 49.1107 50.7711 46.7757V38.2262C50.7711 35.8913 48.8902 34.002 46.5658 34.002H38.0605C35.7361 34.002 33.8434 32.1067 33.8434 29.7658H33.8493V29.7718Z" fill="#B6B6B6"/>
</svg>
