<?xml version="1.0" encoding="utf-8"?>
<!-- Generator: Adobe Illustrator 26.0.3, SVG Export Plug-In . SVG Version: 6.00 Build 0)  -->
<svg version="1.1" id="Слой_1" xmlns="http://www.w3.org/2000/svg" xmlns:xlink="http://www.w3.org/1999/xlink" x="0px" y="0px"
	 viewBox="0 0 220 60" style="enable-background:new 0 0 220 60;" xml:space="preserve">
<style type="text/css">
	.st0{fill:#FFFFFF;}
	.st1{opacity:0.5;}
	.st2{opacity:0.2;}
</style>
<g>
	<g>
		<g>
			<path class="st0" d="M90.2,46.7c-0.9,0-1.8-0.2-2.6-0.6c-0.8-0.4-1.4-1-1.8-1.7c-0.4-0.7-0.6-1.5-0.6-2.4s0.2-1.7,0.6-2.4
				c0.4-0.7,1-1.3,1.8-1.7c0.8-0.4,1.6-0.6,2.6-0.6c0.7,0,1.4,0.1,2,0.3c0.6,0.2,1.1,0.6,1.5,1l-0.6,0.6c-0.7-0.7-1.7-1.1-2.8-1.1
				c-0.8,0-1.4,0.2-2.1,0.5c-0.6,0.3-1.1,0.8-1.5,1.4c-0.3,0.6-0.5,1.2-0.5,1.9s0.2,1.4,0.5,1.9c0.4,0.6,0.8,1,1.5,1.4
				c0.6,0.3,1.3,0.5,2.1,0.5c1.1,0,2.1-0.4,2.8-1.1l0.6,0.6c-0.4,0.4-0.9,0.8-1.5,1C91.6,46.6,90.9,46.7,90.2,46.7z"/>
			<path class="st0" d="M101.7,44.2h-5.3l-1.1,2.4h-1.1l4.4-9.1h1l4.4,9.1h-1.1L101.7,44.2z M101.3,43.4L99,38.5l-2.3,4.9H101.3z"/>
			<path class="st0" d="M113.7,37.5v9.1h-1v-4.2h-6v4.2h-1v-9.1h1v4.1h6v-4.1H113.7z"/>
			<path class="st0" d="M120.1,42.5h-2.2v4.2h-1v-9.1h1v4.1h2.2l3.2-4.1h1.1l-3.5,4.4l3.8,4.7h-1.2L120.1,42.5z"/>
			<path class="st0" d="M132.3,38.4H129v8.3h-1v-8.3h-3.4v-0.8h7.7V38.4z"/>
			<path class="st0" d="M132.9,42.7h3.6v0.8h-3.6V42.7z"/>
			<path class="st0" d="M146.9,37.5v9.1h-1v-8.3h-6v8.3h-1v-9.1H146.9z"/>
			<path class="st0" d="M156.9,45.8v0.8h-6.8v-9.1h6.6v0.8h-5.5v3.2h4.9v0.8h-4.9v3.4H156.9z"/>
			<path class="st0" d="M165.4,38.4H162v8.3h-1v-8.3h-3.4v-0.8h7.7V38.4z"/>
			<path class="st0" d="M173.9,45.8v0.8h-6.8v-9.1h6.6v0.8h-5.5v3.2h4.9v0.8h-4.9v3.4H173.9z"/>
			<path class="st0" d="M179.7,37.5c1.2,0,2.2,0.3,2.9,0.8c0.7,0.6,1,1.3,1,2.3c0,1-0.3,1.7-1,2.3c-0.7,0.5-1.6,0.8-2.9,0.8h-2.6
				v2.9h-1v-9.1H179.7z M179.7,42.9c0.9,0,1.7-0.2,2.2-0.6c0.5-0.4,0.8-1,0.8-1.7c0-0.7-0.2-1.3-0.8-1.7c-0.5-0.4-1.2-0.6-2.2-0.6
				h-2.5v4.6H179.7z"/>
			<path class="st0" d="M185.7,37.5h7v0.8h-6v3h3.1c1.1,0,2,0.2,2.6,0.7c0.6,0.4,0.9,1.1,0.9,1.9c0,0.9-0.3,1.5-1,2
				c-0.6,0.5-1.5,0.7-2.7,0.7h-3.9V37.5z M189.6,45.9c0.9,0,1.5-0.2,2-0.5c0.5-0.3,0.7-0.8,0.7-1.4c0-0.6-0.2-1.1-0.7-1.4
				c-0.4-0.3-1.1-0.5-2-0.5h-2.9v3.8H189.6z"/>
			<path class="st0" d="M202.8,37.5l-4.3,7.7c-0.3,0.5-0.7,1-1.1,1.2c-0.4,0.3-0.9,0.4-1.4,0.4c-0.4,0-0.8-0.1-1.2-0.2l0.3-0.8
				c0.3,0.1,0.6,0.2,0.9,0.2c0.6,0,1.1-0.3,1.5-1l0.3-0.4l-3.9-7h1.1l3.3,6.2l3.4-6.2H202.8z"/>
			<path class="st0" d="M207.9,37.5c1.2,0,2.2,0.3,2.9,0.8c0.7,0.6,1,1.3,1,2.3c0,1-0.3,1.7-1,2.3c-0.7,0.5-1.6,0.8-2.9,0.8h-2.6
				v2.9h-1v-9.1H207.9z M207.9,42.9c0.9,0,1.7-0.2,2.2-0.6c0.5-0.4,0.8-1,0.8-1.7c0-0.7-0.2-1.3-0.8-1.7c-0.5-0.4-1.2-0.6-2.2-0.6
				h-2.5v4.6H207.9z"/>
			<path class="st0" d="M220,38.4h-5.1l0,8.3h-1v-9.1h6.1V38.4z"/>
		</g>
		<g>
			<path class="st0" d="M97.1,25.4l0-7.8L93.2,24h-1.3L88,17.8v7.6h-2.8v-13h2.5l4.9,8.1l4.8-8.1h2.5l0,13H97.1z"/>
			<path class="st0" d="M103.2,12.4h3v8.5l6.2-8.5h2.8v13h-3v-8.4l-6.2,8.4h-2.9V12.4z"/>
			<path class="st0" d="M130.6,12.4v13h-3v-5.3h-6v5.3h-3v-13h3v5.1h6v-5.1H130.6z"/>
			<path class="st0" d="M133.9,12.4h3v8.5l6.2-8.5h2.8v13h-3v-8.4l-6.2,8.4h-2.9V12.4z"/>
			<path class="st0" d="M155.4,25.6c-1.3,0-2.5-0.3-3.6-0.9c-1.1-0.6-1.9-1.4-2.5-2.4c-0.6-1-0.9-2.2-0.9-3.5c0-1.3,0.3-2.4,0.9-3.5
				c0.6-1,1.5-1.8,2.5-2.4c1.1-0.6,2.3-0.9,3.6-0.9c1.1,0,2.2,0.2,3.1,0.6c0.9,0.4,1.7,1,2.3,1.7l-1.9,1.8c-0.9-1-2-1.5-3.3-1.5
				c-0.8,0-1.5,0.2-2.2,0.5c-0.6,0.3-1.1,0.8-1.5,1.5c-0.3,0.6-0.5,1.3-0.5,2.2c0,0.8,0.2,1.5,0.5,2.2c0.4,0.6,0.9,1.1,1.5,1.5
				c0.6,0.3,1.4,0.5,2.2,0.5c1.3,0,2.4-0.5,3.3-1.5l1.9,1.8c-0.6,0.8-1.4,1.3-2.3,1.7C157.6,25.4,156.6,25.6,155.4,25.6z"/>
			<path class="st0" d="M167.9,20.2h-2.1v5.2h-3v-13h3v5.3h2.2l3.4-5.3h3.2l-4.3,6.3l4.4,6.7h-3.4L167.9,20.2z"/>
			<path class="st0" d="M188.2,12.4v13h-3V14.8h-4.5l-0.1,2.7c-0.1,1.8-0.2,3.3-0.4,4.5c-0.2,1.1-0.6,2-1.2,2.6
				c-0.5,0.6-1.3,0.9-2.3,0.9c-0.4,0-0.9-0.1-1.5-0.2l0.2-2.5c0.2,0,0.3,0.1,0.5,0.1c0.7,0,1.2-0.4,1.5-1.3c0.3-0.9,0.5-2.2,0.5-4
				l0.2-5.3H188.2z"/>
			<path class="st0" d="M200.3,22.6h-6.1l-1.2,2.8H190l5.8-13h3l5.9,13h-3.2L200.3,22.6z M199.3,20.3l-2.1-5l-2.1,5H199.3z"/>
			<path class="st0" d="M220,22.9v5.1h-2.8v-2.7h-9.2v2.7h-2.8l0-5.1h0.5c0.8,0,1.3-0.6,1.7-1.7c0.3-1.1,0.5-2.7,0.6-4.8l0.1-4.1
				h10.1v10.5H220z M210.6,16.7c-0.1,1.5-0.2,2.8-0.4,3.9c-0.2,1-0.5,1.8-0.9,2.3h5.9v-8.1h-4.5L210.6,16.7z"/>
		</g>
	</g>
</g>
<g class="st1">
	<path class="st0" d="M34.6,24.7l34.6-12.4V47L34.6,59.4V24.7z"/>
	<path class="st0" d="M34.6,24.7L0,12.4V47l34.6,12.4V24.7z"/>
	<path class="st0" d="M69.3,12.4L34.6,0L0,12.4l34.6,12.4L69.3,12.4z"/>
</g>
<g>
	<g class="st2">
		<path class="st0" d="M46.2,23.9l11.5-4.1v11.5l-11.5,4.1V23.9z"/>
		<path class="st0" d="M23.1,23.9l11.5-4.1v11.5l-11.5,4.1V23.9z"/>
	</g>
	<g class="st2">
		<g>
			<path class="st0" d="M46.2,23.9l-11.5-4.1v11.5l11.5,4.1V23.9z"/>
		</g>
		<path class="st0" d="M23.1,23.9l-11.5-4.1v11.5l11.5,4.1V23.9z"/>
	</g>
	<g class="st2">
		<path class="st0" d="M34.6,8.2l11.5-4.1v11.5l-11.5,4.1V8.2z"/>
		<path class="st0" d="M57.7,39.6l11.5-4.1V47l-11.5,4.1V39.6z"/>
		<path class="st0" d="M34.6,39.6l11.5-4.1V47l-11.5,4.1V39.6z"/>
		<path class="st0" d="M11.5,39.6l11.5-4.1V47l-11.5,4.1V39.6z"/>
	</g>
	<g class="st2">
		<path class="st0" d="M34.6,8.2L23.1,4.1v11.5l11.5,4.1V8.2z"/>
		<path class="st0" d="M57.7,39.6l-11.5-4.1V47l11.5,4.1V39.6z"/>
		<path class="st0" d="M34.6,39.6l-11.5-4.1V47l11.5,4.1V39.6z"/>
		<path class="st0" d="M11.5,39.6L0,35.4V47l11.5,4.1V39.6z"/>
	</g>
	<g class="st2">
		<path class="st0" d="M46.2,4.1L34.6,0L23.1,4.1l11.5,4.1L46.2,4.1z"/>
		<path class="st0" d="M57.7,19.8l-11.5-4.1l-11.5,4.1l11.5,4.1L57.7,19.8z"/>
		<path class="st0" d="M69.3,35.4l-11.5-4.1l-11.5,4.1l11.5,4.1L69.3,35.4z"/>
		<path class="st0" d="M46.2,35.4l-11.5-4.1l-11.5,4.1l11.5,4.1L46.2,35.4z"/>
		<path class="st0" d="M34.6,19.8l-11.5-4.1l-11.5,4.1l11.5,4.1L34.6,19.8z"/>
		<path class="st0" d="M23.1,35.4l-11.5-4.1L0,35.4l11.5,4.1L23.1,35.4z"/>
	</g>
</g>
</svg>
