<svg width="175" height="18" viewBox="0 0 175 18" fill="none" xmlns="http://www.w3.org/2000/svg">
<path d="M8.43693 10.8459C8.35881 10.9494 8.68864 10.9763 8.77544 11.0874L8.31539 11.1488C7.92242 11.0373 7.63294 10.8672 7.49946 10.6695L7.03941 10.8459L6.8658 10.3667H5.61589L4.92146 10.6695C4.8725 10.6073 4.81152 10.547 4.73919 10.4893C4.58294 10.3858 4.40067 10.2862 4.20102 10.1673L3.83645 10.5047H3.41113L3.16809 10.2018L2.45631 10.1865L1.07617 9.63439L1.11956 9.43503C1.64467 9.39822 2.17728 9.38666 2.70804 9.40053L3.1594 9.58072L3.35036 9.13599C3.61076 9.03248 3.93193 9.11299 4.21837 9.08232L4.6003 8.93663L5.06035 9.10149L5.21658 8.62992C5.84155 8.7181 5.98913 9.03248 6.6141 9.08615C6.79638 9.22801 6.79638 9.228 7.23907 9.20884C7.23907 9.18967 7.34322 9.1705 7.34322 9.15133C7.34322 8.88679 7.34322 8.62609 7.34322 8.38456L6.96998 8.20436C6.96998 8.08552 6.96997 7.97817 7.36057 7.982C7.75118 7.98583 8.1765 8.2312 8.54975 8.58392C8.71467 8.60309 8.88828 8.61842 9.04452 8.64143C9.20076 8.66443 9.14 8.67593 9.17472 8.69127V8.85612L9.69553 9.07849C10.1643 8.98647 10.2424 8.77561 10.4767 8.61075C10.7111 8.4459 11.258 8.4344 11.6225 8.32321L11.8829 8.43823C12.2128 8.40373 12.1694 8.28104 12.0739 8.21203C11.9784 8.14302 11.6225 8.03567 11.8048 7.87848C12.178 7.76347 12.6207 7.84398 13.02 7.82481L13.4106 7.66762C13.7839 7.60244 13.9141 7.77113 14.1571 7.80564L14.6346 7.63695L15.2595 7.80181L15.7196 7.61778C15.7196 7.57944 15.6675 7.5296 15.598 7.5066C15.0488 7.32253 14.3988 7.20612 13.7144 7.16922C13.4367 7.00437 13.645 6.8165 13.5755 6.62865L12.8551 6.47913V6.31427C13.3933 6.02673 14.2873 5.99222 14.9036 5.75452H17.0823L17.4208 5.60884H20.0249L20.346 5.47082C20.9016 5.38264 21.5265 5.52449 22.1255 5.3558C21.5903 5.2809 21.025 5.25737 20.4676 5.28679C19.9207 5.28679 19.3652 5.28679 18.8183 5.28679H15.6327L15.2769 5.13344H8.68863L8.28067 4.97241H5.35547L5.02562 4.83056H3.93194L3.57605 4.67721L2.70804 4.6312L2.55178 4.3475L1.84003 4.10596C1.94419 3.81075 2.49971 3.72258 2.83824 3.53855H3.53264L3.91456 3.39669H4.99958L5.46831 3.55388L5.59851 3.28551C5.93703 3.14749 6.38841 3.25484 6.80506 3.22417L7.20434 3.37753L7.69911 2.96347L6.65749 2.51107L7.84666 1.99733C8.18518 1.91682 8.54975 1.97433 8.98375 1.95133L9.45249 1.80181H10.8674L11.258 1.63312H14.5651L14.9036 1.48743H18.5492L18.9659 1.32258H24.0785L24.4691 1.16922L24.9292 1.34941L25.5975 1.19989L25.9273 1.30724L26.292 1.17306L26.6652 1.31491L26.9169 1.21523C26.969 1.19606 27.0124 1.16539 27.0558 1.16539H34.3818L34.6509 1.05037C34.703 1.05037 34.7464 1.01203 34.7985 1.01203H44.9889L45.3448 0.858676H50.8914C50.9608 0.785833 51.0042 0.739829 51.0476 0.705324C51.9938 0.705324 52.9399 0.678485 53.8861 0.655482C53.8861 0.655482 53.8861 0.620977 53.9555 0.601808C52.9888 0.484155 51.9592 0.52081 51.0476 0.705324C50.8656 0.699681 50.6828 0.699681 50.5008 0.705324L50.1189 0.551966C49.7196 0.490624 49.598 0.663149 49.2508 0.720657L48.5651 0.563467H44.5549L44.1991 0.712987H34.6509L34.3297 0.851007C33.905 0.88649 33.4672 0.875971 33.0538 0.820341V0.620978C33.1232 0.590307 33.1666 0.555803 33.21 0.555803H39.0604L39.4597 0.398613L39.8416 0.544302L40.1628 0.406283L40.5621 0.540465H41.7078C41.8641 0.540465 41.9682 0.333438 42.3849 0.398613L42.7581 0.544302L43.1401 0.394782H55.9693L56.3599 0.237592L56.681 0.379443L57.0803 0.249093H58.5907L58.8945 0.383275L59.2851 0.245261L59.6584 0.387112L59.9101 0.283596C60.0109 0.260834 60.1193 0.245306 60.2312 0.237592H72.4962L72.8782 0.0880712L73.2601 0.229922C73.6854 0.295098 73.7809 0.0995695 74.1976 0.0727325L74.727 0.218421L75.0482 0.0957347H114.43L114.734 0.233754L115.124 0.0804018H116.166L116.548 0.233754H117.268L117.65 0.0880712H120.254L120.558 0.218421L121.157 0.0612313L121.721 0.218421L122.077 0.0804018H122.798L123.18 0.229922L123.64 0.0535678L124.291 0.203088L124.829 0.0612313L125.376 0.214589L125.94 0.0458984L126.487 0.229922L126.938 0.0535678L127.737 0.233754H132.016L132.172 0.398613H131.304L130.913 0.551966L130.644 0.433117C127.871 0.357958 125.09 0.369487 122.32 0.46762C122.32 0.46762 122.364 0.513626 122.407 0.521294C122.512 0.540418 122.623 0.552069 122.737 0.555803H129.091L129.455 0.712987H133.127L133.509 0.877847H138.283L138.665 1.0427H144.168L144.498 1.18456H146.685L147.085 1.34941H148.543L148.942 1.51043H151.494L151.815 1.64845C152.405 1.69446 153.074 1.64845 153.725 1.67912L154.046 1.81714H156.65L157.006 1.9705L157.388 1.83631L157.77 1.97816H159.567L160.035 2.21587C160.035 2.21587 159.94 2.29638 159.879 2.29638C159.15 2.29638 158.421 2.29638 157.692 2.29638C157.692 2.29638 157.605 2.33088 157.561 2.35005C157.648 2.48424 157.935 2.4229 158.126 2.46124L158.794 2.75261L159.185 2.60692H161.007L161.389 2.76028H162.474L162.882 2.92513H163.585L164.002 3.08615H165.07L165.565 3.49254L165.252 3.63823C165.504 3.76858 165.834 3.68807 166.12 3.71491L166.893 3.39669H167.622C168.047 3.56538 167.717 3.67274 167.405 3.80309C167.83 3.88144 168.301 3.89886 168.75 3.85292L169.193 3.7034L169.288 3.97177L168.577 4.07913L168.846 4.29765C168.585 4.41267 168.264 4.29765 168.021 4.35516L167.561 4.17881L167.405 4.405C167.857 4.47225 168.253 4.59778 168.542 4.76539C168.32 4.78582 168.107 4.82071 167.908 4.8689C167.709 4.93408 167.552 5.01076 167.257 4.97625C166.867 4.8804 167.205 4.69254 166.997 4.55069C166.788 4.40884 166.563 4.52769 166.337 4.50852V4.05229L165.912 3.97944C165.452 4.04845 165.356 4.28232 164.879 4.30532C164.401 4.32833 164.297 4.45868 164.132 4.59286C164.089 4.84206 164.853 4.8689 164.861 5.09893H164.271C164.237 5.16731 164.187 5.23408 164.124 5.29829C164.037 5.37497 163.907 5.44398 163.802 5.51683L164.315 5.72385L164.861 5.50149V5.09893L165.209 5.16027V5.67018C165.165 5.74302 164.705 5.78136 164.974 6.01522L165.348 6.18392C165.721 6.14941 165.816 5.96922 166.337 5.90021H166.849L167.275 5.72768C167.463 5.82212 167.637 5.92202 167.795 6.02673C167.986 6.17625 168.073 6.35261 168.29 6.49063C168.524 6.61686 168.786 6.73244 169.071 6.83567H170.226L170.825 7.16155H171.337L171.536 7.39925L170.747 7.66379V8.04717L170.391 8.21587L170.729 8.38072C170.781 8.5149 170.634 8.65292 170.92 8.76411L171.285 8.43056L171.78 8.84845L171.493 8.99031L171.84 9.15516V9.47337C171.736 9.49638 171.641 9.54622 171.545 9.54622H167.248L166.858 9.71491H165.287C165.356 9.91044 165.729 9.96411 165.92 10.0983C165.868 10.129 165.808 10.1903 165.747 10.1903C164.775 10.1903 163.802 10.1903 162.83 10.1903L162.422 10.543L161.007 10.2286L159.567 10.5469L159.185 10.1941H158.803C158.49 10.2938 158.673 10.4395 158.612 10.5775L158.134 10.7961L157.266 10.8382C157.223 10.8382 157.136 10.8766 157.136 10.8957C157.136 11.1066 157.136 11.3175 157.136 11.5245L156.772 11.697L157.301 11.9232L157.692 11.7699H158.56C158.673 11.8389 158.768 11.9232 158.881 11.927C159.15 11.927 159.454 11.9807 159.697 11.8619C159.393 11.6932 158.968 11.8044 158.56 11.7699C158.764 11.6318 158.944 11.487 159.098 11.3366L159.662 11.2523L159.758 10.8689C160.001 10.7501 160.33 10.8344 160.626 10.8076L161.025 10.9686H161.789L161.988 11.2101L160.834 11.6165V11.8427C161.077 11.9692 161.398 11.904 161.702 11.9155C162.006 11.927 162.197 11.9155 162.44 11.9155H163.308C163.368 11.697 163.013 11.7967 162.7 11.605C162.752 11.674 162.7 11.5782 162.596 11.4977C162.492 11.4171 162.396 11.4555 162.292 11.4363V10.8881L161.858 10.6887L162.579 10.6389L162.7 10.8996L163.568 11.283L164.141 11.3328V11.8389L164.697 12.0919H165.443C165.877 11.927 165.443 11.7085 165.686 11.513L165.99 11.4555V11.8389L166.38 12.0152L165.512 12.3334C165.643 12.4293 165.764 12.506 165.86 12.5903C165.955 12.6747 166.016 12.7667 166.085 12.851C166.45 12.9085 166.493 12.897 166.71 12.7168C166.814 12.7168 166.988 12.69 167.005 12.6632C167.049 12.5711 166.893 12.5558 166.71 12.5596C166.71 12.3909 167.118 12.3794 167.196 12.2299L168.064 12.5635H168.872L168.958 12.8318C168.489 12.8455 168.031 12.9011 167.611 12.9953C167.192 13.0896 166.821 13.2205 166.519 13.3801L165.547 13.1731C164.957 13.3571 165.625 13.66 165.087 13.8248L164.566 13.5986C164.705 13.4951 165.104 13.4414 164.809 13.2152C164.419 13.1232 163.863 13.2152 163.221 13.1731L162.735 13.3801C162.631 13.6868 163.264 13.7098 163.368 13.9207L162.987 14.097C162.275 14.2734 161.797 13.8631 160.929 14.0357L160.513 14.166L159.914 13.9743H158.898L158.421 14.1315C157.935 14.1315 157.796 13.8708 157.292 14.005L157.18 14.2044L157.77 14.4344C158.291 14.5571 158.638 14.3002 159.176 14.2772L159.593 14.4459L159.975 14.2925C160.495 14.2465 160.747 14.5801 161.52 14.3999L161.763 14.3155L162.362 14.4689L162.943 14.2964L163.351 14.5417L162.743 14.6721C162.83 14.8024 163.134 14.7411 163.308 14.7871C163.432 14.8249 163.55 14.8659 163.664 14.9098L163.907 14.7871L164.367 14.9558H166.103L164.453 15.1628L165.191 15.32C164.957 15.5309 164.323 15.32 164.072 15.5232C164.66 15.5744 165.262 15.5899 165.86 15.5692C166.446 15.5482 167.037 15.5795 167.596 15.6612C167.004 15.7222 166.396 15.7455 165.79 15.7302L165.096 15.9526C165.764 16.1443 166.424 15.9526 166.997 16.1098L166.65 16.2862L167.37 16.4357V16.6005L166.337 16.8306H165.408L164.983 16.9954H161.346L160.938 17.1564H153.239L152.892 17.306C151.833 17.3366 150.687 17.306 149.55 17.3251L149.22 17.467H141.512L141.121 17.6318H127.936L127.554 17.7967H87.5215L87.183 17.9424H75.4388L75.0742 17.8005L74.51 17.9846L73.9111 17.789H38.6958L38.366 17.6433H32.4895L32.1076 17.4746H29.9029L29.5556 17.3251H26.9082L26.0402 16.8344H24.4257C23.9917 16.6619 24.3563 16.5584 24.608 16.451V16.1366C25.0681 15.9833 25.285 15.6919 26.0315 15.7187C26.0203 15.6522 25.9638 15.5888 25.8692 15.5367C25.7747 15.4847 25.6467 15.4466 25.502 15.4274C25.1375 15.4044 25.0159 15.366 24.9552 15.2012C24.9552 15.0977 24.5906 15.0133 24.4604 14.9481C23.7486 14.8945 23.9917 15.1552 23.7139 15.2472L23.3233 15.1015H22.247C22.0387 15.136 21.9866 15.2817 21.6741 15.2587C21.6741 15.2127 21.6133 15.136 21.5526 15.1322C21.3356 15.1092 21.3008 15.1782 21.3095 15.2587C21.2679 15.2533 21.224 15.2523 21.1814 15.2557C21.1387 15.2592 21.0985 15.267 21.0639 15.2785C21.0293 15.2901 21.0013 15.3051 20.9822 15.3223C20.963 15.3394 20.9533 15.3584 20.9537 15.3775C20.9537 15.4849 20.9536 15.5846 21.3095 15.5731C21.3529 15.6191 21.3877 15.7034 21.4397 15.7034C21.9605 15.7034 22.3077 15.9948 23.1063 15.8529L23.5317 15.6766L23.115 15.4542L23.6705 15.4082C24.1219 15.5616 23.6705 15.7647 23.8789 15.9296L24.2608 16.1903H23.3928C22.681 16.4395 23.74 16.5469 23.5143 16.7462C23.1063 16.8651 23.1063 16.8651 22.6463 16.704L22.0734 16.8612L21.3095 16.6657L20.728 16.8344C20.728 16.7807 20.5631 16.7079 20.5978 16.6619C20.6474 16.5875 20.7373 16.5197 20.8599 16.4642C20.9824 16.4088 21.1338 16.3674 21.3009 16.3437C21.3616 16.4472 21.3009 16.5699 21.6567 16.4625L21.3009 16.3437C21.4571 16.1136 20.9276 15.9603 20.7974 15.7494C20.7106 15.647 20.6031 15.5482 20.4763 15.4542C20.2843 15.4404 20.101 15.4091 19.9381 15.3622C19.7385 15.2932 19.5735 15.2318 19.3044 15.2587L18.176 14.7871L17.8028 14.9175C17.4122 14.9443 16.9955 14.9865 16.7004 14.7833H15.5893L15.19 14.9405L14.6866 14.6606V14.3654L13.9314 14.1239V13.6906L12.7596 13.2766L12.9593 13.0235L13.3759 13.1846L13.7578 13.0389L14.2873 13.2689V13.4299L15.1553 13.8133C15.3637 13.7865 15.4158 13.6408 15.7196 13.6676C15.7196 13.8248 16.0494 13.8747 16.249 13.9628C16.4487 14.051 16.5615 13.9628 16.7004 13.9628C16.9781 13.729 16.7004 13.5794 16.5094 13.3954C16.7698 13.2881 17.091 13.3724 17.3774 13.3379C17.6465 13.1462 17.7246 12.8932 18.4972 12.7973L17.6726 12.6785L17.4295 12.3948C17.334 12.4331 17.2038 12.46 17.1951 12.4906C17.1823 12.5889 17.1823 12.6875 17.1951 12.7858C16.9174 12.9239 16.5962 12.8395 16.3271 12.8663L15.9279 12.7092H14.4783L14.0963 12.5558L13.7144 12.6977C13.4801 12.598 13.2804 12.4408 13.0461 12.4254C12.6555 12.4024 12.4645 12.2606 12.126 12.2338C11.9354 12.226 11.7437 12.226 11.5531 12.2338L11.1538 12.3948H10.8066C10.6852 12.3909 10.5634 12.3909 10.442 12.3948C10.442 12.3948 10.3552 12.4293 10.3118 12.4446L9.28756 12.6938L9.00113 12.5711H8.055L6.95261 12.3104C7.29981 12.1571 7.77721 12.0344 7.95082 11.8542C8.08707 11.6885 8.33182 11.5443 8.65393 11.4401C9.0619 11.421 9.20946 11.5053 9.14002 11.6855L9.68684 11.9002H10.8587L11.1104 11.5935L11.5357 11.7584H12.6468L13.1589 11.5207L12.4645 11.375C12.5339 11.2791 12.8725 11.2523 12.8117 11.1258C13.3759 11.1794 13.7318 10.9609 14.2005 10.9149C14.0877 10.7922 13.9835 10.6657 13.8446 10.5315C13.8446 10.5008 13.6537 10.497 13.5669 10.5009C13.5061 10.4012 13.5669 10.2785 13.211 10.3858C13.3245 10.4271 13.4433 10.4656 13.5669 10.5009C13.5562 10.5775 13.5562 10.6543 13.5669 10.7309C13.3412 10.8267 13.0808 10.9302 12.8377 11.0376C12.8377 11.0376 12.8377 11.0874 12.8377 11.1143H11.8743L11.6746 11.3788C11.5232 11.4219 11.3469 11.4448 11.1668 11.4448C10.9867 11.4448 10.8104 11.4219 10.659 11.3788L10.9715 11.2139C10.8673 11.1104 10.4941 11.0568 10.6417 10.8957L11.0062 10.727V10.3437C11.1244 10.3479 11.2432 10.34 11.3534 10.3207C11.4142 10.4203 11.3534 10.543 11.7006 10.4357C11.5903 10.3943 11.4743 10.3559 11.3534 10.3207C11.4898 10.2496 11.6091 10.1725 11.7093 10.0906L10.4073 9.53088C10.1556 9.72641 10.3552 9.93727 10.1903 10.1213C10.0563 10.1984 9.96154 10.2873 9.91253 10.382C9.91253 10.4548 10.0427 10.52 10.2684 10.5009C10.225 10.6504 10.3726 10.8076 10.1208 10.9686L9.73026 10.8344L9.34833 10.9724L9.01848 10.6695C8.81661 10.7177 8.62739 10.7756 8.45428 10.8421C8.39352 10.7386 8.45428 10.6159 8.09839 10.7232C8.20352 10.7681 8.31675 10.8091 8.43693 10.8459ZM155.227 11.6318C155.513 11.5973 155.791 11.6088 155.548 11.4708C155.461 11.513 155.374 11.559 155.426 11.5973C155.148 11.6318 154.862 11.6203 155.114 11.7584C155.157 11.72 155.227 11.674 155.227 11.6318ZM17.959 8.08168C18.0371 8.20436 18.0111 8.32705 18.3322 8.2197C18.2281 8.18136 18.1326 8.14686 18.0371 8.16986C17.959 8.04718 17.9851 7.92449 17.6639 8.03184C17.7333 8.06635 17.8288 8.10468 17.9243 8.08168H17.959ZM157.527 5.26762C157.77 5.24078 158.1 5.3443 158.23 5.17561C157.744 5.1066 157.744 5.1066 157.57 5.28296L157.501 5.25229L157.197 5.36347L157.31 5.41331C157.392 5.37064 157.454 5.32109 157.492 5.26762H157.527ZM15.4678 8.33471C15.3897 8.21203 15.4157 8.08935 15.0946 8.1967C15.1903 8.23728 15.3021 8.26977 15.4244 8.29254V8.67593L16.4834 8.90213V8.49574L15.98 8.27721C15.8046 8.2709 15.629 8.28828 15.4765 8.32705L15.4678 8.33471ZM18.3496 13.844C18.9485 13.8171 18.5579 14.12 18.9399 14.1622C19.2176 14.1354 19.5388 14.2159 19.8079 14.1047L19.8513 13.9475C19.5822 13.7098 18.9833 13.6791 18.4278 13.5296C18.4278 13.6485 18.3843 13.7443 18.3843 13.844C18.0024 13.9398 18.0024 13.9398 18.1673 14.1469C18.5058 14.0817 18.2628 13.9398 18.3149 13.8363L18.3496 13.844ZM22.2557 7.67913C22.5942 7.61395 22.924 7.49893 23.2105 7.51044C23.4969 7.52194 23.8094 7.39158 24.0785 7.36858L24.3389 7.47976H28.4967L29.0348 7.23056L28.8612 7.02353H28.4533L28.0627 7.18072H22.5768C22.3946 7.2804 22.0821 7.33408 22.004 7.50277L22.2557 7.67913ZM19.2697 7.83631C19.7124 7.53727 20.3547 7.72897 20.8061 7.60628L21.6741 7.40309L21.5265 7.18839L20.8061 7.36858L20.346 7.18072H19.261L18.8878 7.33024L18.5406 7.20373L17.9243 7.36858L17.4556 7.20373C17.286 7.25685 17.1024 7.30063 16.9087 7.33408C16.6827 7.35689 16.4537 7.37353 16.223 7.38392C16.223 7.38392 16.223 7.41842 16.1796 7.42992L16.683 7.65612H17.4121L17.7941 7.80948L18.1934 7.65612C18.5493 7.65995 18.9486 7.59478 19.235 7.82865L19.2697 7.83631ZM22.6984 12.9162L21.9519 13.0504C21.5613 13.1232 21.3616 12.9469 21.0057 12.9162L20.9276 13.127C21.1617 13.2151 21.3794 13.3112 21.5787 13.4146C21.6837 13.5075 21.7652 13.6052 21.8217 13.706H22.6897L22.8893 13.9628L23.5403 13.7903L23.4969 13.4376C23.0716 13.2536 22.681 13.1424 22.6637 12.9085L22.6984 12.9162ZM159.914 6.70532C159.636 6.73216 159.315 6.65165 158.976 6.78967C159.15 6.89702 158.785 7.06187 159.193 7.17305H160.278L160.66 7.02353L161.068 7.18072L161.789 7.15388C161.832 7.15388 161.875 7.11938 161.928 7.09638C161.537 6.95452 161.311 6.71299 160.712 6.68615L160.287 6.84717L159.914 6.70532ZM24.417 13.5296C24.8337 13.5066 25.285 13.5756 25.6756 13.4721C25.5433 13.4029 25.4351 13.3254 25.3545 13.2421C25.2764 13.127 25.4587 12.9852 25.1462 12.8932C24.7469 12.9123 24.2782 12.8433 23.9049 12.9469V13.2957L24.417 13.5296ZM156.355 10.9379C156.355 10.7155 155.817 10.9187 155.747 10.7769L155.548 10.5085C155.209 10.5392 154.897 10.4587 154.576 10.5929C154.576 10.6925 154.576 10.8114 154.645 10.9341C154.645 10.9571 154.723 10.9724 154.758 10.9877C155.253 10.9877 155.73 10.9877 156.216 10.9877C156.233 10.9801 156.277 10.9532 156.329 10.9302L156.355 10.9379ZM167.379 7.7328C167.439 7.80564 167.231 7.93983 167.257 7.93983L168.542 7.57944C168.42 7.41075 168.62 7.26507 168.281 7.17305C168.004 7.19989 167.674 7.11554 167.413 7.23056C167.153 7.34558 167.5 7.4721 167.717 7.56411L167.379 7.7328ZM156.537 4.15963C156.711 4.07146 156.989 4.02162 157.049 3.87976C156.78 3.84143 156.719 3.6689 156.355 3.6804C155.487 3.94877 155.487 4.01395 155.834 4.15963H156.537ZM162.796 7.17305H163.577C163.665 7.11476 163.773 7.06301 163.898 7.0197C164.054 6.98136 164.367 7.06954 164.393 6.85484H162.466C162.396 6.85484 162.344 6.91619 162.283 6.94686L162.796 7.17305ZM152.518 10.9801C152.796 10.9532 153.117 11.0376 153.386 10.9264C153.386 10.7692 153.057 10.8421 152.866 10.8152C152.527 10.6657 152.188 10.5162 151.841 10.3705C151.841 10.3705 151.754 10.3705 151.711 10.3705C151.642 10.589 151.642 10.589 152.544 10.9801H152.518ZM165.643 7.11938L165.486 6.78967L164.879 7.10788C165.357 7.24973 165.856 7.37779 166.372 7.49127C166.478 7.47564 166.58 7.45508 166.676 7.42992C166.511 7.20372 165.894 7.22289 165.643 7.11938ZM17.1257 11.6165C16.1536 11.6165 16.1536 11.6165 15.7543 11.7392C15.9365 11.7585 16.1226 11.7701 16.3098 11.7737C16.7171 11.7981 17.1314 11.7837 17.525 11.7315C17.5944 11.582 17.7333 11.4325 17.3861 11.2868L17.1257 11.6165ZM13.5582 11.5322C13.7578 11.605 13.8794 11.7239 14.2873 11.7584C14.2873 11.5782 14.2873 11.4018 14.2873 11.2293C14.2873 11.2063 14.1484 11.1833 14.0703 11.1564C13.9054 11.2638 13.5495 11.3021 13.5582 11.5322ZM157.831 10.4242C157.657 10.3552 157.492 10.2823 157.327 10.2095C156.997 10.2095 156.641 10.1213 156.329 10.2823C156.547 10.3031 156.759 10.334 156.963 10.3743C157.154 10.428 157.275 10.5277 157.561 10.5009L157.831 10.4242ZM159.315 4.22865C159.497 4.31299 159.619 4.42417 159.922 4.44717L160.365 4.24398L159.862 3.99478L159.315 4.22865ZM19.8166 13.1884L19.6777 12.874L18.9919 12.9315L19.1048 13.1884H19.8166ZM54.2072 0.601808C55.0752 0.674651 55.0752 0.670817 55.353 0.559635C55.172 0.518991 54.9689 0.501408 54.7666 0.508857C54.5642 0.516305 54.3705 0.54849 54.2072 0.601808ZM161.65 5.14877C161.867 5.01842 162.162 4.97242 162.205 4.83823C162.156 4.82009 162.1 4.80655 162.039 4.79844C161.978 4.79032 161.913 4.7878 161.85 4.79103C161.787 4.79426 161.725 4.80317 161.67 4.81722C161.615 4.83127 161.566 4.85016 161.528 4.87273L161.65 5.14877ZM155.982 10.1558C155.218 10.0216 155.218 10.0254 154.957 10.1558C155.133 10.1695 155.309 10.1785 155.487 10.1826C155.653 10.1793 155.819 10.1704 155.982 10.1558ZM158.586 13.7558C158.436 13.693 158.237 13.6579 158.03 13.6579C157.823 13.6579 157.625 13.693 157.475 13.7558C157.548 13.789 157.636 13.8153 157.733 13.8333C157.83 13.8513 157.934 13.8605 158.039 13.8605C158.144 13.8605 158.248 13.8513 158.345 13.8333C158.442 13.8153 158.53 13.789 158.603 13.7558H158.586ZM22.1341 14.4919C22.4206 14.3616 22.4032 14.2734 22.1862 14.1545L21.787 14.1814L22.1341 14.4919ZM150.939 3.81842H151.173C151.173 3.74941 151.225 3.67657 151.234 3.60756C151.242 3.53855 151.138 3.55389 151.112 3.55772C151.086 3.56155 150.886 3.59223 150.878 3.61139C150.887 3.68146 150.913 3.75088 150.956 3.81842H150.939ZM152.735 3.76092C152.397 3.66123 152.162 3.61139 152.015 3.78392C152.249 3.8721 152.449 3.86443 152.753 3.76092H152.735ZM162.665 4.50468V4.6082C162.822 4.6082 162.987 4.62736 163.151 4.6312C163.316 4.63503 163.282 4.59286 163.273 4.58136C163.264 4.56986 163.186 4.48168 163.143 4.48168C162.988 4.48442 162.835 4.49211 162.683 4.50468H162.665ZM163.724 5.02992C163.683 5.00382 163.627 4.98252 163.563 4.96781C163.499 4.95311 163.428 4.94543 163.355 4.94543C163.283 4.94543 163.212 4.95311 163.148 4.96781C163.083 4.98252 163.028 5.00382 162.987 5.02992C163.026 5.05848 163.082 5.08206 163.148 5.09843C163.214 5.11479 163.288 5.12338 163.364 5.12338C163.44 5.12338 163.514 5.11479 163.581 5.09843C163.647 5.08206 163.702 5.05848 163.742 5.02992H163.724ZM164.87 7.52194V7.62162C165.034 7.63307 165.199 7.64075 165.365 7.64462C165.365 7.64462 165.486 7.60628 165.478 7.59478C165.469 7.58328 165.4 7.49893 165.348 7.4951C165.193 7.49747 165.039 7.50646 164.887 7.52194H164.87ZM22.1689 16.3858C22.4033 16.244 22.5161 16.1443 22.1168 16.0753C21.9345 16.1711 21.9432 16.2593 22.1862 16.3858H22.1689ZM27.3075 13.1999C27.2484 13.2174 27.2 13.2411 27.1665 13.2689C27.1331 13.2966 27.1156 13.3276 27.1156 13.359C27.1156 13.3904 27.1331 13.4214 27.1665 13.4491C27.2 13.4769 27.2484 13.5006 27.3075 13.5181C27.3694 13.5019 27.421 13.4789 27.4574 13.4515C27.4938 13.424 27.5137 13.3929 27.5155 13.3611C27.5172 13.3293 27.5006 13.2978 27.4673 13.2696C27.434 13.2414 27.385 13.2174 27.3249 13.1999H27.3075ZM155.287 9.80309C155.328 9.82997 155.382 9.85203 155.447 9.86729C155.511 9.88255 155.583 9.89053 155.656 9.89053C155.729 9.89053 155.801 9.88255 155.865 9.86729C155.93 9.85203 155.985 9.82997 156.025 9.80309C155.985 9.7762 155.93 9.75414 155.865 9.73888C155.801 9.72362 155.729 9.71564 155.656 9.71564C155.583 9.71564 155.511 9.72362 155.447 9.73888C155.382 9.75414 155.328 9.7762 155.287 9.80309ZM164.158 9.59606V9.69574C164.319 9.70719 164.482 9.71487 164.644 9.71874C164.644 9.71874 164.775 9.6804 164.766 9.6689C164.757 9.6574 164.688 9.56922 164.636 9.56922C164.476 9.56684 164.316 9.57198 164.158 9.58455V9.59606ZM149.836 3.63823L149.966 3.69574C150.015 3.66232 150.052 3.62621 150.079 3.58839C150.079 3.58839 150.01 3.55388 149.966 3.53471L149.836 3.63823ZM164.705 3.55772L164.471 3.61523C164.514 3.61523 164.566 3.6689 164.592 3.66507C164.679 3.65411 164.761 3.6373 164.835 3.61523L164.705 3.55772ZM155.157 3.98711L155.287 3.93344C155.209 3.91209 155.124 3.89533 155.036 3.8836C155.036 3.8836 154.957 3.91427 154.914 3.93344L155.157 3.98711ZM85.8289 4.11363L85.6987 4.01011C85.6987 4.01011 85.5772 4.05229 85.5859 4.06379C85.6146 4.10126 85.6525 4.13726 85.6987 4.17114L85.8289 4.11363ZM158.742 4.14813L158.985 4.09063C158.985 4.09063 158.89 4.03695 158.863 4.04079C158.775 4.05252 158.69 4.06928 158.612 4.09063L158.742 4.14813ZM158.933 5.22545L158.794 5.12193C158.794 5.1411 158.673 5.16027 158.681 5.17561C158.712 5.21154 158.749 5.24619 158.794 5.27912L158.933 5.22545ZM47.3065 6.17625L47.1676 6.07274C47.1676 6.07274 47.0461 6.11491 47.0548 6.12641C47.0835 6.16389 47.1214 6.19988 47.1676 6.23376L47.3065 6.17625ZM40.2496 6.55963L40.0152 6.61714C40.0152 6.63631 40.102 6.67082 40.1281 6.66699C40.2165 6.65525 40.3011 6.6385 40.3798 6.61714L40.2496 6.55963ZM32.0642 7.15005L32.2986 7.09254C32.2986 7.09254 32.2118 7.0427 32.177 7.0427C32.0937 7.05699 32.0125 7.07363 31.934 7.09254L32.0642 7.15005ZM13.1502 8.22737L13.02 8.12385C13.02 8.12385 12.8985 8.16602 12.9072 8.17752C12.9359 8.215 12.9738 8.25099 13.02 8.28487L13.1502 8.22737ZM24.0351 8.28487C24.0351 8.28487 23.9136 8.32321 23.9222 8.33471C23.951 8.37219 23.9888 8.40818 24.0351 8.44206C24.0351 8.44206 24.1566 8.40373 24.1566 8.39223C24.1218 8.34899 24.0752 8.30778 24.0178 8.26954L24.0351 8.28487ZM18.827 8.46506L18.6968 8.52258C18.7735 8.54301 18.855 8.55972 18.9399 8.57241C18.9399 8.57241 19.0267 8.53791 19.0614 8.52258L18.827 8.46506ZM13.6189 9.02098L13.7492 9.07849C13.7973 9.04506 13.8353 9.00896 13.862 8.97114C13.862 8.97114 13.7926 8.93663 13.7492 8.91746L13.6189 9.02098ZM12.152 9.33919L12.2822 9.39286C12.3268 9.35993 12.3646 9.32529 12.3951 9.28935C12.3951 9.28935 12.3169 9.25484 12.2822 9.23567L12.152 9.33919ZM154.506 9.65357L154.376 9.55389C154.376 9.55389 154.254 9.59222 154.263 9.60372C154.288 9.64187 154.326 9.67808 154.376 9.71107L154.506 9.65357ZM153.49 10.5699L153.621 10.6695C153.664 10.6695 153.742 10.6312 153.734 10.6197C153.709 10.5816 153.671 10.5453 153.621 10.5124L153.49 10.5699ZM18.0024 11.3635L18.1326 11.4632C18.1326 11.4632 18.2541 11.4248 18.2455 11.4133C18.2167 11.3758 18.1789 11.3398 18.1326 11.306L18.0024 11.3635ZM159.732 11.5667L159.862 11.6242C159.911 11.5904 159.951 11.5544 159.983 11.5168C159.983 11.5168 159.905 11.4823 159.862 11.4632L159.732 11.5667ZM26.7607 12.943L26.6304 12.8855C26.5814 12.9193 26.5407 12.9553 26.509 12.9929C26.509 12.9929 26.587 13.0274 26.6304 13.0427L26.7607 12.943ZM20.4329 13.1807L20.5717 13.1232C20.4931 13.1019 20.4085 13.0851 20.32 13.0734C20.32 13.0734 20.2419 13.104 20.1985 13.1232L20.4329 13.1807ZM160.782 13.2574L160.652 13.2037C160.604 13.2358 160.566 13.2706 160.539 13.3072C160.539 13.3072 160.608 13.3417 160.652 13.3609L160.782 13.2574ZM19.8166 13.4414C19.7732 13.4223 19.7297 13.3878 19.695 13.3916C19.6087 13.4025 19.5267 13.4194 19.452 13.4414C19.452 13.4414 19.5388 13.4913 19.5735 13.4913C19.6082 13.4913 19.7211 13.4568 19.8166 13.4414ZM24.6427 14.4152L24.7729 14.4727C24.8211 14.4393 24.8591 14.4032 24.8858 14.3654C24.8858 14.3654 24.8163 14.3309 24.7729 14.3117L24.6427 14.4152Z" fill="#FFC906" fill-opacity="0.7"/>
<path d="M173.629 4.93818C173.643 4.85908 173.643 4.77958 173.629 4.70048L174.176 4.60463L174.983 5.06469L174.766 5.18354C174.766 5.28706 174.714 5.41358 174.679 5.56693C174.505 5.56693 174.262 5.61677 174.184 5.56693C173.776 5.41358 173.412 5.24489 172.986 5.06086L172.257 5.25256L171.771 4.94201H171.164L171.042 4.68898L171.745 4.57013C171.606 4.46661 171.476 4.36693 171.328 4.24808L171.979 4.09473C172.11 4.20974 172.257 4.32476 172.396 4.43977L172.162 4.55096C172.423 4.60099 172.678 4.65731 172.926 4.71965C173.169 4.78866 173.29 4.92667 173.603 4.92667C173.663 5.01869 173.603 5.14137 173.959 5.03402C173.857 4.99682 173.746 4.96468 173.629 4.93818Z" fill="#FFC906" fill-opacity="0.7"/>
<path d="M28.072 0.827956L27.6814 0.981314L27.3689 0.847126H25.0773L24.8083 0.962143L24.1919 0.804953L23.6017 0.981314H22.9334C22.6382 0.885467 22.6643 0.778114 22.9334 0.670766L23.3153 0.820292L23.6538 0.678435H30.5979L31.1534 0.48291L31.9607 0.686105L32.5075 0.525083C32.7332 0.578757 32.7072 0.670768 32.6291 0.762781C32.577 0.789618 32.5335 0.824124 32.4901 0.824124L28.072 0.827956Z" fill="#FFC906" fill-opacity="0.7"/>
<path d="M19.0613 0.985511L18.9311 1.1312H14.5043L14.1657 1.27688C13.7218 1.31151 13.2695 1.32053 12.8203 1.30372C12.8637 1.25772 12.8811 1.19254 12.9505 1.17337C13.2022 1.11586 13.4626 1.07753 13.9313 0.99318H15.4764L16.084 0.812988L16.9 1.00851L17.4295 0.839822L17.8027 0.985511H19.0613Z" fill="#FFC906" fill-opacity="0.7"/>
<path d="M170.79 4.40106L169.852 4.69243C170.043 4.83812 170.182 4.94163 170.339 5.07582V5.35952L169.47 5.74291C169.262 5.62789 168.846 5.57039 168.924 5.35952L169.609 5.21383C169.826 5.02598 169.375 4.94546 169.219 4.85345C169.705 4.50457 169.991 4.37422 170.408 4.32821C170.46 4.31288 170.573 4.35888 170.79 4.40106Z" fill="#FFC906" fill-opacity="0.7"/>
<path d="M134.733 0.509798H135.263L135.653 0.356445L135.975 0.498296H139.655C139.711 0.514716 139.759 0.536415 139.794 0.561851C139.829 0.587287 139.851 0.615838 139.859 0.645477C139.866 0.675116 139.859 0.705117 139.837 0.73335C139.816 0.761583 139.78 0.787355 139.733 0.808839H138.865L138.544 0.670819H134.838L134.733 0.509798Z" fill="#FFC906" fill-opacity="0.7"/>
<path d="M172.188 7.80957H173.455L174.002 8.07794L173.359 8.25046C173.212 8.43449 173.359 8.55718 172.995 8.58401L172.76 8.30797L171.892 8.2658C171.754 8.20829 171.754 8.20829 172.118 8.04344L172.188 7.80957Z" fill="#FFC906" fill-opacity="0.7"/>
<path d="M142.44 0.781883L142.527 0.479004L142.987 0.666865L143.369 0.513513L143.682 0.651533C144.298 0.724376 145.018 0.609358 145.748 0.709038C145.175 0.858559 144.888 0.866228 142.44 0.781883Z" fill="#FFC906" fill-opacity="0.7"/>
<path d="M132.164 0.352885C132.928 0.352885 133.692 0.352885 134.456 0.352885C134.499 0.35141 134.543 0.354666 134.583 0.36238C134.624 0.370093 134.659 0.382026 134.686 0.39714C134.714 0.412255 134.732 0.430093 134.74 0.449106C134.749 0.468119 134.746 0.487732 134.733 0.506237H134.195L133.822 0.65959L133.405 0.494736H132.294L132.164 0.352885Z" fill="#FFC906" fill-opacity="0.7"/>
<path d="M5.32089 8.38863L4.53102 8.45764L4.21852 8.76052H3.82791C3.44598 8.61866 4.04491 8.58799 4.01887 8.48064C4.00608 8.38872 4.00608 8.29653 4.01887 8.20461L4.19248 8.12793C4.38344 8.26978 4.748 8.26978 5.32089 8.38863Z" fill="#FFC906" fill-opacity="0.7"/>
<path d="M22.4205 0.889495C22.2295 0.954671 22.1861 0.985342 22.1427 0.985342H20.3286C20.2852 0.985342 20.2504 0.950835 20.207 0.935499C20.6844 0.805148 20.6844 0.80515 22.4205 0.889495Z" fill="#FFC906" fill-opacity="0.7"/>
<path d="M9.14859 1.46094C8.97279 1.54709 8.75883 1.61638 8.51994 1.66452C8.28105 1.71266 8.0223 1.73862 7.75977 1.74081C7.75977 1.59896 8.08095 1.55678 8.23719 1.46094H9.14859Z" fill="#FFC906" fill-opacity="0.7"/>
<path d="M12.0563 6.03857V6.35295L11.4573 6.4028L11.3271 6.10376L12.0563 6.03857Z" fill="#FFC906" fill-opacity="0.7"/>
<path d="M161.503 2.07422V2.38093L160.904 2.43077L160.773 2.13173L161.503 2.07422Z" fill="#FFC906" fill-opacity="0.7"/>
<path d="M9.14844 1.43007C9.61716 1.23838 10.1033 1.33423 10.5893 1.35339C10.1553 1.52975 9.62584 1.4109 9.14844 1.43007Z" fill="#FFC906" fill-opacity="0.7"/>
<path d="M6.33669 8.14697C6.70125 8.14697 6.5016 8.29266 6.59708 8.36167C6.69256 8.43068 6.84882 8.45752 7.12658 8.55337L6.36273 8.6032C6.26075 8.5361 6.20414 8.45756 6.19952 8.37676C6.19491 8.29597 6.2425 8.21626 6.33669 8.14697Z" fill="#FFC906" fill-opacity="0.7"/>
<path d="M169.913 3.66895L170.781 3.73795C170.486 3.83763 170.373 3.96032 170.035 3.98333L169.913 3.66895Z" fill="#FFC906" fill-opacity="0.7"/>
<path d="M166.32 4.4741V4.75781C165.903 4.78464 165.912 4.59678 165.634 4.58912C165.738 4.39742 166.077 4.50477 166.32 4.4741Z" fill="#FFC906" fill-opacity="0.7"/>
<path d="M166.285 5.58577C166.285 5.44392 166.363 5.35574 166.407 5.24072C166.606 5.32507 166.737 5.37107 166.849 5.42475C166.901 5.45841 166.945 5.49439 166.98 5.53209L166.684 5.58577C166.552 5.59044 166.418 5.59044 166.285 5.58577Z" fill="#FFC906" fill-opacity="0.7"/>
<path d="M2.16992 9.07869V8.85633C2.36088 8.70297 2.62127 8.77965 2.94244 8.76048C2.70808 8.94067 2.52581 9.05569 2.16992 9.07869Z" fill="#FFC906" fill-opacity="0.7"/>
<path d="M19.8168 16.5354H19.3046C18.9835 16.451 19.0009 16.3475 19.2179 16.2363C19.3658 16.2604 19.498 16.3004 19.6025 16.3526C19.7071 16.4047 19.7807 16.4676 19.8168 16.5354Z" fill="#FFC906" fill-opacity="0.7"/>
<path d="M140.574 0.601913C140.878 0.498398 141.078 0.490731 141.295 0.57891C141.147 0.736099 140.913 0.690091 140.574 0.601913Z" fill="#FFC906" fill-opacity="0.7"/>
<path d="M19.0352 1.00807C19.2782 0.824042 19.2782 0.824041 19.7643 0.89305C19.6254 1.05791 19.2956 0.946726 19.0352 1.00807Z" fill="#FFC906" fill-opacity="0.7"/>
<path d="M12.8203 1.30366C12.6033 1.46468 12.6033 1.46468 12.1172 1.39567C12.2561 1.22698 12.5859 1.3305 12.8203 1.30366Z" fill="#FFC906" fill-opacity="0.7"/>
<path d="M163.317 2.54205C163.157 2.55875 162.994 2.56776 162.831 2.56889C162.831 2.56889 162.726 2.50371 162.7 2.46537C162.674 2.42703 162.779 2.41553 162.822 2.41553C162.985 2.42069 163.147 2.42965 163.308 2.44237L163.317 2.54205Z" fill="#FFC906" fill-opacity="0.7"/>
<path d="M167.761 5.20259C167.848 5.1579 167.969 5.12865 168.102 5.1202C168.234 5.11175 168.369 5.12467 168.481 5.15658C168.316 5.34061 168.082 5.2946 167.761 5.20259Z" fill="#FFC906" fill-opacity="0.7"/>
<path d="M11.1367 6.69775C11.1958 6.71529 11.2442 6.73897 11.2776 6.76672C11.3111 6.79447 11.3286 6.82542 11.3286 6.85686C11.3286 6.8883 11.3111 6.91925 11.2776 6.947C11.2442 6.97475 11.1958 6.99843 11.1367 7.01597C11.0757 6.99906 11.0254 6.97559 10.9906 6.94777C10.9558 6.91994 10.9375 6.88866 10.9375 6.85686C10.9375 6.82506 10.9558 6.79379 10.9906 6.76596C11.0254 6.73813 11.0757 6.71466 11.1367 6.69775Z" fill="#FFC906" fill-opacity="0.7"/>
<path d="M10.0686 7.00049C10.3116 7.13084 10.3203 7.21902 10.1206 7.31103C9.72136 7.24585 9.8342 7.14618 10.0686 7.00049Z" fill="#FFC906" fill-opacity="0.7"/>
<path d="M19.8169 15.9795C19.7765 16.0064 19.7217 16.0285 19.6573 16.0437C19.5929 16.059 19.521 16.067 19.448 16.067C19.3749 16.067 19.303 16.059 19.2386 16.0437C19.1743 16.0285 19.1195 16.0064 19.0791 15.9795C19.1195 15.9526 19.1743 15.9306 19.2386 15.9153C19.303 15.9001 19.3749 15.8921 19.448 15.8921C19.521 15.8921 19.5929 15.9001 19.6573 15.9153C19.7217 15.9306 19.7765 15.9526 19.8169 15.9795Z" fill="#FFC906" fill-opacity="0.7"/>
<path d="M21.6313 15.2666C21.6618 15.3362 21.6618 15.4078 21.6313 15.4775C21.5792 15.5235 21.3969 15.5465 21.2754 15.581V15.2666H21.6313Z" fill="#FFC906" fill-opacity="0.7"/>
<path d="M15.7627 13.6791V13.3608C16.1012 13.3608 16.1446 13.4529 16.1186 13.5564C16.1185 13.5756 16.1086 13.5946 16.0895 13.6118C16.0704 13.6291 16.0427 13.6442 16.0084 13.656C15.9741 13.6679 15.9341 13.6761 15.8915 13.6801C15.849 13.6841 15.8049 13.6837 15.7627 13.6791Z" fill="#FFC906" fill-opacity="0.7"/>
<path d="M15.7633 13.361C15.3813 13.269 15.3813 13.269 15.5463 13.0581C15.9369 13.1156 15.6938 13.2536 15.7633 13.361Z" fill="#FFC906" fill-opacity="0.7"/>
<path d="M6.39702 12.1035C6.4561 12.1211 6.5045 12.1447 6.53797 12.1725C6.57144 12.2002 6.58894 12.2312 6.58894 12.2626C6.58894 12.2941 6.57144 12.325 6.53797 12.3528C6.5045 12.3805 6.4561 12.4042 6.39702 12.4217C6.33794 12.4042 6.28954 12.3805 6.25607 12.3528C6.2226 12.325 6.20508 12.2941 6.20508 12.2626C6.20508 12.2312 6.2226 12.2002 6.25607 12.1725C6.28954 12.1447 6.33794 12.1211 6.39702 12.1035Z" fill="#FFC906" fill-opacity="0.7"/>
<path d="M6.944 11.8543C6.90465 11.8812 6.85065 11.9033 6.78697 11.9186C6.72328 11.9339 6.65193 11.942 6.57942 11.942C6.50691 11.942 6.43556 11.9339 6.37187 11.9186C6.30819 11.9033 6.25419 11.8812 6.21484 11.8543C6.25419 11.8274 6.30819 11.8053 6.37187 11.7899C6.43556 11.7746 6.50691 11.7666 6.57942 11.7666C6.65193 11.7666 6.72328 11.7746 6.78697 11.7899C6.85065 11.8053 6.90465 11.8274 6.944 11.8543Z" fill="#FFC906" fill-opacity="0.7"/>
<path d="M10.2691 11.3789C10.2274 11.4051 10.1721 11.4264 10.1079 11.4411C10.0437 11.4558 9.97249 11.4634 9.90017 11.4634C9.82785 11.4634 9.75659 11.4558 9.69239 11.4411C9.62819 11.4264 9.57292 11.4051 9.53125 11.3789C9.57163 11.3521 9.62646 11.33 9.69082 11.3147C9.75519 11.2995 9.82712 11.2915 9.90017 11.2915C9.97322 11.2915 10.0451 11.2995 10.1095 11.3147C10.1739 11.33 10.2287 11.3521 10.2691 11.3789Z" fill="#FFC906" fill-opacity="0.7"/>
<path d="M6.57951 9.07868C6.64895 8.97517 6.40591 8.83331 6.79651 8.77197C6.95275 8.98284 6.95275 8.98284 6.57951 9.07868Z" fill="#FFC906" fill-opacity="0.7"/>
<path d="M141.946 0.532715L142.076 0.59022C141.99 0.59022 141.911 0.628561 141.825 0.640063C141.738 0.651564 141.747 0.605556 141.703 0.59022L141.946 0.532715Z" fill="#FFC906" fill-opacity="0.7"/>
<path d="M146.425 0.770508L146.294 0.828014C146.245 0.795027 146.206 0.758813 146.182 0.720666C146.182 0.720666 146.251 0.686162 146.294 0.666992L146.425 0.770508Z" fill="#FFC906" fill-opacity="0.7"/>
<path d="M11.3013 1.20008L11.1711 1.3036C11.1277 1.28443 11.0496 1.26526 11.0583 1.24993C11.0867 1.21239 11.1245 1.17638 11.1711 1.14258L11.3013 1.20008Z" fill="#FFC906" fill-opacity="0.7"/>
<path d="M2.80371 3.2245L3.12487 3.06348C3.37659 3.2015 3.09016 3.18999 2.80371 3.2245Z" fill="#FFC906" fill-opacity="0.7"/>
<path d="M3.01205 3.18994L2.69087 3.35096C2.4565 3.21294 2.72561 3.22445 3.01205 3.18994Z" fill="#FFC906" fill-opacity="0.7"/>
<path d="M169.653 4.52001L169.279 4.38199C169.6 4.27464 169.574 4.39733 169.653 4.52001Z" fill="#FFC906" fill-opacity="0.7"/>
<path d="M6.44922 6.35295L6.21484 6.29545C6.21484 6.29545 6.30166 6.24561 6.33638 6.24561C6.41974 6.25989 6.50092 6.27654 6.57942 6.29545L6.44922 6.35295Z" fill="#FFC906" fill-opacity="0.7"/>
<path d="M8.82724 7.0581L8.44531 6.92008C8.76648 6.81273 8.74044 6.93541 8.82724 7.0581Z" fill="#FFC906" fill-opacity="0.7"/>
<path d="M9.14916 7.17302C8.89744 7.17302 8.77593 7.12318 8.78461 7.01583C9.03634 7.012 9.15784 7.06184 9.14916 7.17302Z" fill="#FFC906" fill-opacity="0.7"/>
<path d="M9.10547 7.11963L9.4874 7.26148C9.16623 7.3765 9.19227 7.25381 9.10547 7.11963Z" fill="#FFC906" fill-opacity="0.7"/>
<path d="M171.945 7.30713L171.814 7.25346C171.893 7.2321 171.978 7.21535 172.066 7.20361C172.066 7.20361 172.144 7.23429 172.188 7.25346L171.945 7.30713Z" fill="#FFC906" fill-opacity="0.7"/>
<path d="M172.223 7.85155L171.85 7.71354C172.171 7.60619 172.145 7.72887 172.223 7.85155Z" fill="#FFC906" fill-opacity="0.7"/>
<path d="M8.83594 8.07031L8.96613 7.9668C9.00953 7.9668 9.08766 8.00514 9.07898 8.02047C9.05213 8.05707 9.01417 8.09189 8.96613 8.12398L8.83594 8.07031Z" fill="#FFC906" fill-opacity="0.7"/>
<path d="M9.70454 8.59912C9.7476 8.63374 9.78531 8.6696 9.81739 8.70647C9.81739 8.70647 9.73926 8.74097 9.70454 8.76014C9.6555 8.72637 9.61475 8.69039 9.58301 8.65279C9.58301 8.65279 9.66114 8.61829 9.70454 8.59912Z" fill="#FFC906" fill-opacity="0.7"/>
<path d="M0.381901 9.28186L0 9.14384C0.321165 9.03649 0.2951 9.15534 0.381901 9.28186Z" fill="#FFC906" fill-opacity="0.7"/>
<path d="M2.27456 9.05957L1.9534 9.22059C1.71036 9.08257 1.98811 9.09408 2.27456 9.05957Z" fill="#FFC906" fill-opacity="0.7"/>
<path d="M0.294922 9.18994L0.668161 9.3318C0.346996 9.43915 0.373043 9.31646 0.294922 9.18994Z" fill="#FFC906" fill-opacity="0.7"/>
<path d="M10.9894 10.3474H10.6162C10.6596 10.3014 10.6856 10.2247 10.7464 10.2208C10.9634 10.1863 10.9981 10.2707 10.9894 10.3474Z" fill="#FFC906" fill-opacity="0.7"/>
<path d="M10.6155 10.3474C10.6155 10.4547 10.5027 10.5084 10.251 10.5046C10.2683 10.3934 10.3638 10.3435 10.6155 10.3474Z" fill="#FFC906" fill-opacity="0.7"/>
<path d="M6.52722 10.7656L6.39703 10.8231C6.34706 10.7901 6.30899 10.7539 6.28418 10.7158C6.28418 10.7158 6.35362 10.6813 6.39703 10.6621L6.52722 10.7656Z" fill="#FFC906" fill-opacity="0.7"/>
<path d="M165.843 11.475L166.155 11.314C166.407 11.452 166.121 11.4405 165.843 11.475Z" fill="#FFC906" fill-opacity="0.7"/>
<path d="M158.1 11.5935L157.865 11.536C157.865 11.5168 157.952 11.4823 157.987 11.4861C158.073 11.4971 158.155 11.5139 158.23 11.536L158.1 11.5935Z" fill="#FFC906" fill-opacity="0.7"/>
<path d="M162.37 11.4404L162.049 11.6015C161.806 11.4634 162.084 11.4749 162.37 11.4404Z" fill="#FFC906" fill-opacity="0.7"/>
<path d="M166.676 12.7246C166.493 12.7246 166.337 12.7246 166.38 12.6211C166.38 12.5942 166.571 12.5866 166.676 12.5674V12.7246Z" fill="#FFC906" fill-opacity="0.7"/>
<path d="M164.289 14.4727C164.337 14.5047 164.375 14.5396 164.401 14.5762C164.401 14.5762 164.332 14.6107 164.289 14.6298C164.239 14.5969 164.201 14.5606 164.176 14.5225C164.176 14.5225 164.245 14.488 164.289 14.4727Z" fill="#FFC906" fill-opacity="0.7"/>
<path d="M19.7559 16.4893L20.1291 16.6273C19.8166 16.7346 19.8166 16.6119 19.7559 16.4893Z" fill="#FFC906" fill-opacity="0.7"/>
<path d="M24.3392 13.0659L24.5735 13.1234C24.5301 13.1234 24.4781 13.1771 24.4521 13.1733C24.3672 13.1606 24.2857 13.1439 24.209 13.1234L24.3392 13.0659Z" fill="#FFC906" fill-opacity="0.7"/>
</svg>
