<?xml version="1.0" standalone="no"?>
<!DOCTYPE svg PUBLIC "-//W3C//DTD SVG 20010904//EN"
 "http://www.w3.org/TR/2001/REC-SVG-20010904/DTD/svg10.dtd">
<svg version="1.0" xmlns="http://www.w3.org/2000/svg"
 width="768.000000pt" height="768.000000pt" viewBox="0 0 768.000000 768.000000"
 preserveAspectRatio="xMidYMid meet">
<metadata>
Created by potrace 1.14, written by Peter Selinger 2001-2017
</metadata>
<g transform="translate(0.000000,768.000000) scale(0.100000,-0.100000)"
fill="#000000" stroke="none">
<path d="M38 6820 c93 -149 280 -446 353 -558 43 -68 79 -125 79 -127 0 -2 22
-38 50 -79 27 -42 50 -78 50 -81 0 -8 44 -69 53 -73 4 -2 7 -8 7 -13 0 -8 36
-66 136 -221 24 -37 44 -70 44 -73 0 -3 5 -11 10 -18 20 -23 130 -198 130
-207 0 -4 3 -10 8 -12 4 -1 14 -15 22 -29 15 -26 140 -224 251 -397 32 -51 59
-95 59 -98 0 -3 5 -10 11 -17 5 -7 114 -176 241 -377 126 -201 280 -444 341
-540 60 -96 115 -184 122 -195 38 -66 51 -85 58 -85 4 0 7 -4 7 -10 0 -8 116
-195 267 -428 29 -45 53 -87 53 -92 0 -6 3 -10 8 -10 4 0 12 -10 18 -23 9 -18
305 -489 344 -547 6 -8 59 -94 120 -190 60 -96 113 -179 117 -185 5 -5 33 -50
64 -100 31 -49 104 -166 164 -260 59 -93 113 -179 119 -190 6 -11 32 -51 56
-90 25 -38 50 -77 55 -86 6 -10 78 -123 160 -253 83 -130 165 -259 182 -288
18 -29 36 -54 41 -56 9 -3 17 9 167 248 54 85 152 241 218 345 66 105 125 199
131 210 6 11 13 22 17 25 3 3 43 66 89 140 46 74 88 136 92 138 4 2 8 9 8 15
0 7 14 32 30 57 17 25 35 52 40 60 36 55 207 327 223 355 7 11 14 22 17 25 3
3 10 14 17 25 39 66 122 197 148 235 18 25 34 50 36 56 2 5 49 81 104 167 55
86 108 169 117 185 10 15 21 34 25 42 3 8 9 17 12 20 4 3 51 77 106 165 118
189 141 226 155 242 5 7 10 15 10 18 0 4 10 21 23 38 12 18 27 41 34 52 6 11
42 69 80 128 37 59 75 119 83 132 66 106 101 161 148 235 30 47 69 108 87 135
17 28 117 185 220 350 104 165 193 302 197 303 4 2 8 8 8 13 0 7 276 449 455
729 23 36 52 83 65 105 13 22 27 42 30 45 4 3 10 12 13 20 4 8 20 34 35 58 35
56 562 888 584 924 l18 28 -3840 0 -3840 0 38 -60z m7272 -132 c0 -9 -182
-305 -200 -325 -5 -7 -15 -24 -22 -38 -6 -14 -15 -25 -20 -25 -4 0 -8 -4 -8
-9 0 -5 -27 -51 -59 -102 -78 -123 -189 -299 -204 -324 -7 -10 -27 -41 -44
-67 -18 -26 -33 -50 -33 -52 0 -3 -21 -37 -48 -78 -26 -40 -54 -85 -61 -100
-8 -15 -22 -37 -33 -47 -10 -11 -18 -23 -18 -26 0 -9 -204 -330 -212 -333 -5
-2 -8 -8 -8 -13 0 -9 -260 -424 -279 -446 -6 -7 -11 -14 -11 -17 0 -2 -27 -46
-59 -97 -33 -52 -99 -157 -147 -234 -122 -195 -181 -287 -199 -310 -8 -10 -15
-23 -15 -28 0 -4 -11 -23 -25 -41 -14 -18 -25 -37 -25 -43 0 -5 -9 -18 -20
-28 -11 -10 -20 -24 -20 -31 0 -7 -3 -14 -7 -16 -5 -1 -32 -43 -62 -93 -30
-49 -58 -92 -61 -95 -4 -3 -9 -10 -11 -16 -2 -5 -92 -148 -199 -317 -107 -169
-201 -320 -209 -335 -8 -15 -18 -28 -23 -30 -4 -2 -8 -10 -8 -18 0 -8 -4 -14
-9 -14 -5 0 -11 -6 -13 -13 -2 -7 -48 -83 -103 -170 -55 -86 -109 -172 -120
-191 -11 -18 -51 -82 -89 -142 -39 -60 -98 -154 -133 -209 -34 -55 -66 -105
-71 -111 -5 -5 -15 -21 -22 -35 -7 -13 -37 -61 -66 -106 -30 -46 -54 -85 -54
-88 0 -3 -5 -11 -11 -18 -10 -11 -73 -112 -309 -487 -57 -91 -109 -171 -115
-178 -10 -11 -29 12 -99 125 -48 76 -162 255 -252 398 -91 143 -168 267 -172
275 -3 8 -10 20 -15 25 -12 14 -131 199 -132 205 0 3 -10 19 -23 37 -12 17
-22 36 -22 42 0 6 -4 11 -10 11 -5 0 -10 7 -10 15 0 8 -4 15 -9 15 -5 0 -11 8
-15 18 -3 9 -42 73 -86 142 -45 69 -84 132 -88 140 -3 8 -8 17 -12 20 -8 6
-131 201 -145 230 -5 11 -13 20 -17 20 -5 0 -8 6 -8 13 0 8 -9 22 -20 32 -10
9 -18 20 -17 24 1 3 -14 31 -34 61 -20 30 -58 90 -85 133 -27 43 -74 117 -105
165 -30 48 -84 133 -120 190 -35 56 -81 128 -101 160 -21 31 -43 68 -50 82 -7
14 -17 30 -21 35 -17 21 -129 199 -139 221 -6 13 -14 24 -18 24 -4 0 -10 8
-13 18 -3 9 -51 87 -107 172 -55 85 -103 163 -107 173 -3 9 -9 17 -14 17 -5 0
-9 5 -9 12 0 6 -11 26 -25 44 -14 18 -30 43 -35 56 -6 13 -37 64 -70 113 -33
50 -74 114 -92 144 -18 29 -40 64 -48 76 -8 13 -89 141 -180 284 -91 144 -182
287 -202 319 -21 31 -41 64 -45 72 -4 8 -24 40 -45 72 -21 31 -38 60 -38 63 0
3 -5 11 -11 18 -21 24 -129 197 -129 207 0 6 -4 10 -8 10 -5 0 -14 11 -20 24
-6 14 -37 64 -68 113 -60 92 -79 122 -136 213 -19 30 -82 130 -140 222 -59 91
-109 175 -112 185 -6 17 102 18 3469 18 1911 0 3475 -3 3475 -7z"/>
<path d="M1038 6339 c-6 -4 3 -28 25 -60 94 -144 267 -422 267 -430 0 -5 5 -9
10 -9 6 0 10 -4 10 -9 0 -5 26 -49 58 -98 32 -48 71 -110 87 -137 17 -27 37
-59 45 -72 12 -18 109 -170 203 -318 98 -154 154 -243 189 -301 23 -38 46 -74
50 -80 5 -5 77 -118 159 -250 83 -132 159 -252 170 -267 10 -15 19 -30 19 -33
0 -3 5 -11 11 -18 6 -7 84 -129 174 -272 90 -143 167 -264 172 -270 5 -5 12
-17 16 -25 4 -8 15 -27 25 -42 9 -15 37 -60 62 -100 24 -40 47 -75 50 -78 8
-7 70 -109 70 -116 0 -2 8 -14 19 -25 10 -11 27 -37 37 -57 11 -20 21 -39 24
-42 3 -3 25 -36 50 -75 24 -38 71 -113 105 -165 33 -52 70 -109 80 -127 11
-18 40 -64 65 -103 25 -39 52 -82 60 -96 15 -23 77 -121 148 -234 19 -30 45
-71 57 -90 85 -129 255 -403 255 -409 0 -4 8 -15 18 -24 17 -16 24 -7 135 171
64 103 121 192 127 199 5 7 15 24 22 38 6 14 15 25 20 25 4 0 8 6 8 13 0 6 9
23 19 36 19 25 19 25 -17 80 -19 31 -96 153 -170 271 -74 118 -163 259 -198
313 -35 53 -64 99 -64 101 0 2 -22 37 -50 79 -27 42 -50 80 -50 86 0 5 -4 11
-8 13 -4 2 -34 46 -67 98 -32 52 -72 115 -89 140 -17 25 -31 47 -31 50 -1 3
-21 37 -46 75 -39 60 -81 126 -161 253 -10 15 -21 34 -25 42 -4 8 -11 20 -15
25 -5 6 -51 78 -103 160 -51 83 -99 155 -104 162 -6 7 -11 16 -11 20 0 5 330
9 733 8 402 0 737 1 744 3 12 4 106 142 129 192 4 8 10 17 14 20 3 3 43 66 89
140 46 74 91 143 100 153 11 13 12 20 4 25 -7 4 -494 7 -1084 7 l-1071 0 -18
25 c-10 14 -71 111 -137 215 -66 105 -186 295 -266 422 -81 128 -147 234 -147
236 0 1 72 2 161 2 l160 0 35 -47 c19 -26 34 -50 34 -52 0 -4 170 -275 259
-412 14 -23 42 -66 61 -97 l35 -55 333 0 c182 0 332 3 332 8 0 4 -25 46 -55
92 -30 45 -55 89 -55 96 0 6 -5 12 -10 12 -6 0 -14 8 -17 17 -4 9 -51 87 -106
172 -55 86 -121 190 -147 231 -25 41 -106 169 -178 283 -73 115 -132 212 -132
215 0 4 -13 23 -29 42 l-29 34 -822 1 c-452 0 -827 -3 -832 -6z"/>
<path d="M3022 6326 c6 -12 19 -32 29 -46 9 -14 58 -90 108 -170 50 -80 94
-149 99 -155 4 -5 11 -17 15 -25 12 -23 40 -68 143 -227 30 -46 54 -87 54 -91
0 -5 9 -17 20 -27 11 -10 20 -22 20 -27 0 -5 13 -28 28 -51 16 -23 32 -49 35
-57 4 -8 49 -80 101 -160 l93 -145 732 0 c402 0 731 -4 731 -8 0 -8 -30 -57
-40 -67 -3 -3 -32 -48 -65 -100 -33 -52 -78 -123 -100 -157 -22 -34 -62 -99
-90 -144 -27 -44 -56 -87 -62 -94 -7 -8 -13 -16 -13 -19 0 -4 -51 -87 -90
-146 -28 -42 -254 -398 -264 -415 -6 -11 -13 -22 -16 -25 -3 -3 -37 -55 -75
-116 l-69 -112 -57 92 c-32 50 -86 137 -120 193 l-63 102 -276 3 c-151 2 -303
1 -337 -2 l-62 -5 111 -175 c61 -96 116 -184 122 -195 6 -11 32 -53 59 -93 26
-40 47 -75 47 -78 0 -3 5 -10 11 -17 13 -15 297 -466 306 -487 4 -8 11 -19 15
-25 5 -5 31 -46 58 -90 27 -44 54 -85 60 -92 5 -7 10 -14 10 -17 0 -3 25 -44
56 -92 l56 -87 54 84 c30 46 58 89 64 96 5 7 10 15 10 18 0 3 24 42 54 88 113
173 300 472 312 497 4 8 10 17 14 20 3 3 31 46 62 95 30 50 104 167 163 260
59 94 186 296 283 450 96 154 192 306 213 338 22 32 39 60 39 63 0 2 25 44 56
92 93 142 95 146 268 420 91 145 166 268 166 273 0 5 3 9 8 9 4 0 19 21 34 48
l26 47 -997 -1 -998 -2 -71 114 c-40 62 -72 115 -72 118 0 2 510 4 1133 4 622
1 1137 1 1143 2 6 0 31 30 54 68 24 37 72 111 107 165 35 54 63 100 63 103 0
5 71 115 80 124 7 7 40 67 40 72 0 3 -819 4 -1819 4 l-1820 0 11 -20z"/>
</g>
</svg>
