<svg width="90" height="18" viewBox="0 0 90 18" fill="none" xmlns="http://www.w3.org/2000/svg">
<path d="M4.33924 10.8459C4.29907 10.9494 4.46869 10.9763 4.51333 11.0874L4.27674 11.1488C4.07464 11.0373 3.92576 10.8672 3.85712 10.6695L3.62052 10.8459L3.53123 10.3667H2.88842L2.53129 10.6695C2.50611 10.6073 2.47475 10.547 2.43755 10.4893C2.35719 10.3858 2.26345 10.2862 2.16078 10.1673L1.97328 10.5047H1.75455L1.62955 10.2018L1.2635 10.1865L0.553711 9.63439L0.576026 9.43503C0.846084 9.39822 1.12 9.38666 1.39296 9.40053L1.62508 9.58072L1.72329 9.13599C1.85722 9.03248 2.02239 9.11299 2.1697 9.08232L2.36612 8.93663L2.60272 9.10149L2.68306 8.62992C3.00448 8.7181 3.08037 9.03248 3.40179 9.08615C3.49553 9.22801 3.49553 9.228 3.7232 9.20884C3.7232 9.18967 3.77677 9.1705 3.77677 9.15133C3.77677 8.88679 3.77677 8.62609 3.77677 8.38456L3.58481 8.20436C3.58481 8.08552 3.58481 7.97817 3.78569 7.982C3.98657 7.98583 4.20531 8.2312 4.39726 8.58392C4.48208 8.60309 4.57137 8.61842 4.65172 8.64143C4.73207 8.66443 4.70082 8.67593 4.71868 8.69127V8.85612L4.98652 9.07849C5.22758 8.98647 5.26776 8.77561 5.38829 8.61075C5.50882 8.4459 5.79006 8.4344 5.97755 8.32321L6.11146 8.43823C6.2811 8.40373 6.25878 8.28104 6.20967 8.21203C6.16057 8.14302 5.97754 8.03567 6.07129 7.87848C6.26324 7.76347 6.49092 7.84398 6.69627 7.82481L6.89714 7.66762C7.0891 7.60244 7.15605 7.77113 7.28105 7.80564L7.52659 7.63695L7.84799 7.80181L8.0846 7.61778C8.0846 7.57944 8.05781 7.5296 8.0221 7.5066C7.73963 7.32253 7.40535 7.20612 7.05339 7.16922C6.91054 7.00437 7.01767 6.8165 6.98196 6.62865L6.61145 6.47913V6.31427C6.88822 6.02673 7.34803 5.99222 7.66498 5.75452H8.78543L8.95954 5.60884H10.2988L10.4639 5.47082C10.7496 5.38264 11.071 5.52449 11.3791 5.3558C11.1038 5.2809 10.8131 5.25737 10.5264 5.28679C10.2452 5.28679 9.95948 5.28679 9.67825 5.28679H8.03994L7.85693 5.13344H4.46869L4.25888 4.97241H2.75449L2.58485 4.83056H2.02239L1.83936 4.67721L1.39296 4.6312L1.31259 4.3475L0.946551 4.10596C1.00012 3.81075 1.28582 3.72258 1.45992 3.53855H1.81704L2.01346 3.39669H2.57146L2.81253 3.55388L2.87948 3.28551C3.05358 3.14749 3.28572 3.25484 3.5 3.22417L3.70534 3.37753L3.95979 2.96347L3.4241 2.51107L4.03568 1.99733C4.20977 1.91682 4.39726 1.97433 4.62047 1.95133L4.86153 1.80181H5.58918L5.79006 1.63312H7.49087L7.66498 1.48743H9.53986L9.75416 1.32258H12.3835L12.5844 1.16922L12.821 1.34941L13.1647 1.19989L13.3343 1.30724L13.5218 1.17306L13.7138 1.31491L13.8432 1.21523C13.87 1.19606 13.8923 1.16539 13.9147 1.16539H17.6823L17.8207 1.05037C17.8475 1.05037 17.8698 1.01203 17.8966 1.01203H23.1374L23.3204 0.858676H26.173C26.2087 0.785833 26.231 0.739829 26.2533 0.705324C26.7399 0.705324 27.2265 0.678485 27.7131 0.655482C27.7131 0.655482 27.7131 0.620977 27.7488 0.601808C27.2517 0.484155 26.7221 0.52081 26.2533 0.705324C26.1597 0.699681 26.0657 0.699681 25.9721 0.705324L25.7757 0.551966C25.5703 0.490624 25.5078 0.663149 25.3293 0.720657L24.9766 0.563467H22.9142L22.7312 0.712987H17.8207L17.6555 0.851007C17.4371 0.88649 17.212 0.875971 16.9993 0.820341V0.620978C17.035 0.590307 17.0574 0.555803 17.0797 0.555803H20.0884L20.2938 0.398613L20.4902 0.544302L20.6554 0.406283L20.8608 0.540465H21.45C21.5303 0.540465 21.5839 0.333438 21.7982 0.398613L21.9901 0.544302L22.1866 0.394782H28.7845L28.9853 0.237592L29.1505 0.379443L29.3559 0.249093H30.1326L30.2889 0.383275L30.4897 0.245261L30.6817 0.387112L30.8111 0.283596C30.863 0.260834 30.9188 0.245306 30.9763 0.237592H37.284L37.4805 0.0880712L37.6769 0.229922C37.8956 0.295098 37.9447 0.0995695 38.159 0.0727325L38.4313 0.218421L38.5965 0.0957347H58.8499L59.0062 0.233754L59.207 0.0804018H59.7427L59.9392 0.233754H60.3097L60.5061 0.0880712H61.8453L62.0016 0.218421L62.3096 0.0612313L62.5998 0.218421L62.7828 0.0804018H63.1533L63.3497 0.229922L63.5863 0.0535678L63.9211 0.203088L64.1979 0.0612313L64.4791 0.214589L64.7693 0.0458984L65.0505 0.229922L65.2826 0.0535678L65.6933 0.233754H67.8941L67.9745 0.398613H67.5281L67.3272 0.551966L67.1888 0.433117C65.7626 0.357958 64.3321 0.369487 62.9078 0.46762C62.9078 0.46762 62.9301 0.513626 62.9524 0.521294C63.0065 0.540418 63.0637 0.552069 63.122 0.555803H66.3897L66.5772 0.712987H68.4655L68.6619 0.877847H71.1172L71.3136 1.0427H74.1438L74.3135 1.18456H75.4384L75.6437 1.34941H76.3937L76.5991 1.51043H77.9115L78.0767 1.64845C78.3802 1.69446 78.724 1.64845 79.0588 1.67912L79.2239 1.81714H80.5631L80.7462 1.9705L80.9426 1.83631L81.139 1.97816H82.0631L82.3041 2.21587C82.3041 2.21587 82.255 2.29638 82.2238 2.29638C81.8488 2.29638 81.4738 2.29638 81.0988 2.29638C81.0988 2.29638 81.0542 2.33088 81.0319 2.35005C81.0765 2.48424 81.2238 2.4229 81.322 2.46124L81.6658 2.75261L81.8666 2.60692H82.8041L83.0005 2.76028H83.5585L83.7683 2.92513H84.1299L84.3442 3.08615H84.8933L85.1477 3.49254L84.987 3.63823C85.1165 3.76858 85.2861 3.68807 85.4334 3.71491L85.8307 3.39669H86.2057C86.4245 3.56538 86.2548 3.67274 86.0941 3.80309C86.313 3.88144 86.555 3.89886 86.786 3.85292L87.0137 3.7034L87.0628 3.97177L86.6968 4.07913L86.8352 4.29765C86.7012 4.41267 86.536 4.29765 86.4111 4.35516L86.1745 4.17881L86.0941 4.405C86.3266 4.47225 86.5303 4.59778 86.6789 4.76539C86.5649 4.78582 86.4551 4.82071 86.353 4.8689C86.2504 4.93408 86.17 5.01076 86.0182 4.97625C85.8173 4.8804 85.9914 4.69254 85.8843 4.55069C85.7772 4.40884 85.6611 4.52769 85.545 4.50852V4.05229L85.3263 3.97944C85.0897 4.04845 85.0406 4.28232 84.7951 4.30532C84.5495 4.32833 84.496 4.45868 84.4112 4.59286C84.3888 4.84206 84.7817 4.8689 84.7861 5.09893H84.4826C84.4648 5.16731 84.4394 5.23408 84.4067 5.29829C84.3621 5.37497 84.2951 5.44398 84.2415 5.51683L84.5049 5.72385L84.7861 5.50149V5.09893L84.9647 5.16027V5.67018C84.9424 5.74302 84.7058 5.78136 84.8442 6.01522L85.0361 6.18392C85.2281 6.14941 85.2772 5.96922 85.545 5.90021H85.8084L86.0272 5.72768C86.1241 5.82212 86.2136 5.92202 86.295 6.02673C86.3932 6.17625 86.4378 6.35261 86.5494 6.49063C86.6696 6.61686 86.8042 6.73244 86.9512 6.83567H87.5449L87.8529 7.16155H88.1163L88.219 7.39925L87.8128 7.66379V8.04717L87.6297 8.21587L87.8038 8.38072C87.8306 8.5149 87.7548 8.65292 87.9021 8.76411L88.0896 8.43056L88.344 8.84845L88.1967 8.99031L88.3753 9.15516V9.47337C88.3217 9.49638 88.2726 9.54622 88.2235 9.54622H86.0137L85.8129 9.71491H85.0049C85.0406 9.91044 85.2326 9.96411 85.3308 10.0983C85.304 10.129 85.2727 10.1903 85.2415 10.1903C84.7415 10.1903 84.2415 10.1903 83.7416 10.1903L83.5317 10.543L82.8041 10.2286L82.0631 10.5469L81.8666 10.1941H81.6702C81.5095 10.2938 81.6033 10.4395 81.572 10.5775L81.3265 10.7961L80.8801 10.8382C80.8578 10.8382 80.8131 10.8766 80.8131 10.8957C80.8131 11.1066 80.8131 11.3175 80.8131 11.5245L80.6256 11.697L80.8979 11.9232L81.0988 11.7699H81.5452C81.6033 11.8389 81.6524 11.9232 81.7104 11.927C81.8488 11.927 82.005 11.9807 82.13 11.8619C81.9738 11.6932 81.7551 11.8044 81.5452 11.7699C81.6504 11.6318 81.743 11.487 81.822 11.3366L82.1122 11.2523L82.1613 10.8689C82.2863 10.7501 82.4559 10.8344 82.6077 10.8076L82.813 10.9686H83.2059L83.3085 11.2101L82.7148 11.6165V11.8427C82.8398 11.9692 83.005 11.904 83.1612 11.9155C83.3175 11.927 83.4157 11.9155 83.5407 11.9155H83.9871C84.0183 11.697 83.8353 11.7967 83.6746 11.605C83.7014 11.674 83.6746 11.5782 83.621 11.4977C83.5675 11.4171 83.5184 11.4555 83.4648 11.4363V10.8881L83.2416 10.6887L83.6121 10.6389L83.6746 10.8996L84.121 11.283L84.4156 11.3328V11.8389L84.7013 12.0919H85.0852C85.3084 11.927 85.0852 11.7085 85.2102 11.513L85.3665 11.4555V11.8389L85.5673 12.0152L85.1209 12.3334C85.1879 12.4293 85.2504 12.506 85.2995 12.5903C85.3486 12.6747 85.3799 12.7667 85.4156 12.851C85.6031 12.9085 85.6254 12.897 85.737 12.7168C85.7906 12.7168 85.8798 12.69 85.8888 12.6632C85.9111 12.5711 85.8307 12.5558 85.737 12.5596C85.737 12.3909 85.9468 12.3794 85.987 12.2299L86.4334 12.5635H86.8485L86.8932 12.8318C86.6518 12.8455 86.4161 12.9011 86.2004 12.9953C85.9848 13.0896 85.7937 13.2205 85.6388 13.3801L85.1388 13.1731C84.8353 13.3571 85.179 13.66 84.9022 13.8248L84.6344 13.5986C84.7058 13.4951 84.9111 13.4414 84.7593 13.2152C84.5585 13.1232 84.2728 13.2152 83.9424 13.1731L83.6925 13.3801C83.6389 13.6868 83.9648 13.7098 84.0183 13.9207L83.8219 14.097C83.4559 14.2734 83.2103 13.8631 82.7639 14.0357L82.5497 14.166L82.2416 13.9743H81.7193L81.4738 14.1315C81.2238 14.1315 81.1524 13.8708 80.8935 14.005L80.8354 14.2044L81.139 14.4344C81.4068 14.5571 81.5854 14.3002 81.8622 14.2772L82.0765 14.4459L82.2729 14.2925C82.5407 14.2465 82.6702 14.5801 83.0675 14.3999L83.1925 14.3155L83.5005 14.4689L83.7996 14.2964L84.0094 14.5417L83.6969 14.6721C83.7415 14.8024 83.8978 14.7411 83.9871 14.7871C84.0508 14.8249 84.1119 14.8659 84.1701 14.9098L84.2951 14.7871L84.5317 14.9558H85.4245L84.5763 15.1628L84.9558 15.32C84.8352 15.5309 84.5094 15.32 84.3799 15.5232C84.6826 15.5744 84.992 15.5899 85.2995 15.5692C85.6013 15.5482 85.9049 15.5795 86.1923 15.6612C85.8882 15.7222 85.5755 15.7455 85.2638 15.7302L84.9067 15.9526C85.2504 16.1443 85.5897 15.9526 85.8843 16.1098L85.7057 16.2862L86.0763 16.4357V16.6005L85.545 16.8306H85.0674L84.8486 16.9954H82.9782L82.7684 17.1564H78.8088L78.6302 17.306C78.0856 17.3366 77.4963 17.306 76.9115 17.3251L76.7419 17.467H72.7778L72.5769 17.6318H65.796L65.5996 17.7967H45.0113L44.8372 17.9424H38.7974L38.6098 17.8005L38.3197 17.9846L38.0117 17.789H19.901L19.7313 17.6433H16.7091L16.5127 17.4746H15.3789L15.2003 17.3251H13.8388L13.3924 16.8344H12.562C12.3388 16.6619 12.5263 16.5584 12.6558 16.451V16.1366C12.8924 15.9833 13.004 15.6919 13.3879 15.7187C13.3821 15.6522 13.353 15.5888 13.3044 15.5367C13.2558 15.4847 13.19 15.4466 13.1156 15.4274C12.9281 15.4044 12.8656 15.366 12.8343 15.2012C12.8343 15.0977 12.6468 15.0133 12.5799 14.9481C12.2138 14.8945 12.3388 15.1552 12.196 15.2472L11.9951 15.1015H11.4416C11.3344 15.136 11.3076 15.2817 11.1469 15.2587C11.1469 15.2127 11.1157 15.136 11.0844 15.1322C10.9728 15.1092 10.955 15.1782 10.9594 15.2587C10.938 15.2533 10.9155 15.2523 10.8935 15.2557C10.8716 15.2592 10.8509 15.267 10.8331 15.2785C10.8153 15.2901 10.8009 15.3051 10.7911 15.3223C10.7812 15.3394 10.7762 15.3584 10.7764 15.3775C10.7764 15.4849 10.7764 15.5846 10.9594 15.5731C10.9818 15.6191 10.9996 15.7034 11.0264 15.7034C11.2942 15.7034 11.4728 15.9948 11.8835 15.8529L12.1023 15.6766L11.888 15.4542L12.1737 15.4082C12.4058 15.5616 12.1737 15.7647 12.2808 15.9296L12.4772 16.1903H12.0308C11.6648 16.4395 12.2094 16.5469 12.0933 16.7462C11.8835 16.8651 11.8835 16.8651 11.6469 16.704L11.3523 16.8612L10.9594 16.6657L10.6603 16.8344C10.6603 16.7807 10.5755 16.7079 10.5934 16.6619C10.6189 16.5875 10.6652 16.5197 10.7282 16.4642C10.7912 16.4088 10.8691 16.3674 10.955 16.3437C10.9862 16.4472 10.955 16.5699 11.138 16.4625L10.955 16.3437C11.0353 16.1136 10.763 15.9603 10.6961 15.7494C10.6514 15.647 10.5961 15.5482 10.5309 15.4542C10.4322 15.4404 10.3379 15.4091 10.2541 15.3622C10.1515 15.2932 10.0666 15.2318 9.92823 15.2587L9.34791 14.7871L9.15596 14.9175C8.95508 14.9443 8.74079 14.9865 8.58901 14.7833H8.01763L7.81227 14.9405L7.55337 14.6606V14.3654L7.16498 14.1239V13.6906L6.56234 13.2766L6.66502 13.0235L6.87928 13.1846L7.07572 13.0389L7.34802 13.2689V13.4299L7.79442 13.8133C7.90156 13.7865 7.92836 13.6408 8.0846 13.6676C8.0846 13.8248 8.25423 13.8747 8.3569 13.9628C8.45957 14.051 8.51759 13.9628 8.58901 13.9628C8.73186 13.729 8.58903 13.5794 8.49082 13.3954C8.62474 13.2881 8.78991 13.3724 8.93722 13.3379C9.07561 13.1462 9.11578 12.8932 9.51308 12.7973L9.08901 12.6785L8.96401 12.3948C8.9149 12.4331 8.84793 12.46 8.84347 12.4906C8.83686 12.5889 8.83686 12.6875 8.84347 12.7858C8.70062 12.9239 8.53545 12.8395 8.39706 12.8663L8.19173 12.7092H7.44621L7.24979 12.5558L7.05339 12.6977C6.93286 12.598 6.83019 12.4408 6.70966 12.4254C6.50878 12.4024 6.41057 12.2606 6.23647 12.2338C6.13847 12.226 6.03984 12.226 5.94184 12.2338L5.73648 12.3948H5.55792C5.49551 12.3909 5.43286 12.3909 5.37044 12.3948C5.37044 12.3948 5.32579 12.4293 5.30347 12.4446L4.77671 12.6938L4.6294 12.5711H4.14282L3.57588 12.3104C3.75444 12.1571 3.99996 12.0344 4.08924 11.8542C4.15932 11.6885 4.28519 11.5443 4.45084 11.4401C4.66066 11.421 4.73654 11.5053 4.70083 11.6855L4.98206 11.9002H5.58471L5.71417 11.5935L5.9329 11.7584H6.5043L6.76768 11.5207L6.41056 11.375C6.44627 11.2791 6.62037 11.2523 6.58912 11.1258C6.87929 11.1794 7.06233 10.9609 7.30339 10.9149C7.24536 10.7922 7.19177 10.6657 7.12035 10.5315C7.12035 10.5008 7.02213 10.497 6.97749 10.5009C6.94624 10.4012 6.9775 10.2785 6.79448 10.3858C6.85287 10.4271 6.91397 10.4656 6.97749 10.5009C6.97202 10.5775 6.97202 10.6543 6.97749 10.7309C6.86143 10.8267 6.72751 10.9302 6.60251 11.0376C6.60251 11.0376 6.60251 11.0874 6.60251 11.1143H6.10701L6.00433 11.3788C5.92647 11.4219 5.83581 11.4448 5.74319 11.4448C5.65056 11.4448 5.5599 11.4219 5.48204 11.3788L5.64274 11.2139C5.58917 11.1104 5.39722 11.0568 5.4731 10.8957L5.6606 10.727V10.3437C5.72139 10.3479 5.78249 10.34 5.83916 10.3207C5.87041 10.4203 5.83916 10.543 6.01772 10.4357C5.96095 10.3943 5.90133 10.3559 5.83916 10.3207C5.9093 10.2496 5.97064 10.1725 6.02219 10.0906L5.35258 9.53088C5.22312 9.72641 5.3258 9.93727 5.24098 10.1213C5.17206 10.1984 5.12333 10.2873 5.09813 10.382C5.09813 10.4548 5.16509 10.52 5.28115 10.5009C5.25883 10.6504 5.33472 10.8076 5.20526 10.9686L5.00438 10.8344L4.80796 10.9724L4.63833 10.6695C4.53451 10.7177 4.4372 10.7756 4.34817 10.8421C4.31692 10.7386 4.34816 10.6159 4.16514 10.7232C4.21921 10.7681 4.27744 10.8091 4.33924 10.8459ZM79.831 11.6318C79.9783 11.5973 80.1212 11.6088 79.9962 11.4708C79.9516 11.513 79.9069 11.559 79.9337 11.5973C79.7908 11.6318 79.6435 11.6203 79.773 11.7584C79.7953 11.72 79.831 11.674 79.831 11.6318ZM9.23631 8.08168C9.27648 8.20436 9.26309 8.32705 9.42826 8.2197C9.37469 8.18136 9.3256 8.14686 9.2765 8.16986C9.23632 8.04718 9.24972 7.92449 9.08455 8.03184C9.12026 8.06635 9.16936 8.10468 9.21846 8.08168H9.23631ZM81.014 5.26762C81.139 5.24078 81.3086 5.3443 81.3756 5.17561C81.1256 5.1066 81.1256 5.1066 81.0363 5.28296L81.0006 5.25229L80.8444 5.36347L80.9024 5.41331C80.9447 5.37064 80.9766 5.32109 80.9961 5.26762H81.014ZM7.95512 8.33471C7.91495 8.21203 7.92834 8.08935 7.76317 8.1967C7.81242 8.23728 7.86991 8.26977 7.93281 8.29254V8.67593L8.47741 8.90213V8.49574L8.21852 8.27721C8.12832 8.2709 8.03802 8.28828 7.95959 8.32705L7.95512 8.33471ZM9.4372 13.844C9.74522 13.8171 9.54433 14.12 9.74075 14.1622C9.8836 14.1354 10.0488 14.2159 10.1872 14.1047L10.2095 13.9475C10.0711 13.7098 9.76309 13.6791 9.47739 13.5296C9.47739 13.6485 9.45504 13.7443 9.45504 13.844C9.25862 13.9398 9.25862 13.9398 9.34344 14.1469C9.51754 14.0817 9.39257 13.9398 9.41935 13.8363L9.4372 13.844ZM11.446 7.67913C11.6201 7.61395 11.7897 7.49893 11.9371 7.51044C12.0844 7.52194 12.2451 7.39158 12.3835 7.36858L12.5174 7.47976H14.6557L14.9325 7.23056L14.8432 7.02353H14.6334L14.4325 7.18072H11.6112C11.5174 7.2804 11.3568 7.33408 11.3166 7.50277L11.446 7.67913ZM9.91039 7.83631C10.1381 7.53727 10.4684 7.72897 10.7005 7.60628L11.1469 7.40309L11.071 7.18839L10.7005 7.36858L10.4639 7.18072H9.90592L9.71397 7.33024L9.53542 7.20373L9.21846 7.36858L8.97741 7.20373C8.8902 7.25685 8.79575 7.30063 8.69617 7.33408C8.57992 7.35689 8.46213 7.37353 8.3435 7.38392C8.3435 7.38392 8.3435 7.41842 8.32118 7.42992L8.5801 7.65612H8.95507L9.15149 7.80948L9.35685 7.65612C9.53987 7.65995 9.74523 7.59478 9.89254 7.82865L9.91039 7.83631ZM11.6737 12.9162L11.2898 13.0504C11.0889 13.1232 10.9862 12.9469 10.8032 12.9162L10.763 13.127C10.8834 13.2151 10.9954 13.3112 11.0978 13.4146C11.1519 13.5075 11.1938 13.6052 11.2228 13.706H11.6692L11.7719 13.9628L12.1067 13.7903L12.0844 13.4376C11.8656 13.2536 11.6648 13.1424 11.6559 12.9085L11.6737 12.9162ZM82.2416 6.70532C82.0988 6.73216 81.9336 6.65165 81.7595 6.78967C81.8488 6.89702 81.6613 7.06187 81.8711 7.17305H82.4291L82.6255 7.02353L82.8353 7.18072L83.2059 7.15388C83.2282 7.15388 83.2505 7.11938 83.2773 7.09638C83.0764 6.95452 82.9603 6.71299 82.6523 6.68615L82.4336 6.84717L82.2416 6.70532ZM12.5576 13.5296C12.7718 13.5066 13.004 13.5756 13.2049 13.4721C13.1368 13.4029 13.0812 13.3254 13.0397 13.2421C12.9995 13.127 13.0933 12.9852 12.9326 12.8932C12.7272 12.9123 12.4862 12.8433 12.2942 12.9469V13.2957L12.5576 13.5296ZM80.4114 10.9379C80.4114 10.7155 80.1346 10.9187 80.0989 10.7769L79.9962 10.5085C79.8221 10.5392 79.6614 10.4587 79.4962 10.5929C79.4962 10.6925 79.4962 10.8114 79.5319 10.9341C79.5319 10.9571 79.5721 10.9724 79.59 10.9877C79.8444 10.9877 80.09 10.9877 80.3399 10.9877C80.3489 10.9801 80.3712 10.9532 80.398 10.9302L80.4114 10.9379ZM86.0807 7.7328C86.112 7.80564 86.0048 7.93983 86.0182 7.93983L86.6789 7.57944C86.6164 7.41075 86.7191 7.26507 86.545 7.17305C86.4021 7.19989 86.2325 7.11554 86.0986 7.23056C85.9646 7.34558 86.1432 7.4721 86.2548 7.56411L86.0807 7.7328ZM80.5051 4.15963C80.5944 4.07146 80.7372 4.02162 80.7685 3.87976C80.6301 3.84143 80.5988 3.6689 80.4114 3.6804C79.965 3.94877 79.965 4.01395 80.1435 4.15963H80.5051ZM83.7237 7.17305H84.1255C84.1707 7.11476 84.2265 7.06301 84.2906 7.0197C84.371 6.98136 84.5317 7.06954 84.5451 6.85484H83.5541C83.5184 6.85484 83.4916 6.91619 83.4603 6.94686L83.7237 7.17305ZM78.4382 10.9801C78.5811 10.9532 78.7463 11.0376 78.8847 10.9264C78.8847 10.7692 78.715 10.8421 78.6168 10.8152C78.4427 10.6657 78.2686 10.5162 78.09 10.3705C78.09 10.3705 78.0454 10.3705 78.0231 10.3705C77.9874 10.589 77.9874 10.589 78.4516 10.9801H78.4382ZM85.1879 7.11938L85.1076 6.78967L84.7951 7.10788C85.0411 7.24973 85.2976 7.37779 85.5629 7.49127C85.6174 7.47564 85.6697 7.45508 85.7191 7.42992C85.6343 7.20372 85.3174 7.22289 85.1879 7.11938ZM8.80778 11.6165C8.3078 11.6165 8.30779 11.6165 8.10245 11.7392C8.19617 11.7585 8.29185 11.7701 8.38815 11.7737C8.59759 11.7981 8.81067 11.7837 9.01311 11.7315C9.04882 11.582 9.12025 11.4325 8.94169 11.2868L8.80778 11.6165ZM6.97304 11.5322C7.07571 11.605 7.13821 11.7239 7.34802 11.7584C7.34802 11.5782 7.34802 11.4018 7.34802 11.2293C7.34802 11.2063 7.27659 11.1833 7.23642 11.1564C7.1516 11.2638 6.96857 11.3021 6.97304 11.5322ZM81.1702 10.4242C81.081 10.3552 80.9961 10.2823 80.9113 10.2095C80.7417 10.2095 80.5587 10.1213 80.398 10.2823C80.51 10.3031 80.6193 10.334 80.7238 10.3743C80.8221 10.428 80.8846 10.5277 81.0319 10.5009L81.1702 10.4242ZM81.9336 4.22865C82.0274 4.31299 82.0898 4.42417 82.2461 4.44717L82.4737 4.24398L82.2149 3.99478L81.9336 4.22865ZM10.1916 13.1884L10.1202 12.874L9.76753 12.9315L9.82557 13.1884H10.1916ZM27.8782 0.601808C28.3247 0.674651 28.3247 0.670817 28.4675 0.559635C28.3744 0.518991 28.27 0.501408 28.1659 0.508857C28.0618 0.516305 27.9622 0.54849 27.8782 0.601808ZM83.1345 5.14877C83.246 5.01842 83.3978 4.97242 83.4201 4.83823C83.395 4.82009 83.3659 4.80655 83.3344 4.79844C83.303 4.79032 83.27 4.7878 83.2374 4.79103C83.2048 4.79426 83.1733 4.80317 83.1449 4.81722C83.1164 4.83127 83.0916 4.85016 83.0719 4.87273L83.1345 5.14877ZM80.2194 10.1558C79.8266 10.0216 79.8266 10.0254 79.6926 10.1558C79.7827 10.1695 79.8736 10.1785 79.965 10.1826C80.0504 10.1793 80.1355 10.1704 80.2194 10.1558ZM81.5586 13.7558C81.4815 13.693 81.3792 13.6579 81.2729 13.6579C81.1666 13.6579 81.0644 13.693 80.9872 13.7558C81.0251 13.789 81.0702 13.8153 81.12 13.8333C81.1698 13.8513 81.2233 13.8605 81.2774 13.8605C81.3314 13.8605 81.3849 13.8513 81.4348 13.8333C81.4846 13.8153 81.5297 13.789 81.5676 13.7558H81.5586ZM11.3835 14.4919C11.5308 14.3616 11.5219 14.2734 11.4103 14.1545L11.205 14.1814L11.3835 14.4919ZM77.6258 3.81842H77.7463C77.7463 3.74941 77.7731 3.67657 77.7776 3.60756C77.782 3.53855 77.7285 3.55389 77.7151 3.55772C77.7017 3.56155 77.599 3.59223 77.5945 3.61139C77.5991 3.68146 77.6126 3.75088 77.6347 3.81842H77.6258ZM78.5499 3.76092C78.3757 3.66123 78.2552 3.61139 78.1793 3.78392C78.2999 3.8721 78.4025 3.86443 78.5588 3.76092H78.5499ZM83.6567 4.50468V4.6082C83.7371 4.6082 83.8219 4.62736 83.9067 4.6312C83.9915 4.63503 83.9737 4.59286 83.9692 4.58136C83.9648 4.56986 83.9246 4.48168 83.9023 4.48168C83.8228 4.48442 83.7438 4.49211 83.6657 4.50468H83.6567ZM84.2013 5.02992C84.1799 5.00382 84.1515 4.98252 84.1185 4.96781C84.0855 4.95311 84.0488 4.94543 84.0116 4.94543C83.9744 4.94543 83.9378 4.95311 83.9048 4.96781C83.8717 4.98252 83.8433 5.00382 83.8219 5.02992C83.8423 5.05848 83.8708 5.08206 83.9048 5.09843C83.9388 5.11479 83.9771 5.12338 84.0161 5.12338C84.0551 5.12338 84.0934 5.11479 84.1274 5.09843C84.1614 5.08206 84.1899 5.05848 84.2103 5.02992H84.2013ZM84.7906 7.52194V7.62162C84.8749 7.63307 84.9598 7.64075 85.0451 7.64462C85.0451 7.64462 85.1076 7.60628 85.1031 7.59478C85.0986 7.58328 85.0629 7.49893 85.0361 7.4951C84.9564 7.49747 84.8772 7.50646 84.7995 7.52194H84.7906ZM11.4014 16.3858C11.5219 16.244 11.58 16.1443 11.3746 16.0753C11.2809 16.1711 11.2853 16.2593 11.4103 16.3858H11.4014ZM14.0441 13.1999C14.0137 13.2174 13.9888 13.2411 13.9716 13.2689C13.9544 13.2966 13.9454 13.3276 13.9454 13.359C13.9454 13.3904 13.9544 13.4214 13.9716 13.4491C13.9888 13.4769 14.0137 13.5006 14.0441 13.5181C14.076 13.5019 14.1025 13.4789 14.1212 13.4515C14.1399 13.424 14.1502 13.3929 14.1511 13.3611C14.1519 13.3293 14.1434 13.2978 14.1263 13.2696C14.1091 13.2414 14.084 13.2174 14.0531 13.1999H14.0441ZM79.8623 9.80309C79.883 9.82997 79.9112 9.85203 79.9444 9.86729C79.9775 9.88255 80.0144 9.89053 80.052 9.89053C80.0896 9.89053 80.1265 9.88255 80.1597 9.86729C80.1928 9.85203 80.2209 9.82997 80.2417 9.80309C80.2209 9.7762 80.1928 9.75414 80.1597 9.73888C80.1265 9.72362 80.0896 9.71564 80.052 9.71564C80.0144 9.71564 79.9775 9.72362 79.9444 9.73888C79.9112 9.75414 79.883 9.7762 79.8623 9.80309ZM84.4245 9.59606V9.69574C84.5073 9.70719 84.5908 9.71487 84.6745 9.71874C84.6745 9.71874 84.7415 9.6804 84.737 9.6689C84.7326 9.6574 84.6969 9.56922 84.6701 9.56922C84.5878 9.56684 84.5055 9.57198 84.4245 9.58455V9.59606ZM77.0588 3.63823L77.1258 3.69574C77.1506 3.66232 77.1701 3.62621 77.1838 3.58839C77.1838 3.58839 77.1481 3.55388 77.1258 3.53471L77.0588 3.63823ZM84.7058 3.55772L84.5853 3.61523C84.6076 3.61523 84.6344 3.6689 84.6478 3.66507C84.6922 3.65411 84.7343 3.6373 84.7728 3.61523L84.7058 3.55772ZM79.7953 3.98711L79.8623 3.93344C79.8218 3.91209 79.7783 3.89533 79.7328 3.8836C79.7328 3.8836 79.6926 3.91427 79.6703 3.93344L79.7953 3.98711ZM44.1408 4.11363L44.0739 4.01011C44.0739 4.01011 44.0114 4.05229 44.0159 4.06379C44.0306 4.10126 44.0501 4.13726 44.0739 4.17114L44.1408 4.11363ZM81.639 4.14813L81.764 4.09063C81.764 4.09063 81.7149 4.03695 81.7015 4.04079C81.656 4.05252 81.6125 4.06928 81.572 4.09063L81.639 4.14813ZM81.7372 5.22545L81.6658 5.12193C81.6658 5.1411 81.6033 5.16027 81.6077 5.17561C81.6234 5.21154 81.6428 5.24619 81.6658 5.27912L81.7372 5.22545ZM24.3293 6.17625L24.2579 6.07274C24.2579 6.07274 24.1954 6.11491 24.1999 6.12641C24.2146 6.16389 24.2341 6.19988 24.2579 6.23376L24.3293 6.17625ZM20.7 6.55963L20.5795 6.61714C20.5795 6.63631 20.6242 6.67082 20.6375 6.66699C20.683 6.65525 20.7265 6.6385 20.767 6.61714L20.7 6.55963ZM16.4904 7.15005L16.611 7.09254C16.611 7.09254 16.5663 7.0427 16.5484 7.0427C16.5056 7.05699 16.4638 7.07363 16.4235 7.09254L16.4904 7.15005ZM6.76323 8.22737L6.69627 8.12385C6.69627 8.12385 6.63377 8.16602 6.63823 8.17752C6.65301 8.215 6.67247 8.25099 6.69627 8.28487L6.76323 8.22737ZM12.3612 8.28487C12.3612 8.28487 12.2987 8.32321 12.3031 8.33471C12.3179 8.37219 12.3374 8.40818 12.3612 8.44206C12.3612 8.44206 12.4237 8.40373 12.4237 8.39223C12.4058 8.34899 12.3818 8.30778 12.3522 8.26954L12.3612 8.28487ZM9.68271 8.46506L9.61577 8.52258C9.65522 8.54301 9.69711 8.55972 9.74075 8.57241C9.74075 8.57241 9.7854 8.53791 9.80325 8.52258L9.68271 8.46506ZM7.00428 9.02098L7.07125 9.07849C7.09603 9.04506 7.11554 9.00896 7.12928 8.97114C7.12928 8.97114 7.09357 8.93663 7.07125 8.91746L7.00428 9.02098ZM6.24986 9.33919L6.31682 9.39286C6.33976 9.35993 6.35918 9.32529 6.37486 9.28935C6.37486 9.28935 6.33468 9.25484 6.31682 9.23567L6.24986 9.33919ZM79.4605 9.65357L79.3936 9.55389C79.3936 9.55389 79.3311 9.59222 79.3355 9.60372C79.3483 9.64187 79.3679 9.67808 79.3936 9.71107L79.4605 9.65357ZM78.9382 10.5699L79.0052 10.6695C79.0275 10.6695 79.0677 10.6312 79.0632 10.6197C79.0505 10.5816 79.0309 10.5453 79.0052 10.5124L78.9382 10.5699ZM9.25862 11.3635L9.32559 11.4632C9.32559 11.4632 9.38809 11.4248 9.38363 11.4133C9.36885 11.3758 9.34939 11.3398 9.32559 11.306L9.25862 11.3635ZM82.1479 11.5667L82.2149 11.6242C82.2401 11.5904 82.261 11.5544 82.2773 11.5168C82.2773 11.5168 82.2372 11.4823 82.2149 11.4632L82.1479 11.5667ZM13.7629 12.943L13.6959 12.8855C13.6707 12.9193 13.6498 12.9553 13.6334 12.9929C13.6334 12.9929 13.6736 13.0274 13.6959 13.0427L13.7629 12.943ZM10.5086 13.1807L10.58 13.1232C10.5395 13.1019 10.496 13.0851 10.4505 13.0734C10.4505 13.0734 10.4104 13.104 10.388 13.1232L10.5086 13.1807ZM82.688 13.2574L82.6211 13.2037C82.5964 13.2358 82.5768 13.2706 82.563 13.3072C82.563 13.3072 82.5988 13.3417 82.6211 13.3609L82.688 13.2574ZM10.1916 13.4414C10.1693 13.4223 10.147 13.3878 10.1291 13.3916C10.0847 13.4025 10.0426 13.4194 10.0041 13.4414C10.0041 13.4414 10.0488 13.4913 10.0666 13.4913C10.0845 13.4913 10.1425 13.4568 10.1916 13.4414ZM12.6736 14.4152L12.7406 14.4727C12.7654 14.4393 12.7849 14.4032 12.7987 14.3654C12.7987 14.3654 12.7629 14.3309 12.7406 14.3117L12.6736 14.4152Z" fill="#FFC906" fill-opacity="0.7"/>
<path d="M89.2952 4.93818C89.3028 4.85908 89.3028 4.77958 89.2952 4.70048L89.5764 4.60463L89.9915 5.06469L89.8799 5.18354C89.8799 5.28706 89.8531 5.41358 89.8353 5.56693C89.746 5.56693 89.621 5.61677 89.5809 5.56693C89.371 5.41358 89.1836 5.24489 88.9648 5.06086L88.5898 5.25256L88.3398 4.94201H88.0273L87.9648 4.68898L88.3265 4.57013C88.255 4.46661 88.1881 4.36693 88.1122 4.24808L88.447 4.09473C88.5139 4.20974 88.5898 4.32476 88.6613 4.43977L88.5407 4.55096C88.6752 4.60099 88.8063 4.65731 88.9336 4.71965C89.0586 4.78866 89.121 4.92667 89.2817 4.92667C89.313 5.01869 89.2818 5.14137 89.4648 5.03402C89.4125 4.99682 89.3556 4.96468 89.2952 4.93818Z" fill="#FFC906" fill-opacity="0.7"/>
<path d="M14.4371 0.827956L14.2362 0.981314L14.0755 0.847126H12.897L12.7586 0.962143L12.4417 0.804953L12.1381 0.981314H11.7944C11.6426 0.885467 11.656 0.778114 11.7944 0.670766L11.9908 0.820292L12.1649 0.678435H15.7362L16.0219 0.48291L16.437 0.686105L16.7183 0.525083C16.8343 0.578757 16.8209 0.670768 16.7808 0.762781C16.754 0.789618 16.7316 0.824124 16.7093 0.824124L14.4371 0.827956Z" fill="#FFC906" fill-opacity="0.7"/>
<path d="M9.80341 0.985511L9.73644 1.1312H7.45978L7.28567 1.27688C7.05736 1.31151 6.82477 1.32053 6.59375 1.30372C6.61607 1.25772 6.625 1.19254 6.66071 1.17337C6.79017 1.11586 6.92408 1.07753 7.16514 0.99318H7.95975L8.27224 0.812988L8.69187 1.00851L8.96417 0.839822L9.15612 0.985511H9.80341Z" fill="#FFC906" fill-opacity="0.7"/>
<path d="M87.8358 4.40106L87.3537 4.69243C87.4519 4.83812 87.5233 4.94163 87.6037 5.07582V5.35952L87.1573 5.74291C87.0501 5.62789 86.8359 5.57039 86.876 5.35952L87.2287 5.21383C87.3403 5.02598 87.1082 4.94546 87.0278 4.85345C87.2778 4.50457 87.4251 4.37422 87.6394 4.32821C87.6662 4.31288 87.7242 4.35888 87.8358 4.40106Z" fill="#FFC906" fill-opacity="0.7"/>
<path d="M69.291 0.509798H69.5633L69.7642 0.356445L69.9294 0.498296H71.8221C71.8511 0.514716 71.8755 0.536415 71.8937 0.561851C71.9118 0.587287 71.9232 0.615838 71.927 0.645477C71.9308 0.675116 71.927 0.705117 71.9159 0.73335C71.9047 0.761583 71.8864 0.787355 71.8623 0.808839H71.4159L71.2507 0.670819H69.3446L69.291 0.509798Z" fill="#FFC906" fill-opacity="0.7"/>
<path d="M88.5533 7.80957H89.2051L89.4863 8.07794L89.156 8.25046C89.0801 8.43449 89.1559 8.55718 88.9685 8.58401L88.8479 8.30797L88.4015 8.2658C88.3301 8.20829 88.3301 8.20829 88.5176 8.04344L88.5533 7.80957Z" fill="#FFC906" fill-opacity="0.7"/>
<path d="M73.2559 0.781883L73.3005 0.479004L73.5371 0.666865L73.7335 0.513513L73.8942 0.651533C74.2112 0.724376 74.5817 0.609358 74.9567 0.709038C74.662 0.858559 74.5147 0.866228 73.2559 0.781883Z" fill="#FFC906" fill-opacity="0.7"/>
<path d="M67.9707 0.352885C68.3635 0.352885 68.7564 0.352885 69.1492 0.352885C69.1717 0.35141 69.1942 0.354666 69.2149 0.36238C69.2356 0.370093 69.2537 0.382026 69.2678 0.39714C69.2819 0.412255 69.2915 0.430093 69.2957 0.449106C69.2999 0.468119 69.2987 0.487732 69.2921 0.506237H69.0153L68.8234 0.65959L68.6091 0.494736H68.0377L67.9707 0.352885Z" fill="#FFC906" fill-opacity="0.7"/>
<path d="M2.73682 8.38863L2.3306 8.45764L2.16989 8.76052H1.969C1.77258 8.61866 2.0806 8.58799 2.06721 8.48064C2.06063 8.38872 2.06063 8.29653 2.06721 8.20461L2.1565 8.12793C2.25471 8.26978 2.44219 8.26978 2.73682 8.38863Z" fill="#FFC906" fill-opacity="0.7"/>
<path d="M11.5309 0.889495C11.4327 0.954671 11.4104 0.985342 11.3881 0.985342H10.4551C10.4328 0.985342 10.4149 0.950835 10.3926 0.935499C10.6381 0.805148 10.6381 0.80515 11.5309 0.889495Z" fill="#FFC906" fill-opacity="0.7"/>
<path d="M4.70546 1.46094C4.61505 1.54709 4.50502 1.61638 4.38216 1.66452C4.2593 1.71266 4.12623 1.73862 3.99121 1.74081C3.99121 1.59896 4.15639 1.55678 4.23674 1.46094H4.70546Z" fill="#FFC906" fill-opacity="0.7"/>
<path d="M6.20018 6.03857V6.35295L5.89215 6.4028L5.8252 6.10376L6.20018 6.03857Z" fill="#FFC906" fill-opacity="0.7"/>
<path d="M83.0586 2.07422V2.38093L82.7505 2.43077L82.6836 2.13173L83.0586 2.07422Z" fill="#FFC906" fill-opacity="0.7"/>
<path d="M4.70508 1.43007C4.94614 1.23838 5.19613 1.33423 5.44611 1.35339C5.22291 1.52975 4.9506 1.4109 4.70508 1.43007Z" fill="#FFC906" fill-opacity="0.7"/>
<path d="M3.25918 8.14697C3.44667 8.14697 3.34399 8.29266 3.39309 8.36167C3.4422 8.43068 3.52256 8.45752 3.66541 8.55337L3.27257 8.6032C3.22012 8.5361 3.19101 8.45756 3.18863 8.37676C3.18626 8.29597 3.21073 8.21626 3.25918 8.14697Z" fill="#FFC906" fill-opacity="0.7"/>
<path d="M87.3848 3.66895L87.8312 3.73795C87.6794 3.83763 87.6214 3.96032 87.4473 3.98333L87.3848 3.66895Z" fill="#FFC906" fill-opacity="0.7"/>
<path d="M85.5363 4.4741V4.75781C85.322 4.78464 85.3264 4.59678 85.1836 4.58912C85.2372 4.39742 85.4113 4.50477 85.5363 4.4741Z" fill="#FFC906" fill-opacity="0.7"/>
<path d="M85.5176 5.58577C85.5176 5.44392 85.5578 5.35574 85.5801 5.24072C85.6828 5.32507 85.7497 5.37107 85.8078 5.42475C85.8344 5.45841 85.8568 5.49439 85.8747 5.53209L85.7229 5.58577C85.6546 5.59044 85.5859 5.59044 85.5176 5.58577Z" fill="#FFC906" fill-opacity="0.7"/>
<path d="M1.11621 9.07869V8.85633C1.21442 8.70297 1.34834 8.77965 1.51351 8.76048C1.39298 8.94067 1.29924 9.05569 1.11621 9.07869Z" fill="#FFC906" fill-opacity="0.7"/>
<path d="M10.1917 16.5354H9.9283C9.76313 16.451 9.77206 16.3475 9.88367 16.2363C9.95978 16.2604 10.0278 16.3004 10.0815 16.3526C10.1353 16.4047 10.1731 16.4676 10.1917 16.5354Z" fill="#FFC906" fill-opacity="0.7"/>
<path d="M72.2949 0.601913C72.4512 0.498398 72.5538 0.490731 72.6654 0.57891C72.5896 0.736099 72.469 0.690091 72.2949 0.601913Z" fill="#FFC906" fill-opacity="0.7"/>
<path d="M9.79004 1.00807C9.91503 0.824042 9.91504 0.824041 10.165 0.89305C10.0936 1.05791 9.92396 0.946726 9.79004 1.00807Z" fill="#FFC906" fill-opacity="0.7"/>
<path d="M6.59303 1.30366C6.48143 1.46468 6.48143 1.46468 6.23145 1.39567C6.30287 1.22698 6.4725 1.3305 6.59303 1.30366Z" fill="#FFC906" fill-opacity="0.7"/>
<path d="M83.991 2.54205C83.909 2.55875 83.8252 2.56776 83.741 2.56889C83.741 2.56889 83.6874 2.50371 83.674 2.46537C83.6606 2.42703 83.7142 2.41553 83.7365 2.41553C83.8203 2.42069 83.9038 2.42965 83.9865 2.44237L83.991 2.54205Z" fill="#FFC906" fill-opacity="0.7"/>
<path d="M86.2773 5.20259C86.3223 5.1579 86.3845 5.12865 86.4526 5.1202C86.5207 5.11175 86.59 5.12467 86.6479 5.15658C86.5631 5.34061 86.4425 5.2946 86.2773 5.20259Z" fill="#FFC906" fill-opacity="0.7"/>
<path d="M5.72743 6.69775C5.75782 6.71529 5.78271 6.73897 5.79992 6.76672C5.81714 6.79447 5.82615 6.82542 5.82615 6.85686C5.82615 6.8883 5.81714 6.91925 5.79992 6.947C5.78271 6.97475 5.75782 6.99843 5.72743 7.01597C5.69607 6.99906 5.67023 6.97559 5.65231 6.94777C5.6344 6.91994 5.625 6.88866 5.625 6.85686C5.625 6.82506 5.6344 6.79379 5.65231 6.76596C5.67023 6.73813 5.69607 6.71466 5.72743 6.69775Z" fill="#FFC906" fill-opacity="0.7"/>
<path d="M5.17843 7.00049C5.30342 7.13084 5.30788 7.21902 5.20521 7.31103C4.99986 7.24585 5.0579 7.14618 5.17843 7.00049Z" fill="#FFC906" fill-opacity="0.7"/>
<path d="M10.1919 15.9795C10.1712 16.0064 10.143 16.0285 10.1099 16.0437C10.0768 16.059 10.0398 16.067 10.0022 16.067C9.96465 16.067 9.92764 16.059 9.89454 16.0437C9.86144 16.0285 9.83327 16.0064 9.8125 15.9795C9.83327 15.9526 9.86144 15.9306 9.89454 15.9153C9.92764 15.9001 9.96465 15.8921 10.0022 15.8921C10.0398 15.8921 10.0768 15.9001 10.1099 15.9153C10.143 15.9306 10.1712 15.9526 10.1919 15.9795Z" fill="#FFC906" fill-opacity="0.7"/>
<path d="M11.1244 15.2666C11.1401 15.3362 11.1401 15.4078 11.1244 15.4775C11.0977 15.5235 11.0039 15.5465 10.9414 15.581V15.2666H11.1244Z" fill="#FFC906" fill-opacity="0.7"/>
<path d="M8.10645 13.6791V13.3608C8.28054 13.3608 8.30285 13.4529 8.28946 13.5564C8.28945 13.5756 8.28435 13.5946 8.27453 13.6118C8.26471 13.6291 8.25043 13.6442 8.23279 13.656C8.21515 13.6679 8.1946 13.6761 8.17271 13.6801C8.15082 13.6841 8.12816 13.6837 8.10645 13.6791Z" fill="#FFC906" fill-opacity="0.7"/>
<path d="M8.10694 13.361C7.91052 13.269 7.91052 13.269 7.99534 13.0581C8.19622 13.1156 8.07123 13.2536 8.10694 13.361Z" fill="#FFC906" fill-opacity="0.7"/>
<path d="M3.29012 12.1035C3.3205 12.1211 3.3454 12.1447 3.36261 12.1725C3.37982 12.2002 3.38882 12.2312 3.38882 12.2626C3.38882 12.2941 3.37982 12.325 3.36261 12.3528C3.3454 12.3805 3.3205 12.4042 3.29012 12.4217C3.25974 12.4042 3.23484 12.3805 3.21763 12.3528C3.20042 12.325 3.19141 12.2941 3.19141 12.2626C3.19141 12.2312 3.20042 12.2002 3.21763 12.1725C3.23484 12.1447 3.25974 12.1211 3.29012 12.1035Z" fill="#FFC906" fill-opacity="0.7"/>
<path d="M3.57128 11.8543C3.55105 11.8812 3.52328 11.9033 3.49052 11.9186C3.45777 11.9339 3.42108 11.942 3.38379 11.942C3.34649 11.942 3.3098 11.9339 3.27705 11.9186C3.2443 11.9033 3.21652 11.8812 3.19629 11.8543C3.21652 11.8274 3.2443 11.8053 3.27705 11.7899C3.3098 11.7746 3.34649 11.7666 3.38379 11.7666C3.42108 11.7666 3.45777 11.7746 3.49052 11.7899C3.52328 11.8053 3.55105 11.8274 3.57128 11.8543Z" fill="#FFC906" fill-opacity="0.7"/>
<path d="M5.28082 11.3789C5.25939 11.4051 5.23096 11.4264 5.19795 11.4411C5.16493 11.4558 5.12829 11.4634 5.0911 11.4634C5.05391 11.4634 5.01725 11.4558 4.98424 11.4411C4.95122 11.4264 4.9228 11.4051 4.90137 11.3789C4.92213 11.3521 4.95033 11.33 4.98343 11.3147C5.01654 11.2995 5.05353 11.2915 5.0911 11.2915C5.12867 11.2915 5.16565 11.2995 5.19875 11.3147C5.23185 11.33 5.26005 11.3521 5.28082 11.3789Z" fill="#FFC906" fill-opacity="0.7"/>
<path d="M3.38417 9.07868C3.41988 8.97517 3.29488 8.83331 3.49577 8.77197C3.57612 8.98284 3.57612 8.98284 3.38417 9.07868Z" fill="#FFC906" fill-opacity="0.7"/>
<path d="M73 0.532715L73.067 0.59022C73.0223 0.59022 72.9821 0.628561 72.9375 0.640063C72.8929 0.651564 72.8973 0.605556 72.875 0.59022L73 0.532715Z" fill="#FFC906" fill-opacity="0.7"/>
<path d="M75.3047 0.770508L75.2377 0.828014C75.212 0.795027 75.1924 0.758813 75.1797 0.720666C75.1797 0.720666 75.2154 0.686162 75.2377 0.666992L75.3047 0.770508Z" fill="#FFC906" fill-opacity="0.7"/>
<path d="M5.81186 1.20008L5.7449 1.3036C5.72258 1.28443 5.6824 1.26526 5.68687 1.24993C5.70148 1.21239 5.72094 1.17638 5.7449 1.14258L5.81186 1.20008Z" fill="#FFC906" fill-opacity="0.7"/>
<path d="M1.44141 3.2245L1.60657 3.06348C1.73603 3.2015 1.58872 3.18999 1.44141 3.2245Z" fill="#FFC906" fill-opacity="0.7"/>
<path d="M1.549 3.18994L1.38382 3.35096C1.26329 3.21294 1.40169 3.22445 1.549 3.18994Z" fill="#FFC906" fill-opacity="0.7"/>
<path d="M87.2505 4.52001L87.0586 4.38199C87.2238 4.27464 87.2104 4.39733 87.2505 4.52001Z" fill="#FFC906" fill-opacity="0.7"/>
<path d="M3.31683 6.35295L3.19629 6.29545C3.19629 6.29545 3.24094 6.24561 3.25879 6.24561C3.30166 6.25989 3.34342 6.27654 3.38379 6.29545L3.31683 6.35295Z" fill="#FFC906" fill-opacity="0.7"/>
<path d="M4.54017 7.0581L4.34375 6.92008C4.50892 6.81273 4.49553 6.93541 4.54017 7.0581Z" fill="#FFC906" fill-opacity="0.7"/>
<path d="M4.70528 7.17302C4.57583 7.17302 4.51334 7.12318 4.5178 7.01583C4.64726 7.012 4.70975 7.06184 4.70528 7.17302Z" fill="#FFC906" fill-opacity="0.7"/>
<path d="M4.68262 7.11963L4.87904 7.26148C4.71387 7.3765 4.72726 7.25381 4.68262 7.11963Z" fill="#FFC906" fill-opacity="0.7"/>
<path d="M88.4283 7.30713L88.3613 7.25346C88.4018 7.2321 88.4453 7.21535 88.4908 7.20361C88.4908 7.20361 88.531 7.23429 88.5533 7.25346L88.4283 7.30713Z" fill="#FFC906" fill-opacity="0.7"/>
<path d="M88.5709 7.85155L88.3789 7.71354C88.5441 7.60619 88.5307 7.72887 88.5709 7.85155Z" fill="#FFC906" fill-opacity="0.7"/>
<path d="M4.54395 8.07031L4.6109 7.9668C4.63322 7.9668 4.6734 8.00514 4.66894 8.02047C4.65513 8.05707 4.63561 8.09189 4.6109 8.12398L4.54395 8.07031Z" fill="#FFC906" fill-opacity="0.7"/>
<path d="M4.99121 8.59912C5.01336 8.63374 5.03275 8.6696 5.04925 8.70647C5.04925 8.70647 5.00907 8.74097 4.99121 8.76014C4.96599 8.72637 4.94503 8.69039 4.92871 8.65279C4.92871 8.65279 4.96889 8.61829 4.99121 8.59912Z" fill="#FFC906" fill-opacity="0.7"/>
<path d="M0.196406 9.28186L0 9.14384C0.16517 9.03649 0.151766 9.15534 0.196406 9.28186Z" fill="#FFC906" fill-opacity="0.7"/>
<path d="M1.17005 9.05957L1.00488 9.22059C0.87989 9.08257 1.02274 9.09408 1.17005 9.05957Z" fill="#FFC906" fill-opacity="0.7"/>
<path d="M0.151367 9.18994L0.343319 9.3318C0.178148 9.43915 0.191544 9.31646 0.151367 9.18994Z" fill="#FFC906" fill-opacity="0.7"/>
<path d="M5.65191 10.3474H5.45996C5.48228 10.3014 5.49567 10.2247 5.52692 10.2208C5.63852 10.1863 5.65638 10.2707 5.65191 10.3474Z" fill="#FFC906" fill-opacity="0.7"/>
<path d="M5.45994 10.3474C5.45994 10.4547 5.40192 10.5084 5.27246 10.5046C5.28139 10.3934 5.33049 10.3435 5.45994 10.3474Z" fill="#FFC906" fill-opacity="0.7"/>
<path d="M3.35742 10.7656L3.29046 10.8231C3.26476 10.7901 3.24518 10.7539 3.23242 10.7158C3.23242 10.7158 3.26814 10.6813 3.29046 10.6621L3.35742 10.7656Z" fill="#FFC906" fill-opacity="0.7"/>
<path d="M85.291 11.475L85.4517 11.314C85.5812 11.452 85.4339 11.4405 85.291 11.475Z" fill="#FFC906" fill-opacity="0.7"/>
<path d="M81.308 11.5935L81.1875 11.536C81.1875 11.5168 81.2321 11.4823 81.25 11.4861C81.2944 11.4971 81.3366 11.5139 81.375 11.536L81.308 11.5935Z" fill="#FFC906" fill-opacity="0.7"/>
<path d="M83.504 11.4404L83.3389 11.6015C83.2139 11.4634 83.3567 11.4749 83.504 11.4404Z" fill="#FFC906" fill-opacity="0.7"/>
<path d="M85.7181 12.7246C85.6243 12.7246 85.5439 12.7246 85.5663 12.6211C85.5663 12.5942 85.6645 12.5866 85.7181 12.5674V12.7246Z" fill="#FFC906" fill-opacity="0.7"/>
<path d="M84.4916 14.4727C84.5163 14.5047 84.5359 14.5396 84.5497 14.5762C84.5497 14.5762 84.5139 14.6107 84.4916 14.6298C84.4659 14.5969 84.4464 14.5606 84.4336 14.5225C84.4336 14.5225 84.4693 14.488 84.4916 14.4727Z" fill="#FFC906" fill-opacity="0.7"/>
<path d="M10.1602 16.4893L10.3521 16.6273C10.1914 16.7346 10.1914 16.6119 10.1602 16.4893Z" fill="#FFC906" fill-opacity="0.7"/>
<path d="M12.5172 13.0659L12.6377 13.1234C12.6154 13.1234 12.5886 13.1771 12.5752 13.1733C12.5316 13.1606 12.4896 13.1439 12.4502 13.1234L12.5172 13.0659Z" fill="#FFC906" fill-opacity="0.7"/>
</svg>
