<svg width="379" height="18" viewBox="0 0 379 18" fill="none" xmlns="http://www.w3.org/2000/svg">
<path d="M16.6582 10.8459C16.4854 10.9494 17.2148 10.9763 17.4067 11.0874L16.3894 11.1488C15.5204 11.0373 14.8802 10.8672 14.585 10.6695L13.5677 10.8459L13.1837 10.3667H10.4196L8.88395 10.6695C8.77568 10.6073 8.64083 10.547 8.48087 10.4893C8.13535 10.3858 7.73225 10.2862 7.29075 10.1673L6.48452 10.5047H5.54396L5.00649 10.2018L3.43245 10.1865L0.380371 9.63439L0.476325 9.43503C1.63757 9.39822 2.8154 9.38666 3.98913 9.40053L4.98727 9.58072L5.40958 9.13599C5.98544 9.03248 6.69567 9.11299 7.32912 9.08232L8.17373 8.93663L9.19109 9.10149L9.53659 8.62992C10.9187 8.7181 11.245 9.03248 12.6271 9.08615C13.0302 9.22801 13.0302 9.228 14.0092 9.20884C14.0092 9.18967 14.2395 9.1705 14.2395 9.15133C14.2395 8.88679 14.2395 8.62609 14.2395 8.38456L13.4141 8.20436C13.4141 8.08552 13.4141 7.97817 14.2779 7.982C15.1417 7.98583 16.0822 8.2312 16.9076 8.58392C17.2724 8.60309 17.6563 8.61842 18.0018 8.64143C18.3473 8.66443 18.2129 8.67593 18.2897 8.69127V8.85612L19.4415 9.07849C20.478 8.98647 20.6508 8.77561 21.169 8.61075C21.6873 8.4459 22.8967 8.4344 23.7029 8.32321L24.2787 8.43823C25.0081 8.40373 24.9122 8.28104 24.701 8.21203C24.4899 8.14302 23.7028 8.03567 24.106 7.87848C24.9314 7.76347 25.9104 7.84398 26.7934 7.82481L27.6571 7.66762C28.4825 7.60244 28.7704 7.77113 29.3079 7.80564L30.3638 7.63695L31.7458 7.80181L32.7632 7.61778C32.7632 7.57944 32.648 7.5296 32.4944 7.5066C31.2798 7.32253 29.8424 7.20612 28.329 7.16922C27.7147 7.00437 28.1754 6.8165 28.0218 6.62865L26.4286 6.47913V6.31427C27.6188 6.02673 29.5959 5.99222 30.9588 5.75452H35.7768L36.5254 5.60884H42.2841L42.9943 5.47082C44.2228 5.38264 45.6049 5.52449 46.9293 5.3558C45.7458 5.2809 44.4958 5.25737 43.2631 5.28679C42.0537 5.28679 40.8252 5.28679 39.6159 5.28679H32.5712L31.7842 5.13344H17.2148L16.3126 4.97241H9.84373L9.11429 4.83056H6.6957L5.90868 4.67721L3.98913 4.6312L3.64357 4.3475L2.06958 4.10596C2.29993 3.81075 3.52843 3.72258 4.27705 3.53855H5.81267L6.65727 3.39669H9.05671L10.0933 3.55388L10.3812 3.28551C11.1298 3.14749 12.128 3.25484 13.0494 3.22417L13.9324 3.37753L15.0265 2.96347L12.723 2.51107L15.3528 1.99733C16.1014 1.91682 16.9076 1.97433 17.8674 1.95133L18.904 1.80181H22.0329L22.8967 1.63312H30.2102L30.9588 1.48743H39.0208L39.9423 1.32258H51.2483L52.1121 1.16922L53.1296 1.34941L54.6075 1.19989L55.337 1.30724L56.1433 1.17306L56.9687 1.31491L57.5253 1.21523C57.6405 1.19606 57.7365 1.16539 57.8325 1.16539H74.0335L74.6285 1.05037C74.7437 1.05037 74.8396 1.01203 74.9548 1.01203H97.4903L98.2773 0.858676H110.543C110.697 0.785833 110.793 0.739829 110.889 0.705324C112.981 0.705324 115.073 0.678485 117.166 0.655482C117.166 0.655482 117.166 0.620977 117.319 0.601808C115.182 0.484155 112.904 0.52081 110.889 0.705324C110.486 0.699681 110.082 0.699681 109.679 0.705324L108.835 0.551966C107.952 0.490624 107.683 0.663149 106.915 0.720657L105.399 0.563467H96.5305L95.7436 0.712987H74.6285L73.9182 0.851007C72.979 0.88649 72.0108 0.875971 71.0965 0.820341V0.620978C71.2501 0.590307 71.346 0.555803 71.442 0.555803H84.3797L85.2628 0.398613L86.1074 0.544302L86.8176 0.406283L87.7006 0.540465H90.2343C90.5799 0.540465 90.8103 0.333438 91.7316 0.398613L92.557 0.544302L93.4016 0.394782H121.773L122.636 0.237592L123.347 0.379443L124.23 0.249093H127.57L128.241 0.383275L129.105 0.245261L129.931 0.387112L130.487 0.283596C130.71 0.260834 130.95 0.245306 131.198 0.237592H158.321L159.165 0.0880712L160.01 0.229922C160.951 0.295098 161.162 0.0995695 162.083 0.0727325L163.254 0.218421L163.964 0.0957347H251.054L251.726 0.233754L252.59 0.0804018H254.893L255.738 0.233754H257.331L258.176 0.0880712H263.934L264.606 0.218421L265.931 0.0612313L267.178 0.218421L267.965 0.0804018H269.559L270.403 0.229922L271.42 0.0535678L272.86 0.203088L274.05 0.0612313L275.26 0.214589L276.507 0.0458984L277.717 0.229922L278.715 0.0535678L280.481 0.233754H289.944L290.29 0.398613H288.37L287.506 0.551966L286.911 0.433117C280.779 0.357958 274.627 0.369487 268.503 0.46762C268.503 0.46762 268.599 0.513626 268.695 0.521294C268.927 0.540418 269.173 0.552069 269.424 0.555803H283.475L284.281 0.712987H292.401L293.246 0.877847H303.803L304.648 1.0427H316.818L317.547 1.18456H322.384L323.267 1.34941H326.492L327.375 1.51043H333.019L333.729 1.64845C335.034 1.69446 336.512 1.64845 337.952 1.67912L338.662 1.81714H344.421L345.208 1.9705L346.053 1.83631L346.897 1.97816H350.871L351.907 2.21587C351.907 2.21587 351.696 2.29638 351.562 2.29638C349.949 2.29638 348.337 2.29638 346.724 2.29638C346.724 2.29638 346.532 2.33088 346.436 2.35005C346.628 2.48424 347.262 2.4229 347.684 2.46124L349.162 2.75261L350.026 2.60692H354.057L354.902 2.76028H357.301L358.203 2.92513H359.758L360.679 3.08615H363.041L364.135 3.49254L363.444 3.63823C364 3.76858 364.73 3.68807 365.363 3.71491L367.072 3.39669H368.684C369.625 3.56538 368.895 3.67274 368.204 3.80309C369.145 3.88144 370.186 3.89886 371.179 3.85292L372.158 3.7034L372.37 3.97177L370.796 4.07913L371.391 4.29765C370.815 4.41267 370.104 4.29765 369.567 4.35516L368.55 4.17881L368.204 4.405C369.204 4.47225 370.08 4.59778 370.719 4.76539C370.229 4.78582 369.756 4.82071 369.317 4.8689C368.876 4.93408 368.53 5.01076 367.878 4.97625C367.014 4.8804 367.763 4.69254 367.302 4.55069C366.841 4.40884 366.342 4.52769 365.843 4.50852V4.05229L364.902 3.97944C363.885 4.04845 363.674 4.28232 362.618 4.30532C361.562 4.32833 361.332 4.45868 360.967 4.59286C360.871 4.84206 362.561 4.8689 362.58 5.09893H361.275C361.198 5.16731 361.089 5.23408 360.948 5.29829C360.756 5.37497 360.468 5.44398 360.238 5.51683L361.37 5.72385L362.58 5.50149V5.09893L363.348 5.16027V5.67018C363.252 5.74302 362.234 5.78136 362.829 6.01522L363.655 6.18392C364.48 6.14941 364.691 5.96922 365.843 5.90021H366.976L367.916 5.72768C368.333 5.82212 368.718 5.92202 369.068 6.02673C369.49 6.17625 369.682 6.35261 370.162 6.49063C370.679 6.61686 371.258 6.73244 371.89 6.83567H374.443L375.767 7.16155H376.9L377.341 7.39925L375.594 7.66379V8.04717L374.807 8.21587L375.556 8.38072C375.671 8.5149 375.345 8.65292 375.978 8.76411L376.784 8.43056L377.879 8.84845L377.245 8.99031L378.013 9.15516V9.47337C377.783 9.49638 377.571 9.54622 377.36 9.54622H367.859L366.995 9.71491H363.52C363.674 9.91044 364.499 9.96411 364.922 10.0983C364.807 10.129 364.672 10.1903 364.538 10.1903C362.388 10.1903 360.238 10.1903 358.088 10.1903L357.186 10.543L354.057 10.2286L350.871 10.5469L350.026 10.1941H349.181C348.49 10.2938 348.893 10.4395 348.759 10.5775L347.703 10.7961L345.784 10.8382C345.688 10.8382 345.496 10.8766 345.496 10.8957C345.496 11.1066 345.496 11.3175 345.496 11.5245L344.69 11.697L345.861 11.9232L346.724 11.7699H348.644C348.894 11.8389 349.105 11.9232 349.354 11.927C349.949 11.927 350.621 11.9807 351.159 11.8619C350.487 11.6932 349.546 11.8044 348.644 11.7699C349.096 11.6318 349.494 11.487 349.834 11.3366L351.082 11.2523L351.293 10.8689C351.83 10.7501 352.56 10.8344 353.212 10.8076L354.095 10.9686H355.785L356.226 11.2101L353.673 11.6165V11.8427C354.211 11.9692 354.921 11.904 355.593 11.9155C356.265 11.927 356.687 11.9155 357.224 11.9155H359.144C359.278 11.697 358.491 11.7967 357.8 11.605C357.915 11.674 357.8 11.5782 357.57 11.4977C357.339 11.4171 357.128 11.4555 356.898 11.4363V10.8881L355.938 10.6887L357.531 10.6389L357.8 10.8996L359.72 11.283L360.987 11.3328V11.8389L362.215 12.0919H363.866C364.826 11.927 363.866 11.7085 364.403 11.513L365.075 11.4555V11.8389L365.939 12.0152L364.019 12.3334C364.307 12.4293 364.576 12.506 364.787 12.5903C364.998 12.6747 365.133 12.7667 365.286 12.851C366.093 12.9085 366.189 12.897 366.668 12.7168C366.899 12.7168 367.283 12.69 367.321 12.6632C367.417 12.5711 367.072 12.5558 366.668 12.5596C366.668 12.3909 367.571 12.3794 367.743 12.2299L369.663 12.5635H371.448L371.64 12.8318C370.602 12.8455 369.589 12.9011 368.661 12.9953C367.734 13.0896 366.912 13.2205 366.246 13.3801L364.096 13.1731C362.791 13.3571 364.269 13.66 363.079 13.8248L361.927 13.5986C362.234 13.4951 363.117 13.4414 362.465 13.2152C361.601 13.1232 360.372 13.2152 358.952 13.1731L357.877 13.3801C357.647 13.6868 359.048 13.7098 359.278 13.9207L358.434 14.097C356.86 14.2734 355.804 13.8631 353.884 14.0357L352.963 14.166L351.638 13.9743H349.393L348.337 14.1315C347.262 14.1315 346.955 13.8708 345.841 14.005L345.592 14.2044L346.897 14.4344C348.049 14.5571 348.817 14.3002 350.007 14.2772L350.928 14.4459L351.773 14.2925C352.924 14.2465 353.481 14.5801 355.19 14.3999L355.727 14.3155L357.051 14.4689L358.338 14.2964L359.24 14.5417L357.896 14.6721C358.088 14.8024 358.76 14.7411 359.144 14.7871C359.418 14.8249 359.681 14.8659 359.931 14.9098L360.468 14.7871L361.486 14.9558H365.325L361.678 15.1628L363.309 15.32C362.791 15.5309 361.39 15.32 360.833 15.5232C362.135 15.5744 363.465 15.5899 364.787 15.5692C366.085 15.5482 367.391 15.5795 368.626 15.6612C367.319 15.7222 365.974 15.7455 364.634 15.7302L363.098 15.9526C364.576 16.1443 366.035 15.9526 367.302 16.1098L366.534 16.2862L368.127 16.4357V16.6005L365.843 16.8306H363.789L362.849 16.9954H354.806L353.904 17.1564H336.877L336.109 17.306C333.767 17.3366 331.234 17.306 328.719 17.3251L327.99 17.467H310.944L310.08 17.6318H280.922L280.078 17.7967H191.548L190.799 17.9424H164.828L164.022 17.8005L162.774 17.9846L161.45 17.789H83.5736L82.8441 17.6433H69.8488L69.0041 17.4746H64.1285L63.3607 17.3251H57.5061L55.5865 16.8344H52.0162C51.0564 16.6619 51.8627 16.5584 52.4193 16.451V16.1366C53.4367 15.9833 53.9165 15.6919 55.5673 15.7187C55.5426 15.6522 55.4175 15.5888 55.2085 15.5367C54.9994 15.4847 54.7163 15.4466 54.3964 15.4274C53.5902 15.4044 53.3215 15.366 53.1871 15.2012C53.1871 15.0977 52.3809 15.0133 52.0929 14.9481C50.5189 14.8945 51.0564 15.1552 50.4422 15.2472L49.5783 15.1015H47.1981C46.7374 15.136 46.6223 15.2817 45.9313 15.2587C45.9313 15.2127 45.7969 15.136 45.6625 15.1322C45.1826 15.1092 45.1058 15.1782 45.125 15.2587C45.0329 15.2533 44.9359 15.2523 44.8416 15.2557C44.7472 15.2592 44.6583 15.267 44.5818 15.2785C44.5053 15.2901 44.4434 15.3051 44.401 15.3223C44.3587 15.3394 44.3371 15.3584 44.338 15.3775C44.338 15.4849 44.338 15.5846 45.125 15.5731C45.2209 15.6191 45.2978 15.7034 45.4129 15.7034C46.5647 15.7034 47.3325 15.9948 49.0984 15.8529L50.0391 15.6766L49.1177 15.4542L50.3462 15.4082C51.3444 15.5616 50.3462 15.7647 50.8069 15.9296L51.6515 16.1903H49.7319C48.1579 16.4395 50.4998 16.5469 50.0007 16.7462C49.0985 16.8651 49.0985 16.8651 48.0811 16.704L46.8142 16.8612L45.125 16.6657L43.8389 16.8344C43.8389 16.7807 43.4743 16.7079 43.551 16.6619C43.6607 16.5875 43.8596 16.5197 44.1306 16.4642C44.4016 16.4088 44.7365 16.3674 45.1059 16.3437C45.2402 16.4472 45.1058 16.5699 45.8928 16.4625L45.1059 16.3437C45.4514 16.1136 44.2804 15.9603 43.9925 15.7494C43.8005 15.647 43.5628 15.5482 43.2823 15.4542C42.8578 15.4404 42.4525 15.4091 42.0922 15.3622C41.6507 15.2932 41.2859 15.2318 40.6908 15.2587L38.1954 14.7871L37.37 14.9175C36.5062 14.9443 35.5848 14.9865 34.9322 14.7833H32.4752L31.5922 14.9405L30.4789 14.6606V14.3654L28.8088 14.1239V13.6906L26.2175 13.2766L26.659 13.0235L27.5803 13.1846L28.425 13.0389L29.5959 13.2689V13.4299L31.5154 13.8133C31.9761 13.7865 32.0914 13.6408 32.7632 13.6676C32.7632 13.8248 33.4926 13.8747 33.9341 13.9628C34.3756 14.051 34.625 13.9628 34.9322 13.9628C35.5464 13.729 34.9322 13.5794 34.5099 13.3954C35.0858 13.2881 35.796 13.3724 36.4295 13.3379C37.0245 13.1462 37.1973 12.8932 38.9057 12.7973L37.0822 12.6785L36.5446 12.3948C36.3335 12.4331 36.0455 12.46 36.0263 12.4906C35.9979 12.5889 35.9979 12.6875 36.0263 12.7858C35.4121 12.9239 34.7018 12.8395 34.1068 12.8663L33.2239 12.7092H30.0181L29.1735 12.5558L28.329 12.6977C27.8107 12.598 27.3692 12.4408 26.851 12.4254C25.9872 12.4024 25.5649 12.2606 24.8162 12.2338C24.3948 12.226 23.9707 12.226 23.5493 12.2338L22.6663 12.3948H21.8985C21.6301 12.3909 21.3607 12.3909 21.0923 12.3948C21.0923 12.3948 20.9003 12.4293 20.8043 12.4446L18.5393 12.6938L17.9059 12.5711H15.8136L13.3757 12.3104C14.1435 12.1571 15.1992 12.0344 15.5832 11.8542C15.8845 11.6885 16.4257 11.5443 17.138 11.4401C18.0402 11.421 18.3666 11.5053 18.213 11.6855L19.4223 11.9002H22.0137L22.5703 11.5935L23.5109 11.7584H25.9679L27.1004 11.5207L25.5648 11.375C25.7184 11.2791 26.467 11.2523 26.3326 11.1258C27.5803 11.1794 28.3674 10.9609 29.404 10.9149C29.1544 10.7922 28.924 10.6657 28.6169 10.5315C28.6169 10.5008 28.1946 10.497 28.0026 10.5009C27.8683 10.4012 28.0027 10.2785 27.2157 10.3858C27.4668 10.4271 27.7295 10.4656 28.0026 10.5009C27.9791 10.5775 27.9791 10.6543 28.0026 10.7309C27.5036 10.8267 26.9277 10.9302 26.3902 11.0376C26.3902 11.0376 26.3902 11.0874 26.3902 11.1143H24.2596L23.818 11.3788C23.4832 11.4219 23.0934 11.4448 22.6951 11.4448C22.2968 11.4448 21.907 11.4219 21.5722 11.3788L22.2632 11.2139C22.0329 11.1104 21.2074 11.0568 21.5338 10.8957L22.34 10.727V10.3437C22.6014 10.3479 22.8641 10.34 23.1078 10.3207C23.2422 10.4203 23.1078 10.543 23.8756 10.4357C23.6315 10.3943 23.3751 10.3559 23.1078 10.3207C23.4094 10.2496 23.6732 10.1725 23.8948 10.0906L21.0155 9.53088C20.4588 9.72641 20.9003 9.93727 20.5356 10.1213C20.2393 10.1984 20.0297 10.2873 19.9214 10.382C19.9214 10.4548 20.2093 10.52 20.7084 10.5009C20.6124 10.6504 20.9387 10.8076 20.382 10.9686L19.5183 10.8344L18.6737 10.9724L17.9442 10.6695C17.4978 10.7177 17.0794 10.7756 16.6965 10.8421C16.5622 10.7386 16.6965 10.6159 15.9095 10.7232C16.142 10.7681 16.3924 10.8091 16.6582 10.8459ZM341.273 11.6318C341.906 11.5973 342.521 11.6088 341.983 11.4708C341.791 11.513 341.599 11.559 341.714 11.5973C341.1 11.6318 340.467 11.6203 341.023 11.7584C341.119 11.72 341.273 11.674 341.273 11.6318ZM37.7155 8.08168C37.8883 8.20436 37.8307 8.32705 38.5409 8.2197C38.3106 8.18136 38.0995 8.14686 37.8884 8.16986C37.7156 8.04718 37.7732 7.92449 37.063 8.03184C37.2165 8.06635 37.4277 8.10468 37.6388 8.08168H37.7155ZM346.36 5.26762C346.897 5.24078 347.627 5.3443 347.915 5.17561C346.84 5.1066 346.84 5.1066 346.456 5.28296L346.302 5.25229L345.63 5.36347L345.88 5.41331C346.062 5.37064 346.199 5.32109 346.283 5.26762H346.36ZM32.2064 8.33471C32.0337 8.21203 32.0913 8.08935 31.3811 8.1967C31.5928 8.23728 31.84 8.26977 32.1105 8.29254V8.67593L34.4523 8.90213V8.49574L33.339 8.27721C32.9512 8.2709 32.5629 8.28828 32.2257 8.32705L32.2064 8.33471ZM38.5794 13.844C39.9038 13.8171 39.04 14.12 39.8846 14.1622C40.4989 14.1354 41.2091 14.2159 41.8042 14.1047L41.9001 13.9475C41.3051 13.7098 39.9807 13.6791 38.7522 13.5296C38.7522 13.6485 38.6561 13.7443 38.6561 13.844C37.8115 13.9398 37.8115 13.9398 38.1762 14.1469C38.9248 14.0817 38.3874 13.9398 38.5026 13.8363L38.5794 13.844ZM47.2173 7.67913C47.966 7.61395 48.6953 7.49893 49.3288 7.51044C49.9622 7.52194 50.6533 7.39158 51.2483 7.36858L51.8243 7.47976H61.0189L62.209 7.23056L61.8251 7.02353H60.9229L60.0591 7.18072H47.9275C47.5244 7.2804 46.8335 7.33408 46.6607 7.50277L47.2173 7.67913ZM40.6141 7.83631C41.593 7.53727 43.0135 7.72897 44.0117 7.60628L45.9313 7.40309L45.6049 7.18839L44.0117 7.36858L42.9943 7.18072H40.5949L39.7695 7.33024L39.0017 7.20373L37.6388 7.36858L36.6023 7.20373C36.2273 7.25685 35.8211 7.30063 35.393 7.33408C34.8931 7.35689 34.3866 7.37353 33.8764 7.38392C33.8764 7.38392 33.8765 7.41842 33.7805 7.42992L34.8939 7.65612H36.5062L37.3508 7.80948L38.2339 7.65612C39.0209 7.65995 39.9039 7.59478 40.5373 7.82865L40.6141 7.83631ZM48.1963 12.9162L46.5455 13.0504C45.6817 13.1232 45.2402 12.9469 44.4532 12.9162L44.2805 13.127C44.798 13.2151 45.2795 13.3112 45.7201 13.4146C45.9524 13.5075 46.1326 13.6052 46.2576 13.706H48.1771L48.6186 13.9628L50.0582 13.7903L49.9623 13.4376C49.0217 13.2536 48.158 13.1424 48.1196 12.9085L48.1963 12.9162ZM351.638 6.70532C351.024 6.73216 350.314 6.65165 349.565 6.78967C349.949 6.89702 349.143 7.06187 350.045 7.17305H352.445L353.289 7.02353L354.191 7.18072L355.785 7.15388C355.881 7.15388 355.977 7.11938 356.092 7.09638C355.228 6.95452 354.729 6.71299 353.404 6.68615L352.464 6.84717L351.638 6.70532ZM51.997 13.5296C52.9184 13.5066 53.9166 13.5756 54.7803 13.4721C54.4877 13.4029 54.2484 13.3254 54.0701 13.2421C53.8974 13.127 54.3005 12.9852 53.6095 12.8932C52.7265 12.9123 51.6899 12.8433 50.8645 12.9469V13.2957L51.997 13.5296ZM343.768 10.9379C343.768 10.7155 342.578 10.9187 342.425 10.7769L341.983 10.5085C341.234 10.5392 340.543 10.4587 339.833 10.5929C339.833 10.6925 339.833 10.8114 339.987 10.9341C339.987 10.9571 340.16 10.9724 340.236 10.9877C341.33 10.9877 342.386 10.9877 343.461 10.9877C343.5 10.9801 343.596 10.9532 343.711 10.9302L343.768 10.9379ZM368.147 7.7328C368.281 7.80564 367.82 7.93983 367.878 7.93983L370.719 7.57944C370.45 7.41075 370.891 7.26507 370.143 7.17305C369.529 7.19989 368.799 7.11554 368.223 7.23056C367.647 7.34558 368.415 7.4721 368.895 7.56411L368.147 7.7328ZM344.171 4.15963C344.555 4.07146 345.169 4.02162 345.304 3.87976C344.709 3.84143 344.574 3.6689 343.768 3.6804C341.849 3.94877 341.849 4.01395 342.617 4.15963H344.171ZM358.011 7.17305H359.739C359.934 7.11476 360.173 7.06301 360.449 7.0197C360.795 6.98136 361.486 7.06954 361.543 6.85484H357.282C357.128 6.85484 357.013 6.91619 356.879 6.94686L358.011 7.17305ZM335.284 10.9801C335.898 10.9532 336.608 11.0376 337.203 10.9264C337.203 10.7692 336.474 10.8421 336.052 10.8152C335.303 10.6657 334.554 10.5162 333.787 10.3705C333.787 10.3705 333.595 10.3705 333.499 10.3705C333.345 10.589 333.345 10.589 335.341 10.9801H335.284ZM364.307 7.11938L363.962 6.78967L362.618 7.10788C363.676 7.24973 364.779 7.37779 365.92 7.49127C366.154 7.47564 366.379 7.45508 366.592 7.42992C366.227 7.20372 364.864 7.22289 364.307 7.11938ZM35.8728 11.6165C33.723 11.6165 33.7229 11.6165 32.8399 11.7392C33.243 11.7585 33.6544 11.7701 34.0685 11.7737C34.9691 11.7981 35.8853 11.7837 36.7558 11.7315C36.9093 11.582 37.2165 11.4325 36.4487 11.2868L35.8728 11.6165ZM27.9835 11.5322C28.425 11.605 28.6937 11.7239 29.5959 11.7584C29.5959 11.5782 29.5959 11.4018 29.5959 11.2293C29.5959 11.2063 29.2888 11.1833 29.116 11.1564C28.7513 11.2638 27.9643 11.3021 27.9835 11.5322ZM347.031 10.4242C346.648 10.3552 346.283 10.2823 345.918 10.2095C345.189 10.2095 344.402 10.1213 343.711 10.2823C344.193 10.3031 344.662 10.334 345.112 10.3743C345.534 10.428 345.803 10.5277 346.436 10.5009L347.031 10.4242ZM350.314 4.22865C350.717 4.31299 350.986 4.42417 351.658 4.44717L352.637 4.24398L351.523 3.99478L350.314 4.22865ZM41.8234 13.1884L41.5163 12.874L39.9998 12.9315L40.2494 13.1884H41.8234ZM117.876 0.601808C119.795 0.674651 119.795 0.670817 120.41 0.559635C120.009 0.518991 119.56 0.501408 119.113 0.508857C118.665 0.516305 118.237 0.54849 117.876 0.601808ZM355.478 5.14877C355.957 5.01842 356.61 4.97242 356.706 4.83823C356.598 4.82009 356.473 4.80655 356.338 4.79844C356.202 4.79032 356.06 4.7878 355.92 4.79103C355.78 4.79426 355.645 4.80317 355.522 4.81722C355.4 4.83127 355.293 4.85016 355.209 4.87273L355.478 5.14877ZM342.943 10.1558C341.254 10.0216 341.254 10.0254 340.678 10.1558C341.065 10.1695 341.456 10.1785 341.849 10.1826C342.216 10.1793 342.582 10.1704 342.943 10.1558ZM348.702 13.7558C348.37 13.693 347.93 13.6579 347.473 13.6579C347.016 13.6579 346.576 13.693 346.245 13.7558C346.407 13.789 346.601 13.8153 346.815 13.8333C347.03 13.8513 347.26 13.8605 347.492 13.8605C347.725 13.8605 347.955 13.8513 348.169 13.8333C348.383 13.8153 348.577 13.789 348.74 13.7558H348.702ZM46.9486 14.4919C47.582 14.3616 47.5436 14.2734 47.0637 14.1545L46.1808 14.1814L46.9486 14.4919ZM331.79 3.81842H332.309C332.309 3.74941 332.424 3.67657 332.443 3.60756C332.462 3.53855 332.232 3.55389 332.174 3.55772C332.117 3.56155 331.675 3.59223 331.656 3.61139C331.676 3.68146 331.734 3.75088 331.829 3.81842H331.79ZM335.764 3.76092C335.015 3.66123 334.497 3.61139 334.171 3.78392C334.689 3.8721 335.13 3.86443 335.802 3.76092H335.764ZM357.723 4.50468V4.6082C358.069 4.6082 358.434 4.62736 358.798 4.6312C359.163 4.63503 359.086 4.59286 359.067 4.58136C359.048 4.56986 358.875 4.48168 358.779 4.48168C358.438 4.48442 358.098 4.49211 357.762 4.50468H357.723ZM360.065 5.02992C359.973 5.00382 359.851 4.98252 359.709 4.96781C359.567 4.95311 359.409 4.94543 359.249 4.94543C359.089 4.94543 358.932 4.95311 358.79 4.96781C358.648 4.98252 358.526 5.00382 358.434 5.02992C358.521 5.05848 358.644 5.08206 358.79 5.09843C358.936 5.11479 359.101 5.12338 359.269 5.12338C359.436 5.12338 359.601 5.11479 359.747 5.09843C359.893 5.08206 360.016 5.05848 360.104 5.02992H360.065ZM362.599 7.52194V7.62162C362.961 7.63307 363.327 7.64075 363.693 7.64462C363.693 7.64462 363.962 7.60628 363.943 7.59478C363.924 7.58328 363.77 7.49893 363.655 7.4951C363.312 7.49747 362.971 7.50646 362.637 7.52194H362.599ZM47.0254 16.3858C47.5437 16.244 47.7932 16.1443 46.9102 16.0753C46.5071 16.1711 46.5263 16.2593 47.0637 16.3858H47.0254ZM58.3891 13.1999C58.2585 13.2174 58.1514 13.2411 58.0773 13.2689C58.0033 13.2966 57.9646 13.3276 57.9646 13.359C57.9646 13.3904 58.0033 13.4214 58.0773 13.4491C58.1514 13.4769 58.2585 13.5006 58.3891 13.5181C58.5261 13.5019 58.6401 13.4789 58.7206 13.4515C58.801 13.424 58.8451 13.3929 58.849 13.3611C58.8528 13.3293 58.8162 13.2978 58.7425 13.2696C58.6687 13.2414 58.5604 13.2174 58.4275 13.1999H58.3891ZM341.407 9.80309C341.497 9.82997 341.618 9.85203 341.76 9.86729C341.902 9.88255 342.061 9.89053 342.223 9.89053C342.385 9.89053 342.544 9.88255 342.686 9.86729C342.828 9.85203 342.949 9.82997 343.039 9.80309C342.949 9.7762 342.828 9.75414 342.686 9.73888C342.544 9.72362 342.385 9.71564 342.223 9.71564C342.061 9.71564 341.902 9.72362 341.76 9.73888C341.618 9.75414 341.497 9.7762 341.407 9.80309ZM361.025 9.59606V9.69574C361.381 9.70719 361.74 9.71487 362.1 9.71874C362.1 9.71874 362.388 9.6804 362.369 9.6689C362.349 9.6574 362.196 9.56922 362.081 9.56922C361.727 9.56684 361.373 9.57198 361.025 9.58455V9.59606ZM329.352 3.63823L329.64 3.69574C329.747 3.66232 329.831 3.62621 329.89 3.58839C329.89 3.58839 329.736 3.55388 329.64 3.53471L329.352 3.63823ZM362.234 3.55772L361.716 3.61523C361.812 3.61523 361.927 3.6689 361.985 3.66507C362.176 3.65411 362.357 3.6373 362.522 3.61523L362.234 3.55772ZM341.119 3.98711L341.407 3.93344C341.233 3.91209 341.046 3.89533 340.851 3.8836C340.851 3.8836 340.678 3.91427 340.582 3.93344L341.119 3.98711ZM187.805 4.11363L187.517 4.01011C187.517 4.01011 187.248 4.05229 187.268 4.06379C187.331 4.10126 187.415 4.13726 187.517 4.17114L187.805 4.11363ZM349.047 4.14813L349.585 4.09063C349.585 4.09063 349.373 4.03695 349.316 4.04079C349.12 4.05252 348.933 4.06928 348.759 4.09063L349.047 4.14813ZM349.469 5.22545L349.162 5.12193C349.162 5.1411 348.893 5.16027 348.913 5.17561C348.98 5.21154 349.064 5.24619 349.162 5.27912L349.469 5.22545ZM102.615 6.17625L102.308 6.07274C102.308 6.07274 102.04 6.11491 102.059 6.12641C102.122 6.16389 102.206 6.19988 102.308 6.23376L102.615 6.17625ZM87.0095 6.55963L86.4913 6.61714C86.4913 6.63631 86.6833 6.67082 86.7409 6.66699C86.9364 6.65525 87.1235 6.6385 87.2975 6.61714L87.0095 6.55963ZM68.9082 7.15005L69.4265 7.09254C69.4265 7.09254 69.2345 7.0427 69.1577 7.0427C68.9734 7.05699 68.7939 7.07363 68.6203 7.09254L68.9082 7.15005ZM27.0813 8.22737L26.7934 8.12385C26.7934 8.12385 26.5246 8.16602 26.5438 8.17752C26.6074 8.215 26.691 8.25099 26.7934 8.28487L27.0813 8.22737ZM51.1524 8.28487C51.1524 8.28487 50.8836 8.32321 50.9028 8.33471C50.9664 8.37219 51.05 8.40818 51.1524 8.44206C51.1524 8.44206 51.4211 8.40373 51.4211 8.39223C51.3442 8.34899 51.2411 8.30778 51.1141 8.26954L51.1524 8.28487ZM39.6351 8.46506L39.3472 8.52258C39.5169 8.54301 39.697 8.55972 39.8846 8.57241C39.8846 8.57241 40.0766 8.53791 40.1534 8.52258L39.6351 8.46506ZM28.1178 9.02098L28.4058 9.07849C28.5123 9.04506 28.5963 9.00896 28.6553 8.97114C28.6553 8.97114 28.5018 8.93663 28.4058 8.91746L28.1178 9.02098ZM24.8738 9.33919L25.1617 9.39286C25.2604 9.35993 25.3439 9.32529 25.4113 9.28935C25.4113 9.28935 25.2385 9.25484 25.1617 9.23567L24.8738 9.33919ZM339.68 9.65357L339.392 9.55389C339.392 9.55389 339.123 9.59222 339.142 9.60372C339.197 9.64187 339.281 9.67808 339.392 9.71107L339.68 9.65357ZM337.434 10.5699L337.722 10.6695C337.818 10.6695 337.99 10.6312 337.971 10.6197C337.916 10.5816 337.832 10.5453 337.722 10.5124L337.434 10.5699ZM37.8115 11.3635L38.0995 11.4632C38.0995 11.4632 38.3682 11.4248 38.349 11.4133C38.2855 11.3758 38.2018 11.3398 38.0995 11.306L37.8115 11.3635ZM351.235 11.5667L351.523 11.6242C351.632 11.5904 351.722 11.5544 351.792 11.5168C351.792 11.5168 351.619 11.4823 351.523 11.4632L351.235 11.5667ZM57.1798 12.943L56.8918 12.8855C56.7833 12.9193 56.6933 12.9553 56.6232 12.9929C56.6232 12.9929 56.7958 13.0274 56.8918 13.0427L57.1798 12.943ZM43.1863 13.1807L43.4934 13.1232C43.3194 13.1019 43.1323 13.0851 42.9368 13.0734C42.9368 13.0734 42.764 13.104 42.668 13.1232L43.1863 13.1807ZM353.558 13.2574L353.27 13.2037C353.164 13.2358 353.08 13.2706 353.02 13.3072C353.02 13.3072 353.174 13.3417 353.27 13.3609L353.558 13.2574ZM41.8234 13.4414C41.7274 13.4223 41.6314 13.3878 41.5546 13.3916C41.3636 13.4025 41.1824 13.4194 41.0172 13.4414C41.0172 13.4414 41.2091 13.4913 41.2859 13.4913C41.3627 13.4913 41.6123 13.4568 41.8234 13.4414ZM52.4961 14.4152L52.7841 14.4727C52.8906 14.4393 52.9745 14.4032 53.0336 14.3654C53.0336 14.3654 52.88 14.3309 52.7841 14.3117L52.4961 14.4152Z" fill="#FFC906" fill-opacity="0.7"/>
</svg>
