<svg width="780" height="45" viewBox="0 0 780 45" fill="none" xmlns="http://www.w3.org/2000/svg">
<path d="M34.4733 27.115C34.117 27.3738 35.621 27.4409 36.0169 27.7188L33.9191 27.8722C32.1271 27.5934 30.8071 27.1683 30.1984 26.6741L28.1006 27.115L27.3089 25.9169H21.6093L18.4427 26.6741C18.2195 26.5184 17.9414 26.3677 17.6115 26.2236C16.8991 25.9648 16.0679 25.7156 15.1575 25.4185L13.4951 26.262H11.5556L10.4473 25.5048L7.20163 25.4664L0.908203 24.0862L1.10606 23.5878C3.50057 23.4958 5.92928 23.4669 8.34952 23.5016L10.4077 23.952L11.2785 22.8402C12.4659 22.5814 13.9305 22.7827 15.2366 22.706L16.9782 22.3418L19.076 22.754L19.7885 21.5751C22.6383 21.7955 23.3113 22.5814 26.1611 22.7156C26.9923 23.0703 26.9924 23.0703 29.011 23.0223C29.011 22.9744 29.486 22.9265 29.486 22.8786C29.486 22.2172 29.486 21.5655 29.486 20.9616L27.784 20.5112C27.784 20.214 27.7839 19.9457 29.5651 19.9552C31.3462 19.9648 33.2857 20.5783 34.9877 21.46C35.7398 21.508 36.5314 21.5463 37.2439 21.6038C37.9563 21.6613 37.6792 21.6901 37.8376 21.7284V22.1405L40.2125 22.6965C42.3499 22.4664 42.7061 21.9393 43.7748 21.5271C44.8435 21.115 47.3371 21.0862 48.9995 20.8083L50.1869 21.0958C51.691 21.0096 51.4931 20.7029 51.0577 20.5303C50.6223 20.3578 48.9995 20.0894 49.8307 19.6965C51.5327 19.4089 53.5515 19.6102 55.3722 19.5623L57.1533 19.1693C58.8553 19.0064 59.449 19.4281 60.5572 19.5143L62.7344 19.0926L65.5842 19.5048L67.6821 19.0447C67.6821 18.9489 67.4445 18.8242 67.1279 18.7667C64.6233 18.3066 61.6594 18.0155 58.5387 17.9233C57.2721 17.5112 58.222 17.0415 57.9054 16.5719L54.6202 16.1981V15.7859C57.0742 15.0671 61.1511 14.9808 63.9614 14.3866H73.8961L75.4399 14.0223H87.3143L88.7788 13.6773C91.312 13.4568 94.1618 13.8115 96.8929 13.3897C94.4524 13.2025 91.875 13.1437 89.333 13.2172C86.8393 13.2172 84.306 13.2172 81.8124 13.2172H67.2861L65.6634 12.8338H35.621L33.7607 12.4313H20.4218L18.9177 12.0766H13.9305L12.3077 11.6933L8.34952 11.5782L7.63696 10.869L4.39138 10.2651C4.86636 9.52713 7.39954 9.30668 8.94322 8.84662H12.1097L13.8513 8.49198H18.7989L20.9364 8.88495L21.5301 8.21403C23.0737 7.86898 25.132 8.13735 27.0319 8.06067L28.8526 8.44407L31.1088 7.40892L26.359 6.27792L31.7816 4.99358C33.3253 4.7923 34.9877 4.93608 36.9668 4.87857L39.1042 4.50477H45.556L47.3372 4.08304H62.4177L63.9614 3.71882H80.5854L82.4855 3.30669H105.799L107.58 2.92329L109.678 3.37377L112.725 2.99997L114.23 3.26834L115.892 2.93288L117.594 3.28751L118.742 3.03832C118.979 2.99039 119.177 2.91371 119.375 2.91371H152.782L154.009 2.62617C154.247 2.62617 154.444 2.53033 154.682 2.53033H201.15L202.773 2.14693H228.066C228.382 1.96483 228.58 1.84982 228.778 1.76355C233.092 1.76355 237.407 1.69646 241.721 1.63895C241.721 1.63895 241.721 1.55269 242.038 1.50476C237.63 1.21063 232.935 1.30227 228.778 1.76355C227.948 1.74945 227.115 1.74945 226.284 1.76355L224.543 1.38016C222.722 1.2268 222.168 1.65812 220.585 1.80189L217.458 1.40891H199.171L197.549 1.78271H154.009L152.544 2.12776C150.608 2.21647 148.611 2.19017 146.726 2.0511V1.55269C147.043 1.47601 147.24 1.38975 147.438 1.38975H174.116L175.937 0.996778L177.679 1.361L179.143 1.01595L180.964 1.35141H186.188C186.901 1.35141 187.376 0.833838 189.276 0.996778L190.978 1.361L192.72 0.987198H251.221L253.002 0.594223L254.466 0.948851L256.287 0.622976H263.174L264.56 0.958431L266.341 0.613397L268.043 0.968025L269.191 0.709235C269.651 0.652329 270.145 0.61351 270.655 0.594223H326.584L328.325 0.220422L330.067 0.57505C332.006 0.737989 332.442 0.249168 334.342 0.182075L336.756 0.546297L338.221 0.239581H517.801L519.187 0.584629L520.968 0.201249H525.718L527.459 0.584629H530.745L532.486 0.220422H544.361L545.746 0.546297L548.477 0.153322L551.05 0.546297L552.673 0.201249H555.958L557.699 0.57505L559.797 0.134164L562.766 0.507965L565.22 0.153322L567.713 0.536718L570.286 0.11499L572.78 0.57505L574.838 0.134164L578.48 0.584629H597.993L598.706 0.996778H594.748L592.966 1.38016L591.739 1.08304C579.094 0.895138 566.41 0.92396 553.781 1.16929C553.781 1.16929 553.979 1.28431 554.177 1.30348C554.656 1.35129 555.164 1.38042 555.681 1.38975H584.654L586.317 1.78271H603.06L604.801 2.19486H626.571L628.312 2.60699H653.407L654.911 2.96164H664.886L666.706 3.37377H673.356L675.177 3.77632H686.814L688.278 4.12137C690.97 4.23639 694.018 4.12137 696.986 4.19805L698.451 4.5431H710.325L711.948 4.9265L713.69 4.59103L715.431 4.94565H723.624L725.762 5.53991C725.762 5.53991 725.326 5.74118 725.049 5.74118C721.725 5.74118 718.4 5.74118 715.075 5.74118C715.075 5.74118 714.679 5.82744 714.481 5.87537C714.877 6.21083 716.183 6.05748 717.054 6.15333L720.102 6.88176L721.883 6.51754H730.195L731.936 6.90093H736.884L738.745 7.31307H741.951L743.85 7.71562H748.719L750.975 8.73159L749.55 9.09582C750.698 9.42169 752.202 9.22041 753.508 9.28751L757.031 8.49198H760.356C762.296 8.9137 760.791 9.18209 759.367 9.50796C761.307 9.70383 763.453 9.7474 765.502 9.63255L767.52 9.25875L767.956 9.92968L764.71 10.1981L765.937 10.7444C764.75 11.0319 763.285 10.7444 762.177 10.8881L760.079 10.4473L759.367 11.0127C761.428 11.1809 763.234 11.4947 764.552 11.9137C763.541 11.9648 762.567 12.052 761.662 12.1725C760.752 12.3354 760.039 12.5271 758.694 12.4409C756.912 12.2013 758.456 11.7316 757.506 11.377C756.556 11.0223 755.527 11.3195 754.498 11.2715V10.131L752.558 9.94885C750.461 10.1214 750.025 10.706 747.848 10.7636C745.671 10.8211 745.196 11.1469 744.444 11.4824C744.246 12.1054 747.729 12.1725 747.769 12.7476H745.078C744.92 12.9185 744.694 13.0854 744.405 13.246C744.009 13.4377 743.415 13.6102 742.94 13.7923L745.275 14.3099L747.769 13.754V12.7476L749.352 12.9009V14.1757C749.154 14.3578 747.057 14.4536 748.284 15.0383L749.986 15.46C751.688 15.3738 752.123 14.9233 754.498 14.7508H756.833L758.773 14.3195C759.632 14.5555 760.426 14.8053 761.148 15.0671C762.018 15.4409 762.414 15.8818 763.404 16.2268C764.469 16.5424 765.663 16.8314 766.966 17.0894H772.231L774.961 17.9041H777.297L778.207 18.4984L774.605 19.1597V20.1182L772.982 20.5399L774.526 20.952C774.764 21.2875 774.091 21.6326 775.397 21.9105L777.059 21.0766L779.315 22.1214L778.009 22.476L779.593 22.8881V23.6837C779.118 23.7412 778.682 23.8658 778.247 23.8658H758.654L756.873 24.2875H749.709C750.025 24.7763 751.727 24.9105 752.598 25.246C752.361 25.3227 752.083 25.476 751.806 25.476C747.373 25.476 742.94 25.476 738.507 25.476L736.647 26.3578L730.195 25.5719L723.624 26.3674L721.883 25.4856H720.141C718.716 25.7348 719.548 26.099 719.271 26.4441L717.093 26.9904L713.135 27.0958C712.937 27.0958 712.542 27.1917 712.542 27.2396C712.542 27.7667 712.542 28.2939 712.542 28.8115L710.879 29.2428L713.294 29.8083L715.075 29.4249H719.033C719.548 29.5974 719.983 29.8083 720.498 29.8179C721.725 29.8179 723.11 29.952 724.218 29.6549C722.833 29.2332 720.893 29.5112 719.033 29.4249C719.966 29.0798 720.786 28.7177 721.487 28.3418L724.06 28.131L724.495 27.1725C725.603 26.8754 727.108 27.0862 728.453 27.0191L730.274 27.4217H733.757L734.668 28.0255L729.403 29.0415V29.607C730.512 29.9233 731.976 29.7603 733.362 29.7891C734.747 29.8179 735.618 29.7891 736.726 29.7891H740.684C740.961 29.2428 739.338 29.492 737.913 29.0127C738.151 29.1853 737.913 28.9457 737.438 28.7444C736.963 28.5431 736.528 28.6389 736.053 28.591V27.2204L734.074 26.722L737.359 26.5974L737.913 27.2492L741.871 28.2076L744.484 28.3322V29.5974L747.017 30.23H750.421C752.4 29.8179 750.421 29.2715 751.529 28.7827L752.915 28.6389V29.5974L754.696 30.0383L750.738 30.8338C751.331 31.0735 751.886 31.2651 752.321 31.476C752.756 31.6869 753.033 31.9169 753.35 32.1278C755.013 32.2715 755.21 32.2428 756.2 31.7923C756.675 31.7923 757.467 31.7252 757.546 31.6581C757.744 31.4281 757.031 31.3897 756.2 31.3993C756.2 30.9776 758.06 30.9489 758.416 30.5751L762.375 31.4089H766.056L766.452 32.0798C764.311 32.1139 762.221 32.253 760.309 32.4886C758.397 32.7242 756.703 33.0514 755.329 33.4505L750.896 32.9329C748.205 33.3929 751.252 34.1501 748.798 34.5623L746.423 33.9968C747.057 33.738 748.877 33.6038 747.532 33.0383C745.75 32.8083 743.217 33.0383 740.288 32.9329L738.072 33.4505C737.597 34.2172 740.486 34.2747 740.961 34.8019L739.22 35.2428C735.974 35.6837 733.797 34.6581 729.839 35.0894L727.939 35.4153L725.208 34.9361H720.577L718.4 35.329C716.183 35.329 715.55 34.6773 713.254 35.0128L712.74 35.5111L715.431 36.0862C717.806 36.3929 719.389 35.7508 721.843 35.6933L723.743 36.115L725.485 35.7316C727.86 35.6166 729.008 36.4505 732.53 36L733.639 35.7891L736.37 36.1725L739.022 35.7412L740.882 36.3546L738.111 36.6805C738.507 37.0064 739.892 36.853 740.684 36.968C741.249 37.0625 741.791 37.165 742.307 37.2747L743.415 36.968L745.513 37.3897H753.429L745.909 37.9073L749.273 38.3003C748.204 38.8274 745.315 38.3003 744.167 38.8083C746.851 38.9363 749.594 38.975 752.321 38.9233C754.997 38.8707 757.689 38.9489 760.237 39.1533C757.541 39.3058 754.769 39.3639 752.004 39.3259L748.838 39.8818C751.886 40.361 754.894 39.8818 757.506 40.2747L755.923 40.7156L759.208 41.0894V41.5016L754.498 42.0766H750.263L748.323 42.4888H731.739L729.878 42.8913H694.77L693.186 43.2652C688.357 43.3418 683.133 43.2651 677.948 43.3131L676.444 43.6677H641.295L639.514 44.0798H579.39L577.648 44.492H395.099L393.555 44.8562H340.002L338.339 44.5016L335.767 44.9616L333.036 44.4728H172.454L170.95 44.1086H144.153L142.411 43.6869H132.358L130.775 43.3131H118.702L114.744 42.0862H107.382C105.403 41.6549 107.066 41.3961 108.213 41.1278V40.3418C110.311 39.9584 111.301 39.23 114.705 39.2971C114.654 39.1308 114.396 38.9721 113.965 38.8421C113.533 38.712 112.95 38.6167 112.29 38.5687C110.628 38.5111 110.074 38.4153 109.796 38.0032C109.796 37.7444 108.134 37.5335 107.54 37.3706C104.295 37.2364 105.403 37.8881 104.136 38.1182L102.355 37.754H97.4471C96.4972 37.8402 96.2598 38.2044 94.8348 38.1469C94.8348 38.0319 94.5577 37.8402 94.2806 37.8306C93.2911 37.7731 93.1327 37.9457 93.1723 38.1469C92.9825 38.1335 92.7824 38.1309 92.5879 38.1396C92.3933 38.1482 92.21 38.1677 92.0523 38.1966C91.8945 38.2255 91.7668 38.2629 91.6795 38.3059C91.5922 38.3489 91.5477 38.3962 91.5495 38.4441C91.5495 38.7124 91.5494 38.9616 93.1723 38.9329C93.3702 39.0479 93.5286 39.2588 93.7661 39.2588C96.141 39.2588 97.7241 39.9872 101.366 39.6326L103.305 39.1917L101.405 38.6358L103.939 38.5207C105.997 38.9041 103.938 39.4121 104.888 39.8242L106.63 40.476H102.672C99.4262 41.099 104.255 41.3674 103.226 41.8658C101.366 42.1629 101.366 42.1629 99.2679 41.7604L96.6554 42.1533L93.1723 41.6645L90.5204 42.0862C90.5204 41.952 89.7685 41.7699 89.9268 41.6549C90.153 41.4691 90.5631 41.2995 91.1219 41.1608C91.6807 41.0221 92.3712 40.9187 93.1329 40.8594C93.4099 41.1182 93.1328 41.4249 94.7556 41.1565L93.1329 40.8594C93.8453 40.2843 91.4308 39.9009 90.8371 39.3738C90.4413 39.1176 89.9511 38.8706 89.3726 38.6358C88.4974 38.6013 87.6616 38.5229 86.9186 38.4057C86.0082 38.2332 85.256 38.0798 84.029 38.1469L78.8834 36.968L77.1815 37.2939C75.4003 37.361 73.5003 37.4664 72.1546 36.9584H67.0883L65.2674 37.3514L62.9719 36.6517V35.9137L59.5281 35.3099V34.2268L54.1847 33.1917L55.0951 32.5591L56.9949 32.9616L58.7367 32.5974L61.1511 33.1725V33.5751L65.1092 34.5335C66.0591 34.4664 66.2967 34.1022 67.6821 34.1693C67.6821 34.5623 69.1861 34.6869 70.0965 34.9073C71.0069 35.1278 71.5213 34.9073 72.1546 34.9073C73.4212 34.3227 72.1547 33.9488 71.2839 33.4888C72.4713 33.2204 73.9358 33.4313 75.242 33.345C76.469 32.8658 76.8252 32.2332 80.3479 31.9936L76.5879 31.6965L75.4795 30.9872C75.0441 31.083 74.4503 31.1501 74.4107 31.2268C74.3521 31.4726 74.3521 31.719 74.4107 31.9648C73.1441 32.3099 71.6796 32.099 70.4526 32.1661L68.632 31.7731H62.0217L60.2801 31.3897L58.5387 31.7444C57.47 31.4952 56.5596 31.1022 55.4909 31.0639C53.7098 31.0064 52.839 30.6517 51.2953 30.5846C50.4264 30.5653 49.5519 30.5653 48.6829 30.5846L46.8621 30.9872H45.2789C44.7255 30.9776 44.17 30.9776 43.6165 30.9872C43.6165 30.9872 43.2206 31.0735 43.0227 31.1118L38.3521 31.7348L37.046 31.4281H32.7317L27.7047 30.7763C29.288 30.3929 31.465 30.0862 32.2566 29.6358C32.8779 29.2214 33.994 28.8611 35.4628 28.6006C37.3231 28.5527 37.996 28.7636 37.6793 29.214L40.1729 29.7508H45.5164L46.6643 28.984L48.6037 29.3961H53.6701L56.0054 28.8019L52.8389 28.4377C53.1556 28.1981 54.6992 28.131 54.4222 27.8147C56.995 27.9488 58.6179 27.4025 60.7553 27.2875C60.2408 26.9808 59.7657 26.6645 59.1324 26.329C59.1324 26.2524 58.2615 26.2428 57.8657 26.2524C57.5887 26.0032 57.8658 25.6965 56.243 25.9648C56.7608 26.0681 57.3025 26.1641 57.8657 26.2524C57.8172 26.4439 57.8172 26.6359 57.8657 26.8274C56.8366 27.0671 55.6492 27.3258 54.5409 27.5942C54.5409 27.5942 54.5409 27.7188 54.5409 27.7859H50.1474L49.237 28.4473C48.5467 28.555 47.7428 28.6123 46.9215 28.6123C46.1003 28.6123 45.2964 28.555 44.6061 28.4473L46.0309 28.0351C45.556 27.7763 43.8539 27.6421 44.5268 27.2396L46.1893 26.8179V25.8594C46.7283 25.8699 47.27 25.8502 47.7725 25.8019C48.0496 26.0511 47.7725 26.3578 49.3558 26.0894C48.8524 25.9859 48.3237 25.8899 47.7725 25.8019C48.3944 25.6244 48.9383 25.4316 49.3954 25.2268L43.4582 23.8274C42.3103 24.3163 43.2207 24.8434 42.4686 25.3035C41.8576 25.4961 41.4255 25.7184 41.202 25.9552C41.202 26.1373 41.7957 26.3003 42.8249 26.2524C42.627 26.6262 43.2998 27.0191 42.1519 27.4217L40.3708 27.0862L38.6292 27.4313L37.1251 26.6741C36.2046 26.7945 35.3418 26.9391 34.5524 27.1054C34.2753 26.8466 34.5524 26.5399 32.9295 26.8083C33.4089 26.9205 33.9252 27.023 34.4733 27.115V27.115ZM703.834 29.0798C705.14 28.9936 706.407 29.0223 705.298 28.6773C704.902 28.7827 704.507 28.8977 704.744 28.9936C703.477 29.0798 702.171 29.0511 703.319 29.3961C703.517 29.3003 703.834 29.1853 703.834 29.0798ZM77.8939 20.2044C78.2501 20.5111 78.1314 20.8179 79.5959 20.5495C79.1209 20.4536 78.6856 20.3674 78.2502 20.4249C77.894 20.1182 78.0128 19.8115 76.5483 20.0798C76.8649 20.1661 77.3003 20.2619 77.7357 20.2044H77.8939ZM714.323 13.1693C715.431 13.1022 716.935 13.361 717.529 12.9393C715.312 12.7667 715.312 12.7668 714.521 13.2076L714.204 13.131L712.819 13.4089L713.333 13.5335C713.709 13.4268 713.991 13.303 714.164 13.1693H714.323ZM66.5341 20.837C66.1778 20.5303 66.2966 20.2236 64.8321 20.492C65.2687 20.5935 65.7785 20.6747 66.3362 20.7316V21.6901L71.165 22.2556V21.2396L68.8695 20.6933C68.0698 20.6775 67.2691 20.7209 66.5737 20.8179L66.5341 20.837ZM79.6751 34.6102C82.4062 34.5431 80.625 35.3003 82.3666 35.4057C83.6332 35.3386 85.0977 35.5399 86.3248 35.262L86.5226 34.869C85.2956 34.2747 82.5647 34.1981 80.0314 33.8243C80.0314 34.1214 79.8333 34.361 79.8333 34.6102C78.0918 34.8498 78.0918 34.8498 78.8438 35.3674C80.3875 35.2044 79.2794 34.8498 79.5169 34.591L79.6751 34.6102ZM97.4867 19.1981C99.0304 19.0351 100.534 18.7476 101.841 18.7763C103.147 18.8051 104.572 18.4792 105.799 18.4217L106.986 18.6997H125.946L128.4 18.0766L127.608 17.5591H125.748L123.967 17.9521H98.9512C98.12 18.2013 96.6952 18.3354 96.339 18.7572L97.4867 19.1981ZM83.8707 19.591C85.8894 18.8434 88.8185 19.3227 90.8767 19.0159L94.8348 18.508L94.1618 17.9712L90.8767 18.4217L88.7788 17.9521H83.8311L82.1291 18.3259L80.546 18.0096L77.7357 18.4217L75.5984 18.0096C74.8251 18.1424 73.9876 18.2518 73.1047 18.3354C72.0739 18.3925 71.0295 18.4341 69.9776 18.46C69.9776 18.46 69.9777 18.5463 69.7798 18.575L72.0756 19.1405H75.4003L77.1418 19.5239L78.9627 19.1405C80.5855 19.1501 82.4063 18.9872 83.7125 19.5719L83.8707 19.591ZM99.5054 32.2907L96.1015 32.6262C94.3203 32.8083 93.4098 32.3674 91.787 32.2907L91.4309 32.8179C92.4981 33.0379 93.4908 33.2783 94.3995 33.5367C94.8785 33.7689 95.25 34.0132 95.5077 34.2651H99.4658L100.376 34.9073L103.345 34.476L103.147 33.5942C101.207 33.1342 99.4263 32.8562 99.3472 32.2715L99.5054 32.2907ZM725.208 16.7635C723.941 16.8306 722.477 16.6294 720.933 16.9744C721.725 17.2428 720.062 17.6549 721.923 17.9329H726.87L728.612 17.5591L730.472 17.9521L733.757 17.885C733.955 17.885 734.153 17.7987 734.39 17.7412C732.609 17.3866 731.58 16.7827 728.849 16.7156L726.91 17.1182L725.208 16.7635ZM107.342 33.8243C109.242 33.7667 111.301 33.9393 113.082 33.6805C112.478 33.5075 111.985 33.3136 111.617 33.1054C111.261 32.8179 112.092 32.4632 110.667 32.2332C108.847 32.2811 106.709 32.1086 105.007 32.3674V33.2396L107.342 33.8243ZM708.979 27.345C708.979 26.7891 706.525 27.2971 706.209 26.9425L705.298 26.2715C703.755 26.3482 702.33 26.1469 700.865 26.4824C700.865 26.7316 700.865 27.0287 701.182 27.3354C701.182 27.3929 701.538 27.4313 701.696 27.4696C703.953 27.4696 706.13 27.4696 708.346 27.4696C708.425 27.4504 708.623 27.3834 708.861 27.3259L708.979 27.345ZM759.248 19.3322C759.525 19.5144 758.575 19.8498 758.694 19.8498L764.552 18.9488C763.998 18.5271 764.908 18.1629 763.364 17.9329C762.097 18 760.593 17.7891 759.406 18.0766C758.219 18.3642 759.802 18.6805 760.791 18.9105L759.248 19.3322ZM709.811 10.3993C710.602 10.1789 711.869 10.0543 712.146 9.69965C710.919 9.60381 710.642 9.17249 708.979 9.20125C705.021 9.87217 705.021 10.0351 706.605 10.3993H709.811ZM738.349 17.9329H741.911C742.313 17.7872 742.807 17.6578 743.376 17.5495C744.088 17.4536 745.513 17.6741 745.632 17.1373H736.845C736.528 17.1373 736.291 17.2907 736.013 17.3674L738.349 17.9329ZM691.484 27.4505C692.751 27.3834 694.216 27.5942 695.443 27.3163C695.443 26.9233 693.939 27.1054 693.068 27.0383C691.524 26.6645 689.98 26.2907 688.397 25.9265C688.397 25.9265 688.001 25.9265 687.803 25.9265C687.487 26.4728 687.487 26.4728 691.603 27.4505H691.484ZM751.331 17.7987L750.619 16.9744L747.848 17.7699C750.03 18.1246 752.304 18.4447 754.656 18.7284C755.139 18.6894 755.604 18.6379 756.042 18.575C755.29 18.0096 752.479 18.0575 751.331 17.7987ZM74.0942 29.0415C69.6611 29.0415 69.6611 29.0415 67.8403 29.3482C68.6714 29.3966 69.5197 29.4254 70.3736 29.4345C72.2306 29.4954 74.1199 29.4595 75.9148 29.329C76.2315 28.9552 76.8649 28.5814 75.2816 28.2172L74.0942 29.0415ZM57.8262 28.8306C58.7366 29.0127 59.2907 29.3099 61.1511 29.3961C61.1511 28.9457 61.1511 28.5048 61.1511 28.0735C61.1511 28.0159 60.5178 27.9584 60.1615 27.8913C59.4095 28.1597 57.7867 28.2556 57.8262 28.8306V28.8306ZM715.708 26.0607C714.917 25.8881 714.164 25.706 713.412 25.5239C711.908 25.5239 710.286 25.3035 708.861 25.706C709.854 25.7581 710.823 25.8352 711.75 25.9361C712.621 26.0703 713.175 26.3195 714.481 26.2524L715.708 26.0607ZM722.477 10.5719C723.308 10.7827 723.862 11.0607 725.247 11.1182L727.266 10.6102L724.97 9.9872L722.477 10.5719ZM86.3644 32.9712L85.7312 32.1853L82.6041 32.329L83.1187 32.9712H86.3644ZM243.186 1.50476C247.144 1.68687 247.144 1.67729 248.411 1.39933C247.585 1.29772 246.659 1.25377 245.736 1.27239C244.814 1.29101 243.93 1.37147 243.186 1.50476V1.50476ZM733.124 12.8722C734.114 12.5463 735.459 12.4313 735.657 12.0958C735.434 12.0505 735.176 12.0166 734.897 11.9963C734.619 11.9761 734.326 11.9697 734.037 11.9778C733.748 11.9859 733.469 12.0082 733.216 12.0433C732.964 12.0784 732.744 12.1256 732.57 12.1821L733.124 12.8722ZM707.277 25.3897C703.794 25.0543 703.794 25.0639 702.607 25.3897C703.405 25.4241 704.211 25.4465 705.021 25.4568C705.779 25.4486 706.534 25.4262 707.277 25.3897ZM719.152 34.3897C718.468 34.2327 717.561 34.1451 716.618 34.1451C715.676 34.1451 714.769 34.2327 714.085 34.3897C714.421 34.4726 714.821 34.5385 715.263 34.5834C715.704 34.6284 716.179 34.6515 716.658 34.6515C717.137 34.6515 717.612 34.6284 718.054 34.5834C718.495 34.5385 718.896 34.4726 719.231 34.3897H719.152ZM96.9325 36.23C98.2387 35.9041 98.1595 35.6837 97.17 35.3866L95.3494 35.4536L96.9325 36.23ZM684.281 9.5463H685.349C685.349 9.37377 685.587 9.19166 685.626 9.01914C685.666 8.84661 685.191 8.88496 685.072 8.89455C684.954 8.90413 684.043 8.98081 684.003 9.02873C684.044 9.20388 684.164 9.37743 684.36 9.5463H684.281ZM692.474 9.40253C690.93 9.15333 689.862 9.02873 689.189 9.46004C690.257 9.68049 691.168 9.66132 692.553 9.40253H692.474ZM737.755 11.2619V11.5207C738.468 11.5207 739.22 11.5687 739.972 11.5782C740.724 11.5878 740.565 11.4824 740.526 11.4536C740.486 11.4249 740.13 11.2044 739.932 11.2044C739.228 11.2113 738.527 11.2305 737.834 11.2619H737.755ZM742.584 12.5751C742.394 12.5098 742.142 12.4565 741.849 12.4198C741.556 12.383 741.231 12.3638 740.902 12.3638C740.572 12.3638 740.247 12.383 739.954 12.4198C739.661 12.4565 739.41 12.5098 739.22 12.5751C739.4 12.6464 739.653 12.7054 739.954 12.7463C740.256 12.7872 740.596 12.8087 740.941 12.8087C741.287 12.8087 741.627 12.7872 741.928 12.7463C742.23 12.7054 742.483 12.6464 742.663 12.5751H742.584ZM747.809 18.8051V19.0543C748.556 19.0829 749.309 19.1021 750.065 19.1118C750.065 19.1118 750.619 19.016 750.579 18.9872C750.54 18.9584 750.223 18.7476 749.986 18.738C749.279 18.7439 748.577 18.7664 747.888 18.8051H747.809ZM97.091 40.9648C98.1597 40.6102 98.6743 40.361 96.8535 40.1885C96.0223 40.4281 96.0617 40.6485 97.17 40.9648H97.091ZM120.523 33C120.254 33.0438 120.033 33.103 119.88 33.1724C119.728 33.2417 119.648 33.3191 119.648 33.3977C119.648 33.4763 119.728 33.5537 119.88 33.6231C120.033 33.6924 120.254 33.7517 120.523 33.7955C120.805 33.7549 121.041 33.6976 121.207 33.6289C121.372 33.5603 121.463 33.4825 121.471 33.403C121.479 33.3235 121.404 33.2448 121.252 33.1743C121.1 33.1038 120.876 33.0438 120.602 33H120.523ZM704.111 24.508C704.295 24.5752 704.545 24.6303 704.839 24.6685C705.132 24.7066 705.46 24.7266 705.793 24.7266C706.126 24.7266 706.454 24.7066 706.748 24.6685C707.041 24.6303 707.291 24.5752 707.475 24.508C707.291 24.4407 707.041 24.3856 706.748 24.3474C706.454 24.3093 706.126 24.2893 705.793 24.2893C705.46 24.2893 705.132 24.3093 704.839 24.3474C704.545 24.3856 704.295 24.4407 704.111 24.508V24.508ZM744.563 23.9904V24.2396C745.297 24.2682 746.037 24.2874 746.779 24.2971C746.779 24.2971 747.373 24.2012 747.334 24.1725C747.294 24.1437 746.978 23.9233 746.74 23.9233C746.011 23.9173 745.281 23.9302 744.563 23.9616V23.9904ZM679.254 9.09582L679.847 9.23959C680.067 9.15603 680.24 9.06578 680.362 8.97121C680.362 8.97121 680.045 8.88495 679.847 8.83703L679.254 9.09582ZM747.057 8.89455L745.988 9.03831C746.186 9.03831 746.423 9.1725 746.542 9.16292C746.936 9.13552 747.31 9.09348 747.65 9.03831L747.057 8.89455ZM703.517 9.96802L704.111 9.83384C703.752 9.78046 703.366 9.73857 702.963 9.70923C702.963 9.70923 702.607 9.78592 702.409 9.83384L703.517 9.96802ZM387.381 10.2843L386.787 10.0255C386.787 10.0255 386.233 10.131 386.273 10.1597C386.404 10.2534 386.576 10.3434 386.787 10.4281L387.381 10.2843ZM719.864 10.3706L720.973 10.2268C720.973 10.2268 720.537 10.0926 720.418 10.1022C720.015 10.1315 719.629 10.1734 719.271 10.2268L719.864 10.3706ZM720.735 13.0639L720.102 12.8051C720.102 12.853 719.548 12.9009 719.587 12.9393C719.726 13.0291 719.898 13.1157 720.102 13.1981L720.735 13.0639ZM211.719 15.4409L211.085 15.1821C211.085 15.1821 210.531 15.2875 210.571 15.3163C210.702 15.41 210.874 15.4999 211.085 15.5846L211.719 15.4409ZM179.539 16.3993L178.47 16.5431C178.47 16.591 178.866 16.6773 178.985 16.6677C179.388 16.6384 179.774 16.5965 180.133 16.5431L179.539 16.3993ZM142.214 17.8754L143.282 17.7316C143.282 17.7316 142.887 17.607 142.728 17.607C142.348 17.6427 141.978 17.6843 141.62 17.7316L142.214 17.8754ZM55.9659 20.5687L55.3722 20.3099C55.3722 20.3099 54.8181 20.4153 54.8576 20.4441C54.9887 20.5377 55.1612 20.6277 55.3722 20.7124L55.9659 20.5687ZM105.601 20.7124C105.601 20.7124 105.047 20.8083 105.086 20.837C105.217 20.9307 105.39 21.0207 105.601 21.1054C105.601 21.1054 106.155 21.0096 106.155 20.9808C105.996 20.8727 105.784 20.7697 105.522 20.6741L105.601 20.7124ZM81.852 21.1629L81.2585 21.3067C81.6082 21.3578 81.9797 21.3995 82.3666 21.4313C82.3666 21.4313 82.7625 21.345 82.9208 21.3067L81.852 21.1629ZM58.1032 22.5527L58.697 22.6965C58.9167 22.6129 59.0898 22.5227 59.2116 22.4281C59.2116 22.4281 58.8949 22.3418 58.697 22.2939L58.1032 22.5527ZM51.4141 23.3482L52.0078 23.4824C52.2112 23.4001 52.3834 23.3135 52.5223 23.2236C52.5223 23.2236 52.1661 23.1374 52.0078 23.0894L51.4141 23.3482ZM700.548 24.1342L699.955 23.885C699.955 23.885 699.401 23.9808 699.44 24.0096C699.553 24.1049 699.727 24.1955 699.955 24.2779L700.548 24.1342ZM695.918 26.4249L696.511 26.6741C696.709 26.6741 697.065 26.5782 697.026 26.5495C696.913 26.4541 696.739 26.3636 696.511 26.2811L695.918 26.4249ZM78.0918 28.4089L78.6856 28.6581C78.6856 28.6581 79.2397 28.5623 79.2002 28.5335C79.0691 28.4398 78.8966 28.3498 78.6856 28.2651L78.0918 28.4089ZM724.377 28.9169L724.97 29.0607C725.194 28.9762 725.38 28.8863 725.524 28.7923C725.524 28.7923 725.168 28.706 724.97 28.6581L724.377 28.9169ZM118.029 32.3578L117.436 32.214C117.212 32.2984 117.026 32.3884 116.882 32.4824C116.882 32.4824 117.238 32.5687 117.436 32.607L118.029 32.3578ZM89.1747 32.952L89.8079 32.8083C89.4492 32.7549 89.0634 32.713 88.6602 32.6837C88.6602 32.6837 88.3039 32.7604 88.106 32.8083L89.1747 32.952ZM729.166 33.1437L728.572 33.0095C728.353 33.0898 728.18 33.1768 728.058 33.2683C728.058 33.2683 728.374 33.3546 728.572 33.4025L729.166 33.1437ZM86.3644 33.6038C86.1665 33.5559 85.9685 33.4696 85.8102 33.4792C85.4163 33.5066 85.0426 33.5486 84.702 33.6038C84.702 33.6038 85.0977 33.7284 85.256 33.7284C85.4143 33.7284 85.929 33.6421 86.3644 33.6038ZM108.372 36.0383L108.965 36.1821C109.185 36.0985 109.358 36.0083 109.48 35.9137C109.48 35.9137 109.163 35.8274 108.965 35.7795L108.372 36.0383Z" fill="#FFC906" fill-opacity="0.7"/>
</svg>
