<svg width="18" height="18" viewBox="0 0 18 18" fill="none" xmlns="http://www.w3.org/2000/svg">
<circle cx="9" cy="9" r="9" fill="#E2E2E2"/>
<path d="M7.91091 11.2598V11.1142C7.91388 10.6147 7.95991 10.2165 8.049 9.9196C8.14105 9.62274 8.27468 9.38297 8.44989 9.20028C8.62509 9.0176 8.83593 8.85205 9.08241 8.70362C9.26652 8.58944 9.43133 8.47098 9.57684 8.34824C9.72235 8.2255 9.83816 8.08991 9.92428 7.94148C10.0104 7.7902 10.0535 7.62179 10.0535 7.43625C10.0535 7.2393 10.0045 7.0666 9.90646 6.91817C9.80846 6.76974 9.67632 6.65557 9.51002 6.57564C9.3467 6.49572 9.16555 6.45576 8.96659 6.45576C8.77357 6.45576 8.59094 6.49715 8.41871 6.57992C8.24647 6.65985 8.10542 6.77973 7.99555 6.93958C7.88567 7.09657 7.82628 7.2921 7.81737 7.52617H6C6.01485 6.95528 6.15739 6.4843 6.42762 6.11323C6.69785 5.7393 7.05568 5.46099 7.50111 5.27831C7.94655 5.09277 8.43801 5 8.9755 5C9.56644 5 10.0891 5.0942 10.5434 5.28259C10.9978 5.46813 11.3541 5.73787 11.6125 6.09182C11.8708 6.44577 12 6.8725 12 7.37203C12 7.70599 11.9421 8.00285 11.8263 8.26261C11.7134 8.5195 11.5546 8.74786 11.3497 8.94767C11.1448 9.14462 10.9027 9.32303 10.6236 9.48287C10.389 9.61703 10.196 9.7569 10.0445 9.90247C9.89607 10.048 9.78471 10.2165 9.71047 10.4077C9.6392 10.599 9.60208 10.8344 9.59911 11.1142V11.2598H7.91091ZM8.79287 14C8.49592 14 8.24202 13.9001 8.03118 13.7003C7.82331 13.4976 7.72086 13.255 7.72383 12.9724C7.72086 12.6927 7.82331 12.4529 8.03118 12.2531C8.24202 12.0533 8.49592 11.9534 8.79287 11.9534C9.07498 11.9534 9.32294 12.0533 9.53675 12.2531C9.75056 12.4529 9.85895 12.6927 9.86192 12.9724C9.85895 13.1608 9.80698 13.3335 9.70601 13.4905C9.60802 13.6446 9.47884 13.7688 9.31849 13.863C9.15813 13.9543 8.98292 14 8.79287 14Z" fill="#6D6D6D"/>
</svg>
